# Tiled2Unity generated file. Do not modify by hand.
# Wavefront file for '1_1_Module24_mesh_0002.obj'

# Vertices (Count = 768)
v -72 -16 0
v -80 -16 0
v -80 -8 0
v -72 -8 0
v -80 -16 0
v -88 -16 0
v -88 -8 0
v -80 -8 0
v -88 -16 0
v -96 -16 0
v -96 -8 0
v -88 -8 0
v -152 -16 0
v -160 -16 0
v -160 -8 0
v -152 -8 0
v -160 -16 0
v -168 -16 0
v -168 -8 0
v -160 -8 0
v -168 -16 0
v -176 -16 0
v -176 -8 0
v -168 -8 0
v -184 -16 0
v -192 -16 0
v -192 -8 0
v -184 -8 0
v -192 -16 0
v -200 -16 0
v -200 -8 0
v -192 -8 0
v -200 -16 0
v -208 -16 0
v -208 -8 0
v -200 -8 0
v -304 -16 0
v -312 -16 0
v -312 -8 0
v -304 -8 0
v -312 -16 0
v -320 -16 0
v -320 -8 0
v -312 -8 0
v -320 -16 0
v -328 -16 0
v -328 -8 0
v -320 -8 0
v -336 -16 0
v -344 -16 0
v -344 -8 0
v -336 -8 0
v -344 -16 0
v -352 -16 0
v -352 -8 0
v -344 -8 0
v -352 -16 0
v -360 -16 0
v -360 -8 0
v -352 -8 0
v -416 -16 0
v -424 -16 0
v -424 -8 0
v -416 -8 0
v -424 -16 0
v -432 -16 0
v -432 -8 0
v -424 -8 0
v -432 -16 0
v -440 -16 0
v -440 -8 0
v -432 -8 0
v -80 -24 0
v -88 -24 0
v -88 -16 0
v -80 -16 0
v -88 -24 0
v -96 -24 0
v -96 -16 0
v -88 -16 0
v -96 -24 0
v -104 -24 0
v -104 -16 0
v -96 -16 0
v -160 -24 0
v -168 -24 0
v -168 -16 0
v -160 -16 0
v -168 -24 0
v -176 -24 0
v -176 -16 0
v -168 -16 0
v -176 -24 0
v -184 -24 0
v -184 -16 0
v -176 -16 0
v -192 -24 0
v -200 -24 0
v -200 -16 0
v -192 -16 0
v -200 -24 0
v -208 -24 0
v -208 -16 0
v -200 -16 0
v -208 -24 0
v -216 -24 0
v -216 -16 0
v -208 -16 0
v -296 -24 0
v -304 -24 0
v -304 -16 0
v -296 -16 0
v -304 -24 0
v -312 -24 0
v -312 -16 0
v -304 -16 0
v -312 -24 0
v -320 -24 0
v -320 -16 0
v -312 -16 0
v -328 -24 0
v -336 -24 0
v -336 -16 0
v -328 -16 0
v -336 -24 0
v -344 -24 0
v -344 -16 0
v -336 -16 0
v -344 -24 0
v -352 -24 0
v -352 -16 0
v -344 -16 0
v -408 -24 0
v -416 -24 0
v -416 -16 0
v -408 -16 0
v -416 -24 0
v -424 -24 0
v -424 -16 0
v -416 -16 0
v -424 -24 0
v -432 -24 0
v -432 -16 0
v -424 -16 0
v -88 -32 0
v -96 -32 0
v -96 -24 0
v -88 -24 0
v -96 -32 0
v -104 -32 0
v -104 -24 0
v -96 -24 0
v -104 -32 0
v -112 -32 0
v -112 -24 0
v -104 -24 0
v -168 -32 0
v -176 -32 0
v -176 -24 0
v -168 -24 0
v -176 -32 0
v -184 -32 0
v -184 -24 0
v -176 -24 0
v -184 -32 0
v -192 -32 0
v -192 -24 0
v -184 -24 0
v -200 -32 0
v -208 -32 0
v -208 -24 0
v -200 -24 0
v -208 -32 0
v -216 -32 0
v -216 -24 0
v -208 -24 0
v -216 -32 0
v -224 -32 0
v -224 -24 0
v -216 -24 0
v -288 -32 0
v -296 -32 0
v -296 -24 0
v -288 -24 0
v -296 -32 0
v -304 -32 0
v -304 -24 0
v -296 -24 0
v -304 -32 0
v -312 -32 0
v -312 -24 0
v -304 -24 0
v -320 -32 0
v -328 -32 0
v -328 -24 0
v -320 -24 0
v -328 -32 0
v -336 -32 0
v -336 -24 0
v -328 -24 0
v -336 -32 0
v -344 -32 0
v -344 -24 0
v -336 -24 0
v -400 -32 0
v -408 -32 0
v -408 -24 0
v -400 -24 0
v -408 -32 0
v -416 -32 0
v -416 -24 0
v -408 -24 0
v -416 -32 0
v -424 -32 0
v -424 -24 0
v -416 -24 0
v -96 -40 0
v -104 -40 0
v -104 -32 0
v -96 -32 0
v -104 -40 0
v -112 -40 0
v -112 -32 0
v -104 -32 0
v -112 -40 0
v -120 -40 0
v -120 -32 0
v -112 -32 0
v -176 -40 0
v -184 -40 0
v -184 -32 0
v -176 -32 0
v -184 -40 0
v -192 -40 0
v -192 -32 0
v -184 -32 0
v -192 -40 0
v -200 -40 0
v -200 -32 0
v -192 -32 0
v -208 -40 0
v -216 -40 0
v -216 -32 0
v -208 -32 0
v -216 -40 0
v -224 -40 0
v -224 -32 0
v -216 -32 0
v -224 -40 0
v -232 -40 0
v -232 -32 0
v -224 -32 0
v -280 -40 0
v -288 -40 0
v -288 -32 0
v -280 -32 0
v -288 -40 0
v -296 -40 0
v -296 -32 0
v -288 -32 0
v -296 -40 0
v -304 -40 0
v -304 -32 0
v -296 -32 0
v -312 -40 0
v -320 -40 0
v -320 -32 0
v -312 -32 0
v -320 -40 0
v -328 -40 0
v -328 -32 0
v -320 -32 0
v -328 -40 0
v -336 -40 0
v -336 -32 0
v -328 -32 0
v -392 -40 0
v -400 -40 0
v -400 -32 0
v -392 -32 0
v -400 -40 0
v -408 -40 0
v -408 -32 0
v -400 -32 0
v -408 -40 0
v -416 -40 0
v -416 -32 0
v -408 -32 0
v -104 -48 0
v -112 -48 0
v -112 -40 0
v -104 -40 0
v -112 -48 0
v -120 -48 0
v -120 -40 0
v -112 -40 0
v -120 -48 0
v -128 -48 0
v -128 -40 0
v -120 -40 0
v -184 -48 0
v -192 -48 0
v -192 -40 0
v -184 -40 0
v -192 -48 0
v -200 -48 0
v -200 -40 0
v -192 -40 0
v -200 -48 0
v -208 -48 0
v -208 -40 0
v -200 -40 0
v -216 -48 0
v -224 -48 0
v -224 -40 0
v -216 -40 0
v -224 -48 0
v -232 -48 0
v -232 -40 0
v -224 -40 0
v -232 -48 0
v -240 -48 0
v -240 -40 0
v -232 -40 0
v -272 -48 0
v -280 -48 0
v -280 -40 0
v -272 -40 0
v -280 -48 0
v -288 -48 0
v -288 -40 0
v -280 -40 0
v -288 -48 0
v -296 -48 0
v -296 -40 0
v -288 -40 0
v -304 -48 0
v -312 -48 0
v -312 -40 0
v -304 -40 0
v -312 -48 0
v -320 -48 0
v -320 -40 0
v -312 -40 0
v -320 -48 0
v -328 -48 0
v -328 -40 0
v -320 -40 0
v -384 -48 0
v -392 -48 0
v -392 -40 0
v -384 -40 0
v -392 -48 0
v -400 -48 0
v -400 -40 0
v -392 -40 0
v -400 -48 0
v -408 -48 0
v -408 -40 0
v -400 -40 0
v -112 -56 0
v -120 -56 0
v -120 -48 0
v -112 -48 0
v -120 -56 0
v -128 -56 0
v -128 -48 0
v -120 -48 0
v -128 -56 0
v -136 -56 0
v -136 -48 0
v -128 -48 0
v -192 -56 0
v -200 -56 0
v -200 -48 0
v -192 -48 0
v -200 -56 0
v -208 -56 0
v -208 -48 0
v -200 -48 0
v -208 -56 0
v -216 -56 0
v -216 -48 0
v -208 -48 0
v -216 -56 0
v -224 -56 0
v -224 -48 0
v -216 -48 0
v -224 -56 0
v -232 -56 0
v -232 -48 0
v -224 -48 0
v -232 -56 0
v -240 -56 0
v -240 -48 0
v -232 -48 0
v -272 -56 0
v -280 -56 0
v -280 -48 0
v -272 -48 0
v -280 -56 0
v -288 -56 0
v -288 -48 0
v -280 -48 0
v -288 -56 0
v -296 -56 0
v -296 -48 0
v -288 -48 0
v -296 -56 0
v -304 -56 0
v -304 -48 0
v -296 -48 0
v -304 -56 0
v -312 -56 0
v -312 -48 0
v -304 -48 0
v -312 -56 0
v -320 -56 0
v -320 -48 0
v -312 -48 0
v -376 -56 0
v -384 -56 0
v -384 -48 0
v -376 -48 0
v -384 -56 0
v -392 -56 0
v -392 -48 0
v -384 -48 0
v -392 -56 0
v -400 -56 0
v -400 -48 0
v -392 -48 0
v -120 -64 0
v -128 -64 0
v -128 -56 0
v -120 -56 0
v -128 -64 0
v -136 -64 0
v -136 -56 0
v -128 -56 0
v -136 -64 0
v -144 -64 0
v -144 -56 0
v -136 -56 0
v -184 -64 0
v -192 -64 0
v -192 -56 0
v -184 -56 0
v -192 -64 0
v -200 -64 0
v -200 -56 0
v -192 -56 0
v -200 -64 0
v -208 -64 0
v -208 -56 0
v -200 -56 0
v -216 -64 0
v -224 -64 0
v -224 -56 0
v -216 -56 0
v -224 -64 0
v -232 -64 0
v -232 -56 0
v -224 -56 0
v -232 -64 0
v -240 -64 0
v -240 -56 0
v -232 -56 0
v -272 -64 0
v -280 -64 0
v -280 -56 0
v -272 -56 0
v -280 -64 0
v -288 -64 0
v -288 -56 0
v -280 -56 0
v -288 -64 0
v -296 -64 0
v -296 -56 0
v -288 -56 0
v -304 -64 0
v -312 -64 0
v -312 -56 0
v -304 -56 0
v -312 -64 0
v -320 -64 0
v -320 -56 0
v -312 -56 0
v -320 -64 0
v -328 -64 0
v -328 -56 0
v -320 -56 0
v -368 -64 0
v -376 -64 0
v -376 -56 0
v -368 -56 0
v -376 -64 0
v -384 -64 0
v -384 -56 0
v -376 -56 0
v -384 -64 0
v -392 -64 0
v -392 -56 0
v -384 -56 0
v -128 -72 0
v -136 -72 0
v -136 -64 0
v -128 -64 0
v -136 -72 0
v -144 -72 0
v -144 -64 0
v -136 -64 0
v -144 -72 0
v -152 -72 0
v -152 -64 0
v -144 -64 0
v -176 -72 0
v -184 -72 0
v -184 -64 0
v -176 -64 0
v -184 -72 0
v -192 -72 0
v -192 -64 0
v -184 -64 0
v -192 -72 0
v -200 -72 0
v -200 -64 0
v -192 -64 0
v -208 -72 0
v -216 -72 0
v -216 -64 0
v -208 -64 0
v -216 -72 0
v -224 -72 0
v -224 -64 0
v -216 -64 0
v -224 -72 0
v -232 -72 0
v -232 -64 0
v -224 -64 0
v -280 -72 0
v -288 -72 0
v -288 -64 0
v -280 -64 0
v -288 -72 0
v -296 -72 0
v -296 -64 0
v -288 -64 0
v -296 -72 0
v -304 -72 0
v -304 -64 0
v -296 -64 0
v -312 -72 0
v -320 -72 0
v -320 -64 0
v -312 -64 0
v -320 -72 0
v -328 -72 0
v -328 -64 0
v -320 -64 0
v -328 -72 0
v -336 -72 0
v -336 -64 0
v -328 -64 0
v -360 -72 0
v -368 -72 0
v -368 -64 0
v -360 -64 0
v -368 -72 0
v -376 -72 0
v -376 -64 0
v -368 -64 0
v -376 -72 0
v -384 -72 0
v -384 -64 0
v -376 -64 0
v -136 -80 0
v -144 -80 0
v -144 -72 0
v -136 -72 0
v -144 -80 0
v -152 -80 0
v -152 -72 0
v -144 -72 0
v -152 -80 0
v -160 -80 0
v -160 -72 0
v -152 -72 0
v -168 -80 0
v -176 -80 0
v -176 -72 0
v -168 -72 0
v -176 -80 0
v -184 -80 0
v -184 -72 0
v -176 -72 0
v -184 -80 0
v -192 -80 0
v -192 -72 0
v -184 -72 0
v -200 -80 0
v -208 -80 0
v -208 -72 0
v -200 -72 0
v -208 -80 0
v -216 -80 0
v -216 -72 0
v -208 -72 0
v -216 -80 0
v -224 -80 0
v -224 -72 0
v -216 -72 0
v -288 -80 0
v -296 -80 0
v -296 -72 0
v -288 -72 0
v -296 -80 0
v -304 -80 0
v -304 -72 0
v -296 -72 0
v -304 -80 0
v -312 -80 0
v -312 -72 0
v -304 -72 0
v -320 -80 0
v -328 -80 0
v -328 -72 0
v -320 -72 0
v -328 -80 0
v -336 -80 0
v -336 -72 0
v -328 -72 0
v -336 -80 0
v -344 -80 0
v -344 -72 0
v -336 -72 0
v -352 -80 0
v -360 -80 0
v -360 -72 0
v -352 -72 0
v -360 -80 0
v -368 -80 0
v -368 -72 0
v -360 -72 0
v -368 -80 0
v -376 -80 0
v -376 -72 0
v -368 -72 0
v -144 -88 0
v -152 -88 0
v -152 -80 0
v -144 -80 0
v -152 -88 0
v -160 -88 0
v -160 -80 0
v -152 -80 0
v -160 -88 0
v -168 -88 0
v -168 -80 0
v -160 -80 0
v -168 -88 0
v -176 -88 0
v -176 -80 0
v -168 -80 0
v -176 -88 0
v -184 -88 0
v -184 -80 0
v -176 -80 0
v -192 -88 0
v -200 -88 0
v -200 -80 0
v -192 -80 0
v -200 -88 0
v -208 -88 0
v -208 -80 0
v -200 -80 0
v -208 -88 0
v -216 -88 0
v -216 -80 0
v -208 -80 0
v -296 -88 0
v -304 -88 0
v -304 -80 0
v -296 -80 0
v -304 -88 0
v -312 -88 0
v -312 -80 0
v -304 -80 0
v -312 -88 0
v -320 -88 0
v -320 -80 0
v -312 -80 0
v -328 -88 0
v -336 -88 0
v -336 -80 0
v -328 -80 0
v -336 -88 0
v -344 -88 0
v -344 -80 0
v -336 -80 0
v -344 -88 0
v -352 -88 0
v -352 -80 0
v -344 -80 0
v -352 -88 0
v -360 -88 0
v -360 -80 0
v -352 -80 0
v -360 -88 0
v -368 -88 0
v -368 -80 0
v -360 -80 0
v -152 -96 0
v -160 -96 0
v -160 -88 0
v -152 -88 0
v -160 -96 0
v -168 -96 0
v -168 -88 0
v -160 -88 0
v -168 -96 0
v -176 -96 0
v -176 -88 0
v -168 -88 0
v -176 -96 0
v -184 -96 0
v -184 -88 0
v -176 -88 0
v -184 -96 0
v -192 -96 0
v -192 -88 0
v -184 -88 0
v -192 -96 0
v -200 -96 0
v -200 -88 0
v -192 -88 0
v -200 -96 0
v -208 -96 0
v -208 -88 0
v -200 -88 0
v -304 -96 0
v -312 -96 0
v -312 -88 0
v -304 -88 0
v -312 -96 0
v -320 -96 0
v -320 -88 0
v -312 -88 0
v -320 -96 0
v -328 -96 0
v -328 -88 0
v -320 -88 0
v -328 -96 0
v -336 -96 0
v -336 -88 0
v -328 -88 0
v -336 -96 0
v -344 -96 0
v -344 -88 0
v -336 -88 0
v -344 -96 0
v -352 -96 0
v -352 -88 0
v -344 -88 0
v -352 -96 0
v -360 -96 0
v -360 -88 0
v -352 -88 0

# Texture cooridinates (Count = 16)
vt 0 0
vt 0.3333333 0
vt 0.3333333 0.3333333
vt 0 0.3333333
vt 0.3333333 0.6666666
vt 0.6666667 0.6666666
vt 0.6666667 1
vt 0.3333333 1
vt 1 0.6666666
vt 1 1
vt 0 0.6666666
vt 0 1
vt 0.6666667 0
vt 1 0
vt 1 0.3333333
vt 0.6666667 0.3333333

# Normal
vn 0 0 -1

# Mesh description
g 1_1_Module24_mesh_0002

# Faces
f 1/1/1 2/2/1 3/3/1 4/4/1
f 5/5/1 6/6/1 7/7/1 8/8/1
f 9/6/1 10/9/1 11/10/1 12/7/1
f 13/1/1 14/2/1 15/3/1 16/4/1
f 17/5/1 18/6/1 19/7/1 20/8/1
f 21/6/1 22/9/1 23/10/1 24/7/1
f 25/1/1 26/2/1 27/3/1 28/4/1
f 29/5/1 30/6/1 31/7/1 32/8/1
f 33/6/1 34/9/1 35/10/1 36/7/1
f 37/11/1 38/5/1 39/8/1 40/12/1
f 41/5/1 42/6/1 43/7/1 44/8/1
f 45/13/1 46/14/1 47/15/1 48/16/1
f 49/11/1 50/5/1 51/8/1 52/12/1
f 53/5/1 54/6/1 55/7/1 56/8/1
f 57/13/1 58/14/1 59/15/1 60/16/1
f 61/11/1 62/5/1 63/8/1 64/12/1
f 65/5/1 66/6/1 67/7/1 68/8/1
f 69/13/1 70/14/1 71/15/1 72/16/1
f 73/1/1 74/2/1 75/3/1 76/4/1
f 77/5/1 78/6/1 79/7/1 80/8/1
f 81/6/1 82/9/1 83/10/1 84/7/1
f 85/1/1 86/2/1 87/3/1 88/4/1
f 89/5/1 90/6/1 91/7/1 92/8/1
f 93/6/1 94/9/1 95/10/1 96/7/1
f 97/1/1 98/2/1 99/3/1 100/4/1
f 101/5/1 102/6/1 103/7/1 104/8/1
f 105/6/1 106/9/1 107/10/1 108/7/1
f 109/11/1 110/5/1 111/8/1 112/12/1
f 113/5/1 114/6/1 115/7/1 116/8/1
f 117/13/1 118/14/1 119/15/1 120/16/1
f 121/11/1 122/5/1 123/8/1 124/12/1
f 125/5/1 126/6/1 127/7/1 128/8/1
f 129/13/1 130/14/1 131/15/1 132/16/1
f 133/11/1 134/5/1 135/8/1 136/12/1
f 137/5/1 138/6/1 139/7/1 140/8/1
f 141/13/1 142/14/1 143/15/1 144/16/1
f 145/1/1 146/2/1 147/3/1 148/4/1
f 149/5/1 150/6/1 151/7/1 152/8/1
f 153/6/1 154/9/1 155/10/1 156/7/1
f 157/1/1 158/2/1 159/3/1 160/4/1
f 161/5/1 162/6/1 163/7/1 164/8/1
f 165/6/1 166/9/1 167/10/1 168/7/1
f 169/1/1 170/2/1 171/3/1 172/4/1
f 173/5/1 174/6/1 175/7/1 176/8/1
f 177/6/1 178/9/1 179/10/1 180/7/1
f 181/11/1 182/5/1 183/8/1 184/12/1
f 185/5/1 186/6/1 187/7/1 188/8/1
f 189/13/1 190/14/1 191/15/1 192/16/1
f 193/11/1 194/5/1 195/8/1 196/12/1
f 197/5/1 198/6/1 199/7/1 200/8/1
f 201/13/1 202/14/1 203/15/1 204/16/1
f 205/11/1 206/5/1 207/8/1 208/12/1
f 209/5/1 210/6/1 211/7/1 212/8/1
f 213/13/1 214/14/1 215/15/1 216/16/1
f 217/1/1 218/2/1 219/3/1 220/4/1
f 221/5/1 222/6/1 223/7/1 224/8/1
f 225/6/1 226/9/1 227/10/1 228/7/1
f 229/1/1 230/2/1 231/3/1 232/4/1
f 233/5/1 234/6/1 235/7/1 236/8/1
f 237/6/1 238/9/1 239/10/1 240/7/1
f 241/1/1 242/2/1 243/3/1 244/4/1
f 245/5/1 246/6/1 247/7/1 248/8/1
f 249/6/1 250/9/1 251/10/1 252/7/1
f 253/11/1 254/5/1 255/8/1 256/12/1
f 257/5/1 258/6/1 259/7/1 260/8/1
f 261/13/1 262/14/1 263/15/1 264/16/1
f 265/11/1 266/5/1 267/8/1 268/12/1
f 269/5/1 270/6/1 271/7/1 272/8/1
f 273/13/1 274/14/1 275/15/1 276/16/1
f 277/11/1 278/5/1 279/8/1 280/12/1
f 281/5/1 282/6/1 283/7/1 284/8/1
f 285/13/1 286/14/1 287/15/1 288/16/1
f 289/1/1 290/2/1 291/3/1 292/4/1
f 293/5/1 294/6/1 295/7/1 296/8/1
f 297/6/1 298/9/1 299/10/1 300/7/1
f 301/1/1 302/2/1 303/3/1 304/4/1
f 305/5/1 306/6/1 307/7/1 308/8/1
f 309/6/1 310/9/1 311/10/1 312/7/1
f 313/1/1 314/2/1 315/3/1 316/4/1
f 317/5/1 318/6/1 319/7/1 320/8/1
f 321/6/1 322/9/1 323/10/1 324/7/1
f 325/11/1 326/5/1 327/8/1 328/12/1
f 329/5/1 330/6/1 331/7/1 332/8/1
f 333/13/1 334/14/1 335/15/1 336/16/1
f 337/11/1 338/5/1 339/8/1 340/12/1
f 341/5/1 342/6/1 343/7/1 344/8/1
f 345/13/1 346/14/1 347/15/1 348/16/1
f 349/11/1 350/5/1 351/8/1 352/12/1
f 353/5/1 354/6/1 355/7/1 356/8/1
f 357/13/1 358/14/1 359/15/1 360/16/1
f 361/1/1 362/2/1 363/3/1 364/4/1
f 365/5/1 366/6/1 367/7/1 368/8/1
f 369/6/1 370/9/1 371/10/1 372/7/1
f 373/5/1 374/6/1 375/7/1 376/8/1
f 377/5/1 378/6/1 379/7/1 380/8/1
f 381/5/1 382/6/1 383/7/1 384/8/1
f 385/5/1 386/6/1 387/7/1 388/8/1
f 389/5/1 390/6/1 391/7/1 392/8/1
f 393/5/1 394/6/1 395/7/1 396/8/1
f 397/5/1 398/6/1 399/7/1 400/8/1
f 401/5/1 402/6/1 403/7/1 404/8/1
f 405/5/1 406/6/1 407/7/1 408/8/1
f 409/5/1 410/6/1 411/7/1 412/8/1
f 413/5/1 414/6/1 415/7/1 416/8/1
f 417/5/1 418/6/1 419/7/1 420/8/1
f 421/11/1 422/5/1 423/8/1 424/12/1
f 425/5/1 426/6/1 427/7/1 428/8/1
f 429/13/1 430/14/1 431/15/1 432/16/1
f 433/1/1 434/2/1 435/3/1 436/4/1
f 437/5/1 438/6/1 439/7/1 440/8/1
f 441/6/1 442/9/1 443/10/1 444/7/1
f 445/11/1 446/5/1 447/8/1 448/12/1
f 449/5/1 450/6/1 451/7/1 452/8/1
f 453/13/1 454/14/1 455/15/1 456/16/1
f 457/11/1 458/5/1 459/8/1 460/12/1
f 461/5/1 462/6/1 463/7/1 464/8/1
f 465/13/1 466/14/1 467/15/1 468/16/1
f 469/1/1 470/2/1 471/3/1 472/4/1
f 473/5/1 474/6/1 475/7/1 476/8/1
f 477/6/1 478/9/1 479/10/1 480/7/1
f 481/1/1 482/2/1 483/3/1 484/4/1
f 485/5/1 486/6/1 487/7/1 488/8/1
f 489/6/1 490/9/1 491/10/1 492/7/1
f 493/11/1 494/5/1 495/8/1 496/12/1
f 497/5/1 498/6/1 499/7/1 500/8/1
f 501/13/1 502/14/1 503/15/1 504/16/1
f 505/1/1 506/2/1 507/3/1 508/4/1
f 509/5/1 510/6/1 511/7/1 512/8/1
f 513/6/1 514/9/1 515/10/1 516/7/1
f 517/11/1 518/5/1 519/8/1 520/12/1
f 521/5/1 522/6/1 523/7/1 524/8/1
f 525/13/1 526/14/1 527/15/1 528/16/1
f 529/11/1 530/5/1 531/8/1 532/12/1
f 533/5/1 534/6/1 535/7/1 536/8/1
f 537/13/1 538/14/1 539/15/1 540/16/1
f 541/1/1 542/2/1 543/3/1 544/4/1
f 545/5/1 546/6/1 547/7/1 548/8/1
f 549/6/1 550/9/1 551/10/1 552/7/1
f 553/1/1 554/2/1 555/3/1 556/4/1
f 557/5/1 558/6/1 559/7/1 560/8/1
f 561/6/1 562/9/1 563/10/1 564/7/1
f 565/11/1 566/5/1 567/8/1 568/12/1
f 569/5/1 570/6/1 571/7/1 572/8/1
f 573/13/1 574/14/1 575/15/1 576/16/1
f 577/1/1 578/2/1 579/3/1 580/4/1
f 581/5/1 582/6/1 583/7/1 584/8/1
f 585/6/1 586/9/1 587/10/1 588/7/1
f 589/11/1 590/5/1 591/8/1 592/12/1
f 593/5/1 594/6/1 595/7/1 596/8/1
f 597/13/1 598/14/1 599/15/1 600/16/1
f 601/11/1 602/5/1 603/8/1 604/12/1
f 605/5/1 606/6/1 607/7/1 608/8/1
f 609/13/1 610/14/1 611/15/1 612/16/1
f 613/1/1 614/2/1 615/3/1 616/4/1
f 617/5/1 618/6/1 619/7/1 620/8/1
f 621/6/1 622/9/1 623/10/1 624/7/1
f 625/1/1 626/2/1 627/3/1 628/4/1
f 629/5/1 630/6/1 631/7/1 632/8/1
f 633/6/1 634/9/1 635/10/1 636/7/1
f 637/11/1 638/5/1 639/8/1 640/12/1
f 641/5/1 642/6/1 643/7/1 644/8/1
f 645/13/1 646/14/1 647/15/1 648/16/1
f 649/1/1 650/2/1 651/3/1 652/4/1
f 653/5/1 654/6/1 655/7/1 656/8/1
f 657/5/1 658/6/1 659/7/1 660/8/1
f 661/5/1 662/6/1 663/7/1 664/8/1
f 665/13/1 666/14/1 667/15/1 668/16/1
f 669/11/1 670/5/1 671/8/1 672/12/1
f 673/5/1 674/6/1 675/7/1 676/8/1
f 677/13/1 678/14/1 679/15/1 680/16/1
f 681/1/1 682/2/1 683/3/1 684/4/1
f 685/5/1 686/6/1 687/7/1 688/8/1
f 689/6/1 690/9/1 691/10/1 692/7/1
f 693/1/1 694/2/1 695/3/1 696/4/1
f 697/5/1 698/6/1 699/7/1 700/8/1
f 701/5/1 702/6/1 703/7/1 704/8/1
f 705/5/1 706/6/1 707/7/1 708/8/1
f 709/13/1 710/14/1 711/15/1 712/16/1
f 713/1/1 714/2/1 715/3/1 716/4/1
f 717/5/1 718/6/1 719/7/1 720/8/1
f 721/5/1 722/6/1 723/7/1 724/8/1
f 725/5/1 726/6/1 727/7/1 728/8/1
f 729/5/1 730/6/1 731/7/1 732/8/1
f 733/5/1 734/6/1 735/7/1 736/8/1
f 737/13/1 738/14/1 739/15/1 740/16/1
f 741/1/1 742/2/1 743/3/1 744/4/1
f 745/5/1 746/6/1 747/7/1 748/8/1
f 749/5/1 750/6/1 751/7/1 752/8/1
f 753/5/1 754/6/1 755/7/1 756/8/1
f 757/5/1 758/6/1 759/7/1 760/8/1
f 761/5/1 762/6/1 763/7/1 764/8/1
f 765/13/1 766/14/1 767/15/1 768/16/1

