# Tiled2Unity generated file. Do not modify by hand.
# Wavefront file for '1_2_1_mesh_0001.obj'

# Vertices (Count = 444)
v -264 -8 0
v -272 -8 0
v -272 0 0
v -264 0 0
v -272 -8 0
v -280 -8 0
v -280 0 0
v -272 0 0
v -280 -8 0
v -288 -8 0
v -288 0 0
v -280 0 0
v -48 -16 0
v -56 -16 0
v -56 -8 0
v -48 -8 0
v -56 -16 0
v -64 -16 0
v -64 -8 0
v -56 -8 0
v -64 -16 0
v -72 -16 0
v -72 -8 0
v -64 -8 0
v -264 -16 0
v -272 -16 0
v -272 -8 0
v -264 -8 0
v -272 -16 0
v -280 -16 0
v -280 -8 0
v -272 -8 0
v -280 -16 0
v -288 -16 0
v -288 -8 0
v -280 -8 0
v -48 -24 0
v -56 -24 0
v -56 -16 0
v -48 -16 0
v -56 -24 0
v -64 -24 0
v -64 -16 0
v -56 -16 0
v -64 -24 0
v -72 -24 0
v -72 -16 0
v -64 -16 0
v -264 -24 0
v -272 -24 0
v -272 -16 0
v -264 -16 0
v -272 -24 0
v -280 -24 0
v -280 -16 0
v -272 -16 0
v -280 -24 0
v -288 -24 0
v -288 -16 0
v -280 -16 0
v -48 -32 0
v -56 -32 0
v -56 -24 0
v -48 -24 0
v -56 -32 0
v -64 -32 0
v -64 -24 0
v -56 -24 0
v -64 -32 0
v -72 -32 0
v -72 -24 0
v -64 -24 0
v -264 -32 0
v -272 -32 0
v -272 -24 0
v -264 -24 0
v -272 -32 0
v -280 -32 0
v -280 -24 0
v -272 -24 0
v -280 -32 0
v -288 -32 0
v -288 -24 0
v -280 -24 0
v -48 -40 0
v -56 -40 0
v -56 -32 0
v -48 -32 0
v -56 -40 0
v -64 -40 0
v -64 -32 0
v -56 -32 0
v -64 -40 0
v -72 -40 0
v -72 -32 0
v -64 -32 0
v -264 -40 0
v -272 -40 0
v -272 -32 0
v -264 -32 0
v -272 -40 0
v -280 -40 0
v -280 -32 0
v -272 -32 0
v -280 -40 0
v -288 -40 0
v -288 -32 0
v -280 -32 0
v -48 -48 0
v -56 -48 0
v -56 -40 0
v -48 -40 0
v -56 -48 0
v -64 -48 0
v -64 -40 0
v -56 -40 0
v -64 -48 0
v -72 -48 0
v -72 -40 0
v -64 -40 0
v -264 -48 0
v -272 -48 0
v -272 -40 0
v -264 -40 0
v -272 -48 0
v -280 -48 0
v -280 -40 0
v -272 -40 0
v -280 -48 0
v -288 -48 0
v -288 -40 0
v -280 -40 0
v -48 -56 0
v -56 -56 0
v -56 -48 0
v -48 -48 0
v -56 -56 0
v -64 -56 0
v -64 -48 0
v -56 -48 0
v -64 -56 0
v -72 -56 0
v -72 -48 0
v -64 -48 0
v -48 -64 0
v -56 -64 0
v -56 -56 0
v -48 -56 0
v -56 -64 0
v -64 -64 0
v -64 -56 0
v -56 -56 0
v -64 -64 0
v -72 -64 0
v -72 -56 0
v -64 -56 0
v -48 -72 0
v -56 -72 0
v -56 -64 0
v -48 -64 0
v -56 -72 0
v -64 -72 0
v -64 -64 0
v -56 -64 0
v -64 -72 0
v -72 -72 0
v -72 -64 0
v -64 -64 0
v -384 -72 0
v -392 -72 0
v -392 -64 0
v -384 -64 0
v -392 -72 0
v -400 -72 0
v -400 -64 0
v -392 -64 0
v -400 -72 0
v -408 -72 0
v -408 -64 0
v -400 -64 0
v -408 -72 0
v -416 -72 0
v -416 -64 0
v -408 -64 0
v -416 -72 0
v -424 -72 0
v -424 -64 0
v -416 -64 0
v -424 -72 0
v -432 -72 0
v -432 -64 0
v -424 -64 0
v -432 -72 0
v -440 -72 0
v -440 -64 0
v -432 -64 0
v -440 -72 0
v -448 -72 0
v -448 -64 0
v -440 -64 0
v -448 -72 0
v -456 -72 0
v -456 -64 0
v -448 -64 0
v -456 -72 0
v -464 -72 0
v -464 -64 0
v -456 -64 0
v -464 -72 0
v -472 -72 0
v -472 -64 0
v -464 -64 0
v -472 -72 0
v -480 -72 0
v -480 -64 0
v -472 -64 0
v -48 -80 0
v -56 -80 0
v -56 -72 0
v -48 -72 0
v -56 -80 0
v -64 -80 0
v -64 -72 0
v -56 -72 0
v -64 -80 0
v -72 -80 0
v -72 -72 0
v -64 -72 0
v -384 -80 0
v -392 -80 0
v -392 -72 0
v -384 -72 0
v -392 -80 0
v -400 -80 0
v -400 -72 0
v -392 -72 0
v -400 -80 0
v -408 -80 0
v -408 -72 0
v -400 -72 0
v -408 -80 0
v -416 -80 0
v -416 -72 0
v -408 -72 0
v -416 -80 0
v -424 -80 0
v -424 -72 0
v -416 -72 0
v -424 -80 0
v -432 -80 0
v -432 -72 0
v -424 -72 0
v -432 -80 0
v -440 -80 0
v -440 -72 0
v -432 -72 0
v -440 -80 0
v -448 -80 0
v -448 -72 0
v -440 -72 0
v -448 -80 0
v -456 -80 0
v -456 -72 0
v -448 -72 0
v -456 -80 0
v -464 -80 0
v -464 -72 0
v -456 -72 0
v -464 -80 0
v -472 -80 0
v -472 -72 0
v -464 -72 0
v -472 -80 0
v -480 -80 0
v -480 -72 0
v -472 -72 0
v -384 -88 0
v -392 -88 0
v -392 -80 0
v -384 -80 0
v -392 -88 0
v -400 -88 0
v -400 -80 0
v -392 -80 0
v -400 -88 0
v -408 -88 0
v -408 -80 0
v -400 -80 0
v -408 -88 0
v -416 -88 0
v -416 -80 0
v -408 -80 0
v -416 -88 0
v -424 -88 0
v -424 -80 0
v -416 -80 0
v -424 -88 0
v -432 -88 0
v -432 -80 0
v -424 -80 0
v -432 -88 0
v -440 -88 0
v -440 -80 0
v -432 -80 0
v -440 -88 0
v -448 -88 0
v -448 -80 0
v -440 -80 0
v -448 -88 0
v -456 -88 0
v -456 -80 0
v -448 -80 0
v -456 -88 0
v -464 -88 0
v -464 -80 0
v -456 -80 0
v -464 -88 0
v -472 -88 0
v -472 -80 0
v -464 -80 0
v -472 -88 0
v -480 -88 0
v -480 -80 0
v -472 -80 0
v -384 -96 0
v -392 -96 0
v -392 -88 0
v -384 -88 0
v -392 -96 0
v -400 -96 0
v -400 -88 0
v -392 -88 0
v -400 -96 0
v -408 -96 0
v -408 -88 0
v -400 -88 0
v -408 -96 0
v -416 -96 0
v -416 -88 0
v -408 -88 0
v -416 -96 0
v -424 -96 0
v -424 -88 0
v -416 -88 0
v -424 -96 0
v -432 -96 0
v -432 -88 0
v -424 -88 0
v -432 -96 0
v -440 -96 0
v -440 -88 0
v -432 -88 0
v -440 -96 0
v -448 -96 0
v -448 -88 0
v -440 -88 0
v -448 -96 0
v -456 -96 0
v -456 -88 0
v -448 -88 0
v -456 -96 0
v -464 -96 0
v -464 -88 0
v -456 -88 0
v -464 -96 0
v -472 -96 0
v -472 -88 0
v -464 -88 0
v -472 -96 0
v -480 -96 0
v -480 -88 0
v -472 -88 0
v -400 -104 0
v -408 -104 0
v -408 -96 0
v -400 -96 0
v -408 -104 0
v -416 -104 0
v -416 -96 0
v -408 -96 0
v -416 -104 0
v -424 -104 0
v -424 -96 0
v -416 -96 0
v -424 -104 0
v -432 -104 0
v -432 -96 0
v -424 -96 0
v -432 -104 0
v -440 -104 0
v -440 -96 0
v -432 -96 0
v -440 -104 0
v -448 -104 0
v -448 -96 0
v -440 -96 0
v -448 -104 0
v -456 -104 0
v -456 -96 0
v -448 -96 0
v -456 -104 0
v -464 -104 0
v -464 -96 0
v -456 -96 0
v -464 -104 0
v -472 -104 0
v -472 -96 0
v -464 -96 0
v -472 -104 0
v -480 -104 0
v -480 -96 0
v -472 -96 0
v -416 -112 0
v -424 -112 0
v -424 -104 0
v -416 -104 0
v -424 -112 0
v -432 -112 0
v -432 -104 0
v -424 -104 0
v -432 -112 0
v -440 -112 0
v -440 -104 0
v -432 -104 0
v -440 -112 0
v -448 -112 0
v -448 -104 0
v -440 -104 0
v -448 -112 0
v -456 -112 0
v -456 -104 0
v -448 -104 0
v -456 -112 0
v -464 -112 0
v -464 -104 0
v -456 -104 0
v -464 -112 0
v -472 -112 0
v -472 -104 0
v -464 -104 0
v -472 -112 0
v -480 -112 0
v -480 -104 0
v -472 -104 0

# Texture cooridinates (Count = 44)
vt 0.125 0.75
vt 0.25 0.75
vt 0.25 0.875
vt 0.125 0.875
vt 0 0.75
vt 0 0.875
vt 0.375 0.75
vt 0.375 0.875
vt 0.5 0.625
vt 0.625 0.625
vt 0.625 0.75
vt 0.5 0.75
vt 0.75 0.625
vt 0.75 0.75
vt 0.5 0.5
vt 0.625 0.5
vt 0.125 0.625
vt 0.25 0.625
vt 0.75 0.5
vt 0.125 1
vt 0 1
vt 0.25 1
vt 0.375 1
vt 0.5 0.875
vt 0.5 1
vt 0.5 0.375
vt 0.625 0.375
vt 0.75 0.375
vt 0.5 0.25
vt 0.625 0.25
vt 0.75 0.25
vt 0.5 0.125
vt 0.625 0.125
vt 0.75 0.125
vt 0.5 0
vt 0.625 0
vt 0.75 0
vt 0.875 0.125
vt 0.875 0.25
vt 1 0.125
vt 1 0.25
vt 0.375 0.625
vt 0.875 0
vt 1 0

# Normal
vn 0 0 -1

# Mesh description
g 1_2_1_mesh_0001

# Faces
f 1/1/1 2/2/1 3/3/1 4/4/1
f 5/1/1 6/2/1 7/3/1 8/4/1
f 9/1/1 10/2/1 11/3/1 12/4/1
f 13/5/1 14/1/1 15/4/1 16/6/1
f 17/1/1 18/2/1 19/3/1 20/4/1
f 21/2/1 22/7/1 23/8/1 24/3/1
f 25/5/1 26/1/1 27/4/1 28/6/1
f 29/1/1 30/2/1 31/3/1 32/4/1
f 33/2/1 34/7/1 35/8/1 36/3/1
f 37/5/1 38/1/1 39/4/1 40/6/1
f 41/1/1 42/2/1 43/3/1 44/4/1
f 45/2/1 46/7/1 47/8/1 48/3/1
f 49/5/1 50/1/1 51/4/1 52/6/1
f 53/1/1 54/2/1 55/3/1 56/4/1
f 57/2/1 58/7/1 59/8/1 60/3/1
f 61/5/1 62/1/1 63/4/1 64/6/1
f 65/1/1 66/2/1 67/3/1 68/4/1
f 69/2/1 70/7/1 71/8/1 72/3/1
f 73/5/1 74/1/1 75/4/1 76/6/1
f 77/1/1 78/2/1 79/3/1 80/4/1
f 81/2/1 82/7/1 83/8/1 84/3/1
f 85/5/1 86/1/1 87/4/1 88/6/1
f 89/1/1 90/2/1 91/3/1 92/4/1
f 93/2/1 94/7/1 95/8/1 96/3/1
f 97/9/1 98/10/1 99/11/1 100/12/1
f 101/1/1 102/2/1 103/3/1 104/4/1
f 105/10/1 106/13/1 107/14/1 108/11/1
f 109/5/1 110/1/1 111/4/1 112/6/1
f 113/1/1 114/2/1 115/3/1 116/4/1
f 117/2/1 118/7/1 119/8/1 120/3/1
f 121/15/1 122/16/1 123/10/1 124/9/1
f 125/17/1 126/18/1 127/2/1 128/1/1
f 129/16/1 130/19/1 131/13/1 132/10/1
f 133/5/1 134/1/1 135/4/1 136/6/1
f 137/1/1 138/2/1 139/3/1 140/4/1
f 141/2/1 142/7/1 143/8/1 144/3/1
f 145/5/1 146/1/1 147/4/1 148/6/1
f 149/1/1 150/2/1 151/3/1 152/4/1
f 153/2/1 154/7/1 155/8/1 156/3/1
f 157/9/1 158/10/1 159/11/1 160/12/1
f 161/1/1 162/2/1 163/3/1 164/4/1
f 165/10/1 166/13/1 167/14/1 168/11/1
f 169/6/1 170/4/1 171/20/1 172/21/1
f 173/4/1 174/3/1 175/22/1 176/20/1
f 177/3/1 178/8/1 179/23/1 180/22/1
f 181/8/1 182/24/1 183/25/1 184/23/1
f 185/6/1 186/4/1 187/20/1 188/21/1
f 189/4/1 190/3/1 191/22/1 192/20/1
f 193/3/1 194/8/1 195/23/1 196/22/1
f 197/8/1 198/24/1 199/25/1 200/23/1
f 201/6/1 202/4/1 203/20/1 204/21/1
f 205/4/1 206/3/1 207/22/1 208/20/1
f 209/26/1 210/27/1 211/16/1 212/15/1
f 213/27/1 214/28/1 215/19/1 216/16/1
f 217/15/1 218/16/1 219/10/1 220/9/1
f 221/17/1 222/18/1 223/2/1 224/1/1
f 225/16/1 226/19/1 227/13/1 228/10/1
f 229/5/1 230/1/1 231/4/1 232/6/1
f 233/1/1 234/2/1 235/3/1 236/4/1
f 237/2/1 238/7/1 239/8/1 240/3/1
f 241/7/1 242/12/1 243/24/1 244/8/1
f 245/5/1 246/1/1 247/4/1 248/6/1
f 249/1/1 250/2/1 251/3/1 252/4/1
f 253/2/1 254/7/1 255/8/1 256/3/1
f 257/7/1 258/12/1 259/24/1 260/8/1
f 261/5/1 262/1/1 263/4/1 264/6/1
f 265/1/1 266/2/1 267/3/1 268/4/1
f 269/29/1 270/30/1 271/27/1 272/26/1
f 273/30/1 274/31/1 275/28/1 276/27/1
f 277/32/1 278/33/1 279/30/1 280/29/1
f 281/33/1 282/34/1 283/31/1 284/30/1
f 285/2/1 286/7/1 287/8/1 288/3/1
f 289/7/1 290/12/1 291/24/1 292/8/1
f 293/5/1 294/1/1 295/4/1 296/6/1
f 297/1/1 298/2/1 299/3/1 300/4/1
f 301/2/1 302/7/1 303/8/1 304/3/1
f 305/5/1 306/1/1 307/4/1 308/6/1
f 309/5/1 310/1/1 311/4/1 312/6/1
f 313/1/1 314/2/1 315/3/1 316/4/1
f 317/2/1 318/7/1 319/8/1 320/3/1
f 321/7/1 322/12/1 323/24/1 324/8/1
f 325/35/1 326/36/1 327/33/1 328/32/1
f 329/36/1 330/37/1 331/34/1 332/33/1
f 333/32/1 334/33/1 335/30/1 336/29/1
f 337/33/1 338/34/1 339/31/1 340/30/1
f 341/1/1 342/2/1 343/3/1 344/4/1
f 345/33/1 346/34/1 347/31/1 348/30/1
f 349/1/1 350/2/1 351/3/1 352/4/1
f 353/1/1 354/2/1 355/3/1 356/4/1
f 357/1/1 358/2/1 359/3/1 360/4/1
f 361/1/1 362/2/1 363/3/1 364/4/1
f 365/1/1 366/2/1 367/3/1 368/4/1
f 369/1/1 370/2/1 371/3/1 372/4/1
f 373/35/1 374/36/1 375/33/1 376/32/1
f 377/36/1 378/37/1 379/34/1 380/33/1
f 381/32/1 382/33/1 383/30/1 384/29/1
f 385/33/1 386/34/1 387/31/1 388/30/1
f 389/1/1 390/2/1 391/3/1 392/4/1
f 393/1/1 394/2/1 395/3/1 396/4/1
f 397/1/1 398/2/1 399/3/1 400/4/1
f 401/1/1 402/2/1 403/3/1 404/4/1
f 405/34/1 406/38/1 407/39/1 408/31/1
f 409/38/1 410/40/1 411/41/1 412/39/1
f 413/35/1 414/36/1 415/33/1 416/32/1
f 417/36/1 418/37/1 419/34/1 420/33/1
f 421/17/1 422/18/1 423/2/1 424/1/1
f 425/18/1 426/42/1 427/7/1 428/2/1
f 429/42/1 430/9/1 431/12/1 432/7/1
f 433/17/1 434/18/1 435/2/1 436/1/1
f 437/37/1 438/43/1 439/38/1 440/34/1
f 441/43/1 442/44/1 443/40/1 444/38/1

