# Tiled2Unity generated file. Do not modify by hand.
# Wavefront file for '1_1_Module14_mesh_0001.obj'

# Vertices (Count = 544)
v -200 -16 0
v -208 -16 0
v -208 -8 0
v -200 -8 0
v -208 -16 0
v -216 -16 0
v -216 -8 0
v -208 -8 0
v -216 -16 0
v -224 -16 0
v -224 -8 0
v -216 -8 0
v -224 -16 0
v -232 -16 0
v -232 -8 0
v -224 -8 0
v -232 -16 0
v -240 -16 0
v -240 -8 0
v -232 -8 0
v -240 -16 0
v -248 -16 0
v -248 -8 0
v -240 -8 0
v -248 -16 0
v -256 -16 0
v -256 -8 0
v -248 -8 0
v -256 -16 0
v -264 -16 0
v -264 -8 0
v -256 -8 0
v -264 -16 0
v -272 -16 0
v -272 -8 0
v -264 -8 0
v -272 -16 0
v -280 -16 0
v -280 -8 0
v -272 -8 0
v -280 -16 0
v -288 -16 0
v -288 -8 0
v -280 -8 0
v -288 -16 0
v -296 -16 0
v -296 -8 0
v -288 -8 0
v -296 -16 0
v -304 -16 0
v -304 -8 0
v -296 -8 0
v -304 -16 0
v -312 -16 0
v -312 -8 0
v -304 -8 0
v -200 -24 0
v -208 -24 0
v -208 -16 0
v -200 -16 0
v -304 -24 0
v -312 -24 0
v -312 -16 0
v -304 -16 0
v -200 -32 0
v -208 -32 0
v -208 -24 0
v -200 -24 0
v -304 -32 0
v -312 -32 0
v -312 -24 0
v -304 -24 0
v -200 -40 0
v -208 -40 0
v -208 -32 0
v -200 -32 0
v -304 -40 0
v -312 -40 0
v -312 -32 0
v -304 -32 0
v -192 -48 0
v -200 -48 0
v -200 -40 0
v -192 -40 0
v -200 -48 0
v -208 -48 0
v -208 -40 0
v -200 -40 0
v -304 -48 0
v -312 -48 0
v -312 -40 0
v -304 -40 0
v -312 -48 0
v -320 -48 0
v -320 -40 0
v -312 -40 0
v -184 -56 0
v -192 -56 0
v -192 -48 0
v -184 -48 0
v -192 -56 0
v -200 -56 0
v -200 -48 0
v -192 -48 0
v -200 -56 0
v -208 -56 0
v -208 -48 0
v -200 -48 0
v -304 -56 0
v -312 -56 0
v -312 -48 0
v -304 -48 0
v -312 -56 0
v -320 -56 0
v -320 -48 0
v -312 -48 0
v -320 -56 0
v -328 -56 0
v -328 -48 0
v -320 -48 0
v -80 -64 0
v -88 -64 0
v -88 -56 0
v -80 -56 0
v -88 -64 0
v -96 -64 0
v -96 -56 0
v -88 -56 0
v -96 -64 0
v -104 -64 0
v -104 -56 0
v -96 -56 0
v -176 -64 0
v -184 -64 0
v -184 -56 0
v -176 -56 0
v -184 -64 0
v -192 -64 0
v -192 -56 0
v -184 -56 0
v -320 -64 0
v -328 -64 0
v -328 -56 0
v -320 -56 0
v -328 -64 0
v -336 -64 0
v -336 -56 0
v -328 -56 0
v -408 -64 0
v -416 -64 0
v -416 -56 0
v -408 -56 0
v -416 -64 0
v -424 -64 0
v -424 -56 0
v -416 -56 0
v -424 -64 0
v -432 -64 0
v -432 -56 0
v -424 -56 0
v -72 -72 0
v -80 -72 0
v -80 -64 0
v -72 -64 0
v -80 -72 0
v -88 -72 0
v -88 -64 0
v -80 -64 0
v -88 -72 0
v -96 -72 0
v -96 -64 0
v -88 -64 0
v -96 -72 0
v -104 -72 0
v -104 -64 0
v -96 -64 0
v -104 -72 0
v -112 -72 0
v -112 -64 0
v -104 -64 0
v -168 -72 0
v -176 -72 0
v -176 -64 0
v -168 -64 0
v -176 -72 0
v -184 -72 0
v -184 -64 0
v -176 -64 0
v -184 -72 0
v -192 -72 0
v -192 -64 0
v -184 -64 0
v -192 -72 0
v -200 -72 0
v -200 -64 0
v -192 -64 0
v -200 -72 0
v -208 -72 0
v -208 -64 0
v -200 -64 0
v -208 -72 0
v -216 -72 0
v -216 -64 0
v -208 -64 0
v -216 -72 0
v -224 -72 0
v -224 -64 0
v -216 -64 0
v -224 -72 0
v -232 -72 0
v -232 -64 0
v -224 -64 0
v -232 -72 0
v -240 -72 0
v -240 -64 0
v -232 -64 0
v -240 -72 0
v -248 -72 0
v -248 -64 0
v -240 -64 0
v -248 -72 0
v -256 -72 0
v -256 -64 0
v -248 -64 0
v -256 -72 0
v -264 -72 0
v -264 -64 0
v -256 -64 0
v -264 -72 0
v -272 -72 0
v -272 -64 0
v -264 -64 0
v -272 -72 0
v -280 -72 0
v -280 -64 0
v -272 -64 0
v -280 -72 0
v -288 -72 0
v -288 -64 0
v -280 -64 0
v -288 -72 0
v -296 -72 0
v -296 -64 0
v -288 -64 0
v -296 -72 0
v -304 -72 0
v -304 -64 0
v -296 -64 0
v -304 -72 0
v -312 -72 0
v -312 -64 0
v -304 -64 0
v -312 -72 0
v -320 -72 0
v -320 -64 0
v -312 -64 0
v -320 -72 0
v -328 -72 0
v -328 -64 0
v -320 -64 0
v -328 -72 0
v -336 -72 0
v -336 -64 0
v -328 -64 0
v -336 -72 0
v -344 -72 0
v -344 -64 0
v -336 -64 0
v -400 -72 0
v -408 -72 0
v -408 -64 0
v -400 -64 0
v -408 -72 0
v -416 -72 0
v -416 -64 0
v -408 -64 0
v -416 -72 0
v -424 -72 0
v -424 -64 0
v -416 -64 0
v -424 -72 0
v -432 -72 0
v -432 -64 0
v -424 -64 0
v -432 -72 0
v -440 -72 0
v -440 -64 0
v -432 -64 0
v -72 -80 0
v -80 -80 0
v -80 -72 0
v -72 -72 0
v -80 -80 0
v -88 -80 0
v -88 -72 0
v -80 -72 0
v -88 -80 0
v -96 -80 0
v -96 -72 0
v -88 -72 0
v -96 -80 0
v -104 -80 0
v -104 -72 0
v -96 -72 0
v -104 -80 0
v -112 -80 0
v -112 -72 0
v -104 -72 0
v -200 -80 0
v -208 -80 0
v -208 -72 0
v -200 -72 0
v -208 -80 0
v -216 -80 0
v -216 -72 0
v -208 -72 0
v -216 -80 0
v -224 -80 0
v -224 -72 0
v -216 -72 0
v -224 -80 0
v -232 -80 0
v -232 -72 0
v -224 -72 0
v -232 -80 0
v -240 -80 0
v -240 -72 0
v -232 -72 0
v -272 -80 0
v -280 -80 0
v -280 -72 0
v -272 -72 0
v -280 -80 0
v -288 -80 0
v -288 -72 0
v -280 -72 0
v -288 -80 0
v -296 -80 0
v -296 -72 0
v -288 -72 0
v -296 -80 0
v -304 -80 0
v -304 -72 0
v -296 -72 0
v -304 -80 0
v -312 -80 0
v -312 -72 0
v -304 -72 0
v -400 -80 0
v -408 -80 0
v -408 -72 0
v -400 -72 0
v -408 -80 0
v -416 -80 0
v -416 -72 0
v -408 -72 0
v -416 -80 0
v -424 -80 0
v -424 -72 0
v -416 -72 0
v -424 -80 0
v -432 -80 0
v -432 -72 0
v -424 -72 0
v -432 -80 0
v -440 -80 0
v -440 -72 0
v -432 -72 0
v -80 -88 0
v -88 -88 0
v -88 -80 0
v -80 -80 0
v -88 -88 0
v -96 -88 0
v -96 -80 0
v -88 -80 0
v -96 -88 0
v -104 -88 0
v -104 -80 0
v -96 -80 0
v -208 -88 0
v -216 -88 0
v -216 -80 0
v -208 -80 0
v -216 -88 0
v -224 -88 0
v -224 -80 0
v -216 -80 0
v -224 -88 0
v -232 -88 0
v -232 -80 0
v -224 -80 0
v -280 -88 0
v -288 -88 0
v -288 -80 0
v -280 -80 0
v -288 -88 0
v -296 -88 0
v -296 -80 0
v -288 -80 0
v -296 -88 0
v -304 -88 0
v -304 -80 0
v -296 -80 0
v -408 -88 0
v -416 -88 0
v -416 -80 0
v -408 -80 0
v -416 -88 0
v -424 -88 0
v -424 -80 0
v -416 -80 0
v -424 -88 0
v -432 -88 0
v -432 -80 0
v -424 -80 0
v -152 -160 0
v -160 -160 0
v -160 -152 0
v -152 -152 0
v -160 -160 0
v -168 -160 0
v -168 -152 0
v -160 -152 0
v -168 -160 0
v -176 -160 0
v -176 -152 0
v -168 -152 0
v -336 -160 0
v -344 -160 0
v -344 -152 0
v -336 -152 0
v -344 -160 0
v -352 -160 0
v -352 -152 0
v -344 -152 0
v -352 -160 0
v -360 -160 0
v -360 -152 0
v -352 -152 0
v -144 -168 0
v -152 -168 0
v -152 -160 0
v -144 -160 0
v -152 -168 0
v -160 -168 0
v -160 -160 0
v -152 -160 0
v -160 -168 0
v -168 -168 0
v -168 -160 0
v -160 -160 0
v -168 -168 0
v -176 -168 0
v -176 -160 0
v -168 -160 0
v -176 -168 0
v -184 -168 0
v -184 -160 0
v -176 -160 0
v -328 -168 0
v -336 -168 0
v -336 -160 0
v -328 -160 0
v -336 -168 0
v -344 -168 0
v -344 -160 0
v -336 -160 0
v -344 -168 0
v -352 -168 0
v -352 -160 0
v -344 -160 0
v -352 -168 0
v -360 -168 0
v -360 -160 0
v -352 -160 0
v -360 -168 0
v -368 -168 0
v -368 -160 0
v -360 -160 0
v -144 -176 0
v -152 -176 0
v -152 -168 0
v -144 -168 0
v -152 -176 0
v -160 -176 0
v -160 -168 0
v -152 -168 0
v -160 -176 0
v -168 -176 0
v -168 -168 0
v -160 -168 0
v -168 -176 0
v -176 -176 0
v -176 -168 0
v -168 -168 0
v -176 -176 0
v -184 -176 0
v -184 -168 0
v -176 -168 0
v -328 -176 0
v -336 -176 0
v -336 -168 0
v -328 -168 0
v -336 -176 0
v -344 -176 0
v -344 -168 0
v -336 -168 0
v -344 -176 0
v -352 -176 0
v -352 -168 0
v -344 -168 0
v -352 -176 0
v -360 -176 0
v -360 -168 0
v -352 -168 0
v -360 -176 0
v -368 -176 0
v -368 -168 0
v -360 -168 0
v -152 -184 0
v -160 -184 0
v -160 -176 0
v -152 -176 0
v -160 -184 0
v -168 -184 0
v -168 -176 0
v -160 -176 0
v -168 -184 0
v -176 -184 0
v -176 -176 0
v -168 -176 0
v -336 -184 0
v -344 -184 0
v -344 -176 0
v -336 -176 0
v -344 -184 0
v -352 -184 0
v -352 -176 0
v -344 -176 0
v -352 -184 0
v -360 -184 0
v -360 -176 0
v -352 -176 0

# Texture cooridinates (Count = 16)
vt 0.3333333 0.6666666
vt 0.6666667 0.6666666
vt 0.6666667 1
vt 0.3333333 1
vt 0 0.6666666
vt 0 1
vt 1 0.6666666
vt 1 1
vt 0 0
vt 0.3333333 0
vt 0.3333333 0.3333333
vt 0 0.3333333
vt 0.6666667 0
vt 1 0
vt 1 0.3333333
vt 0.6666667 0.3333333

# Normal
vn 0 0 -1

# Mesh description
g 1_1_Module14_mesh_0001

# Faces
f 1/1/1 2/2/1 3/3/1 4/4/1
f 5/1/1 6/2/1 7/3/1 8/4/1
f 9/1/1 10/2/1 11/3/1 12/4/1
f 13/1/1 14/2/1 15/3/1 16/4/1
f 17/1/1 18/2/1 19/3/1 20/4/1
f 21/1/1 22/2/1 23/3/1 24/4/1
f 25/1/1 26/2/1 27/3/1 28/4/1
f 29/1/1 30/2/1 31/3/1 32/4/1
f 33/1/1 34/2/1 35/3/1 36/4/1
f 37/1/1 38/2/1 39/3/1 40/4/1
f 41/1/1 42/2/1 43/3/1 44/4/1
f 45/1/1 46/2/1 47/3/1 48/4/1
f 49/1/1 50/2/1 51/3/1 52/4/1
f 53/1/1 54/2/1 55/3/1 56/4/1
f 57/1/1 58/2/1 59/3/1 60/4/1
f 61/1/1 62/2/1 63/3/1 64/4/1
f 65/1/1 66/2/1 67/3/1 68/4/1
f 69/1/1 70/2/1 71/3/1 72/4/1
f 73/1/1 74/2/1 75/3/1 76/4/1
f 77/1/1 78/2/1 79/3/1 80/4/1
f 81/5/1 82/1/1 83/4/1 84/6/1
f 85/1/1 86/2/1 87/3/1 88/4/1
f 89/1/1 90/2/1 91/3/1 92/4/1
f 93/2/1 94/7/1 95/8/1 96/3/1
f 97/5/1 98/1/1 99/4/1 100/6/1
f 101/1/1 102/2/1 103/3/1 104/4/1
f 105/1/1 106/2/1 107/3/1 108/4/1
f 109/1/1 110/2/1 111/3/1 112/4/1
f 113/1/1 114/2/1 115/3/1 116/4/1
f 117/2/1 118/7/1 119/8/1 120/3/1
f 121/5/1 122/1/1 123/4/1 124/6/1
f 125/1/1 126/2/1 127/3/1 128/4/1
f 129/2/1 130/7/1 131/8/1 132/3/1
f 133/5/1 134/1/1 135/4/1 136/6/1
f 137/1/1 138/2/1 139/3/1 140/4/1
f 141/1/1 142/2/1 143/3/1 144/4/1
f 145/2/1 146/7/1 147/8/1 148/3/1
f 149/5/1 150/1/1 151/4/1 152/6/1
f 153/1/1 154/2/1 155/3/1 156/4/1
f 157/2/1 158/7/1 159/8/1 160/3/1
f 161/5/1 162/1/1 163/4/1 164/6/1
f 165/1/1 166/2/1 167/3/1 168/4/1
f 169/1/1 170/2/1 171/3/1 172/4/1
f 173/1/1 174/2/1 175/3/1 176/4/1
f 177/2/1 178/7/1 179/8/1 180/3/1
f 181/5/1 182/1/1 183/4/1 184/6/1
f 185/1/1 186/2/1 187/3/1 188/4/1
f 189/1/1 190/2/1 191/3/1 192/4/1
f 193/1/1 194/2/1 195/3/1 196/4/1
f 197/1/1 198/2/1 199/3/1 200/4/1
f 201/1/1 202/2/1 203/3/1 204/4/1
f 205/1/1 206/2/1 207/3/1 208/4/1
f 209/1/1 210/2/1 211/3/1 212/4/1
f 213/1/1 214/2/1 215/3/1 216/4/1
f 217/1/1 218/2/1 219/3/1 220/4/1
f 221/1/1 222/2/1 223/3/1 224/4/1
f 225/1/1 226/2/1 227/3/1 228/4/1
f 229/1/1 230/2/1 231/3/1 232/4/1
f 233/1/1 234/2/1 235/3/1 236/4/1
f 237/1/1 238/2/1 239/3/1 240/4/1
f 241/1/1 242/2/1 243/3/1 244/4/1
f 245/1/1 246/2/1 247/3/1 248/4/1
f 249/1/1 250/2/1 251/3/1 252/4/1
f 253/1/1 254/2/1 255/3/1 256/4/1
f 257/1/1 258/2/1 259/3/1 260/4/1
f 261/1/1 262/2/1 263/3/1 264/4/1
f 265/2/1 266/7/1 267/8/1 268/3/1
f 269/5/1 270/1/1 271/4/1 272/6/1
f 273/1/1 274/2/1 275/3/1 276/4/1
f 277/1/1 278/2/1 279/3/1 280/4/1
f 281/1/1 282/2/1 283/3/1 284/4/1
f 285/2/1 286/7/1 287/8/1 288/3/1
f 289/1/1 290/2/1 291/3/1 292/4/1
f 293/1/1 294/2/1 295/3/1 296/4/1
f 297/1/1 298/2/1 299/3/1 300/4/1
f 301/1/1 302/2/1 303/3/1 304/4/1
f 305/1/1 306/2/1 307/3/1 308/4/1
f 309/9/1 310/10/1 311/11/1 312/12/1
f 313/1/1 314/2/1 315/3/1 316/4/1
f 317/1/1 318/2/1 319/3/1 320/4/1
f 321/1/1 322/2/1 323/3/1 324/4/1
f 325/13/1 326/14/1 327/15/1 328/16/1
f 329/9/1 330/10/1 331/11/1 332/12/1
f 333/1/1 334/2/1 335/3/1 336/4/1
f 337/1/1 338/2/1 339/3/1 340/4/1
f 341/1/1 342/2/1 343/3/1 344/4/1
f 345/13/1 346/14/1 347/15/1 348/16/1
f 349/1/1 350/2/1 351/3/1 352/4/1
f 353/1/1 354/2/1 355/3/1 356/4/1
f 357/1/1 358/2/1 359/3/1 360/4/1
f 361/1/1 362/2/1 363/3/1 364/4/1
f 365/1/1 366/2/1 367/3/1 368/4/1
f 369/9/1 370/10/1 371/11/1 372/12/1
f 373/1/1 374/2/1 375/3/1 376/4/1
f 377/13/1 378/14/1 379/15/1 380/16/1
f 381/9/1 382/10/1 383/11/1 384/12/1
f 385/1/1 386/2/1 387/3/1 388/4/1
f 389/13/1 390/14/1 391/15/1 392/16/1
f 393/9/1 394/10/1 395/11/1 396/12/1
f 397/1/1 398/2/1 399/3/1 400/4/1
f 401/13/1 402/14/1 403/15/1 404/16/1
f 405/9/1 406/10/1 407/11/1 408/12/1
f 409/1/1 410/2/1 411/3/1 412/4/1
f 413/13/1 414/14/1 415/15/1 416/16/1
f 417/5/1 418/1/1 419/4/1 420/6/1
f 421/1/1 422/2/1 423/3/1 424/4/1
f 425/2/1 426/7/1 427/8/1 428/3/1
f 429/5/1 430/1/1 431/4/1 432/6/1
f 433/1/1 434/2/1 435/3/1 436/4/1
f 437/2/1 438/7/1 439/8/1 440/3/1
f 441/5/1 442/1/1 443/4/1 444/6/1
f 445/1/1 446/2/1 447/3/1 448/4/1
f 449/1/1 450/2/1 451/3/1 452/4/1
f 453/1/1 454/2/1 455/3/1 456/4/1
f 457/2/1 458/7/1 459/8/1 460/3/1
f 461/5/1 462/1/1 463/4/1 464/6/1
f 465/1/1 466/2/1 467/3/1 468/4/1
f 469/1/1 470/2/1 471/3/1 472/4/1
f 473/1/1 474/2/1 475/3/1 476/4/1
f 477/2/1 478/7/1 479/8/1 480/3/1
f 481/1/1 482/2/1 483/3/1 484/4/1
f 485/1/1 486/2/1 487/3/1 488/4/1
f 489/1/1 490/2/1 491/3/1 492/4/1
f 493/1/1 494/2/1 495/3/1 496/4/1
f 497/1/1 498/2/1 499/3/1 500/4/1
f 501/1/1 502/2/1 503/3/1 504/4/1
f 505/1/1 506/2/1 507/3/1 508/4/1
f 509/1/1 510/2/1 511/3/1 512/4/1
f 513/1/1 514/2/1 515/3/1 516/4/1
f 517/1/1 518/2/1 519/3/1 520/4/1
f 521/9/1 522/10/1 523/11/1 524/12/1
f 525/1/1 526/2/1 527/3/1 528/4/1
f 529/13/1 530/14/1 531/15/1 532/16/1
f 533/9/1 534/10/1 535/11/1 536/12/1
f 537/1/1 538/2/1 539/3/1 540/4/1
f 541/13/1 542/14/1 543/15/1 544/16/1

