# Tiled2Unity generated file. Do not modify by hand.
# Wavefront file for '1_2_5_mesh_0002.obj'

# Vertices (Count = 296)
v 0 -8 0
v -8 -8 0
v -8 0 0
v 0 0 0
v -8 -8 0
v -16 -8 0
v -16 0 0
v -8 0 0
v -24 -8 0
v -32 -8 0
v -32 0 0
v -24 0 0
v -32 -8 0
v -40 -8 0
v -40 0 0
v -32 0 0
v -480 -8 0
v -488 -8 0
v -488 0 0
v -480 0 0
v -376 -16 0
v -384 -16 0
v -384 -8 0
v -376 -8 0
v -384 -16 0
v -392 -16 0
v -392 -8 0
v -384 -8 0
v -392 -16 0
v -400 -16 0
v -400 -8 0
v -392 -8 0
v -400 -16 0
v -408 -16 0
v -408 -8 0
v -400 -8 0
v -408 -16 0
v -416 -16 0
v -416 -8 0
v -408 -8 0
v -416 -16 0
v -424 -16 0
v -424 -8 0
v -416 -8 0
v -424 -16 0
v -432 -16 0
v -432 -8 0
v -424 -8 0
v -432 -16 0
v -440 -16 0
v -440 -8 0
v -432 -8 0
v -440 -16 0
v -448 -16 0
v -448 -8 0
v -440 -8 0
v -384 -24 0
v -392 -24 0
v -392 -16 0
v -384 -16 0
v -392 -24 0
v -400 -24 0
v -400 -16 0
v -392 -16 0
v -400 -24 0
v -408 -24 0
v -408 -16 0
v -400 -16 0
v -408 -24 0
v -416 -24 0
v -416 -16 0
v -408 -16 0
v -416 -24 0
v -424 -24 0
v -424 -16 0
v -416 -16 0
v -424 -24 0
v -432 -24 0
v -432 -16 0
v -424 -16 0
v -432 -24 0
v -440 -24 0
v -440 -16 0
v -432 -16 0
v -440 -24 0
v -448 -24 0
v -448 -16 0
v -440 -16 0
v -392 -32 0
v -400 -32 0
v -400 -24 0
v -392 -24 0
v -400 -32 0
v -408 -32 0
v -408 -24 0
v -400 -24 0
v -408 -32 0
v -416 -32 0
v -416 -24 0
v -408 -24 0
v -416 -32 0
v -424 -32 0
v -424 -24 0
v -416 -24 0
v -424 -32 0
v -432 -32 0
v -432 -24 0
v -424 -24 0
v -432 -32 0
v -440 -32 0
v -440 -24 0
v -432 -24 0
v -440 -32 0
v -448 -32 0
v -448 -24 0
v -440 -24 0
v -400 -40 0
v -408 -40 0
v -408 -32 0
v -400 -32 0
v -408 -40 0
v -416 -40 0
v -416 -32 0
v -408 -32 0
v -416 -40 0
v -424 -40 0
v -424 -32 0
v -416 -32 0
v -424 -40 0
v -432 -40 0
v -432 -32 0
v -424 -32 0
v -432 -40 0
v -440 -40 0
v -440 -32 0
v -432 -32 0
v -440 -40 0
v -448 -40 0
v -448 -32 0
v -440 -32 0
v -408 -48 0
v -416 -48 0
v -416 -40 0
v -408 -40 0
v -416 -48 0
v -424 -48 0
v -424 -40 0
v -416 -40 0
v -424 -48 0
v -432 -48 0
v -432 -40 0
v -424 -40 0
v -432 -48 0
v -440 -48 0
v -440 -40 0
v -432 -40 0
v -440 -48 0
v -448 -48 0
v -448 -40 0
v -440 -40 0
v -416 -56 0
v -424 -56 0
v -424 -48 0
v -416 -48 0
v -424 -56 0
v -432 -56 0
v -432 -48 0
v -424 -48 0
v -432 -56 0
v -440 -56 0
v -440 -48 0
v -432 -48 0
v -440 -56 0
v -448 -56 0
v -448 -48 0
v -440 -48 0
v -184 -64 0
v -192 -64 0
v -192 -56 0
v -184 -56 0
v -192 -64 0
v -200 -64 0
v -200 -56 0
v -192 -56 0
v -200 -64 0
v -208 -64 0
v -208 -56 0
v -200 -56 0
v -208 -64 0
v -216 -64 0
v -216 -56 0
v -208 -56 0
v -424 -64 0
v -432 -64 0
v -432 -56 0
v -424 -56 0
v -432 -64 0
v -440 -64 0
v -440 -56 0
v -432 -56 0
v -440 -64 0
v -448 -64 0
v -448 -56 0
v -440 -56 0
v -184 -72 0
v -192 -72 0
v -192 -64 0
v -184 -64 0
v -192 -72 0
v -200 -72 0
v -200 -64 0
v -192 -64 0
v -200 -72 0
v -208 -72 0
v -208 -64 0
v -200 -64 0
v -208 -72 0
v -216 -72 0
v -216 -64 0
v -208 -64 0
v -432 -72 0
v -440 -72 0
v -440 -64 0
v -432 -64 0
v -440 -72 0
v -448 -72 0
v -448 -64 0
v -440 -64 0
v -24 -80 0
v -32 -80 0
v -32 -72 0
v -24 -72 0
v -32 -80 0
v -40 -80 0
v -40 -72 0
v -32 -72 0
v -40 -80 0
v -48 -80 0
v -48 -72 0
v -40 -72 0
v -48 -80 0
v -56 -80 0
v -56 -72 0
v -48 -72 0
v -184 -80 0
v -192 -80 0
v -192 -72 0
v -184 -72 0
v -192 -80 0
v -200 -80 0
v -200 -72 0
v -192 -72 0
v -200 -80 0
v -208 -80 0
v -208 -72 0
v -200 -72 0
v -208 -80 0
v -216 -80 0
v -216 -72 0
v -208 -72 0
v -440 -80 0
v -448 -80 0
v -448 -72 0
v -440 -72 0
v -24 -88 0
v -32 -88 0
v -32 -80 0
v -24 -80 0
v -32 -88 0
v -40 -88 0
v -40 -80 0
v -32 -80 0
v -40 -88 0
v -48 -88 0
v -48 -80 0
v -40 -80 0
v -48 -88 0
v -56 -88 0
v -56 -80 0
v -48 -80 0
v -24 -96 0
v -32 -96 0
v -32 -88 0
v -24 -88 0
v -32 -96 0
v -40 -96 0
v -40 -88 0
v -32 -88 0
v -40 -96 0
v -48 -96 0
v -48 -88 0
v -40 -88 0
v -48 -96 0
v -56 -96 0
v -56 -88 0
v -48 -88 0

# Texture cooridinates (Count = 28)
vt 0 0.625
vt 0.125 0.625
vt 0.125 0.75
vt 0 0.75
vt 0.25 0.625
vt 0.375 0.625
vt 0.375 0.75
vt 0.25 0.75
vt 0.5 0.625
vt 0.5 0.75
vt 0.5 0.5
vt 0.625 0.5
vt 0.625 0.625
vt 0 0
vt 0.125 0
vt 0.125 0.125
vt 0 0.125
vt 0.25 0.875
vt 0.125 0.875
vt 0.375 0.875
vt 0.5 0.875
vt 0 0.875
vt 0.625 0.75
vt 0.125 1
vt 0 1
vt 0.25 1
vt 0.375 1
vt 0.5 1

# Normal
vn 0 0 -1

# Mesh description
g 1_2_5_mesh_0002

# Faces
f 1/1/1 2/2/1 3/3/1 4/4/1
f 5/1/1 6/2/1 7/3/1 8/4/1
f 9/5/1 10/6/1 11/7/1 12/8/1
f 13/6/1 14/9/1 15/10/1 16/7/1
f 17/6/1 18/9/1 19/10/1 20/7/1
f 21/11/1 22/12/1 23/13/1 24/9/1
f 25/14/1 26/15/1 27/16/1 28/17/1
f 29/3/1 30/8/1 31/18/1 32/19/1
f 33/8/1 34/7/1 35/20/1 36/18/1
f 37/7/1 38/10/1 39/21/1 40/20/1
f 41/4/1 42/3/1 43/19/1 44/22/1
f 45/3/1 46/8/1 47/18/1 48/19/1
f 49/8/1 50/7/1 51/20/1 52/18/1
f 53/7/1 54/10/1 55/21/1 56/20/1
f 57/11/1 58/12/1 59/13/1 60/9/1
f 61/9/1 62/13/1 63/23/1 64/10/1
f 65/3/1 66/8/1 67/18/1 68/19/1
f 69/3/1 70/8/1 71/18/1 72/19/1
f 73/3/1 74/8/1 75/18/1 76/19/1
f 77/3/1 78/8/1 79/18/1 80/19/1
f 81/3/1 82/8/1 83/18/1 84/19/1
f 85/3/1 86/8/1 87/18/1 88/19/1
f 89/11/1 90/12/1 91/13/1 92/9/1
f 93/9/1 94/13/1 95/23/1 96/10/1
f 97/3/1 98/8/1 99/18/1 100/19/1
f 101/3/1 102/8/1 103/18/1 104/19/1
f 105/3/1 106/8/1 107/18/1 108/19/1
f 109/3/1 110/8/1 111/18/1 112/19/1
f 113/3/1 114/8/1 115/18/1 116/19/1
f 117/11/1 118/12/1 119/13/1 120/9/1
f 121/9/1 122/13/1 123/23/1 124/10/1
f 125/3/1 126/8/1 127/18/1 128/19/1
f 129/3/1 130/8/1 131/18/1 132/19/1
f 133/3/1 134/8/1 135/18/1 136/19/1
f 137/3/1 138/8/1 139/18/1 140/19/1
f 141/11/1 142/12/1 143/13/1 144/9/1
f 145/9/1 146/13/1 147/23/1 148/10/1
f 149/3/1 150/8/1 151/18/1 152/19/1
f 153/3/1 154/8/1 155/18/1 156/19/1
f 157/3/1 158/8/1 159/18/1 160/19/1
f 161/11/1 162/12/1 163/13/1 164/9/1
f 165/9/1 166/13/1 167/23/1 168/10/1
f 169/3/1 170/8/1 171/18/1 172/19/1
f 173/3/1 174/8/1 175/18/1 176/19/1
f 177/22/1 178/19/1 179/24/1 180/25/1
f 181/19/1 182/18/1 183/26/1 184/24/1
f 185/18/1 186/20/1 187/27/1 188/26/1
f 189/20/1 190/21/1 191/28/1 192/27/1
f 193/11/1 194/12/1 195/13/1 196/9/1
f 197/14/1 198/15/1 199/16/1 200/17/1
f 201/3/1 202/8/1 203/18/1 204/19/1
f 205/4/1 206/3/1 207/19/1 208/22/1
f 209/3/1 210/8/1 211/18/1 212/19/1
f 213/8/1 214/7/1 215/20/1 216/18/1
f 217/7/1 218/10/1 219/21/1 220/20/1
f 221/11/1 222/12/1 223/13/1 224/9/1
f 225/9/1 226/13/1 227/23/1 228/10/1
f 229/22/1 230/19/1 231/24/1 232/25/1
f 233/19/1 234/18/1 235/26/1 236/24/1
f 237/18/1 238/20/1 239/27/1 240/26/1
f 241/20/1 242/21/1 243/28/1 244/27/1
f 245/1/1 246/2/1 247/3/1 248/4/1
f 249/2/1 250/5/1 251/8/1 252/3/1
f 253/5/1 254/6/1 255/7/1 256/8/1
f 257/6/1 258/9/1 259/10/1 260/7/1
f 261/11/1 262/12/1 263/13/1 264/9/1
f 265/4/1 266/3/1 267/19/1 268/22/1
f 269/3/1 270/8/1 271/18/1 272/19/1
f 273/8/1 274/7/1 275/20/1 276/18/1
f 277/7/1 278/10/1 279/21/1 280/20/1
f 281/1/1 282/2/1 283/3/1 284/4/1
f 285/2/1 286/5/1 287/8/1 288/3/1
f 289/5/1 290/6/1 291/7/1 292/8/1
f 293/6/1 294/9/1 295/10/1 296/7/1

