# Tiled2Unity generated file. Do not modify by hand.
# Wavefront file for '1_1_Module22_mesh_0002.obj'

# Vertices (Count = 492)
v -80 -16 0
v -88 -16 0
v -88 -8 0
v -80 -8 0
v -240 -16 0
v -248 -16 0
v -248 -8 0
v -240 -8 0
v -336 -16 0
v -344 -16 0
v -344 -8 0
v -336 -8 0
v -344 -16 0
v -352 -16 0
v -352 -8 0
v -344 -8 0
v -352 -16 0
v -360 -16 0
v -360 -8 0
v -352 -8 0
v -360 -16 0
v -368 -16 0
v -368 -8 0
v -360 -8 0
v -368 -16 0
v -376 -16 0
v -376 -8 0
v -368 -8 0
v -376 -16 0
v -384 -16 0
v -384 -8 0
v -376 -8 0
v -384 -16 0
v -392 -16 0
v -392 -8 0
v -384 -8 0
v -392 -16 0
v -400 -16 0
v -400 -8 0
v -392 -8 0
v -400 -16 0
v -408 -16 0
v -408 -8 0
v -400 -8 0
v -408 -16 0
v -416 -16 0
v -416 -8 0
v -408 -8 0
v -416 -16 0
v -424 -16 0
v -424 -8 0
v -416 -8 0
v -424 -16 0
v -432 -16 0
v -432 -8 0
v -424 -8 0
v -80 -24 0
v -88 -24 0
v -88 -16 0
v -80 -16 0
v -240 -24 0
v -248 -24 0
v -248 -16 0
v -240 -16 0
v -344 -24 0
v -352 -24 0
v -352 -16 0
v -344 -16 0
v -352 -24 0
v -360 -24 0
v -360 -16 0
v -352 -16 0
v -360 -24 0
v -368 -24 0
v -368 -16 0
v -360 -16 0
v -368 -24 0
v -376 -24 0
v -376 -16 0
v -368 -16 0
v -376 -24 0
v -384 -24 0
v -384 -16 0
v -376 -16 0
v -384 -24 0
v -392 -24 0
v -392 -16 0
v -384 -16 0
v -424 -24 0
v -432 -24 0
v -432 -16 0
v -424 -16 0
v -80 -32 0
v -88 -32 0
v -88 -24 0
v -80 -24 0
v -240 -32 0
v -248 -32 0
v -248 -24 0
v -240 -24 0
v -352 -32 0
v -360 -32 0
v -360 -24 0
v -352 -24 0
v -360 -32 0
v -368 -32 0
v -368 -24 0
v -360 -24 0
v -368 -32 0
v -376 -32 0
v -376 -24 0
v -368 -24 0
v -376 -32 0
v -384 -32 0
v -384 -24 0
v -376 -24 0
v -384 -32 0
v -392 -32 0
v -392 -24 0
v -384 -24 0
v -424 -32 0
v -432 -32 0
v -432 -24 0
v -424 -24 0
v -80 -40 0
v -88 -40 0
v -88 -32 0
v -80 -32 0
v -240 -40 0
v -248 -40 0
v -248 -32 0
v -240 -32 0
v -360 -40 0
v -368 -40 0
v -368 -32 0
v -360 -32 0
v -368 -40 0
v -376 -40 0
v -376 -32 0
v -368 -32 0
v -376 -40 0
v -384 -40 0
v -384 -32 0
v -376 -32 0
v -384 -40 0
v -392 -40 0
v -392 -32 0
v -384 -32 0
v -424 -40 0
v -432 -40 0
v -432 -32 0
v -424 -32 0
v -80 -48 0
v -88 -48 0
v -88 -40 0
v -80 -40 0
v -240 -48 0
v -248 -48 0
v -248 -40 0
v -240 -40 0
v -368 -48 0
v -376 -48 0
v -376 -40 0
v -368 -40 0
v -376 -48 0
v -384 -48 0
v -384 -40 0
v -376 -40 0
v -384 -48 0
v -392 -48 0
v -392 -40 0
v -384 -40 0
v -424 -48 0
v -432 -48 0
v -432 -40 0
v -424 -40 0
v -80 -56 0
v -88 -56 0
v -88 -48 0
v -80 -48 0
v -240 -56 0
v -248 -56 0
v -248 -48 0
v -240 -48 0
v -376 -56 0
v -384 -56 0
v -384 -48 0
v -376 -48 0
v -384 -56 0
v -392 -56 0
v -392 -48 0
v -384 -48 0
v -392 -56 0
v -400 -56 0
v -400 -48 0
v -392 -48 0
v -400 -56 0
v -408 -56 0
v -408 -48 0
v -400 -48 0
v -408 -56 0
v -416 -56 0
v -416 -48 0
v -408 -48 0
v -416 -56 0
v -424 -56 0
v -424 -48 0
v -416 -48 0
v -424 -56 0
v -432 -56 0
v -432 -48 0
v -424 -48 0
v -80 -64 0
v -88 -64 0
v -88 -56 0
v -80 -56 0
v -240 -64 0
v -248 -64 0
v -248 -56 0
v -240 -56 0
v -80 -72 0
v -88 -72 0
v -88 -64 0
v -80 -64 0
v -80 -80 0
v -88 -80 0
v -88 -72 0
v -80 -72 0
v -392 -104 0
v -400 -104 0
v -400 -96 0
v -392 -96 0
v -400 -104 0
v -408 -104 0
v -408 -96 0
v -400 -96 0
v -408 -104 0
v -416 -104 0
v -416 -96 0
v -408 -96 0
v -416 -104 0
v -424 -104 0
v -424 -96 0
v -416 -96 0
v -424 -104 0
v -432 -104 0
v -432 -96 0
v -424 -96 0
v -384 -112 0
v -392 -112 0
v -392 -104 0
v -384 -104 0
v -392 -112 0
v -400 -112 0
v -400 -104 0
v -392 -104 0
v -424 -112 0
v -432 -112 0
v -432 -104 0
v -424 -104 0
v -376 -120 0
v -384 -120 0
v -384 -112 0
v -376 -112 0
v -384 -120 0
v -392 -120 0
v -392 -112 0
v -384 -112 0
v -424 -120 0
v -432 -120 0
v -432 -112 0
v -424 -112 0
v -376 -128 0
v -384 -128 0
v -384 -120 0
v -376 -120 0
v -384 -128 0
v -392 -128 0
v -392 -120 0
v -384 -120 0
v -424 -128 0
v -432 -128 0
v -432 -120 0
v -424 -120 0
v -376 -136 0
v -384 -136 0
v -384 -128 0
v -376 -128 0
v -384 -136 0
v -392 -136 0
v -392 -128 0
v -384 -128 0
v -424 -136 0
v -432 -136 0
v -432 -128 0
v -424 -128 0
v -384 -144 0
v -392 -144 0
v -392 -136 0
v -384 -136 0
v -392 -144 0
v -400 -144 0
v -400 -136 0
v -392 -136 0
v -424 -144 0
v -432 -144 0
v -432 -136 0
v -424 -136 0
v -392 -152 0
v -400 -152 0
v -400 -144 0
v -392 -144 0
v -400 -152 0
v -408 -152 0
v -408 -144 0
v -400 -144 0
v -408 -152 0
v -416 -152 0
v -416 -144 0
v -408 -144 0
v -416 -152 0
v -424 -152 0
v -424 -144 0
v -416 -144 0
v -424 -152 0
v -432 -152 0
v -432 -144 0
v -424 -144 0
v -376 -200 0
v -384 -200 0
v -384 -192 0
v -376 -192 0
v -384 -200 0
v -392 -200 0
v -392 -192 0
v -384 -192 0
v -392 -200 0
v -400 -200 0
v -400 -192 0
v -392 -192 0
v -400 -200 0
v -408 -200 0
v -408 -192 0
v -400 -192 0
v -408 -200 0
v -416 -200 0
v -416 -192 0
v -408 -192 0
v -416 -200 0
v -424 -200 0
v -424 -192 0
v -416 -192 0
v -424 -200 0
v -432 -200 0
v -432 -192 0
v -424 -192 0
v -368 -208 0
v -376 -208 0
v -376 -200 0
v -368 -200 0
v -376 -208 0
v -384 -208 0
v -384 -200 0
v -376 -200 0
v -384 -208 0
v -392 -208 0
v -392 -200 0
v -384 -200 0
v -424 -208 0
v -432 -208 0
v -432 -200 0
v -424 -200 0
v -360 -216 0
v -368 -216 0
v -368 -208 0
v -360 -208 0
v -368 -216 0
v -376 -216 0
v -376 -208 0
v -368 -208 0
v -376 -216 0
v -384 -216 0
v -384 -208 0
v -376 -208 0
v -384 -216 0
v -392 -216 0
v -392 -208 0
v -384 -208 0
v -424 -216 0
v -432 -216 0
v -432 -208 0
v -424 -208 0
v -352 -224 0
v -360 -224 0
v -360 -216 0
v -352 -216 0
v -360 -224 0
v -368 -224 0
v -368 -216 0
v -360 -216 0
v -368 -224 0
v -376 -224 0
v -376 -216 0
v -368 -216 0
v -376 -224 0
v -384 -224 0
v -384 -216 0
v -376 -216 0
v -384 -224 0
v -392 -224 0
v -392 -216 0
v -384 -216 0
v -424 -224 0
v -432 -224 0
v -432 -216 0
v -424 -216 0
v -344 -232 0
v -352 -232 0
v -352 -224 0
v -344 -224 0
v -352 -232 0
v -360 -232 0
v -360 -224 0
v -352 -224 0
v -360 -232 0
v -368 -232 0
v -368 -224 0
v -360 -224 0
v -368 -232 0
v -376 -232 0
v -376 -224 0
v -368 -224 0
v -376 -232 0
v -384 -232 0
v -384 -224 0
v -376 -224 0
v -384 -232 0
v -392 -232 0
v -392 -224 0
v -384 -224 0
v -424 -232 0
v -432 -232 0
v -432 -224 0
v -424 -224 0
v -336 -240 0
v -344 -240 0
v -344 -232 0
v -336 -232 0
v -344 -240 0
v -352 -240 0
v -352 -232 0
v -344 -232 0
v -352 -240 0
v -360 -240 0
v -360 -232 0
v -352 -232 0
v -360 -240 0
v -368 -240 0
v -368 -232 0
v -360 -232 0
v -368 -240 0
v -376 -240 0
v -376 -232 0
v -368 -232 0
v -376 -240 0
v -384 -240 0
v -384 -232 0
v -376 -232 0
v -384 -240 0
v -392 -240 0
v -392 -232 0
v -384 -232 0
v -392 -240 0
v -400 -240 0
v -400 -232 0
v -392 -232 0
v -400 -240 0
v -408 -240 0
v -408 -232 0
v -400 -232 0
v -408 -240 0
v -416 -240 0
v -416 -232 0
v -408 -232 0
v -416 -240 0
v -424 -240 0
v -424 -232 0
v -416 -232 0
v -424 -240 0
v -432 -240 0
v -432 -232 0
v -424 -232 0

# Texture cooridinates (Count = 10)
vt 0.3333333 0.6666666
vt 0.6666667 0.6666666
vt 0.6666667 1
vt 0.3333333 1
vt 0 0
vt 0.3333333 0
vt 0.3333333 0.3333333
vt 0 0.3333333
vt 0 0.6666666
vt 0 1

# Normal
vn 0 0 -1

# Mesh description
g 1_1_Module22_mesh_0002

# Faces
f 1/1/1 2/2/1 3/3/1 4/4/1
f 5/1/1 6/2/1 7/3/1 8/4/1
f 9/5/1 10/6/1 11/7/1 12/8/1
f 13/1/1 14/2/1 15/3/1 16/4/1
f 17/1/1 18/2/1 19/3/1 20/4/1
f 21/1/1 22/2/1 23/3/1 24/4/1
f 25/1/1 26/2/1 27/3/1 28/4/1
f 29/1/1 30/2/1 31/3/1 32/4/1
f 33/1/1 34/2/1 35/3/1 36/4/1
f 37/1/1 38/2/1 39/3/1 40/4/1
f 41/1/1 42/2/1 43/3/1 44/4/1
f 45/1/1 46/2/1 47/3/1 48/4/1
f 49/1/1 50/2/1 51/3/1 52/4/1
f 53/1/1 54/2/1 55/3/1 56/4/1
f 57/1/1 58/2/1 59/3/1 60/4/1
f 61/1/1 62/2/1 63/3/1 64/4/1
f 65/5/1 66/6/1 67/7/1 68/8/1
f 69/1/1 70/2/1 71/3/1 72/4/1
f 73/1/1 74/2/1 75/3/1 76/4/1
f 77/1/1 78/2/1 79/3/1 80/4/1
f 81/1/1 82/2/1 83/3/1 84/4/1
f 85/1/1 86/2/1 87/3/1 88/4/1
f 89/1/1 90/2/1 91/3/1 92/4/1
f 93/1/1 94/2/1 95/3/1 96/4/1
f 97/1/1 98/2/1 99/3/1 100/4/1
f 101/5/1 102/6/1 103/7/1 104/8/1
f 105/1/1 106/2/1 107/3/1 108/4/1
f 109/1/1 110/2/1 111/3/1 112/4/1
f 113/1/1 114/2/1 115/3/1 116/4/1
f 117/1/1 118/2/1 119/3/1 120/4/1
f 121/1/1 122/2/1 123/3/1 124/4/1
f 125/1/1 126/2/1 127/3/1 128/4/1
f 129/1/1 130/2/1 131/3/1 132/4/1
f 133/5/1 134/6/1 135/7/1 136/8/1
f 137/1/1 138/2/1 139/3/1 140/4/1
f 141/1/1 142/2/1 143/3/1 144/4/1
f 145/1/1 146/2/1 147/3/1 148/4/1
f 149/1/1 150/2/1 151/3/1 152/4/1
f 153/1/1 154/2/1 155/3/1 156/4/1
f 157/1/1 158/2/1 159/3/1 160/4/1
f 161/5/1 162/6/1 163/7/1 164/8/1
f 165/1/1 166/2/1 167/3/1 168/4/1
f 169/1/1 170/2/1 171/3/1 172/4/1
f 173/1/1 174/2/1 175/3/1 176/4/1
f 177/1/1 178/2/1 179/3/1 180/4/1
f 181/1/1 182/2/1 183/3/1 184/4/1
f 185/5/1 186/6/1 187/7/1 188/8/1
f 189/1/1 190/2/1 191/3/1 192/4/1
f 193/1/1 194/2/1 195/3/1 196/4/1
f 197/1/1 198/2/1 199/3/1 200/4/1
f 201/1/1 202/2/1 203/3/1 204/4/1
f 205/1/1 206/2/1 207/3/1 208/4/1
f 209/1/1 210/2/1 211/3/1 212/4/1
f 213/1/1 214/2/1 215/3/1 216/4/1
f 217/5/1 218/6/1 219/7/1 220/8/1
f 221/1/1 222/2/1 223/3/1 224/4/1
f 225/5/1 226/6/1 227/7/1 228/8/1
f 229/9/1 230/1/1 231/4/1 232/10/1
f 233/1/1 234/2/1 235/3/1 236/4/1
f 237/1/1 238/2/1 239/3/1 240/4/1
f 241/1/1 242/2/1 243/3/1 244/4/1
f 245/1/1 246/2/1 247/3/1 248/4/1
f 249/9/1 250/1/1 251/4/1 252/10/1
f 253/1/1 254/2/1 255/3/1 256/4/1
f 257/1/1 258/2/1 259/3/1 260/4/1
f 261/9/1 262/1/1 263/4/1 264/10/1
f 265/1/1 266/2/1 267/3/1 268/4/1
f 269/1/1 270/2/1 271/3/1 272/4/1
f 273/8/1 274/7/1 275/1/1 276/9/1
f 277/1/1 278/2/1 279/3/1 280/4/1
f 281/1/1 282/2/1 283/3/1 284/4/1
f 285/5/1 286/6/1 287/7/1 288/8/1
f 289/1/1 290/2/1 291/3/1 292/4/1
f 293/1/1 294/2/1 295/3/1 296/4/1
f 297/5/1 298/6/1 299/7/1 300/8/1
f 301/1/1 302/2/1 303/3/1 304/4/1
f 305/1/1 306/2/1 307/3/1 308/4/1
f 309/5/1 310/6/1 311/7/1 312/8/1
f 313/1/1 314/2/1 315/3/1 316/4/1
f 317/1/1 318/2/1 319/3/1 320/4/1
f 321/1/1 322/2/1 323/3/1 324/4/1
f 325/1/1 326/2/1 327/3/1 328/4/1
f 329/9/1 330/1/1 331/4/1 332/10/1
f 333/1/1 334/2/1 335/3/1 336/4/1
f 337/1/1 338/2/1 339/3/1 340/4/1
f 341/1/1 342/2/1 343/3/1 344/4/1
f 345/1/1 346/2/1 347/3/1 348/4/1
f 349/1/1 350/2/1 351/3/1 352/4/1
f 353/1/1 354/2/1 355/3/1 356/4/1
f 357/9/1 358/1/1 359/4/1 360/10/1
f 361/1/1 362/2/1 363/3/1 364/4/1
f 365/1/1 366/2/1 367/3/1 368/4/1
f 369/1/1 370/2/1 371/3/1 372/4/1
f 373/9/1 374/1/1 375/4/1 376/10/1
f 377/1/1 378/2/1 379/3/1 380/4/1
f 381/1/1 382/2/1 383/3/1 384/4/1
f 385/1/1 386/2/1 387/3/1 388/4/1
f 389/1/1 390/2/1 391/3/1 392/4/1
f 393/9/1 394/1/1 395/4/1 396/10/1
f 397/1/1 398/2/1 399/3/1 400/4/1
f 401/1/1 402/2/1 403/3/1 404/4/1
f 405/1/1 406/2/1 407/3/1 408/4/1
f 409/1/1 410/2/1 411/3/1 412/4/1
f 413/1/1 414/2/1 415/3/1 416/4/1
f 417/9/1 418/1/1 419/4/1 420/10/1
f 421/1/1 422/2/1 423/3/1 424/4/1
f 425/1/1 426/2/1 427/3/1 428/4/1
f 429/1/1 430/2/1 431/3/1 432/4/1
f 433/1/1 434/2/1 435/3/1 436/4/1
f 437/1/1 438/2/1 439/3/1 440/4/1
f 441/1/1 442/2/1 443/3/1 444/4/1
f 445/9/1 446/1/1 447/4/1 448/10/1
f 449/1/1 450/2/1 451/3/1 452/4/1
f 453/1/1 454/2/1 455/3/1 456/4/1
f 457/1/1 458/2/1 459/3/1 460/4/1
f 461/1/1 462/2/1 463/3/1 464/4/1
f 465/1/1 466/2/1 467/3/1 468/4/1
f 469/1/1 470/2/1 471/3/1 472/4/1
f 473/1/1 474/2/1 475/3/1 476/4/1
f 477/1/1 478/2/1 479/3/1 480/4/1
f 481/1/1 482/2/1 483/3/1 484/4/1
f 485/1/1 486/2/1 487/3/1 488/4/1
f 489/1/1 490/2/1 491/3/1 492/4/1

