# Tiled2Unity generated file. Do not modify by hand.
# Wavefront file for '1_1_Module4_mesh_0002.obj'

# Vertices (Count = 136)
v -128 -16 0
v -136 -16 0
v -136 -8 0
v -128 -8 0
v -208 -16 0
v -216 -16 0
v -216 -8 0
v -208 -8 0
v -336 -16 0
v -344 -16 0
v -344 -8 0
v -336 -8 0
v -128 -24 0
v -136 -24 0
v -136 -16 0
v -128 -16 0
v -208 -24 0
v -216 -24 0
v -216 -16 0
v -208 -16 0
v -336 -24 0
v -344 -24 0
v -344 -16 0
v -336 -16 0
v -128 -32 0
v -136 -32 0
v -136 -24 0
v -128 -24 0
v -208 -32 0
v -216 -32 0
v -216 -24 0
v -208 -24 0
v -336 -32 0
v -344 -32 0
v -344 -24 0
v -336 -24 0
v -128 -40 0
v -136 -40 0
v -136 -32 0
v -128 -32 0
v -208 -40 0
v -216 -40 0
v -216 -32 0
v -208 -32 0
v -336 -40 0
v -344 -40 0
v -344 -32 0
v -336 -32 0
v -128 -48 0
v -136 -48 0
v -136 -40 0
v -128 -40 0
v -208 -48 0
v -216 -48 0
v -216 -40 0
v -208 -40 0
v -336 -48 0
v -344 -48 0
v -344 -40 0
v -336 -40 0
v -208 -56 0
v -216 -56 0
v -216 -48 0
v -208 -48 0
v -208 -64 0
v -216 -64 0
v -216 -56 0
v -208 -56 0
v -208 -72 0
v -216 -72 0
v -216 -64 0
v -208 -64 0
v -208 -80 0
v -216 -80 0
v -216 -72 0
v -208 -72 0
v -208 -88 0
v -216 -88 0
v -216 -80 0
v -208 -80 0
v -208 -96 0
v -216 -96 0
v -216 -88 0
v -208 -88 0
v -208 -104 0
v -216 -104 0
v -216 -96 0
v -208 -96 0
v -208 -112 0
v -216 -112 0
v -216 -104 0
v -208 -104 0
v -280 -112 0
v -288 -112 0
v -288 -104 0
v -280 -104 0
v -288 -112 0
v -296 -112 0
v -296 -104 0
v -288 -104 0
v -296 -112 0
v -304 -112 0
v -304 -104 0
v -296 -104 0
v -208 -120 0
v -216 -120 0
v -216 -112 0
v -208 -112 0
v -280 -120 0
v -288 -120 0
v -288 -112 0
v -280 -112 0
v -288 -120 0
v -296 -120 0
v -296 -112 0
v -288 -112 0
v -296 -120 0
v -304 -120 0
v -304 -112 0
v -296 -112 0
v -208 -128 0
v -216 -128 0
v -216 -120 0
v -208 -120 0
v -280 -128 0
v -288 -128 0
v -288 -120 0
v -280 -120 0
v -288 -128 0
v -296 -128 0
v -296 -120 0
v -288 -120 0
v -296 -128 0
v -304 -128 0
v -304 -120 0
v -296 -120 0

# Texture cooridinates (Count = 8)
vt 0.3333333 0.6666666
vt 0.6666667 0.6666666
vt 0.6666667 1
vt 0.3333333 1
vt 0 0
vt 0.3333333 0
vt 0.3333333 0.3333333
vt 0 0.3333333

# Normal
vn 0 0 -1

# Mesh description
g 1_1_Module4_mesh_0002

# Faces
f 1/1/1 2/2/1 3/3/1 4/4/1
f 5/1/1 6/2/1 7/3/1 8/4/1
f 9/1/1 10/2/1 11/3/1 12/4/1
f 13/1/1 14/2/1 15/3/1 16/4/1
f 17/1/1 18/2/1 19/3/1 20/4/1
f 21/1/1 22/2/1 23/3/1 24/4/1
f 25/1/1 26/2/1 27/3/1 28/4/1
f 29/1/1 30/2/1 31/3/1 32/4/1
f 33/1/1 34/2/1 35/3/1 36/4/1
f 37/1/1 38/2/1 39/3/1 40/4/1
f 41/1/1 42/2/1 43/3/1 44/4/1
f 45/1/1 46/2/1 47/3/1 48/4/1
f 49/5/1 50/6/1 51/7/1 52/8/1
f 53/1/1 54/2/1 55/3/1 56/4/1
f 57/5/1 58/6/1 59/7/1 60/8/1
f 61/1/1 62/2/1 63/3/1 64/4/1
f 65/1/1 66/2/1 67/3/1 68/4/1
f 69/1/1 70/2/1 71/3/1 72/4/1
f 73/1/1 74/2/1 75/3/1 76/4/1
f 77/1/1 78/2/1 79/3/1 80/4/1
f 81/1/1 82/2/1 83/3/1 84/4/1
f 85/1/1 86/2/1 87/3/1 88/4/1
f 89/1/1 90/2/1 91/3/1 92/4/1
f 93/1/1 94/2/1 95/3/1 96/4/1
f 97/1/1 98/2/1 99/3/1 100/4/1
f 101/1/1 102/2/1 103/3/1 104/4/1
f 105/1/1 106/2/1 107/3/1 108/4/1
f 109/1/1 110/2/1 111/3/1 112/4/1
f 113/1/1 114/2/1 115/3/1 116/4/1
f 117/1/1 118/2/1 119/3/1 120/4/1
f 121/5/1 122/6/1 123/7/1 124/8/1
f 125/1/1 126/2/1 127/3/1 128/4/1
f 129/1/1 130/2/1 131/3/1 132/4/1
f 133/1/1 134/2/1 135/3/1 136/4/1

