# Tiled2Unity generated file. Do not modify by hand.
# Wavefront file for '1_3_Module29_mesh_0001.obj'

# Vertices (Count = 216)
v -248 -16 0
v -256 -16 0
v -256 -8 0
v -248 -8 0
v -248 -24 0
v -256 -24 0
v -256 -16 0
v -248 -16 0
v -88 -32 0
v -96 -32 0
v -96 -24 0
v -88 -24 0
v -96 -32 0
v -104 -32 0
v -104 -24 0
v -96 -24 0
v -104 -32 0
v -112 -32 0
v -112 -24 0
v -104 -24 0
v -136 -32 0
v -144 -32 0
v -144 -24 0
v -136 -24 0
v -144 -32 0
v -152 -32 0
v -152 -24 0
v -144 -24 0
v -152 -32 0
v -160 -32 0
v -160 -24 0
v -152 -24 0
v -248 -32 0
v -256 -32 0
v -256 -24 0
v -248 -24 0
v -88 -40 0
v -96 -40 0
v -96 -32 0
v -88 -32 0
v -152 -40 0
v -160 -40 0
v -160 -32 0
v -152 -32 0
v -248 -40 0
v -256 -40 0
v -256 -32 0
v -248 -32 0
v -248 -48 0
v -256 -48 0
v -256 -40 0
v -248 -40 0
v -248 -56 0
v -256 -56 0
v -256 -48 0
v -248 -48 0
v -88 -80 0
v -96 -80 0
v -96 -72 0
v -88 -72 0
v -152 -80 0
v -160 -80 0
v -160 -72 0
v -152 -72 0
v -88 -88 0
v -96 -88 0
v -96 -80 0
v -88 -80 0
v -96 -88 0
v -104 -88 0
v -104 -80 0
v -96 -80 0
v -104 -88 0
v -112 -88 0
v -112 -80 0
v -104 -80 0
v -136 -88 0
v -144 -88 0
v -144 -80 0
v -136 -80 0
v -144 -88 0
v -152 -88 0
v -152 -80 0
v -144 -80 0
v -152 -88 0
v -160 -88 0
v -160 -80 0
v -152 -80 0
v -344 -96 0
v -352 -96 0
v -352 -88 0
v -344 -88 0
v -352 -96 0
v -360 -96 0
v -360 -88 0
v -352 -88 0
v -360 -96 0
v -368 -96 0
v -368 -88 0
v -360 -88 0
v -392 -96 0
v -400 -96 0
v -400 -88 0
v -392 -88 0
v -400 -96 0
v -408 -96 0
v -408 -88 0
v -400 -88 0
v -408 -96 0
v -416 -96 0
v -416 -88 0
v -408 -88 0
v -344 -104 0
v -352 -104 0
v -352 -96 0
v -344 -96 0
v -408 -104 0
v -416 -104 0
v -416 -96 0
v -408 -96 0
v -344 -144 0
v -352 -144 0
v -352 -136 0
v -344 -136 0
v -408 -144 0
v -416 -144 0
v -416 -136 0
v -408 -136 0
v -344 -152 0
v -352 -152 0
v -352 -144 0
v -344 -144 0
v -352 -152 0
v -360 -152 0
v -360 -144 0
v -352 -144 0
v -360 -152 0
v -368 -152 0
v -368 -144 0
v -360 -144 0
v -392 -152 0
v -400 -152 0
v -400 -144 0
v -392 -144 0
v -400 -152 0
v -408 -152 0
v -408 -144 0
v -400 -144 0
v -408 -152 0
v -416 -152 0
v -416 -144 0
v -408 -144 0
v -216 -168 0
v -224 -168 0
v -224 -160 0
v -216 -160 0
v -224 -168 0
v -232 -168 0
v -232 -160 0
v -224 -160 0
v -232 -168 0
v -240 -168 0
v -240 -160 0
v -232 -160 0
v -264 -168 0
v -272 -168 0
v -272 -160 0
v -264 -160 0
v -272 -168 0
v -280 -168 0
v -280 -160 0
v -272 -160 0
v -280 -168 0
v -288 -168 0
v -288 -160 0
v -280 -160 0
v -216 -176 0
v -224 -176 0
v -224 -168 0
v -216 -168 0
v -280 -176 0
v -288 -176 0
v -288 -168 0
v -280 -168 0
v -216 -216 0
v -224 -216 0
v -224 -208 0
v -216 -208 0
v -280 -216 0
v -288 -216 0
v -288 -208 0
v -280 -208 0
v -216 -224 0
v -224 -224 0
v -224 -216 0
v -216 -216 0
v -224 -224 0
v -232 -224 0
v -232 -216 0
v -224 -216 0
v -232 -224 0
v -240 -224 0
v -240 -216 0
v -232 -216 0
v -264 -224 0
v -272 -224 0
v -272 -216 0
v -264 -216 0
v -272 -224 0
v -280 -224 0
v -280 -216 0
v -272 -216 0
v -280 -224 0
v -288 -224 0
v -288 -216 0
v -280 -216 0

# Texture cooridinates (Count = 16)
vt 0.3333333 0.6666666
vt 0.6666667 0.6666666
vt 0.6666667 1
vt 0.3333333 1
vt 0.6666667 0
vt 1 0
vt 1 0.3333333
vt 0.6666667 0.3333333
vt 0 0
vt 0.3333333 0
vt 0.3333333 0.3333333
vt 0 0.3333333
vt 1 0.6666666
vt 1 1
vt 0 0.6666666
vt 0 1

# Normal
vn 0 0 -1

# Mesh description
g 1_3_Module29_mesh_0001

# Faces
f 1/1/1 2/2/1 3/3/1 4/4/1
f 5/1/1 6/2/1 7/3/1 8/4/1
f 9/1/1 10/2/1 11/3/1 12/4/1
f 13/1/1 14/2/1 15/3/1 16/4/1
f 17/5/1 18/6/1 19/7/1 20/8/1
f 21/9/1 22/10/1 23/11/1 24/12/1
f 25/1/1 26/2/1 27/3/1 28/4/1
f 29/1/1 30/2/1 31/3/1 32/4/1
f 33/1/1 34/2/1 35/3/1 36/4/1
f 37/1/1 38/2/1 39/3/1 40/4/1
f 41/1/1 42/2/1 43/3/1 44/4/1
f 45/1/1 46/2/1 47/3/1 48/4/1
f 49/1/1 50/2/1 51/3/1 52/4/1
f 53/9/1 54/10/1 55/11/1 56/12/1
f 57/1/1 58/2/1 59/3/1 60/4/1
f 61/1/1 62/2/1 63/3/1 64/4/1
f 65/1/1 66/2/1 67/3/1 68/4/1
f 69/1/1 70/2/1 71/3/1 72/4/1
f 73/2/1 74/13/1 75/14/1 76/3/1
f 77/15/1 78/1/1 79/4/1 80/16/1
f 81/1/1 82/2/1 83/3/1 84/4/1
f 85/1/1 86/2/1 87/3/1 88/4/1
f 89/1/1 90/2/1 91/3/1 92/4/1
f 93/1/1 94/2/1 95/3/1 96/4/1
f 97/5/1 98/6/1 99/7/1 100/8/1
f 101/9/1 102/10/1 103/11/1 104/12/1
f 105/1/1 106/2/1 107/3/1 108/4/1
f 109/1/1 110/2/1 111/3/1 112/4/1
f 113/1/1 114/2/1 115/3/1 116/4/1
f 117/1/1 118/2/1 119/3/1 120/4/1
f 121/1/1 122/2/1 123/3/1 124/4/1
f 125/1/1 126/2/1 127/3/1 128/4/1
f 129/1/1 130/2/1 131/3/1 132/4/1
f 133/1/1 134/2/1 135/3/1 136/4/1
f 137/2/1 138/13/1 139/14/1 140/3/1
f 141/15/1 142/1/1 143/4/1 144/16/1
f 145/1/1 146/2/1 147/3/1 148/4/1
f 149/1/1 150/2/1 151/3/1 152/4/1
f 153/1/1 154/2/1 155/3/1 156/4/1
f 157/1/1 158/2/1 159/3/1 160/4/1
f 161/5/1 162/6/1 163/7/1 164/8/1
f 165/9/1 166/10/1 167/11/1 168/12/1
f 169/1/1 170/2/1 171/3/1 172/4/1
f 173/1/1 174/2/1 175/3/1 176/4/1
f 177/1/1 178/2/1 179/3/1 180/4/1
f 181/1/1 182/2/1 183/3/1 184/4/1
f 185/1/1 186/2/1 187/3/1 188/4/1
f 189/1/1 190/2/1 191/3/1 192/4/1
f 193/1/1 194/2/1 195/3/1 196/4/1
f 197/1/1 198/2/1 199/3/1 200/4/1
f 201/2/1 202/13/1 203/14/1 204/3/1
f 205/15/1 206/1/1 207/4/1 208/16/1
f 209/1/1 210/2/1 211/3/1 212/4/1
f 213/1/1 214/2/1 215/3/1 216/4/1

