# Tiled2Unity generated file. Do not modify by hand.
# Wavefront file for '1_4_23b_mesh_0002.obj'

# Vertices (Count = 732)
v 0 -8 0
v -8 -8 0
v -8 0 0
v 0 0 0
v -8 -8 0
v -16 -8 0
v -16 0 0
v -8 0 0
v -16 -8 0
v -24 -8 0
v -24 0 0
v -16 0 0
v -24 -8 0
v -32 -8 0
v -32 0 0
v -24 0 0
v -32 -8 0
v -40 -8 0
v -40 0 0
v -32 0 0
v -40 -8 0
v -48 -8 0
v -48 0 0
v -40 0 0
v -48 -8 0
v -56 -8 0
v -56 0 0
v -48 0 0
v -56 -8 0
v -64 -8 0
v -64 0 0
v -56 0 0
v -64 -8 0
v -72 -8 0
v -72 0 0
v -64 0 0
v -72 -8 0
v -80 -8 0
v -80 0 0
v -72 0 0
v -80 -8 0
v -88 -8 0
v -88 0 0
v -80 0 0
v -88 -8 0
v -96 -8 0
v -96 0 0
v -88 0 0
v -96 -8 0
v -104 -8 0
v -104 0 0
v -96 0 0
v -104 -8 0
v -112 -8 0
v -112 0 0
v -104 0 0
v -112 -8 0
v -120 -8 0
v -120 0 0
v -112 0 0
v -120 -8 0
v -128 -8 0
v -128 0 0
v -120 0 0
v -128 -8 0
v -136 -8 0
v -136 0 0
v -128 0 0
v -136 -8 0
v -144 -8 0
v -144 0 0
v -136 0 0
v -144 -8 0
v -152 -8 0
v -152 0 0
v -144 0 0
v -152 -8 0
v -160 -8 0
v -160 0 0
v -152 0 0
v -160 -8 0
v -168 -8 0
v -168 0 0
v -160 0 0
v -168 -8 0
v -176 -8 0
v -176 0 0
v -168 0 0
v -176 -8 0
v -184 -8 0
v -184 0 0
v -176 0 0
v -184 -8 0
v -192 -8 0
v -192 0 0
v -184 0 0
v -192 -8 0
v -200 -8 0
v -200 0 0
v -192 0 0
v -200 -8 0
v -208 -8 0
v -208 0 0
v -200 0 0
v -208 -8 0
v -216 -8 0
v -216 0 0
v -208 0 0
v -216 -8 0
v -224 -8 0
v -224 0 0
v -216 0 0
v -224 -8 0
v -232 -8 0
v -232 0 0
v -224 0 0
v -232 -8 0
v -240 -8 0
v -240 0 0
v -232 0 0
v -240 -8 0
v -248 -8 0
v -248 0 0
v -240 0 0
v -248 -8 0
v -256 -8 0
v -256 0 0
v -248 0 0
v -256 -8 0
v -264 -8 0
v -264 0 0
v -256 0 0
v -264 -8 0
v -272 -8 0
v -272 0 0
v -264 0 0
v -272 -8 0
v -280 -8 0
v -280 0 0
v -272 0 0
v -280 -8 0
v -288 -8 0
v -288 0 0
v -280 0 0
v -288 -8 0
v -296 -8 0
v -296 0 0
v -288 0 0
v -296 -8 0
v -304 -8 0
v -304 0 0
v -296 0 0
v -304 -8 0
v -312 -8 0
v -312 0 0
v -304 0 0
v -312 -8 0
v -320 -8 0
v -320 0 0
v -312 0 0
v -320 -8 0
v -328 -8 0
v -328 0 0
v -320 0 0
v -328 -8 0
v -336 -8 0
v -336 0 0
v -328 0 0
v -336 -8 0
v -344 -8 0
v -344 0 0
v -336 0 0
v -344 -8 0
v -352 -8 0
v -352 0 0
v -344 0 0
v -352 -8 0
v -360 -8 0
v -360 0 0
v -352 0 0
v -360 -8 0
v -368 -8 0
v -368 0 0
v -360 0 0
v -368 -8 0
v -376 -8 0
v -376 0 0
v -368 0 0
v -376 -8 0
v -384 -8 0
v -384 0 0
v -376 0 0
v -384 -8 0
v -392 -8 0
v -392 0 0
v -384 0 0
v -392 -8 0
v -400 -8 0
v -400 0 0
v -392 0 0
v -400 -8 0
v -408 -8 0
v -408 0 0
v -400 0 0
v -408 -8 0
v -416 -8 0
v -416 0 0
v -408 0 0
v -416 -8 0
v -424 -8 0
v -424 0 0
v -416 0 0
v -424 -8 0
v -432 -8 0
v -432 0 0
v -424 0 0
v -432 -8 0
v -440 -8 0
v -440 0 0
v -432 0 0
v -440 -8 0
v -448 -8 0
v -448 0 0
v -440 0 0
v -448 -8 0
v -456 -8 0
v -456 0 0
v -448 0 0
v -456 -8 0
v -464 -8 0
v -464 0 0
v -456 0 0
v -464 -8 0
v -472 -8 0
v -472 0 0
v -464 0 0
v -472 -8 0
v -480 -8 0
v -480 0 0
v -472 0 0
v -480 -8 0
v -488 -8 0
v -488 0 0
v -480 0 0
v 0 -16 0
v -8 -16 0
v -8 -8 0
v 0 -8 0
v -480 -16 0
v -488 -16 0
v -488 -8 0
v -480 -8 0
v 0 -24 0
v -8 -24 0
v -8 -16 0
v 0 -16 0
v -480 -24 0
v -488 -24 0
v -488 -16 0
v -480 -16 0
v 0 -32 0
v -8 -32 0
v -8 -24 0
v 0 -24 0
v -480 -32 0
v -488 -32 0
v -488 -24 0
v -480 -24 0
v 0 -40 0
v -8 -40 0
v -8 -32 0
v 0 -32 0
v -480 -40 0
v -488 -40 0
v -488 -32 0
v -480 -32 0
v 0 -48 0
v -8 -48 0
v -8 -40 0
v 0 -40 0
v -480 -48 0
v -488 -48 0
v -488 -40 0
v -480 -40 0
v 0 -56 0
v -8 -56 0
v -8 -48 0
v 0 -48 0
v -480 -56 0
v -488 -56 0
v -488 -48 0
v -480 -48 0
v 0 -64 0
v -8 -64 0
v -8 -56 0
v 0 -56 0
v -480 -64 0
v -488 -64 0
v -488 -56 0
v -480 -56 0
v 0 -72 0
v -8 -72 0
v -8 -64 0
v 0 -64 0
v -480 -72 0
v -488 -72 0
v -488 -64 0
v -480 -64 0
v 0 -80 0
v -8 -80 0
v -8 -72 0
v 0 -72 0
v -480 -80 0
v -488 -80 0
v -488 -72 0
v -480 -72 0
v 0 -88 0
v -8 -88 0
v -8 -80 0
v 0 -80 0
v -480 -88 0
v -488 -88 0
v -488 -80 0
v -480 -80 0
v 0 -96 0
v -8 -96 0
v -8 -88 0
v 0 -88 0
v -480 -96 0
v -488 -96 0
v -488 -88 0
v -480 -88 0
v 0 -104 0
v -8 -104 0
v -8 -96 0
v 0 -96 0
v -480 -104 0
v -488 -104 0
v -488 -96 0
v -480 -96 0
v 0 -112 0
v -8 -112 0
v -8 -104 0
v 0 -104 0
v -480 -112 0
v -488 -112 0
v -488 -104 0
v -480 -104 0
v 0 -120 0
v -8 -120 0
v -8 -112 0
v 0 -112 0
v -480 -120 0
v -488 -120 0
v -488 -112 0
v -480 -112 0
v 0 -128 0
v -8 -128 0
v -8 -120 0
v 0 -120 0
v -480 -128 0
v -488 -128 0
v -488 -120 0
v -480 -120 0
v 0 -136 0
v -8 -136 0
v -8 -128 0
v 0 -128 0
v -480 -136 0
v -488 -136 0
v -488 -128 0
v -480 -128 0
v 0 -144 0
v -8 -144 0
v -8 -136 0
v 0 -136 0
v -480 -144 0
v -488 -144 0
v -488 -136 0
v -480 -136 0
v 0 -152 0
v -8 -152 0
v -8 -144 0
v 0 -144 0
v -480 -152 0
v -488 -152 0
v -488 -144 0
v -480 -144 0
v 0 -160 0
v -8 -160 0
v -8 -152 0
v 0 -152 0
v -480 -160 0
v -488 -160 0
v -488 -152 0
v -480 -152 0
v 0 -168 0
v -8 -168 0
v -8 -160 0
v 0 -160 0
v -232 -168 0
v -240 -168 0
v -240 -160 0
v -232 -160 0
v -240 -168 0
v -248 -168 0
v -248 -160 0
v -240 -160 0
v -480 -168 0
v -488 -168 0
v -488 -160 0
v -480 -160 0
v 0 -176 0
v -8 -176 0
v -8 -168 0
v 0 -168 0
v -232 -176 0
v -240 -176 0
v -240 -168 0
v -232 -168 0
v -240 -176 0
v -248 -176 0
v -248 -168 0
v -240 -168 0
v -480 -176 0
v -488 -176 0
v -488 -168 0
v -480 -168 0
v 0 -184 0
v -8 -184 0
v -8 -176 0
v 0 -176 0
v -480 -184 0
v -488 -184 0
v -488 -176 0
v -480 -176 0
v 0 -192 0
v -8 -192 0
v -8 -184 0
v 0 -184 0
v -480 -192 0
v -488 -192 0
v -488 -184 0
v -480 -184 0
v 0 -200 0
v -8 -200 0
v -8 -192 0
v 0 -192 0
v -480 -200 0
v -488 -200 0
v -488 -192 0
v -480 -192 0
v 0 -208 0
v -8 -208 0
v -8 -200 0
v 0 -200 0
v -480 -208 0
v -488 -208 0
v -488 -200 0
v -480 -200 0
v 0 -216 0
v -8 -216 0
v -8 -208 0
v 0 -208 0
v -480 -216 0
v -488 -216 0
v -488 -208 0
v -480 -208 0
v 0 -224 0
v -8 -224 0
v -8 -216 0
v 0 -216 0
v -56 -224 0
v -64 -224 0
v -64 -216 0
v -56 -216 0
v -64 -224 0
v -72 -224 0
v -72 -216 0
v -64 -216 0
v -72 -224 0
v -80 -224 0
v -80 -216 0
v -72 -216 0
v -80 -224 0
v -88 -224 0
v -88 -216 0
v -80 -216 0
v -392 -224 0
v -400 -224 0
v -400 -216 0
v -392 -216 0
v -400 -224 0
v -408 -224 0
v -408 -216 0
v -400 -216 0
v -408 -224 0
v -416 -224 0
v -416 -216 0
v -408 -216 0
v -416 -224 0
v -424 -224 0
v -424 -216 0
v -416 -216 0
v -480 -224 0
v -488 -224 0
v -488 -216 0
v -480 -216 0
v -48 -232 0
v -56 -232 0
v -56 -224 0
v -48 -224 0
v -56 -232 0
v -64 -232 0
v -64 -224 0
v -56 -224 0
v -64 -232 0
v -72 -232 0
v -72 -224 0
v -64 -224 0
v -72 -232 0
v -80 -232 0
v -80 -224 0
v -72 -224 0
v -80 -232 0
v -88 -232 0
v -88 -224 0
v -80 -224 0
v -88 -232 0
v -96 -232 0
v -96 -224 0
v -88 -224 0
v -384 -232 0
v -392 -232 0
v -392 -224 0
v -384 -224 0
v -392 -232 0
v -400 -232 0
v -400 -224 0
v -392 -224 0
v -400 -232 0
v -408 -232 0
v -408 -224 0
v -400 -224 0
v -408 -232 0
v -416 -232 0
v -416 -224 0
v -408 -224 0
v -416 -232 0
v -424 -232 0
v -424 -224 0
v -416 -224 0
v -424 -232 0
v -432 -232 0
v -432 -224 0
v -424 -224 0
v -48 -240 0
v -56 -240 0
v -56 -232 0
v -48 -232 0
v -56 -240 0
v -64 -240 0
v -64 -232 0
v -56 -232 0
v -64 -240 0
v -72 -240 0
v -72 -232 0
v -64 -232 0
v -72 -240 0
v -80 -240 0
v -80 -232 0
v -72 -232 0
v -80 -240 0
v -88 -240 0
v -88 -232 0
v -80 -232 0
v -88 -240 0
v -96 -240 0
v -96 -232 0
v -88 -232 0
v -384 -240 0
v -392 -240 0
v -392 -232 0
v -384 -232 0
v -392 -240 0
v -400 -240 0
v -400 -232 0
v -392 -232 0
v -400 -240 0
v -408 -240 0
v -408 -232 0
v -400 -232 0
v -408 -240 0
v -416 -240 0
v -416 -232 0
v -408 -232 0
v -416 -240 0
v -424 -240 0
v -424 -232 0
v -416 -232 0
v -424 -240 0
v -432 -240 0
v -432 -232 0
v -424 -232 0
v -56 -248 0
v -64 -248 0
v -64 -240 0
v -56 -240 0
v -64 -248 0
v -72 -248 0
v -72 -240 0
v -64 -240 0
v -72 -248 0
v -80 -248 0
v -80 -240 0
v -72 -240 0
v -80 -248 0
v -88 -248 0
v -88 -240 0
v -80 -240 0
v -392 -248 0
v -400 -248 0
v -400 -240 0
v -392 -240 0
v -400 -248 0
v -408 -248 0
v -408 -240 0
v -400 -240 0
v -408 -248 0
v -416 -248 0
v -416 -240 0
v -408 -240 0
v -416 -248 0
v -424 -248 0
v -424 -240 0
v -416 -240 0
v -232 -264 0
v -240 -264 0
v -240 -256 0
v -232 -256 0
v -240 -264 0
v -248 -264 0
v -248 -256 0
v -240 -256 0
v -224 -272 0
v -232 -272 0
v -232 -264 0
v -224 -264 0
v -232 -272 0
v -240 -272 0
v -240 -264 0
v -232 -264 0
v -240 -272 0
v -248 -272 0
v -248 -264 0
v -240 -264 0
v -248 -272 0
v -256 -272 0
v -256 -264 0
v -248 -264 0
v -216 -280 0
v -224 -280 0
v -224 -272 0
v -216 -272 0
v -224 -280 0
v -232 -280 0
v -232 -272 0
v -224 -272 0
v -232 -280 0
v -240 -280 0
v -240 -272 0
v -232 -272 0
v -240 -280 0
v -248 -280 0
v -248 -272 0
v -240 -272 0
v -248 -280 0
v -256 -280 0
v -256 -272 0
v -248 -272 0
v -256 -280 0
v -264 -280 0
v -264 -272 0
v -256 -272 0
v -216 -288 0
v -224 -288 0
v -224 -280 0
v -216 -280 0
v -224 -288 0
v -232 -288 0
v -232 -280 0
v -224 -280 0
v -232 -288 0
v -240 -288 0
v -240 -280 0
v -232 -280 0
v -240 -288 0
v -248 -288 0
v -248 -280 0
v -240 -280 0
v -248 -288 0
v -256 -288 0
v -256 -280 0
v -248 -280 0
v -256 -288 0
v -264 -288 0
v -264 -280 0
v -256 -280 0
v -224 -296 0
v -232 -296 0
v -232 -288 0
v -224 -288 0
v -232 -296 0
v -240 -296 0
v -240 -288 0
v -232 -288 0
v -240 -296 0
v -248 -296 0
v -248 -288 0
v -240 -288 0
v -248 -296 0
v -256 -296 0
v -256 -288 0
v -248 -288 0
v -232 -304 0
v -240 -304 0
v -240 -296 0
v -232 -296 0
v -240 -304 0
v -248 -304 0
v -248 -296 0
v -240 -296 0

# Texture cooridinates (Count = 59)
vt 0.125 0.75
vt 0.25 0.75
vt 0.25 0.875
vt 0.125 0.875
vt 0.625 0.875
vt 0.75 0.875
vt 0.75 1
vt 0.625 1
vt 0.875 0.875
vt 0.875 1
vt 0.5 0.5
vt 0.625 0.5
vt 0.625 0.625
vt 0.5 0.625
vt 0.75 0.5
vt 0.75 0.625
vt 0.125 0.625
vt 0.25 0.625
vt 0.75 0.375
vt 0.875 0.375
vt 0.875 0.5
vt 1 0.375
vt 1 0.5
vt 0.5 0.375
vt 0.625 0.375
vt 0.75 0.25
vt 0.875 0.25
vt 0.625 0.25
vt 0.5 0.875
vt 0.5 1
vt 0.5 0.125
vt 0.625 0.125
vt 0.5 0.25
vt 0.875 0.125
vt 1 0.125
vt 1 0.25
vt 1 0.625
vt 0.875 0.625
vt 0.5 0
vt 0.625 0
vt 0.75 0
vt 0.75 0.125
vt 0.875 0
vt 1 0
vt 1 0.875
vt 1 1
vt 0.125 0.25
vt 0.25 0.25
vt 0.25 0.375
vt 0.125 0.375
vt 0 0.25
vt 0 0.375
vt 0.875 0.75
vt 1 0.75
vt 0.75 0.75
vt 0.625 0.75
vt 0.5 0.75
vt 0.375 0.75
vt 0.375 0.875

# Normal
vn 0 0 -1

# Mesh description
g 1_4_23b_mesh_0002

# Faces
f 1/1/1 2/2/1 3/3/1 4/4/1
f 5/1/1 6/2/1 7/3/1 8/4/1
f 9/1/1 10/2/1 11/3/1 12/4/1
f 13/1/1 14/2/1 15/3/1 16/4/1
f 17/1/1 18/2/1 19/3/1 20/4/1
f 21/1/1 22/2/1 23/3/1 24/4/1
f 25/1/1 26/2/1 27/3/1 28/4/1
f 29/1/1 30/2/1 31/3/1 32/4/1
f 33/1/1 34/2/1 35/3/1 36/4/1
f 37/1/1 38/2/1 39/3/1 40/4/1
f 41/1/1 42/2/1 43/3/1 44/4/1
f 45/1/1 46/2/1 47/3/1 48/4/1
f 49/1/1 50/2/1 51/3/1 52/4/1
f 53/1/1 54/2/1 55/3/1 56/4/1
f 57/1/1 58/2/1 59/3/1 60/4/1
f 61/1/1 62/2/1 63/3/1 64/4/1
f 65/1/1 66/2/1 67/3/1 68/4/1
f 69/1/1 70/2/1 71/3/1 72/4/1
f 73/1/1 74/2/1 75/3/1 76/4/1
f 77/1/1 78/2/1 79/3/1 80/4/1
f 81/1/1 82/2/1 83/3/1 84/4/1
f 85/1/1 86/2/1 87/3/1 88/4/1
f 89/1/1 90/2/1 91/3/1 92/4/1
f 93/1/1 94/2/1 95/3/1 96/4/1
f 97/1/1 98/2/1 99/3/1 100/4/1
f 101/1/1 102/2/1 103/3/1 104/4/1
f 105/1/1 106/2/1 107/3/1 108/4/1
f 109/1/1 110/2/1 111/3/1 112/4/1
f 113/1/1 114/2/1 115/3/1 116/4/1
f 117/1/1 118/2/1 119/3/1 120/4/1
f 121/1/1 122/2/1 123/3/1 124/4/1
f 125/1/1 126/2/1 127/3/1 128/4/1
f 129/1/1 130/2/1 131/3/1 132/4/1
f 133/1/1 134/2/1 135/3/1 136/4/1
f 137/1/1 138/2/1 139/3/1 140/4/1
f 141/1/1 142/2/1 143/3/1 144/4/1
f 145/1/1 146/2/1 147/3/1 148/4/1
f 149/1/1 150/2/1 151/3/1 152/4/1
f 153/1/1 154/2/1 155/3/1 156/4/1
f 157/1/1 158/2/1 159/3/1 160/4/1
f 161/1/1 162/2/1 163/3/1 164/4/1
f 165/1/1 166/2/1 167/3/1 168/4/1
f 169/1/1 170/2/1 171/3/1 172/4/1
f 173/1/1 174/2/1 175/3/1 176/4/1
f 177/1/1 178/2/1 179/3/1 180/4/1
f 181/1/1 182/2/1 183/3/1 184/4/1
f 185/1/1 186/2/1 187/3/1 188/4/1
f 189/1/1 190/2/1 191/3/1 192/4/1
f 193/1/1 194/2/1 195/3/1 196/4/1
f 197/1/1 198/2/1 199/3/1 200/4/1
f 201/1/1 202/2/1 203/3/1 204/4/1
f 205/1/1 206/2/1 207/3/1 208/4/1
f 209/1/1 210/2/1 211/3/1 212/4/1
f 213/1/1 214/2/1 215/3/1 216/4/1
f 217/1/1 218/2/1 219/3/1 220/4/1
f 221/1/1 222/2/1 223/3/1 224/4/1
f 225/1/1 226/2/1 227/3/1 228/4/1
f 229/1/1 230/2/1 231/3/1 232/4/1
f 233/1/1 234/2/1 235/3/1 236/4/1
f 237/1/1 238/2/1 239/3/1 240/4/1
f 241/1/1 242/2/1 243/3/1 244/4/1
f 245/1/1 246/2/1 247/3/1 248/4/1
f 249/1/1 250/2/1 251/3/1 252/4/1
f 253/1/1 254/2/1 255/3/1 256/4/1
f 257/1/1 258/2/1 259/3/1 260/4/1
f 261/1/1 262/2/1 263/3/1 264/4/1
f 265/1/1 266/2/1 267/3/1 268/4/1
f 269/1/1 270/2/1 271/3/1 272/4/1
f 273/1/1 274/2/1 275/3/1 276/4/1
f 277/1/1 278/2/1 279/3/1 280/4/1
f 281/1/1 282/2/1 283/3/1 284/4/1
f 285/1/1 286/2/1 287/3/1 288/4/1
f 289/1/1 290/2/1 291/3/1 292/4/1
f 293/1/1 294/2/1 295/3/1 296/4/1
f 297/1/1 298/2/1 299/3/1 300/4/1
f 301/1/1 302/2/1 303/3/1 304/4/1
f 305/1/1 306/2/1 307/3/1 308/4/1
f 309/1/1 310/2/1 311/3/1 312/4/1
f 313/1/1 314/2/1 315/3/1 316/4/1
f 317/1/1 318/2/1 319/3/1 320/4/1
f 321/1/1 322/2/1 323/3/1 324/4/1
f 325/1/1 326/2/1 327/3/1 328/4/1
f 329/1/1 330/2/1 331/3/1 332/4/1
f 333/1/1 334/2/1 335/3/1 336/4/1
f 337/1/1 338/2/1 339/3/1 340/4/1
f 341/1/1 342/2/1 343/3/1 344/4/1
f 345/1/1 346/2/1 347/3/1 348/4/1
f 349/1/1 350/2/1 351/3/1 352/4/1
f 353/1/1 354/2/1 355/3/1 356/4/1
f 357/1/1 358/2/1 359/3/1 360/4/1
f 361/1/1 362/2/1 363/3/1 364/4/1
f 365/1/1 366/2/1 367/3/1 368/4/1
f 369/1/1 370/2/1 371/3/1 372/4/1
f 373/1/1 374/2/1 375/3/1 376/4/1
f 377/1/1 378/2/1 379/3/1 380/4/1
f 381/1/1 382/2/1 383/3/1 384/4/1
f 385/1/1 386/2/1 387/3/1 388/4/1
f 389/1/1 390/2/1 391/3/1 392/4/1
f 393/1/1 394/2/1 395/3/1 396/4/1
f 397/1/1 398/2/1 399/3/1 400/4/1
f 401/5/1 402/6/1 403/7/1 404/8/1
f 405/6/1 406/9/1 407/10/1 408/7/1
f 409/1/1 410/2/1 411/3/1 412/4/1
f 413/1/1 414/2/1 415/3/1 416/4/1
f 417/11/1 418/12/1 419/13/1 420/14/1
f 421/12/1 422/15/1 423/16/1 424/13/1
f 425/1/1 426/2/1 427/3/1 428/4/1
f 429/1/1 430/2/1 431/3/1 432/4/1
f 433/1/1 434/2/1 435/3/1 436/4/1
f 437/1/1 438/2/1 439/3/1 440/4/1
f 441/1/1 442/2/1 443/3/1 444/4/1
f 445/1/1 446/2/1 447/3/1 448/4/1
f 449/1/1 450/2/1 451/3/1 452/4/1
f 453/1/1 454/2/1 455/3/1 456/4/1
f 457/1/1 458/2/1 459/3/1 460/4/1
f 461/1/1 462/2/1 463/3/1 464/4/1
f 465/1/1 466/2/1 467/3/1 468/4/1
f 469/17/1 470/18/1 471/2/1 472/1/1
f 473/19/1 474/20/1 475/21/1 476/15/1
f 477/20/1 478/22/1 479/23/1 480/21/1
f 481/24/1 482/25/1 483/12/1 484/11/1
f 485/25/1 486/19/1 487/15/1 488/12/1
f 489/19/1 490/20/1 491/21/1 492/15/1
f 493/20/1 494/22/1 495/23/1 496/21/1
f 497/24/1 498/25/1 499/12/1 500/11/1
f 501/25/1 502/19/1 503/15/1 504/12/1
f 505/17/1 506/18/1 507/2/1 508/1/1
f 509/5/1 510/6/1 511/7/1 512/8/1
f 513/26/1 514/27/1 515/20/1 516/19/1
f 517/1/1 518/2/1 519/3/1 520/4/1
f 521/1/1 522/2/1 523/3/1 524/4/1
f 525/28/1 526/26/1 527/19/1 528/25/1
f 529/29/1 530/5/1 531/8/1 532/30/1
f 533/5/1 534/6/1 535/7/1 536/8/1
f 537/26/1 538/27/1 539/20/1 540/19/1
f 541/1/1 542/2/1 543/3/1 544/4/1
f 545/1/1 546/2/1 547/3/1 548/4/1
f 549/28/1 550/26/1 551/19/1 552/25/1
f 553/29/1 554/5/1 555/8/1 556/30/1
f 557/11/1 558/12/1 559/13/1 560/14/1
f 561/31/1 562/32/1 563/28/1 564/33/1
f 565/1/1 566/2/1 567/3/1 568/4/1
f 569/1/1 570/2/1 571/3/1 572/4/1
f 573/34/1 574/35/1 575/36/1 576/27/1
f 577/21/1 578/23/1 579/37/1 580/38/1
f 581/11/1 582/12/1 583/13/1 584/14/1
f 585/31/1 586/32/1 587/28/1 588/33/1
f 589/1/1 590/2/1 591/3/1 592/4/1
f 593/1/1 594/2/1 595/3/1 596/4/1
f 597/34/1 598/35/1 599/36/1 600/27/1
f 601/21/1 602/23/1 603/37/1 604/38/1
f 605/39/1 606/40/1 607/32/1 608/31/1
f 609/40/1 610/41/1 611/42/1 612/32/1
f 613/41/1 614/43/1 615/34/1 616/42/1
f 617/43/1 618/44/1 619/35/1 620/34/1
f 621/39/1 622/40/1 623/32/1 624/31/1
f 625/40/1 626/41/1 627/42/1 628/32/1
f 629/41/1 630/43/1 631/34/1 632/42/1
f 633/43/1 634/44/1 635/35/1 636/34/1
f 637/9/1 638/45/1 639/46/1 640/10/1
f 641/6/1 642/9/1 643/10/1 644/7/1
f 645/9/1 646/45/1 647/46/1 648/10/1
f 649/47/1 650/48/1 651/49/1 652/50/1
f 653/51/1 654/47/1 655/50/1 656/52/1
f 657/6/1 658/9/1 659/10/1 660/7/1
f 661/5/1 662/6/1 663/7/1 664/8/1
f 665/53/1 666/54/1 667/45/1 668/9/1
f 669/12/1 670/15/1 671/16/1 672/13/1
f 673/11/1 674/12/1 675/13/1 676/14/1
f 677/55/1 678/53/1 679/9/1 680/6/1
f 681/6/1 682/9/1 683/10/1 684/7/1
f 685/11/1 686/12/1 687/13/1 688/14/1
f 689/14/1 690/13/1 691/56/1 692/57/1
f 693/1/1 694/2/1 695/3/1 696/4/1
f 697/2/1 698/58/1 699/59/1 700/3/1
f 701/13/1 702/16/1 703/55/1 704/56/1
f 705/12/1 706/15/1 707/16/1 708/13/1
f 709/11/1 710/12/1 711/13/1 712/14/1
f 713/14/1 714/13/1 715/56/1 716/57/1
f 717/13/1 718/16/1 719/55/1 720/56/1
f 721/12/1 722/15/1 723/16/1 724/13/1
f 725/11/1 726/12/1 727/13/1 728/14/1
f 729/12/1 730/15/1 731/16/1 732/13/1

