# Tiled2Unity generated file. Do not modify by hand.
# Wavefront file for 'StartModule_mesh_0002.obj'

# Vertices (Count = 84)
v -128 -40 0
v -136 -40 0
v -136 -32 0
v -128 -32 0
v -136 -40 0
v -144 -40 0
v -144 -32 0
v -136 -32 0
v -144 -40 0
v -152 -40 0
v -152 -32 0
v -144 -32 0
v -128 -48 0
v -136 -48 0
v -136 -40 0
v -128 -40 0
v -136 -48 0
v -144 -48 0
v -144 -40 0
v -136 -40 0
v -48 -56 0
v -56 -56 0
v -56 -48 0
v -48 -48 0
v -56 -56 0
v -64 -56 0
v -64 -48 0
v -56 -48 0
v -88 -56 0
v -96 -56 0
v -96 -48 0
v -88 -48 0
v -96 -56 0
v -104 -56 0
v -104 -48 0
v -96 -48 0
v -24 -176 0
v -32 -176 0
v -32 -168 0
v -24 -168 0
v -32 -176 0
v -40 -176 0
v -40 -168 0
v -32 -168 0
v -40 -176 0
v -48 -176 0
v -48 -168 0
v -40 -168 0
v -48 -176 0
v -56 -176 0
v -56 -168 0
v -48 -168 0
v -56 -176 0
v -64 -176 0
v -64 -168 0
v -56 -168 0
v -64 -176 0
v -72 -176 0
v -72 -168 0
v -64 -168 0
v -120 -264 0
v -128 -264 0
v -128 -256 0
v -120 -256 0
v -120 -272 0
v -128 -272 0
v -128 -264 0
v -120 -264 0
v -120 -280 0
v -128 -280 0
v -128 -272 0
v -120 -272 0
v -120 -288 0
v -128 -288 0
v -128 -280 0
v -120 -280 0
v -120 -296 0
v -128 -296 0
v -128 -288 0
v -120 -288 0
v -120 -304 0
v -128 -304 0
v -128 -296 0
v -120 -296 0

# Texture cooridinates (Count = 9)
vt 0.3333333 0.3333333
vt 0.6666667 0.3333333
vt 0.6666667 0.6666666
vt 0.3333333 0.6666666
vt 0.6666667 1
vt 0.3333333 1
vt 0 0
vt 0.3333333 0
vt 0 0.3333333

# Normal
vn 0 0 -1

# Mesh description
g StartModule_mesh_0002

# Faces
f 1/1/1 2/2/1 3/3/1 4/4/1
f 5/1/1 6/2/1 7/3/1 8/4/1
f 9/1/1 10/2/1 11/3/1 12/4/1
f 13/1/1 14/2/1 15/3/1 16/4/1
f 17/1/1 18/2/1 19/3/1 20/4/1
f 21/1/1 22/2/1 23/3/1 24/4/1
f 25/1/1 26/2/1 27/3/1 28/4/1
f 29/1/1 30/2/1 31/3/1 32/4/1
f 33/1/1 34/2/1 35/3/1 36/4/1
f 37/1/1 38/2/1 39/3/1 40/4/1
f 41/1/1 42/2/1 43/3/1 44/4/1
f 45/1/1 46/2/1 47/3/1 48/4/1
f 49/1/1 50/2/1 51/3/1 52/4/1
f 53/1/1 54/2/1 55/3/1 56/4/1
f 57/1/1 58/2/1 59/3/1 60/4/1
f 61/4/1 62/3/1 63/5/1 64/6/1
f 65/4/1 66/3/1 67/5/1 68/6/1
f 69/4/1 70/3/1 71/5/1 72/6/1
f 73/4/1 74/3/1 75/5/1 76/6/1
f 77/4/1 78/3/1 79/5/1 80/6/1
f 81/7/1 82/8/1 83/1/1 84/9/1

