# Tiled2Unity generated file. Do not modify by hand.
# Wavefront file for '1_1_Module48_mesh_0004.obj'

# Vertices (Count = 20)
v -144 -40 0
v -152 -40 0
v -152 -32 0
v -144 -32 0
v -304 -40 0
v -312 -40 0
v -312 -32 0
v -304 -32 0
v -64 -80 0
v -72 -80 0
v -72 -72 0
v -64 -72 0
v -384 -80 0
v -392 -80 0
v -392 -72 0
v -384 -72 0
v -224 -88 0
v -232 -88 0
v -232 -80 0
v -224 -80 0

# Texture cooridinates (Count = 4)
vt 0 1
vt 0 0
vt 1 0
vt 1 1

# Normal
vn 0 0 -1

# Mesh description
g 1_1_Module48_mesh_0004

# Faces
f 1/1/1 2/2/1 3/3/1 4/4/1
f 5/1/1 6/2/1 7/3/1 8/4/1
f 9/1/1 10/2/1 11/3/1 12/4/1
f 13/1/1 14/2/1 15/3/1 16/4/1
f 17/1/1 18/2/1 19/3/1 20/4/1

