# Tiled2Unity generated file. Do not modify by hand.
# Wavefront file for '1_1_Module48_mesh_0002.obj'

# Vertices (Count = 20)
v -160 -192 0
v -168 -192 0
v -168 -184 0
v -160 -184 0
v -320 -192 0
v -328 -192 0
v -328 -184 0
v -320 -184 0
v -80 -208 0
v -88 -208 0
v -88 -200 0
v -80 -200 0
v -240 -208 0
v -248 -208 0
v -248 -200 0
v -240 -200 0
v -400 -208 0
v -408 -208 0
v -408 -200 0
v -400 -200 0

# Texture cooridinates (Count = 4)
vt 0 0
vt 1 0
vt 1 1
vt 0 1

# Normal
vn 0 0 -1

# Mesh description
g 1_1_Module48_mesh_0002

# Faces
f 1/1/1 2/2/1 3/3/1 4/4/1
f 5/1/1 6/2/1 7/3/1 8/4/1
f 9/1/1 10/2/1 11/3/1 12/4/1
f 13/1/1 14/2/1 15/3/1 16/4/1
f 17/1/1 18/2/1 19/3/1 20/4/1

