# Tiled2Unity generated file. Do not modify by hand.
# Wavefront file for '1_1_Module11_mesh_0002.obj'

# Vertices (Count = 240)
v -112 -16 0
v -120 -16 0
v -120 -8 0
v -112 -8 0
v -144 -16 0
v -152 -16 0
v -152 -8 0
v -144 -8 0
v -272 -16 0
v -280 -16 0
v -280 -8 0
v -272 -8 0
v -304 -16 0
v -312 -16 0
v -312 -8 0
v -304 -8 0
v -416 -16 0
v -424 -16 0
v -424 -8 0
v -416 -8 0
v -112 -24 0
v -120 -24 0
v -120 -16 0
v -112 -16 0
v -144 -24 0
v -152 -24 0
v -152 -16 0
v -144 -16 0
v -272 -24 0
v -280 -24 0
v -280 -16 0
v -272 -16 0
v -304 -24 0
v -312 -24 0
v -312 -16 0
v -304 -16 0
v -416 -24 0
v -424 -24 0
v -424 -16 0
v -416 -16 0
v -112 -32 0
v -120 -32 0
v -120 -24 0
v -112 -24 0
v -144 -32 0
v -152 -32 0
v -152 -24 0
v -144 -24 0
v -272 -32 0
v -280 -32 0
v -280 -24 0
v -272 -24 0
v -304 -32 0
v -312 -32 0
v -312 -24 0
v -304 -24 0
v -416 -32 0
v -424 -32 0
v -424 -24 0
v -416 -24 0
v -112 -40 0
v -120 -40 0
v -120 -32 0
v -112 -32 0
v -144 -40 0
v -152 -40 0
v -152 -32 0
v -144 -32 0
v -240 -40 0
v -248 -40 0
v -248 -32 0
v -240 -32 0
v -248 -40 0
v -256 -40 0
v -256 -32 0
v -248 -32 0
v -256 -40 0
v -264 -40 0
v -264 -32 0
v -256 -32 0
v -264 -40 0
v -272 -40 0
v -272 -32 0
v -264 -32 0
v -272 -40 0
v -280 -40 0
v -280 -32 0
v -272 -32 0
v -304 -40 0
v -312 -40 0
v -312 -32 0
v -304 -32 0
v -416 -40 0
v -424 -40 0
v -424 -32 0
v -416 -32 0
v -80 -48 0
v -88 -48 0
v -88 -40 0
v -80 -40 0
v -88 -48 0
v -96 -48 0
v -96 -40 0
v -88 -40 0
v -96 -48 0
v -104 -48 0
v -104 -40 0
v -96 -40 0
v -104 -48 0
v -112 -48 0
v -112 -40 0
v -104 -40 0
v -112 -48 0
v -120 -48 0
v -120 -40 0
v -112 -40 0
v -144 -48 0
v -152 -48 0
v -152 -40 0
v -144 -40 0
v -248 -48 0
v -256 -48 0
v -256 -40 0
v -248 -40 0
v -256 -48 0
v -264 -48 0
v -264 -40 0
v -256 -40 0
v -264 -48 0
v -272 -48 0
v -272 -40 0
v -264 -40 0
v -272 -48 0
v -280 -48 0
v -280 -40 0
v -272 -40 0
v -304 -48 0
v -312 -48 0
v -312 -40 0
v -304 -40 0
v -416 -48 0
v -424 -48 0
v -424 -40 0
v -416 -40 0
v -88 -56 0
v -96 -56 0
v -96 -48 0
v -88 -48 0
v -96 -56 0
v -104 -56 0
v -104 -48 0
v -96 -48 0
v -104 -56 0
v -112 -56 0
v -112 -48 0
v -104 -48 0
v -112 -56 0
v -120 -56 0
v -120 -48 0
v -112 -48 0
v -144 -56 0
v -152 -56 0
v -152 -48 0
v -144 -48 0
v -256 -56 0
v -264 -56 0
v -264 -48 0
v -256 -48 0
v -264 -56 0
v -272 -56 0
v -272 -48 0
v -264 -48 0
v -272 -56 0
v -280 -56 0
v -280 -48 0
v -272 -48 0
v -304 -56 0
v -312 -56 0
v -312 -48 0
v -304 -48 0
v -416 -56 0
v -424 -56 0
v -424 -48 0
v -416 -48 0
v -96 -64 0
v -104 -64 0
v -104 -56 0
v -96 -56 0
v -104 -64 0
v -112 -64 0
v -112 -56 0
v -104 -56 0
v -112 -64 0
v -120 -64 0
v -120 -56 0
v -112 -56 0
v -144 -64 0
v -152 -64 0
v -152 -56 0
v -144 -56 0
v -264 -64 0
v -272 -64 0
v -272 -56 0
v -264 -56 0
v -272 -64 0
v -280 -64 0
v -280 -56 0
v -272 -56 0
v -304 -64 0
v -312 -64 0
v -312 -56 0
v -304 -56 0
v -104 -72 0
v -112 -72 0
v -112 -64 0
v -104 -64 0
v -112 -72 0
v -120 -72 0
v -120 -64 0
v -112 -64 0
v -144 -72 0
v -152 -72 0
v -152 -64 0
v -144 -64 0
v -272 -72 0
v -280 -72 0
v -280 -64 0
v -272 -64 0
v -304 -72 0
v -312 -72 0
v -312 -64 0
v -304 -64 0
v -112 -80 0
v -120 -80 0
v -120 -72 0
v -112 -72 0
v -144 -80 0
v -152 -80 0
v -152 -72 0
v -144 -72 0

# Texture cooridinates (Count = 8)
vt 0.3333333 0.6666666
vt 0.6666667 0.6666666
vt 0.6666667 1
vt 0.3333333 1
vt 0 0
vt 0.3333333 0
vt 0.3333333 0.3333333
vt 0 0.3333333

# Normal
vn 0 0 -1

# Mesh description
g 1_1_Module11_mesh_0002

# Faces
f 1/1/1 2/2/1 3/3/1 4/4/1
f 5/1/1 6/2/1 7/3/1 8/4/1
f 9/1/1 10/2/1 11/3/1 12/4/1
f 13/1/1 14/2/1 15/3/1 16/4/1
f 17/1/1 18/2/1 19/3/1 20/4/1
f 21/1/1 22/2/1 23/3/1 24/4/1
f 25/1/1 26/2/1 27/3/1 28/4/1
f 29/1/1 30/2/1 31/3/1 32/4/1
f 33/1/1 34/2/1 35/3/1 36/4/1
f 37/1/1 38/2/1 39/3/1 40/4/1
f 41/1/1 42/2/1 43/3/1 44/4/1
f 45/1/1 46/2/1 47/3/1 48/4/1
f 49/1/1 50/2/1 51/3/1 52/4/1
f 53/1/1 54/2/1 55/3/1 56/4/1
f 57/1/1 58/2/1 59/3/1 60/4/1
f 61/1/1 62/2/1 63/3/1 64/4/1
f 65/1/1 66/2/1 67/3/1 68/4/1
f 69/5/1 70/6/1 71/7/1 72/8/1
f 73/1/1 74/2/1 75/3/1 76/4/1
f 77/1/1 78/2/1 79/3/1 80/4/1
f 81/1/1 82/2/1 83/3/1 84/4/1
f 85/1/1 86/2/1 87/3/1 88/4/1
f 89/1/1 90/2/1 91/3/1 92/4/1
f 93/1/1 94/2/1 95/3/1 96/4/1
f 97/5/1 98/6/1 99/7/1 100/8/1
f 101/1/1 102/2/1 103/3/1 104/4/1
f 105/1/1 106/2/1 107/3/1 108/4/1
f 109/1/1 110/2/1 111/3/1 112/4/1
f 113/1/1 114/2/1 115/3/1 116/4/1
f 117/1/1 118/2/1 119/3/1 120/4/1
f 121/5/1 122/6/1 123/7/1 124/8/1
f 125/1/1 126/2/1 127/3/1 128/4/1
f 129/1/1 130/2/1 131/3/1 132/4/1
f 133/1/1 134/2/1 135/3/1 136/4/1
f 137/1/1 138/2/1 139/3/1 140/4/1
f 141/1/1 142/2/1 143/3/1 144/4/1
f 145/5/1 146/6/1 147/7/1 148/8/1
f 149/1/1 150/2/1 151/3/1 152/4/1
f 153/1/1 154/2/1 155/3/1 156/4/1
f 157/1/1 158/2/1 159/3/1 160/4/1
f 161/1/1 162/2/1 163/3/1 164/4/1
f 165/5/1 166/6/1 167/7/1 168/8/1
f 169/1/1 170/2/1 171/3/1 172/4/1
f 173/1/1 174/2/1 175/3/1 176/4/1
f 177/1/1 178/2/1 179/3/1 180/4/1
f 181/5/1 182/6/1 183/7/1 184/8/1
f 185/5/1 186/6/1 187/7/1 188/8/1
f 189/1/1 190/2/1 191/3/1 192/4/1
f 193/1/1 194/2/1 195/3/1 196/4/1
f 197/1/1 198/2/1 199/3/1 200/4/1
f 201/5/1 202/6/1 203/7/1 204/8/1
f 205/1/1 206/2/1 207/3/1 208/4/1
f 209/1/1 210/2/1 211/3/1 212/4/1
f 213/5/1 214/6/1 215/7/1 216/8/1
f 217/1/1 218/2/1 219/3/1 220/4/1
f 221/1/1 222/2/1 223/3/1 224/4/1
f 225/5/1 226/6/1 227/7/1 228/8/1
f 229/5/1 230/6/1 231/7/1 232/8/1
f 233/5/1 234/6/1 235/7/1 236/8/1
f 237/5/1 238/6/1 239/7/1 240/8/1

