# Tiled2Unity generated file. Do not modify by hand.
# Wavefront file for '1_3_23a_mesh_0001.obj'

# Vertices (Count = 256)
v -232 -264 0
v -240 -264 0
v -240 -256 0
v -232 -256 0
v -240 -264 0
v -248 -264 0
v -248 -256 0
v -240 -256 0
v -224 -272 0
v -232 -272 0
v -232 -264 0
v -224 -264 0
v -232 -272 0
v -240 -272 0
v -240 -264 0
v -232 -264 0
v -240 -272 0
v -248 -272 0
v -248 -264 0
v -240 -264 0
v -248 -272 0
v -256 -272 0
v -256 -264 0
v -248 -264 0
v -216 -280 0
v -224 -280 0
v -224 -272 0
v -216 -272 0
v -224 -280 0
v -232 -280 0
v -232 -272 0
v -224 -272 0
v -232 -280 0
v -240 -280 0
v -240 -272 0
v -232 -272 0
v -240 -280 0
v -248 -280 0
v -248 -272 0
v -240 -272 0
v -248 -280 0
v -256 -280 0
v -256 -272 0
v -248 -272 0
v -256 -280 0
v -264 -280 0
v -264 -272 0
v -256 -272 0
v -216 -288 0
v -224 -288 0
v -224 -280 0
v -216 -280 0
v -224 -288 0
v -232 -288 0
v -232 -280 0
v -224 -280 0
v -232 -288 0
v -240 -288 0
v -240 -280 0
v -232 -280 0
v -240 -288 0
v -248 -288 0
v -248 -280 0
v -240 -280 0
v -248 -288 0
v -256 -288 0
v -256 -280 0
v -248 -280 0
v -256 -288 0
v -264 -288 0
v -264 -280 0
v -256 -280 0
v -224 -296 0
v -232 -296 0
v -232 -288 0
v -224 -288 0
v -232 -296 0
v -240 -296 0
v -240 -288 0
v -232 -288 0
v -240 -296 0
v -248 -296 0
v -248 -288 0
v -240 -288 0
v -248 -296 0
v -256 -296 0
v -256 -288 0
v -248 -288 0
v -232 -304 0
v -240 -304 0
v -240 -296 0
v -232 -296 0
v -240 -304 0
v -248 -304 0
v -248 -296 0
v -240 -296 0
v -104 -328 0
v -112 -328 0
v -112 -320 0
v -104 -320 0
v -112 -328 0
v -120 -328 0
v -120 -320 0
v -112 -320 0
v -120 -328 0
v -128 -328 0
v -128 -320 0
v -120 -320 0
v -128 -328 0
v -136 -328 0
v -136 -320 0
v -128 -320 0
v -344 -328 0
v -352 -328 0
v -352 -320 0
v -344 -320 0
v -352 -328 0
v -360 -328 0
v -360 -320 0
v -352 -320 0
v -360 -328 0
v -368 -328 0
v -368 -320 0
v -360 -320 0
v -368 -328 0
v -376 -328 0
v -376 -320 0
v -368 -320 0
v -96 -336 0
v -104 -336 0
v -104 -328 0
v -96 -328 0
v -104 -336 0
v -112 -336 0
v -112 -328 0
v -104 -328 0
v -112 -336 0
v -120 -336 0
v -120 -328 0
v -112 -328 0
v -120 -336 0
v -128 -336 0
v -128 -328 0
v -120 -328 0
v -128 -336 0
v -136 -336 0
v -136 -328 0
v -128 -328 0
v -136 -336 0
v -144 -336 0
v -144 -328 0
v -136 -328 0
v -336 -336 0
v -344 -336 0
v -344 -328 0
v -336 -328 0
v -344 -336 0
v -352 -336 0
v -352 -328 0
v -344 -328 0
v -352 -336 0
v -360 -336 0
v -360 -328 0
v -352 -328 0
v -360 -336 0
v -368 -336 0
v -368 -328 0
v -360 -328 0
v -368 -336 0
v -376 -336 0
v -376 -328 0
v -368 -328 0
v -376 -336 0
v -384 -336 0
v -384 -328 0
v -376 -328 0
v -96 -344 0
v -104 -344 0
v -104 -336 0
v -96 -336 0
v -104 -344 0
v -112 -344 0
v -112 -336 0
v -104 -336 0
v -112 -344 0
v -120 -344 0
v -120 -336 0
v -112 -336 0
v -120 -344 0
v -128 -344 0
v -128 -336 0
v -120 -336 0
v -128 -344 0
v -136 -344 0
v -136 -336 0
v -128 -336 0
v -136 -344 0
v -144 -344 0
v -144 -336 0
v -136 -336 0
v -336 -344 0
v -344 -344 0
v -344 -336 0
v -336 -336 0
v -344 -344 0
v -352 -344 0
v -352 -336 0
v -344 -336 0
v -352 -344 0
v -360 -344 0
v -360 -336 0
v -352 -336 0
v -360 -344 0
v -368 -344 0
v -368 -336 0
v -360 -336 0
v -368 -344 0
v -376 -344 0
v -376 -336 0
v -368 -336 0
v -376 -344 0
v -384 -344 0
v -384 -336 0
v -376 -336 0
v -104 -352 0
v -112 -352 0
v -112 -344 0
v -104 -344 0
v -112 -352 0
v -120 -352 0
v -120 -344 0
v -112 -344 0
v -120 -352 0
v -128 -352 0
v -128 -344 0
v -120 -344 0
v -128 -352 0
v -136 -352 0
v -136 -344 0
v -128 -344 0
v -344 -352 0
v -352 -352 0
v -352 -344 0
v -344 -344 0
v -352 -352 0
v -360 -352 0
v -360 -344 0
v -352 -344 0
v -360 -352 0
v -368 -352 0
v -368 -344 0
v -360 -344 0
v -368 -352 0
v -376 -352 0
v -376 -344 0
v -368 -344 0

# Texture cooridinates (Count = 57)
vt 0.875 0.875
vt 1 0.875
vt 1 1
vt 0.875 1
vt 0.75 0.875
vt 0.75 1
vt 0.125 0.25
vt 0.25 0.25
vt 0.25 0.375
vt 0.125 0.375
vt 0 0.25
vt 0 0.375
vt 0.625 0.875
vt 0.625 1
vt 0.875 0.75
vt 1 0.75
vt 0.625 0.5
vt 0.75 0.5
vt 0.75 0.625
vt 0.625 0.625
vt 0.5 0.5
vt 0.5 0.625
vt 0.75 0.75
vt 0.625 0.75
vt 0.5 0.75
vt 0.125 0.75
vt 0.25 0.75
vt 0.25 0.875
vt 0.125 0.875
vt 0.375 0.75
vt 0.375 0.875
vt 0.75 0.375
vt 0.875 0.375
vt 0.875 0.5
vt 1 0.375
vt 1 0.5
vt 0.5 0.375
vt 0.625 0.375
vt 0.75 0.25
vt 0.875 0.25
vt 0.625 0.25
vt 0.5 0.875
vt 0.5 1
vt 0.5 0.125
vt 0.625 0.125
vt 0.5 0.25
vt 0.875 0.125
vt 1 0.125
vt 1 0.25
vt 1 0.625
vt 0.875 0.625
vt 0.5 0
vt 0.625 0
vt 0.75 0
vt 0.75 0.125
vt 0.875 0
vt 1 0

# Normal
vn 0 0 -1

# Mesh description
g 1_3_23a_mesh_0001

# Faces
f 1/1/1 2/2/1 3/3/1 4/4/1
f 5/5/1 6/1/1 7/4/1 8/6/1
f 9/1/1 10/2/1 11/3/1 12/4/1
f 13/7/1 14/8/1 15/9/1 16/10/1
f 17/11/1 18/7/1 19/10/1 20/12/1
f 21/5/1 22/1/1 23/4/1 24/6/1
f 25/13/1 26/5/1 27/6/1 28/14/1
f 29/15/1 30/16/1 31/2/1 32/1/1
f 33/17/1 34/18/1 35/19/1 36/20/1
f 37/21/1 38/17/1 39/20/1 40/22/1
f 41/23/1 42/15/1 43/1/1 44/5/1
f 45/5/1 46/1/1 47/4/1 48/6/1
f 49/21/1 50/17/1 51/20/1 52/22/1
f 53/22/1 54/20/1 55/24/1 56/25/1
f 57/26/1 58/27/1 59/28/1 60/29/1
f 61/27/1 62/30/1 63/31/1 64/28/1
f 65/20/1 66/19/1 67/23/1 68/24/1
f 69/17/1 70/18/1 71/19/1 72/20/1
f 73/21/1 74/17/1 75/20/1 76/22/1
f 77/22/1 78/20/1 79/24/1 80/25/1
f 81/20/1 82/19/1 83/23/1 84/24/1
f 85/17/1 86/18/1 87/19/1 88/20/1
f 89/21/1 90/17/1 91/20/1 92/22/1
f 93/17/1 94/18/1 95/19/1 96/20/1
f 97/32/1 98/33/1 99/34/1 100/18/1
f 101/33/1 102/35/1 103/36/1 104/34/1
f 105/37/1 106/38/1 107/17/1 108/21/1
f 109/38/1 110/32/1 111/18/1 112/17/1
f 113/32/1 114/33/1 115/34/1 116/18/1
f 117/33/1 118/35/1 119/36/1 120/34/1
f 121/37/1 122/38/1 123/17/1 124/21/1
f 125/38/1 126/32/1 127/18/1 128/17/1
f 129/13/1 130/5/1 131/6/1 132/14/1
f 133/39/1 134/40/1 135/33/1 136/32/1
f 137/26/1 138/27/1 139/28/1 140/29/1
f 141/26/1 142/27/1 143/28/1 144/29/1
f 145/41/1 146/39/1 147/32/1 148/38/1
f 149/42/1 150/13/1 151/14/1 152/43/1
f 153/13/1 154/5/1 155/6/1 156/14/1
f 157/39/1 158/40/1 159/33/1 160/32/1
f 161/26/1 162/27/1 163/28/1 164/29/1
f 165/26/1 166/27/1 167/28/1 168/29/1
f 169/41/1 170/39/1 171/32/1 172/38/1
f 173/42/1 174/13/1 175/14/1 176/43/1
f 177/21/1 178/17/1 179/20/1 180/22/1
f 181/44/1 182/45/1 183/41/1 184/46/1
f 185/26/1 186/27/1 187/28/1 188/29/1
f 189/26/1 190/27/1 191/28/1 192/29/1
f 193/47/1 194/48/1 195/49/1 196/40/1
f 197/34/1 198/36/1 199/50/1 200/51/1
f 201/21/1 202/17/1 203/20/1 204/22/1
f 205/44/1 206/45/1 207/41/1 208/46/1
f 209/26/1 210/27/1 211/28/1 212/29/1
f 213/26/1 214/27/1 215/28/1 216/29/1
f 217/47/1 218/48/1 219/49/1 220/40/1
f 221/34/1 222/36/1 223/50/1 224/51/1
f 225/52/1 226/53/1 227/45/1 228/44/1
f 229/53/1 230/54/1 231/55/1 232/45/1
f 233/54/1 234/56/1 235/47/1 236/55/1
f 237/56/1 238/57/1 239/48/1 240/47/1
f 241/52/1 242/53/1 243/45/1 244/44/1
f 245/53/1 246/54/1 247/55/1 248/45/1
f 249/54/1 250/56/1 251/47/1 252/55/1
f 253/56/1 254/57/1 255/48/1 256/47/1

