# Tiled2Unity generated file. Do not modify by hand.
# Wavefront file for '1_3_24a_mesh_0001.obj'

# Vertices (Count = 1044)
v -392 -160 0
v -400 -160 0
v -400 -152 0
v -392 -152 0
v -400 -160 0
v -408 -160 0
v -408 -152 0
v -400 -152 0
v -408 -160 0
v -416 -160 0
v -416 -152 0
v -408 -152 0
v -416 -160 0
v -424 -160 0
v -424 -152 0
v -416 -152 0
v -392 -168 0
v -400 -168 0
v -400 -160 0
v -392 -160 0
v -416 -168 0
v -424 -168 0
v -424 -160 0
v -416 -160 0
v -392 -176 0
v -400 -176 0
v -400 -168 0
v -392 -168 0
v -416 -176 0
v -424 -176 0
v -424 -168 0
v -416 -168 0
v -392 -184 0
v -400 -184 0
v -400 -176 0
v -392 -176 0
v -416 -184 0
v -424 -184 0
v -424 -176 0
v -416 -176 0
v -392 -192 0
v -400 -192 0
v -400 -184 0
v -392 -184 0
v -416 -192 0
v -424 -192 0
v -424 -184 0
v -416 -184 0
v -392 -200 0
v -400 -200 0
v -400 -192 0
v -392 -192 0
v -416 -200 0
v -424 -200 0
v -424 -192 0
v -416 -192 0
v -392 -208 0
v -400 -208 0
v -400 -200 0
v -392 -200 0
v -416 -208 0
v -424 -208 0
v -424 -200 0
v -416 -200 0
v -288 -216 0
v -296 -216 0
v -296 -208 0
v -288 -208 0
v -296 -216 0
v -304 -216 0
v -304 -208 0
v -296 -208 0
v -304 -216 0
v -312 -216 0
v -312 -208 0
v -304 -208 0
v -312 -216 0
v -320 -216 0
v -320 -208 0
v -312 -208 0
v -320 -216 0
v -328 -216 0
v -328 -208 0
v -320 -208 0
v -392 -216 0
v -400 -216 0
v -400 -208 0
v -392 -208 0
v -416 -216 0
v -424 -216 0
v -424 -208 0
v -416 -208 0
v -288 -224 0
v -296 -224 0
v -296 -216 0
v -288 -216 0
v -296 -224 0
v -304 -224 0
v -304 -216 0
v -296 -216 0
v -304 -224 0
v -312 -224 0
v -312 -216 0
v -304 -216 0
v -312 -224 0
v -320 -224 0
v -320 -216 0
v -312 -216 0
v -320 -224 0
v -328 -224 0
v -328 -216 0
v -320 -216 0
v -392 -224 0
v -400 -224 0
v -400 -216 0
v -392 -216 0
v -416 -224 0
v -424 -224 0
v -424 -216 0
v -416 -216 0
v -288 -232 0
v -296 -232 0
v -296 -224 0
v -288 -224 0
v -296 -232 0
v -304 -232 0
v -304 -224 0
v -296 -224 0
v -304 -232 0
v -312 -232 0
v -312 -224 0
v -304 -224 0
v -312 -232 0
v -320 -232 0
v -320 -224 0
v -312 -224 0
v -320 -232 0
v -328 -232 0
v -328 -224 0
v -320 -224 0
v -392 -232 0
v -400 -232 0
v -400 -224 0
v -392 -224 0
v -416 -232 0
v -424 -232 0
v -424 -224 0
v -416 -224 0
v -288 -240 0
v -296 -240 0
v -296 -232 0
v -288 -232 0
v -296 -240 0
v -304 -240 0
v -304 -232 0
v -296 -232 0
v -304 -240 0
v -312 -240 0
v -312 -232 0
v -304 -232 0
v -312 -240 0
v -320 -240 0
v -320 -232 0
v -312 -232 0
v -320 -240 0
v -328 -240 0
v -328 -232 0
v -320 -232 0
v -392 -240 0
v -400 -240 0
v -400 -232 0
v -392 -232 0
v -416 -240 0
v -424 -240 0
v -424 -232 0
v -416 -232 0
v -288 -248 0
v -296 -248 0
v -296 -240 0
v -288 -240 0
v -296 -248 0
v -304 -248 0
v -304 -240 0
v -296 -240 0
v -304 -248 0
v -312 -248 0
v -312 -240 0
v -304 -240 0
v -312 -248 0
v -320 -248 0
v -320 -240 0
v -312 -240 0
v -320 -248 0
v -328 -248 0
v -328 -240 0
v -320 -240 0
v -392 -248 0
v -400 -248 0
v -400 -240 0
v -392 -240 0
v -416 -248 0
v -424 -248 0
v -424 -240 0
v -416 -240 0
v -288 -256 0
v -296 -256 0
v -296 -248 0
v -288 -248 0
v -296 -256 0
v -304 -256 0
v -304 -248 0
v -296 -248 0
v -304 -256 0
v -312 -256 0
v -312 -248 0
v -304 -248 0
v -312 -256 0
v -320 -256 0
v -320 -248 0
v -312 -248 0
v -320 -256 0
v -328 -256 0
v -328 -248 0
v -320 -248 0
v -392 -256 0
v -400 -256 0
v -400 -248 0
v -392 -248 0
v -416 -256 0
v -424 -256 0
v -424 -248 0
v -416 -248 0
v -288 -264 0
v -296 -264 0
v -296 -256 0
v -288 -256 0
v -296 -264 0
v -304 -264 0
v -304 -256 0
v -296 -256 0
v -304 -264 0
v -312 -264 0
v -312 -256 0
v -304 -256 0
v -312 -264 0
v -320 -264 0
v -320 -256 0
v -312 -256 0
v -320 -264 0
v -328 -264 0
v -328 -256 0
v -320 -256 0
v -392 -264 0
v -400 -264 0
v -400 -256 0
v -392 -256 0
v -416 -264 0
v -424 -264 0
v -424 -256 0
v -416 -256 0
v -288 -272 0
v -296 -272 0
v -296 -264 0
v -288 -264 0
v -296 -272 0
v -304 -272 0
v -304 -264 0
v -296 -264 0
v -304 -272 0
v -312 -272 0
v -312 -264 0
v -304 -264 0
v -312 -272 0
v -320 -272 0
v -320 -264 0
v -312 -264 0
v -320 -272 0
v -328 -272 0
v -328 -264 0
v -320 -264 0
v -392 -272 0
v -400 -272 0
v -400 -264 0
v -392 -264 0
v -416 -272 0
v -424 -272 0
v -424 -264 0
v -416 -264 0
v -288 -280 0
v -296 -280 0
v -296 -272 0
v -288 -272 0
v -296 -280 0
v -304 -280 0
v -304 -272 0
v -296 -272 0
v -304 -280 0
v -312 -280 0
v -312 -272 0
v -304 -272 0
v -312 -280 0
v -320 -280 0
v -320 -272 0
v -312 -272 0
v -320 -280 0
v -328 -280 0
v -328 -272 0
v -320 -272 0
v -392 -280 0
v -400 -280 0
v -400 -272 0
v -392 -272 0
v -416 -280 0
v -424 -280 0
v -424 -272 0
v -416 -272 0
v -288 -288 0
v -296 -288 0
v -296 -280 0
v -288 -280 0
v -296 -288 0
v -304 -288 0
v -304 -280 0
v -296 -280 0
v -304 -288 0
v -312 -288 0
v -312 -280 0
v -304 -280 0
v -312 -288 0
v -320 -288 0
v -320 -280 0
v -312 -280 0
v -320 -288 0
v -328 -288 0
v -328 -280 0
v -320 -280 0
v -392 -288 0
v -400 -288 0
v -400 -280 0
v -392 -280 0
v -416 -288 0
v -424 -288 0
v -424 -280 0
v -416 -280 0
v -288 -296 0
v -296 -296 0
v -296 -288 0
v -288 -288 0
v -296 -296 0
v -304 -296 0
v -304 -288 0
v -296 -288 0
v -304 -296 0
v -312 -296 0
v -312 -288 0
v -304 -288 0
v -312 -296 0
v -320 -296 0
v -320 -288 0
v -312 -288 0
v -320 -296 0
v -328 -296 0
v -328 -288 0
v -320 -288 0
v -392 -296 0
v -400 -296 0
v -400 -288 0
v -392 -288 0
v -416 -296 0
v -424 -296 0
v -424 -288 0
v -416 -288 0
v -288 -304 0
v -296 -304 0
v -296 -296 0
v -288 -296 0
v -296 -304 0
v -304 -304 0
v -304 -296 0
v -296 -296 0
v -304 -304 0
v -312 -304 0
v -312 -296 0
v -304 -296 0
v -312 -304 0
v -320 -304 0
v -320 -296 0
v -312 -296 0
v -320 -304 0
v -328 -304 0
v -328 -296 0
v -320 -296 0
v -392 -304 0
v -400 -304 0
v -400 -296 0
v -392 -296 0
v -416 -304 0
v -424 -304 0
v -424 -296 0
v -416 -296 0
v -288 -312 0
v -296 -312 0
v -296 -304 0
v -288 -304 0
v -296 -312 0
v -304 -312 0
v -304 -304 0
v -296 -304 0
v -304 -312 0
v -312 -312 0
v -312 -304 0
v -304 -304 0
v -312 -312 0
v -320 -312 0
v -320 -304 0
v -312 -304 0
v -320 -312 0
v -328 -312 0
v -328 -304 0
v -320 -304 0
v -392 -312 0
v -400 -312 0
v -400 -304 0
v -392 -304 0
v -416 -312 0
v -424 -312 0
v -424 -304 0
v -416 -304 0
v -288 -320 0
v -296 -320 0
v -296 -312 0
v -288 -312 0
v -296 -320 0
v -304 -320 0
v -304 -312 0
v -296 -312 0
v -304 -320 0
v -312 -320 0
v -312 -312 0
v -304 -312 0
v -312 -320 0
v -320 -320 0
v -320 -312 0
v -312 -312 0
v -320 -320 0
v -328 -320 0
v -328 -312 0
v -320 -312 0
v -392 -320 0
v -400 -320 0
v -400 -312 0
v -392 -312 0
v -416 -320 0
v -424 -320 0
v -424 -312 0
v -416 -312 0
v -288 -328 0
v -296 -328 0
v -296 -320 0
v -288 -320 0
v -296 -328 0
v -304 -328 0
v -304 -320 0
v -296 -320 0
v -304 -328 0
v -312 -328 0
v -312 -320 0
v -304 -320 0
v -312 -328 0
v -320 -328 0
v -320 -320 0
v -312 -320 0
v -320 -328 0
v -328 -328 0
v -328 -320 0
v -320 -320 0
v -392 -328 0
v -400 -328 0
v -400 -320 0
v -392 -320 0
v -416 -328 0
v -424 -328 0
v -424 -320 0
v -416 -320 0
v -288 -336 0
v -296 -336 0
v -296 -328 0
v -288 -328 0
v -296 -336 0
v -304 -336 0
v -304 -328 0
v -296 -328 0
v -304 -336 0
v -312 -336 0
v -312 -328 0
v -304 -328 0
v -312 -336 0
v -320 -336 0
v -320 -328 0
v -312 -328 0
v -320 -336 0
v -328 -336 0
v -328 -328 0
v -320 -328 0
v -392 -336 0
v -400 -336 0
v -400 -328 0
v -392 -328 0
v -416 -336 0
v -424 -336 0
v -424 -328 0
v -416 -328 0
v -288 -344 0
v -296 -344 0
v -296 -336 0
v -288 -336 0
v -296 -344 0
v -304 -344 0
v -304 -336 0
v -296 -336 0
v -304 -344 0
v -312 -344 0
v -312 -336 0
v -304 -336 0
v -312 -344 0
v -320 -344 0
v -320 -336 0
v -312 -336 0
v -320 -344 0
v -328 -344 0
v -328 -336 0
v -320 -336 0
v -392 -344 0
v -400 -344 0
v -400 -336 0
v -392 -336 0
v -416 -344 0
v -424 -344 0
v -424 -336 0
v -416 -336 0
v -288 -352 0
v -296 -352 0
v -296 -344 0
v -288 -344 0
v -296 -352 0
v -304 -352 0
v -304 -344 0
v -296 -344 0
v -304 -352 0
v -312 -352 0
v -312 -344 0
v -304 -344 0
v -312 -352 0
v -320 -352 0
v -320 -344 0
v -312 -344 0
v -320 -352 0
v -328 -352 0
v -328 -344 0
v -320 -344 0
v -392 -352 0
v -400 -352 0
v -400 -344 0
v -392 -344 0
v -416 -352 0
v -424 -352 0
v -424 -344 0
v -416 -344 0
v -288 -360 0
v -296 -360 0
v -296 -352 0
v -288 -352 0
v -296 -360 0
v -304 -360 0
v -304 -352 0
v -296 -352 0
v -304 -360 0
v -312 -360 0
v -312 -352 0
v -304 -352 0
v -312 -360 0
v -320 -360 0
v -320 -352 0
v -312 -352 0
v -320 -360 0
v -328 -360 0
v -328 -352 0
v -320 -352 0
v -392 -360 0
v -400 -360 0
v -400 -352 0
v -392 -352 0
v -416 -360 0
v -424 -360 0
v -424 -352 0
v -416 -352 0
v -288 -368 0
v -296 -368 0
v -296 -360 0
v -288 -360 0
v -296 -368 0
v -304 -368 0
v -304 -360 0
v -296 -360 0
v -304 -368 0
v -312 -368 0
v -312 -360 0
v -304 -360 0
v -312 -368 0
v -320 -368 0
v -320 -360 0
v -312 -360 0
v -320 -368 0
v -328 -368 0
v -328 -360 0
v -320 -360 0
v -392 -368 0
v -400 -368 0
v -400 -360 0
v -392 -360 0
v -416 -368 0
v -424 -368 0
v -424 -360 0
v -416 -360 0
v -288 -376 0
v -296 -376 0
v -296 -368 0
v -288 -368 0
v -296 -376 0
v -304 -376 0
v -304 -368 0
v -296 -368 0
v -304 -376 0
v -312 -376 0
v -312 -368 0
v -304 -368 0
v -312 -376 0
v -320 -376 0
v -320 -368 0
v -312 -368 0
v -320 -376 0
v -328 -376 0
v -328 -368 0
v -320 -368 0
v -392 -376 0
v -400 -376 0
v -400 -368 0
v -392 -368 0
v -416 -376 0
v -424 -376 0
v -424 -368 0
v -416 -368 0
v -288 -384 0
v -296 -384 0
v -296 -376 0
v -288 -376 0
v -296 -384 0
v -304 -384 0
v -304 -376 0
v -296 -376 0
v -304 -384 0
v -312 -384 0
v -312 -376 0
v -304 -376 0
v -312 -384 0
v -320 -384 0
v -320 -376 0
v -312 -376 0
v -320 -384 0
v -328 -384 0
v -328 -376 0
v -320 -376 0
v -392 -384 0
v -400 -384 0
v -400 -376 0
v -392 -376 0
v -416 -384 0
v -424 -384 0
v -424 -376 0
v -416 -376 0
v -288 -392 0
v -296 -392 0
v -296 -384 0
v -288 -384 0
v -296 -392 0
v -304 -392 0
v -304 -384 0
v -296 -384 0
v -304 -392 0
v -312 -392 0
v -312 -384 0
v -304 -384 0
v -312 -392 0
v -320 -392 0
v -320 -384 0
v -312 -384 0
v -320 -392 0
v -328 -392 0
v -328 -384 0
v -320 -384 0
v -392 -392 0
v -400 -392 0
v -400 -384 0
v -392 -384 0
v -416 -392 0
v -424 -392 0
v -424 -384 0
v -416 -384 0
v -288 -400 0
v -296 -400 0
v -296 -392 0
v -288 -392 0
v -296 -400 0
v -304 -400 0
v -304 -392 0
v -296 -392 0
v -304 -400 0
v -312 -400 0
v -312 -392 0
v -304 -392 0
v -312 -400 0
v -320 -400 0
v -320 -392 0
v -312 -392 0
v -320 -400 0
v -328 -400 0
v -328 -392 0
v -320 -392 0
v -392 -400 0
v -400 -400 0
v -400 -392 0
v -392 -392 0
v -416 -400 0
v -424 -400 0
v -424 -392 0
v -416 -392 0
v -288 -408 0
v -296 -408 0
v -296 -400 0
v -288 -400 0
v -296 -408 0
v -304 -408 0
v -304 -400 0
v -296 -400 0
v -304 -408 0
v -312 -408 0
v -312 -400 0
v -304 -400 0
v -312 -408 0
v -320 -408 0
v -320 -400 0
v -312 -400 0
v -320 -408 0
v -328 -408 0
v -328 -400 0
v -320 -400 0
v -392 -408 0
v -400 -408 0
v -400 -400 0
v -392 -400 0
v -416 -408 0
v -424 -408 0
v -424 -400 0
v -416 -400 0
v -288 -416 0
v -296 -416 0
v -296 -408 0
v -288 -408 0
v -296 -416 0
v -304 -416 0
v -304 -408 0
v -296 -408 0
v -304 -416 0
v -312 -416 0
v -312 -408 0
v -304 -408 0
v -312 -416 0
v -320 -416 0
v -320 -408 0
v -312 -408 0
v -320 -416 0
v -328 -416 0
v -328 -408 0
v -320 -408 0
v -392 -416 0
v -400 -416 0
v -400 -408 0
v -392 -408 0
v -416 -416 0
v -424 -416 0
v -424 -408 0
v -416 -408 0
v -288 -424 0
v -296 -424 0
v -296 -416 0
v -288 -416 0
v -296 -424 0
v -304 -424 0
v -304 -416 0
v -296 -416 0
v -304 -424 0
v -312 -424 0
v -312 -416 0
v -304 -416 0
v -312 -424 0
v -320 -424 0
v -320 -416 0
v -312 -416 0
v -320 -424 0
v -328 -424 0
v -328 -416 0
v -320 -416 0
v -392 -424 0
v -400 -424 0
v -400 -416 0
v -392 -416 0
v -416 -424 0
v -424 -424 0
v -424 -416 0
v -416 -416 0
v -288 -432 0
v -296 -432 0
v -296 -424 0
v -288 -424 0
v -296 -432 0
v -304 -432 0
v -304 -424 0
v -296 -424 0
v -304 -432 0
v -312 -432 0
v -312 -424 0
v -304 -424 0
v -312 -432 0
v -320 -432 0
v -320 -424 0
v -312 -424 0
v -320 -432 0
v -328 -432 0
v -328 -424 0
v -320 -424 0
v -392 -432 0
v -400 -432 0
v -400 -424 0
v -392 -424 0
v -416 -432 0
v -424 -432 0
v -424 -424 0
v -416 -424 0
v -288 -440 0
v -296 -440 0
v -296 -432 0
v -288 -432 0
v -296 -440 0
v -304 -440 0
v -304 -432 0
v -296 -432 0
v -304 -440 0
v -312 -440 0
v -312 -432 0
v -304 -432 0
v -312 -440 0
v -320 -440 0
v -320 -432 0
v -312 -432 0
v -320 -440 0
v -328 -440 0
v -328 -432 0
v -320 -432 0
v -392 -440 0
v -400 -440 0
v -400 -432 0
v -392 -432 0
v -416 -440 0
v -424 -440 0
v -424 -432 0
v -416 -432 0
v -288 -448 0
v -296 -448 0
v -296 -440 0
v -288 -440 0
v -296 -448 0
v -304 -448 0
v -304 -440 0
v -296 -440 0
v -304 -448 0
v -312 -448 0
v -312 -440 0
v -304 -440 0
v -312 -448 0
v -320 -448 0
v -320 -440 0
v -312 -440 0
v -320 -448 0
v -328 -448 0
v -328 -440 0
v -320 -440 0
v -392 -448 0
v -400 -448 0
v -400 -440 0
v -392 -440 0
v -416 -448 0
v -424 -448 0
v -424 -440 0
v -416 -440 0
v -288 -456 0
v -296 -456 0
v -296 -448 0
v -288 -448 0
v -296 -456 0
v -304 -456 0
v -304 -448 0
v -296 -448 0
v -304 -456 0
v -312 -456 0
v -312 -448 0
v -304 -448 0
v -312 -456 0
v -320 -456 0
v -320 -448 0
v -312 -448 0
v -320 -456 0
v -328 -456 0
v -328 -448 0
v -320 -448 0
v -392 -456 0
v -400 -456 0
v -400 -448 0
v -392 -448 0
v -416 -456 0
v -424 -456 0
v -424 -448 0
v -416 -448 0
v -288 -464 0
v -296 -464 0
v -296 -456 0
v -288 -456 0
v -296 -464 0
v -304 -464 0
v -304 -456 0
v -296 -456 0
v -304 -464 0
v -312 -464 0
v -312 -456 0
v -304 -456 0
v -312 -464 0
v -320 -464 0
v -320 -456 0
v -312 -456 0
v -320 -464 0
v -328 -464 0
v -328 -456 0
v -320 -456 0
v -392 -464 0
v -400 -464 0
v -400 -456 0
v -392 -456 0
v -416 -464 0
v -424 -464 0
v -424 -456 0
v -416 -456 0
v -288 -472 0
v -296 -472 0
v -296 -464 0
v -288 -464 0
v -296 -472 0
v -304 -472 0
v -304 -464 0
v -296 -464 0
v -304 -472 0
v -312 -472 0
v -312 -464 0
v -304 -464 0
v -312 -472 0
v -320 -472 0
v -320 -464 0
v -312 -464 0
v -320 -472 0
v -328 -472 0
v -328 -464 0
v -320 -464 0
v -392 -472 0
v -400 -472 0
v -400 -464 0
v -392 -464 0
v -416 -472 0
v -424 -472 0
v -424 -464 0
v -416 -464 0
v -288 -480 0
v -296 -480 0
v -296 -472 0
v -288 -472 0
v -296 -480 0
v -304 -480 0
v -304 -472 0
v -296 -472 0
v -304 -480 0
v -312 -480 0
v -312 -472 0
v -304 -472 0
v -312 -480 0
v -320 -480 0
v -320 -472 0
v -312 -472 0
v -320 -480 0
v -328 -480 0
v -328 -472 0
v -320 -472 0
v -392 -480 0
v -400 -480 0
v -400 -472 0
v -392 -472 0
v -416 -480 0
v -424 -480 0
v -424 -472 0
v -416 -472 0
v -288 -488 0
v -296 -488 0
v -296 -480 0
v -288 -480 0
v -296 -488 0
v -304 -488 0
v -304 -480 0
v -296 -480 0
v -304 -488 0
v -312 -488 0
v -312 -480 0
v -304 -480 0
v -312 -488 0
v -320 -488 0
v -320 -480 0
v -312 -480 0
v -320 -488 0
v -328 -488 0
v -328 -480 0
v -320 -480 0
v -392 -488 0
v -400 -488 0
v -400 -480 0
v -392 -480 0
v -416 -488 0
v -424 -488 0
v -424 -480 0
v -416 -480 0

# Texture cooridinates (Count = 14)
vt 0 0.875
vt 0.125 0.875
vt 0.125 1
vt 0 1
vt 0.25 0.875
vt 0.25 1
vt 0.375 0.875
vt 0.375 1
vt 0.5 0.875
vt 0.5 1
vt 0 0.75
vt 0.125 0.75
vt 0.25 0.75
vt 0.375 0.75

# Normal
vn 0 0 -1

# Mesh description
g 1_3_24a_mesh_0001

# Faces
f 1/1/1 2/2/1 3/3/1 4/4/1
f 5/2/1 6/5/1 7/6/1 8/3/1
f 9/5/1 10/7/1 11/8/1 12/6/1
f 13/7/1 14/9/1 15/10/1 16/8/1
f 17/11/1 18/12/1 19/2/1 20/1/1
f 21/11/1 22/12/1 23/2/1 24/1/1
f 25/11/1 26/12/1 27/2/1 28/1/1
f 29/11/1 30/12/1 31/2/1 32/1/1
f 33/11/1 34/12/1 35/2/1 36/1/1
f 37/11/1 38/12/1 39/2/1 40/1/1
f 41/11/1 42/12/1 43/2/1 44/1/1
f 45/11/1 46/12/1 47/2/1 48/1/1
f 49/11/1 50/12/1 51/2/1 52/1/1
f 53/11/1 54/12/1 55/2/1 56/1/1
f 57/11/1 58/12/1 59/2/1 60/1/1
f 61/11/1 62/12/1 63/2/1 64/1/1
f 65/1/1 66/2/1 67/3/1 68/4/1
f 69/2/1 70/5/1 71/6/1 72/3/1
f 73/1/1 74/2/1 75/3/1 76/4/1
f 77/2/1 78/5/1 79/6/1 80/3/1
f 81/5/1 82/7/1 83/8/1 84/6/1
f 85/11/1 86/12/1 87/2/1 88/1/1
f 89/11/1 90/12/1 91/2/1 92/1/1
f 93/11/1 94/12/1 95/2/1 96/1/1
f 97/12/1 98/13/1 99/5/1 100/2/1
f 101/11/1 102/12/1 103/2/1 104/1/1
f 105/12/1 106/13/1 107/5/1 108/2/1
f 109/13/1 110/14/1 111/7/1 112/5/1
f 113/11/1 114/12/1 115/2/1 116/1/1
f 117/11/1 118/12/1 119/2/1 120/1/1
f 121/11/1 122/12/1 123/2/1 124/1/1
f 125/12/1 126/13/1 127/5/1 128/2/1
f 129/11/1 130/12/1 131/2/1 132/1/1
f 133/12/1 134/13/1 135/5/1 136/2/1
f 137/13/1 138/14/1 139/7/1 140/5/1
f 141/11/1 142/12/1 143/2/1 144/1/1
f 145/11/1 146/12/1 147/2/1 148/1/1
f 149/11/1 150/12/1 151/2/1 152/1/1
f 153/12/1 154/13/1 155/5/1 156/2/1
f 157/11/1 158/12/1 159/2/1 160/1/1
f 161/12/1 162/13/1 163/5/1 164/2/1
f 165/13/1 166/14/1 167/7/1 168/5/1
f 169/11/1 170/12/1 171/2/1 172/1/1
f 173/11/1 174/12/1 175/2/1 176/1/1
f 177/11/1 178/12/1 179/2/1 180/1/1
f 181/12/1 182/13/1 183/5/1 184/2/1
f 185/11/1 186/12/1 187/2/1 188/1/1
f 189/12/1 190/13/1 191/5/1 192/2/1
f 193/13/1 194/14/1 195/7/1 196/5/1
f 197/11/1 198/12/1 199/2/1 200/1/1
f 201/11/1 202/12/1 203/2/1 204/1/1
f 205/11/1 206/12/1 207/2/1 208/1/1
f 209/12/1 210/13/1 211/5/1 212/2/1
f 213/11/1 214/12/1 215/2/1 216/1/1
f 217/12/1 218/13/1 219/5/1 220/2/1
f 221/13/1 222/14/1 223/7/1 224/5/1
f 225/11/1 226/12/1 227/2/1 228/1/1
f 229/11/1 230/12/1 231/2/1 232/1/1
f 233/11/1 234/12/1 235/2/1 236/1/1
f 237/12/1 238/13/1 239/5/1 240/2/1
f 241/11/1 242/12/1 243/2/1 244/1/1
f 245/12/1 246/13/1 247/5/1 248/2/1
f 249/13/1 250/14/1 251/7/1 252/5/1
f 253/11/1 254/12/1 255/2/1 256/1/1
f 257/11/1 258/12/1 259/2/1 260/1/1
f 261/11/1 262/12/1 263/2/1 264/1/1
f 265/12/1 266/13/1 267/5/1 268/2/1
f 269/11/1 270/12/1 271/2/1 272/1/1
f 273/12/1 274/13/1 275/5/1 276/2/1
f 277/13/1 278/14/1 279/7/1 280/5/1
f 281/11/1 282/12/1 283/2/1 284/1/1
f 285/11/1 286/12/1 287/2/1 288/1/1
f 289/11/1 290/12/1 291/2/1 292/1/1
f 293/12/1 294/13/1 295/5/1 296/2/1
f 297/11/1 298/12/1 299/2/1 300/1/1
f 301/12/1 302/13/1 303/5/1 304/2/1
f 305/13/1 306/14/1 307/7/1 308/5/1
f 309/11/1 310/12/1 311/2/1 312/1/1
f 313/11/1 314/12/1 315/2/1 316/1/1
f 317/11/1 318/12/1 319/2/1 320/1/1
f 321/12/1 322/13/1 323/5/1 324/2/1
f 325/11/1 326/12/1 327/2/1 328/1/1
f 329/12/1 330/13/1 331/5/1 332/2/1
f 333/13/1 334/14/1 335/7/1 336/5/1
f 337/11/1 338/12/1 339/2/1 340/1/1
f 341/11/1 342/12/1 343/2/1 344/1/1
f 345/11/1 346/12/1 347/2/1 348/1/1
f 349/12/1 350/13/1 351/5/1 352/2/1
f 353/11/1 354/12/1 355/2/1 356/1/1
f 357/12/1 358/13/1 359/5/1 360/2/1
f 361/13/1 362/14/1 363/7/1 364/5/1
f 365/11/1 366/12/1 367/2/1 368/1/1
f 369/11/1 370/12/1 371/2/1 372/1/1
f 373/11/1 374/12/1 375/2/1 376/1/1
f 377/12/1 378/13/1 379/5/1 380/2/1
f 381/11/1 382/12/1 383/2/1 384/1/1
f 385/12/1 386/13/1 387/5/1 388/2/1
f 389/13/1 390/14/1 391/7/1 392/5/1
f 393/11/1 394/12/1 395/2/1 396/1/1
f 397/11/1 398/12/1 399/2/1 400/1/1
f 401/11/1 402/12/1 403/2/1 404/1/1
f 405/12/1 406/13/1 407/5/1 408/2/1
f 409/11/1 410/12/1 411/2/1 412/1/1
f 413/12/1 414/13/1 415/5/1 416/2/1
f 417/13/1 418/14/1 419/7/1 420/5/1
f 421/11/1 422/12/1 423/2/1 424/1/1
f 425/11/1 426/12/1 427/2/1 428/1/1
f 429/11/1 430/12/1 431/2/1 432/1/1
f 433/12/1 434/13/1 435/5/1 436/2/1
f 437/11/1 438/12/1 439/2/1 440/1/1
f 441/12/1 442/13/1 443/5/1 444/2/1
f 445/13/1 446/14/1 447/7/1 448/5/1
f 449/11/1 450/12/1 451/2/1 452/1/1
f 453/11/1 454/12/1 455/2/1 456/1/1
f 457/11/1 458/12/1 459/2/1 460/1/1
f 461/12/1 462/13/1 463/5/1 464/2/1
f 465/11/1 466/12/1 467/2/1 468/1/1
f 469/12/1 470/13/1 471/5/1 472/2/1
f 473/13/1 474/14/1 475/7/1 476/5/1
f 477/11/1 478/12/1 479/2/1 480/1/1
f 481/11/1 482/12/1 483/2/1 484/1/1
f 485/11/1 486/12/1 487/2/1 488/1/1
f 489/12/1 490/13/1 491/5/1 492/2/1
f 493/11/1 494/12/1 495/2/1 496/1/1
f 497/12/1 498/13/1 499/5/1 500/2/1
f 501/13/1 502/14/1 503/7/1 504/5/1
f 505/11/1 506/12/1 507/2/1 508/1/1
f 509/11/1 510/12/1 511/2/1 512/1/1
f 513/11/1 514/12/1 515/2/1 516/1/1
f 517/12/1 518/13/1 519/5/1 520/2/1
f 521/11/1 522/12/1 523/2/1 524/1/1
f 525/12/1 526/13/1 527/5/1 528/2/1
f 529/13/1 530/14/1 531/7/1 532/5/1
f 533/11/1 534/12/1 535/2/1 536/1/1
f 537/11/1 538/12/1 539/2/1 540/1/1
f 541/11/1 542/12/1 543/2/1 544/1/1
f 545/12/1 546/13/1 547/5/1 548/2/1
f 549/11/1 550/12/1 551/2/1 552/1/1
f 553/12/1 554/13/1 555/5/1 556/2/1
f 557/13/1 558/14/1 559/7/1 560/5/1
f 561/11/1 562/12/1 563/2/1 564/1/1
f 565/11/1 566/12/1 567/2/1 568/1/1
f 569/11/1 570/12/1 571/2/1 572/1/1
f 573/12/1 574/13/1 575/5/1 576/2/1
f 577/11/1 578/12/1 579/2/1 580/1/1
f 581/12/1 582/13/1 583/5/1 584/2/1
f 585/13/1 586/14/1 587/7/1 588/5/1
f 589/11/1 590/12/1 591/2/1 592/1/1
f 593/11/1 594/12/1 595/2/1 596/1/1
f 597/11/1 598/12/1 599/2/1 600/1/1
f 601/12/1 602/13/1 603/5/1 604/2/1
f 605/11/1 606/12/1 607/2/1 608/1/1
f 609/12/1 610/13/1 611/5/1 612/2/1
f 613/13/1 614/14/1 615/7/1 616/5/1
f 617/11/1 618/12/1 619/2/1 620/1/1
f 621/11/1 622/12/1 623/2/1 624/1/1
f 625/11/1 626/12/1 627/2/1 628/1/1
f 629/12/1 630/13/1 631/5/1 632/2/1
f 633/11/1 634/12/1 635/2/1 636/1/1
f 637/12/1 638/13/1 639/5/1 640/2/1
f 641/13/1 642/14/1 643/7/1 644/5/1
f 645/11/1 646/12/1 647/2/1 648/1/1
f 649/11/1 650/12/1 651/2/1 652/1/1
f 653/11/1 654/12/1 655/2/1 656/1/1
f 657/12/1 658/13/1 659/5/1 660/2/1
f 661/11/1 662/12/1 663/2/1 664/1/1
f 665/12/1 666/13/1 667/5/1 668/2/1
f 669/13/1 670/14/1 671/7/1 672/5/1
f 673/11/1 674/12/1 675/2/1 676/1/1
f 677/11/1 678/12/1 679/2/1 680/1/1
f 681/11/1 682/12/1 683/2/1 684/1/1
f 685/12/1 686/13/1 687/5/1 688/2/1
f 689/11/1 690/12/1 691/2/1 692/1/1
f 693/12/1 694/13/1 695/5/1 696/2/1
f 697/13/1 698/14/1 699/7/1 700/5/1
f 701/11/1 702/12/1 703/2/1 704/1/1
f 705/11/1 706/12/1 707/2/1 708/1/1
f 709/11/1 710/12/1 711/2/1 712/1/1
f 713/12/1 714/13/1 715/5/1 716/2/1
f 717/11/1 718/12/1 719/2/1 720/1/1
f 721/12/1 722/13/1 723/5/1 724/2/1
f 725/13/1 726/14/1 727/7/1 728/5/1
f 729/11/1 730/12/1 731/2/1 732/1/1
f 733/11/1 734/12/1 735/2/1 736/1/1
f 737/11/1 738/12/1 739/2/1 740/1/1
f 741/12/1 742/13/1 743/5/1 744/2/1
f 745/11/1 746/12/1 747/2/1 748/1/1
f 749/12/1 750/13/1 751/5/1 752/2/1
f 753/13/1 754/14/1 755/7/1 756/5/1
f 757/11/1 758/12/1 759/2/1 760/1/1
f 761/11/1 762/12/1 763/2/1 764/1/1
f 765/11/1 766/12/1 767/2/1 768/1/1
f 769/12/1 770/13/1 771/5/1 772/2/1
f 773/11/1 774/12/1 775/2/1 776/1/1
f 777/12/1 778/13/1 779/5/1 780/2/1
f 781/13/1 782/14/1 783/7/1 784/5/1
f 785/11/1 786/12/1 787/2/1 788/1/1
f 789/11/1 790/12/1 791/2/1 792/1/1
f 793/11/1 794/12/1 795/2/1 796/1/1
f 797/12/1 798/13/1 799/5/1 800/2/1
f 801/11/1 802/12/1 803/2/1 804/1/1
f 805/12/1 806/13/1 807/5/1 808/2/1
f 809/13/1 810/14/1 811/7/1 812/5/1
f 813/11/1 814/12/1 815/2/1 816/1/1
f 817/11/1 818/12/1 819/2/1 820/1/1
f 821/11/1 822/12/1 823/2/1 824/1/1
f 825/12/1 826/13/1 827/5/1 828/2/1
f 829/11/1 830/12/1 831/2/1 832/1/1
f 833/12/1 834/13/1 835/5/1 836/2/1
f 837/13/1 838/14/1 839/7/1 840/5/1
f 841/11/1 842/12/1 843/2/1 844/1/1
f 845/11/1 846/12/1 847/2/1 848/1/1
f 849/11/1 850/12/1 851/2/1 852/1/1
f 853/12/1 854/13/1 855/5/1 856/2/1
f 857/11/1 858/12/1 859/2/1 860/1/1
f 861/12/1 862/13/1 863/5/1 864/2/1
f 865/13/1 866/14/1 867/7/1 868/5/1
f 869/11/1 870/12/1 871/2/1 872/1/1
f 873/11/1 874/12/1 875/2/1 876/1/1
f 877/11/1 878/12/1 879/2/1 880/1/1
f 881/12/1 882/13/1 883/5/1 884/2/1
f 885/11/1 886/12/1 887/2/1 888/1/1
f 889/12/1 890/13/1 891/5/1 892/2/1
f 893/13/1 894/14/1 895/7/1 896/5/1
f 897/11/1 898/12/1 899/2/1 900/1/1
f 901/11/1 902/12/1 903/2/1 904/1/1
f 905/11/1 906/12/1 907/2/1 908/1/1
f 909/12/1 910/13/1 911/5/1 912/2/1
f 913/11/1 914/12/1 915/2/1 916/1/1
f 917/12/1 918/13/1 919/5/1 920/2/1
f 921/13/1 922/14/1 923/7/1 924/5/1
f 925/11/1 926/12/1 927/2/1 928/1/1
f 929/11/1 930/12/1 931/2/1 932/1/1
f 933/11/1 934/12/1 935/2/1 936/1/1
f 937/12/1 938/13/1 939/5/1 940/2/1
f 941/11/1 942/12/1 943/2/1 944/1/1
f 945/12/1 946/13/1 947/5/1 948/2/1
f 949/13/1 950/14/1 951/7/1 952/5/1
f 953/11/1 954/12/1 955/2/1 956/1/1
f 957/11/1 958/12/1 959/2/1 960/1/1
f 961/11/1 962/12/1 963/2/1 964/1/1
f 965/12/1 966/13/1 967/5/1 968/2/1
f 969/11/1 970/12/1 971/2/1 972/1/1
f 973/12/1 974/13/1 975/5/1 976/2/1
f 977/13/1 978/14/1 979/7/1 980/5/1
f 981/11/1 982/12/1 983/2/1 984/1/1
f 985/11/1 986/12/1 987/2/1 988/1/1
f 989/11/1 990/12/1 991/2/1 992/1/1
f 993/12/1 994/13/1 995/5/1 996/2/1
f 997/11/1 998/12/1 999/2/1 1000/1/1
f 1001/12/1 1002/13/1 1003/5/1 1004/2/1
f 1005/13/1 1006/14/1 1007/7/1 1008/5/1
f 1009/11/1 1010/12/1 1011/2/1 1012/1/1
f 1013/11/1 1014/12/1 1015/2/1 1016/1/1
f 1017/11/1 1018/12/1 1019/2/1 1020/1/1
f 1021/12/1 1022/13/1 1023/5/1 1024/2/1
f 1025/11/1 1026/12/1 1027/2/1 1028/1/1
f 1029/12/1 1030/13/1 1031/5/1 1032/2/1
f 1033/13/1 1034/14/1 1035/7/1 1036/5/1
f 1037/11/1 1038/12/1 1039/2/1 1040/1/1
f 1041/11/1 1042/12/1 1043/2/1 1044/1/1

