# Tiled2Unity generated file. Do not modify by hand.
# Wavefront file for '1_2_2_mesh_0001.obj'

# Vertices (Count = 100)
v -232 -272 0
v -240 -272 0
v -240 -264 0
v -232 -264 0
v -240 -272 0
v -248 -272 0
v -248 -264 0
v -240 -264 0
v -248 -272 0
v -256 -272 0
v -256 -264 0
v -248 -264 0
v -232 -280 0
v -240 -280 0
v -240 -272 0
v -232 -272 0
v -240 -280 0
v -248 -280 0
v -248 -272 0
v -240 -272 0
v -248 -280 0
v -256 -280 0
v -256 -272 0
v -248 -272 0
v -232 -288 0
v -240 -288 0
v -240 -280 0
v -232 -280 0
v -240 -288 0
v -248 -288 0
v -248 -280 0
v -240 -280 0
v -248 -288 0
v -256 -288 0
v -256 -280 0
v -248 -280 0
v -128 -344 0
v -136 -344 0
v -136 -336 0
v -128 -336 0
v -136 -344 0
v -144 -344 0
v -144 -336 0
v -136 -336 0
v -144 -344 0
v -152 -344 0
v -152 -336 0
v -144 -336 0
v -152 -344 0
v -160 -344 0
v -160 -336 0
v -152 -336 0
v -328 -344 0
v -336 -344 0
v -336 -336 0
v -328 -336 0
v -336 -344 0
v -344 -344 0
v -344 -336 0
v -336 -336 0
v -344 -344 0
v -352 -344 0
v -352 -336 0
v -344 -336 0
v -352 -344 0
v -360 -344 0
v -360 -336 0
v -352 -336 0
v -128 -352 0
v -136 -352 0
v -136 -344 0
v -128 -344 0
v -136 -352 0
v -144 -352 0
v -144 -344 0
v -136 -344 0
v -144 -352 0
v -152 -352 0
v -152 -344 0
v -144 -344 0
v -152 -352 0
v -160 -352 0
v -160 -344 0
v -152 -344 0
v -328 -352 0
v -336 -352 0
v -336 -344 0
v -328 -344 0
v -336 -352 0
v -344 -352 0
v -344 -344 0
v -336 -344 0
v -344 -352 0
v -352 -352 0
v -352 -344 0
v -344 -344 0
v -352 -352 0
v -360 -352 0
v -360 -344 0
v -352 -344 0

# Texture cooridinates (Count = 20)
vt 0.25 0.875
vt 0.375 0.875
vt 0.375 1
vt 0.25 1
vt 0.5 0.875
vt 0.5 1
vt 0.25 0.75
vt 0.375 0.75
vt 0.5 0.75
vt 0.25 0.625
vt 0.375 0.625
vt 0.5 0.625
vt 0 0.875
vt 0.125 0.875
vt 0.125 1
vt 0 1
vt 0 0.625
vt 0.125 0.625
vt 0.125 0.75
vt 0 0.75

# Normal
vn 0 0 -1

# Mesh description
g 1_2_2_mesh_0001

# Faces
f 1/1/1 2/2/1 3/3/1 4/4/1
f 5/2/1 6/5/1 7/6/1 8/3/1
f 9/2/1 10/5/1 11/6/1 12/3/1
f 13/7/1 14/8/1 15/2/1 16/1/1
f 17/8/1 18/9/1 19/5/1 20/2/1
f 21/8/1 22/9/1 23/5/1 24/2/1
f 25/10/1 26/11/1 27/8/1 28/7/1
f 29/11/1 30/12/1 31/9/1 32/8/1
f 33/11/1 34/12/1 35/9/1 36/8/1
f 37/13/1 38/14/1 39/15/1 40/16/1
f 41/14/1 42/1/1 43/4/1 44/15/1
f 45/1/1 46/2/1 47/3/1 48/4/1
f 49/2/1 50/5/1 51/6/1 52/3/1
f 53/13/1 54/14/1 55/15/1 56/16/1
f 57/14/1 58/1/1 59/4/1 60/15/1
f 61/1/1 62/2/1 63/3/1 64/4/1
f 65/2/1 66/5/1 67/6/1 68/3/1
f 69/17/1 70/18/1 71/19/1 72/20/1
f 73/18/1 74/10/1 75/7/1 76/19/1
f 77/10/1 78/11/1 79/8/1 80/7/1
f 81/11/1 82/12/1 83/9/1 84/8/1
f 85/17/1 86/18/1 87/19/1 88/20/1
f 89/18/1 90/10/1 91/7/1 92/19/1
f 93/10/1 94/11/1 95/8/1 96/7/1
f 97/11/1 98/12/1 99/9/1 100/8/1

