# Tiled2Unity generated file. Do not modify by hand.
# Wavefront file for '1_3_6_mesh_0001.obj'

# Vertices (Count = 488)
v -288 -16 0
v -296 -16 0
v -296 -8 0
v -288 -8 0
v -296 -16 0
v -304 -16 0
v -304 -8 0
v -296 -8 0
v -304 -16 0
v -312 -16 0
v -312 -8 0
v -304 -8 0
v -312 -16 0
v -320 -16 0
v -320 -8 0
v -312 -8 0
v -320 -16 0
v -328 -16 0
v -328 -8 0
v -320 -8 0
v -328 -16 0
v -336 -16 0
v -336 -8 0
v -328 -8 0
v -336 -16 0
v -344 -16 0
v -344 -8 0
v -336 -8 0
v -344 -16 0
v -352 -16 0
v -352 -8 0
v -344 -8 0
v -288 -24 0
v -296 -24 0
v -296 -16 0
v -288 -16 0
v -296 -24 0
v -304 -24 0
v -304 -16 0
v -296 -16 0
v -304 -24 0
v -312 -24 0
v -312 -16 0
v -304 -16 0
v -312 -24 0
v -320 -24 0
v -320 -16 0
v -312 -16 0
v -320 -24 0
v -328 -24 0
v -328 -16 0
v -320 -16 0
v -328 -24 0
v -336 -24 0
v -336 -16 0
v -328 -16 0
v -336 -24 0
v -344 -24 0
v -344 -16 0
v -336 -16 0
v -344 -24 0
v -352 -24 0
v -352 -16 0
v -344 -16 0
v -288 -32 0
v -296 -32 0
v -296 -24 0
v -288 -24 0
v -296 -32 0
v -304 -32 0
v -304 -24 0
v -296 -24 0
v -304 -32 0
v -312 -32 0
v -312 -24 0
v -304 -24 0
v -312 -32 0
v -320 -32 0
v -320 -24 0
v -312 -24 0
v -320 -32 0
v -328 -32 0
v -328 -24 0
v -320 -24 0
v -328 -32 0
v -336 -32 0
v -336 -24 0
v -328 -24 0
v -336 -32 0
v -344 -32 0
v -344 -24 0
v -336 -24 0
v -344 -32 0
v -352 -32 0
v -352 -24 0
v -344 -24 0
v -288 -40 0
v -296 -40 0
v -296 -32 0
v -288 -32 0
v -296 -40 0
v -304 -40 0
v -304 -32 0
v -296 -32 0
v -304 -40 0
v -312 -40 0
v -312 -32 0
v -304 -32 0
v -312 -40 0
v -320 -40 0
v -320 -32 0
v -312 -32 0
v -320 -40 0
v -328 -40 0
v -328 -32 0
v -320 -32 0
v -328 -40 0
v -336 -40 0
v -336 -32 0
v -328 -32 0
v -336 -40 0
v -344 -40 0
v -344 -32 0
v -336 -32 0
v -344 -40 0
v -352 -40 0
v -352 -32 0
v -344 -32 0
v -288 -48 0
v -296 -48 0
v -296 -40 0
v -288 -40 0
v -296 -48 0
v -304 -48 0
v -304 -40 0
v -296 -40 0
v -304 -48 0
v -312 -48 0
v -312 -40 0
v -304 -40 0
v -312 -48 0
v -320 -48 0
v -320 -40 0
v -312 -40 0
v -320 -48 0
v -328 -48 0
v -328 -40 0
v -320 -40 0
v -328 -48 0
v -336 -48 0
v -336 -40 0
v -328 -40 0
v -336 -48 0
v -344 -48 0
v -344 -40 0
v -336 -40 0
v -344 -48 0
v -352 -48 0
v -352 -40 0
v -344 -40 0
v -288 -56 0
v -296 -56 0
v -296 -48 0
v -288 -48 0
v -296 -56 0
v -304 -56 0
v -304 -48 0
v -296 -48 0
v -304 -56 0
v -312 -56 0
v -312 -48 0
v -304 -48 0
v -312 -56 0
v -320 -56 0
v -320 -48 0
v -312 -48 0
v -320 -56 0
v -328 -56 0
v -328 -48 0
v -320 -48 0
v -328 -56 0
v -336 -56 0
v -336 -48 0
v -328 -48 0
v -336 -56 0
v -344 -56 0
v -344 -48 0
v -336 -48 0
v -344 -56 0
v -352 -56 0
v -352 -48 0
v -344 -48 0
v -304 -64 0
v -312 -64 0
v -312 -56 0
v -304 -56 0
v -312 -64 0
v -320 -64 0
v -320 -56 0
v -312 -56 0
v -320 -64 0
v -328 -64 0
v -328 -56 0
v -320 -56 0
v -328 -64 0
v -336 -64 0
v -336 -56 0
v -328 -56 0
v -336 -64 0
v -344 -64 0
v -344 -56 0
v -336 -56 0
v -344 -64 0
v -352 -64 0
v -352 -56 0
v -344 -56 0
v -320 -72 0
v -328 -72 0
v -328 -64 0
v -320 -64 0
v -328 -72 0
v -336 -72 0
v -336 -64 0
v -328 -64 0
v -336 -72 0
v -344 -72 0
v -344 -64 0
v -336 -64 0
v -344 -72 0
v -352 -72 0
v -352 -64 0
v -344 -64 0
v -336 -80 0
v -344 -80 0
v -344 -72 0
v -336 -72 0
v -344 -80 0
v -352 -80 0
v -352 -72 0
v -344 -72 0
v -176 -104 0
v -184 -104 0
v -184 -96 0
v -176 -96 0
v -184 -104 0
v -192 -104 0
v -192 -96 0
v -184 -96 0
v -192 -104 0
v -200 -104 0
v -200 -96 0
v -192 -96 0
v -200 -104 0
v -208 -104 0
v -208 -96 0
v -200 -96 0
v -208 -104 0
v -216 -104 0
v -216 -96 0
v -208 -96 0
v -216 -104 0
v -224 -104 0
v -224 -96 0
v -216 -96 0
v -224 -104 0
v -232 -104 0
v -232 -96 0
v -224 -96 0
v -232 -104 0
v -240 -104 0
v -240 -96 0
v -232 -96 0
v -240 -104 0
v -248 -104 0
v -248 -96 0
v -240 -96 0
v -248 -104 0
v -256 -104 0
v -256 -96 0
v -248 -96 0
v -256 -104 0
v -264 -104 0
v -264 -96 0
v -256 -96 0
v -264 -104 0
v -272 -104 0
v -272 -96 0
v -264 -96 0
v -272 -104 0
v -280 -104 0
v -280 -96 0
v -272 -96 0
v -280 -104 0
v -288 -104 0
v -288 -96 0
v -280 -96 0
v -288 -104 0
v -296 -104 0
v -296 -96 0
v -288 -96 0
v -296 -104 0
v -304 -104 0
v -304 -96 0
v -296 -96 0
v -176 -112 0
v -184 -112 0
v -184 -104 0
v -176 -104 0
v -184 -112 0
v -192 -112 0
v -192 -104 0
v -184 -104 0
v -192 -112 0
v -200 -112 0
v -200 -104 0
v -192 -104 0
v -200 -112 0
v -208 -112 0
v -208 -104 0
v -200 -104 0
v -208 -112 0
v -216 -112 0
v -216 -104 0
v -208 -104 0
v -216 -112 0
v -224 -112 0
v -224 -104 0
v -216 -104 0
v -224 -112 0
v -232 -112 0
v -232 -104 0
v -224 -104 0
v -232 -112 0
v -240 -112 0
v -240 -104 0
v -232 -104 0
v -240 -112 0
v -248 -112 0
v -248 -104 0
v -240 -104 0
v -248 -112 0
v -256 -112 0
v -256 -104 0
v -248 -104 0
v -256 -112 0
v -264 -112 0
v -264 -104 0
v -256 -104 0
v -264 -112 0
v -272 -112 0
v -272 -104 0
v -264 -104 0
v -272 -112 0
v -280 -112 0
v -280 -104 0
v -272 -104 0
v -280 -112 0
v -288 -112 0
v -288 -104 0
v -280 -104 0
v -288 -112 0
v -296 -112 0
v -296 -104 0
v -288 -104 0
v -296 -112 0
v -304 -112 0
v -304 -104 0
v -296 -104 0
v -64 -136 0
v -72 -136 0
v -72 -128 0
v -64 -128 0
v -72 -136 0
v -80 -136 0
v -80 -128 0
v -72 -128 0
v -80 -136 0
v -88 -136 0
v -88 -128 0
v -80 -128 0
v -88 -136 0
v -96 -136 0
v -96 -128 0
v -88 -128 0
v -96 -136 0
v -104 -136 0
v -104 -128 0
v -96 -128 0
v -104 -136 0
v -112 -136 0
v -112 -128 0
v -104 -128 0
v -112 -136 0
v -120 -136 0
v -120 -128 0
v -112 -128 0
v -48 -144 0
v -56 -144 0
v -56 -136 0
v -48 -136 0
v -56 -144 0
v -64 -144 0
v -64 -136 0
v -56 -136 0
v -64 -144 0
v -72 -144 0
v -72 -136 0
v -64 -136 0
v -72 -144 0
v -80 -144 0
v -80 -136 0
v -72 -136 0
v -112 -144 0
v -120 -144 0
v -120 -136 0
v -112 -136 0
v -120 -144 0
v -128 -144 0
v -128 -136 0
v -120 -136 0
v -32 -152 0
v -40 -152 0
v -40 -144 0
v -32 -144 0
v -40 -152 0
v -48 -152 0
v -48 -144 0
v -40 -144 0
v -48 -152 0
v -56 -152 0
v -56 -144 0
v -48 -144 0
v -56 -152 0
v -64 -152 0
v -64 -144 0
v -56 -144 0
v -120 -152 0
v -128 -152 0
v -128 -144 0
v -120 -144 0
v -128 -152 0
v -136 -152 0
v -136 -144 0
v -128 -144 0
v -16 -160 0
v -24 -160 0
v -24 -152 0
v -16 -152 0
v -24 -160 0
v -32 -160 0
v -32 -152 0
v -24 -152 0
v -32 -160 0
v -40 -160 0
v -40 -152 0
v -32 -152 0
v -40 -160 0
v -48 -160 0
v -48 -152 0
v -40 -152 0
v -128 -160 0
v -136 -160 0
v -136 -152 0
v -128 -152 0
v -136 -160 0
v -144 -160 0
v -144 -152 0
v -136 -152 0
v -16 -168 0
v -24 -168 0
v -24 -160 0
v -16 -160 0
v -24 -168 0
v -32 -168 0
v -32 -160 0
v -24 -160 0
v -136 -168 0
v -144 -168 0
v -144 -160 0
v -136 -160 0
v -144 -168 0
v -152 -168 0
v -152 -160 0
v -144 -160 0
v -144 -176 0
v -152 -176 0
v -152 -168 0
v -144 -168 0

# Texture cooridinates (Count = 37)
vt 0 0.75
vt 0.125 0.75
vt 0.125 0.875
vt 0 0.875
vt 0.25 0.75
vt 0.25 0.875
vt 0.375 0.75
vt 0.375 0.875
vt 0.5 0.75
vt 0.5 0.875
vt 0.5 0.625
vt 0.625 0.625
vt 0.625 0.75
vt 0.75 0.625
vt 0.75 0.75
vt 0.5 0.5
vt 0.625 0.5
vt 0.75 0.5
vt 0.125 1
vt 0 1
vt 0.25 1
vt 0.375 1
vt 0.5 1
vt 0 0.625
vt 0.125 0.625
vt 0.25 0.625
vt 0.375 0.625
vt 0.75 0.375
vt 0.875 0.375
vt 0.875 0.5
vt 1 0.375
vt 1 0.5
vt 0.625 0.875
vt 0.625 1
vt 0.75 0.25
vt 0.875 0.25
vt 1 0.25

# Normal
vn 0 0 -1

# Mesh description
g 1_3_6_mesh_0001

# Faces
f 1/1/1 2/2/1 3/3/1 4/4/1
f 5/2/1 6/5/1 7/6/1 8/3/1
f 9/5/1 10/7/1 11/8/1 12/6/1
f 13/7/1 14/9/1 15/10/1 16/8/1
f 17/1/1 18/2/1 19/3/1 20/4/1
f 21/2/1 22/5/1 23/6/1 24/3/1
f 25/5/1 26/7/1 27/8/1 28/6/1
f 29/7/1 30/9/1 31/10/1 32/8/1
f 33/1/1 34/2/1 35/3/1 36/4/1
f 37/2/1 38/5/1 39/6/1 40/3/1
f 41/5/1 42/7/1 43/8/1 44/6/1
f 45/7/1 46/9/1 47/10/1 48/8/1
f 49/1/1 50/2/1 51/3/1 52/4/1
f 53/2/1 54/5/1 55/6/1 56/3/1
f 57/5/1 58/7/1 59/8/1 60/6/1
f 61/7/1 62/9/1 63/10/1 64/8/1
f 65/1/1 66/2/1 67/3/1 68/4/1
f 69/2/1 70/5/1 71/6/1 72/3/1
f 73/5/1 74/7/1 75/8/1 76/6/1
f 77/7/1 78/9/1 79/10/1 80/8/1
f 81/1/1 82/2/1 83/3/1 84/4/1
f 85/2/1 86/5/1 87/6/1 88/3/1
f 89/5/1 90/7/1 91/8/1 92/6/1
f 93/7/1 94/9/1 95/10/1 96/8/1
f 97/1/1 98/2/1 99/3/1 100/4/1
f 101/2/1 102/5/1 103/6/1 104/3/1
f 105/5/1 106/7/1 107/8/1 108/6/1
f 109/7/1 110/9/1 111/10/1 112/8/1
f 113/1/1 114/2/1 115/3/1 116/4/1
f 117/2/1 118/5/1 119/6/1 120/3/1
f 121/5/1 122/7/1 123/8/1 124/6/1
f 125/7/1 126/9/1 127/10/1 128/8/1
f 129/11/1 130/12/1 131/13/1 132/9/1
f 133/12/1 134/14/1 135/15/1 136/13/1
f 137/1/1 138/2/1 139/3/1 140/4/1
f 141/2/1 142/5/1 143/6/1 144/3/1
f 145/1/1 146/2/1 147/3/1 148/4/1
f 149/2/1 150/5/1 151/6/1 152/3/1
f 153/5/1 154/7/1 155/8/1 156/6/1
f 157/7/1 158/9/1 159/10/1 160/8/1
f 161/16/1 162/17/1 163/12/1 164/11/1
f 165/17/1 166/18/1 167/14/1 168/12/1
f 169/11/1 170/12/1 171/13/1 172/9/1
f 173/12/1 174/14/1 175/15/1 176/13/1
f 177/1/1 178/2/1 179/3/1 180/4/1
f 181/2/1 182/5/1 183/6/1 184/3/1
f 185/5/1 186/7/1 187/8/1 188/6/1
f 189/7/1 190/9/1 191/10/1 192/8/1
f 193/16/1 194/17/1 195/12/1 196/11/1
f 197/17/1 198/18/1 199/14/1 200/12/1
f 201/11/1 202/12/1 203/13/1 204/9/1
f 205/12/1 206/14/1 207/15/1 208/13/1
f 209/1/1 210/2/1 211/3/1 212/4/1
f 213/2/1 214/5/1 215/6/1 216/3/1
f 217/16/1 218/17/1 219/12/1 220/11/1
f 221/17/1 222/18/1 223/14/1 224/12/1
f 225/11/1 226/12/1 227/13/1 228/9/1
f 229/12/1 230/14/1 231/15/1 232/13/1
f 233/16/1 234/17/1 235/12/1 236/11/1
f 237/17/1 238/18/1 239/14/1 240/12/1
f 241/4/1 242/3/1 243/19/1 244/20/1
f 245/3/1 246/6/1 247/21/1 248/19/1
f 249/6/1 250/8/1 251/22/1 252/21/1
f 253/8/1 254/10/1 255/23/1 256/22/1
f 257/4/1 258/3/1 259/19/1 260/20/1
f 261/3/1 262/6/1 263/21/1 264/19/1
f 265/6/1 266/8/1 267/22/1 268/21/1
f 269/8/1 270/10/1 271/23/1 272/22/1
f 273/4/1 274/3/1 275/19/1 276/20/1
f 277/3/1 278/6/1 279/21/1 280/19/1
f 281/6/1 282/8/1 283/22/1 284/21/1
f 285/8/1 286/10/1 287/23/1 288/22/1
f 289/4/1 290/3/1 291/19/1 292/20/1
f 293/3/1 294/6/1 295/21/1 296/19/1
f 297/6/1 298/8/1 299/22/1 300/21/1
f 301/8/1 302/10/1 303/23/1 304/22/1
f 305/24/1 306/25/1 307/2/1 308/1/1
f 309/25/1 310/26/1 311/5/1 312/2/1
f 313/26/1 314/27/1 315/7/1 316/5/1
f 317/27/1 318/11/1 319/9/1 320/7/1
f 321/24/1 322/25/1 323/2/1 324/1/1
f 325/25/1 326/26/1 327/5/1 328/2/1
f 329/26/1 330/27/1 331/7/1 332/5/1
f 333/27/1 334/11/1 335/9/1 336/7/1
f 337/24/1 338/25/1 339/2/1 340/1/1
f 341/25/1 342/26/1 343/5/1 344/2/1
f 345/26/1 346/27/1 347/7/1 348/5/1
f 349/27/1 350/11/1 351/9/1 352/7/1
f 353/24/1 354/25/1 355/2/1 356/1/1
f 357/25/1 358/26/1 359/5/1 360/2/1
f 361/26/1 362/27/1 363/7/1 364/5/1
f 365/27/1 366/11/1 367/9/1 368/7/1
f 369/28/1 370/29/1 371/30/1 372/18/1
f 373/29/1 374/31/1 375/32/1 376/30/1
f 377/4/1 378/3/1 379/19/1 380/20/1
f 381/3/1 382/6/1 383/21/1 384/19/1
f 385/6/1 386/8/1 387/22/1 388/21/1
f 389/8/1 390/10/1 391/23/1 392/22/1
f 393/10/1 394/33/1 395/34/1 396/23/1
f 397/28/1 398/29/1 399/30/1 400/18/1
f 401/29/1 402/31/1 403/32/1 404/30/1
f 405/35/1 406/36/1 407/29/1 408/28/1
f 409/36/1 410/37/1 411/31/1 412/29/1
f 413/9/1 414/13/1 415/33/1 416/10/1
f 417/10/1 418/33/1 419/34/1 420/23/1
f 421/28/1 422/29/1 423/30/1 424/18/1
f 425/29/1 426/31/1 427/32/1 428/30/1
f 429/35/1 430/36/1 431/29/1 432/28/1
f 433/36/1 434/37/1 435/31/1 436/29/1
f 437/9/1 438/13/1 439/33/1 440/10/1
f 441/10/1 442/33/1 443/34/1 444/23/1
f 445/28/1 446/29/1 447/30/1 448/18/1
f 449/29/1 450/31/1 451/32/1 452/30/1
f 453/35/1 454/36/1 455/29/1 456/28/1
f 457/36/1 458/37/1 459/31/1 460/29/1
f 461/9/1 462/13/1 463/33/1 464/10/1
f 465/10/1 466/33/1 467/34/1 468/23/1
f 469/35/1 470/36/1 471/29/1 472/28/1
f 473/36/1 474/37/1 475/31/1 476/29/1
f 477/9/1 478/13/1 479/33/1 480/10/1
f 481/10/1 482/33/1 483/34/1 484/23/1
f 485/9/1 486/13/1 487/33/1 488/10/1

