# Tiled2Unity generated file. Do not modify by hand.
# Wavefront file for '1_3_21b_mesh_0002.obj'

# Vertices (Count = 1012)
v 0 -8 0
v -8 -8 0
v -8 0 0
v 0 0 0
v -8 -8 0
v -16 -8 0
v -16 0 0
v -8 0 0
v -16 -8 0
v -24 -8 0
v -24 0 0
v -16 0 0
v -24 -8 0
v -32 -8 0
v -32 0 0
v -24 0 0
v -32 -8 0
v -40 -8 0
v -40 0 0
v -32 0 0
v -40 -8 0
v -48 -8 0
v -48 0 0
v -40 0 0
v -48 -8 0
v -56 -8 0
v -56 0 0
v -48 0 0
v -56 -8 0
v -64 -8 0
v -64 0 0
v -56 0 0
v -64 -8 0
v -72 -8 0
v -72 0 0
v -64 0 0
v -72 -8 0
v -80 -8 0
v -80 0 0
v -72 0 0
v -80 -8 0
v -88 -8 0
v -88 0 0
v -80 0 0
v -88 -8 0
v -96 -8 0
v -96 0 0
v -88 0 0
v -96 -8 0
v -104 -8 0
v -104 0 0
v -96 0 0
v -104 -8 0
v -112 -8 0
v -112 0 0
v -104 0 0
v -112 -8 0
v -120 -8 0
v -120 0 0
v -112 0 0
v -120 -8 0
v -128 -8 0
v -128 0 0
v -120 0 0
v -128 -8 0
v -136 -8 0
v -136 0 0
v -128 0 0
v -136 -8 0
v -144 -8 0
v -144 0 0
v -136 0 0
v -144 -8 0
v -152 -8 0
v -152 0 0
v -144 0 0
v -152 -8 0
v -160 -8 0
v -160 0 0
v -152 0 0
v -160 -8 0
v -168 -8 0
v -168 0 0
v -160 0 0
v -168 -8 0
v -176 -8 0
v -176 0 0
v -168 0 0
v -176 -8 0
v -184 -8 0
v -184 0 0
v -176 0 0
v -184 -8 0
v -192 -8 0
v -192 0 0
v -184 0 0
v -192 -8 0
v -200 -8 0
v -200 0 0
v -192 0 0
v -200 -8 0
v -208 -8 0
v -208 0 0
v -200 0 0
v -208 -8 0
v -216 -8 0
v -216 0 0
v -208 0 0
v -216 -8 0
v -224 -8 0
v -224 0 0
v -216 0 0
v -224 -8 0
v -232 -8 0
v -232 0 0
v -224 0 0
v -232 -8 0
v -240 -8 0
v -240 0 0
v -232 0 0
v -240 -8 0
v -248 -8 0
v -248 0 0
v -240 0 0
v -248 -8 0
v -256 -8 0
v -256 0 0
v -248 0 0
v -256 -8 0
v -264 -8 0
v -264 0 0
v -256 0 0
v -264 -8 0
v -272 -8 0
v -272 0 0
v -264 0 0
v -272 -8 0
v -280 -8 0
v -280 0 0
v -272 0 0
v -280 -8 0
v -288 -8 0
v -288 0 0
v -280 0 0
v -288 -8 0
v -296 -8 0
v -296 0 0
v -288 0 0
v -296 -8 0
v -304 -8 0
v -304 0 0
v -296 0 0
v -304 -8 0
v -312 -8 0
v -312 0 0
v -304 0 0
v -312 -8 0
v -320 -8 0
v -320 0 0
v -312 0 0
v -320 -8 0
v -328 -8 0
v -328 0 0
v -320 0 0
v -328 -8 0
v -336 -8 0
v -336 0 0
v -328 0 0
v -336 -8 0
v -344 -8 0
v -344 0 0
v -336 0 0
v -344 -8 0
v -352 -8 0
v -352 0 0
v -344 0 0
v -352 -8 0
v -360 -8 0
v -360 0 0
v -352 0 0
v -360 -8 0
v -368 -8 0
v -368 0 0
v -360 0 0
v -368 -8 0
v -376 -8 0
v -376 0 0
v -368 0 0
v -376 -8 0
v -384 -8 0
v -384 0 0
v -376 0 0
v -384 -8 0
v -392 -8 0
v -392 0 0
v -384 0 0
v -392 -8 0
v -400 -8 0
v -400 0 0
v -392 0 0
v -400 -8 0
v -408 -8 0
v -408 0 0
v -400 0 0
v -408 -8 0
v -416 -8 0
v -416 0 0
v -408 0 0
v -416 -8 0
v -424 -8 0
v -424 0 0
v -416 0 0
v -424 -8 0
v -432 -8 0
v -432 0 0
v -424 0 0
v -432 -8 0
v -440 -8 0
v -440 0 0
v -432 0 0
v -440 -8 0
v -448 -8 0
v -448 0 0
v -440 0 0
v -448 -8 0
v -456 -8 0
v -456 0 0
v -448 0 0
v -456 -8 0
v -464 -8 0
v -464 0 0
v -456 0 0
v -464 -8 0
v -472 -8 0
v -472 0 0
v -464 0 0
v -472 -8 0
v -480 -8 0
v -480 0 0
v -472 0 0
v -480 -8 0
v -488 -8 0
v -488 0 0
v -480 0 0
v -64 -16 0
v -72 -16 0
v -72 -8 0
v -64 -8 0
v -72 -16 0
v -80 -16 0
v -80 -8 0
v -72 -8 0
v -80 -16 0
v -88 -16 0
v -88 -8 0
v -80 -8 0
v -144 -16 0
v -152 -16 0
v -152 -8 0
v -144 -8 0
v -152 -16 0
v -160 -16 0
v -160 -8 0
v -152 -8 0
v -160 -16 0
v -168 -16 0
v -168 -8 0
v -160 -8 0
v -176 -16 0
v -184 -16 0
v -184 -8 0
v -176 -8 0
v -184 -16 0
v -192 -16 0
v -192 -8 0
v -184 -8 0
v -192 -16 0
v -200 -16 0
v -200 -8 0
v -192 -8 0
v -296 -16 0
v -304 -16 0
v -304 -8 0
v -296 -8 0
v -304 -16 0
v -312 -16 0
v -312 -8 0
v -304 -8 0
v -312 -16 0
v -320 -16 0
v -320 -8 0
v -312 -8 0
v -328 -16 0
v -336 -16 0
v -336 -8 0
v -328 -8 0
v -336 -16 0
v -344 -16 0
v -344 -8 0
v -336 -8 0
v -344 -16 0
v -352 -16 0
v -352 -8 0
v -344 -8 0
v -408 -16 0
v -416 -16 0
v -416 -8 0
v -408 -8 0
v -416 -16 0
v -424 -16 0
v -424 -8 0
v -416 -8 0
v -424 -16 0
v -432 -16 0
v -432 -8 0
v -424 -8 0
v -72 -24 0
v -80 -24 0
v -80 -16 0
v -72 -16 0
v -80 -24 0
v -88 -24 0
v -88 -16 0
v -80 -16 0
v -88 -24 0
v -96 -24 0
v -96 -16 0
v -88 -16 0
v -152 -24 0
v -160 -24 0
v -160 -16 0
v -152 -16 0
v -160 -24 0
v -168 -24 0
v -168 -16 0
v -160 -16 0
v -168 -24 0
v -176 -24 0
v -176 -16 0
v -168 -16 0
v -184 -24 0
v -192 -24 0
v -192 -16 0
v -184 -16 0
v -192 -24 0
v -200 -24 0
v -200 -16 0
v -192 -16 0
v -200 -24 0
v -208 -24 0
v -208 -16 0
v -200 -16 0
v -288 -24 0
v -296 -24 0
v -296 -16 0
v -288 -16 0
v -296 -24 0
v -304 -24 0
v -304 -16 0
v -296 -16 0
v -304 -24 0
v -312 -24 0
v -312 -16 0
v -304 -16 0
v -320 -24 0
v -328 -24 0
v -328 -16 0
v -320 -16 0
v -328 -24 0
v -336 -24 0
v -336 -16 0
v -328 -16 0
v -336 -24 0
v -344 -24 0
v -344 -16 0
v -336 -16 0
v -400 -24 0
v -408 -24 0
v -408 -16 0
v -400 -16 0
v -408 -24 0
v -416 -24 0
v -416 -16 0
v -408 -16 0
v -416 -24 0
v -424 -24 0
v -424 -16 0
v -416 -16 0
v -80 -32 0
v -88 -32 0
v -88 -24 0
v -80 -24 0
v -88 -32 0
v -96 -32 0
v -96 -24 0
v -88 -24 0
v -96 -32 0
v -104 -32 0
v -104 -24 0
v -96 -24 0
v -160 -32 0
v -168 -32 0
v -168 -24 0
v -160 -24 0
v -168 -32 0
v -176 -32 0
v -176 -24 0
v -168 -24 0
v -176 -32 0
v -184 -32 0
v -184 -24 0
v -176 -24 0
v -192 -32 0
v -200 -32 0
v -200 -24 0
v -192 -24 0
v -200 -32 0
v -208 -32 0
v -208 -24 0
v -200 -24 0
v -208 -32 0
v -216 -32 0
v -216 -24 0
v -208 -24 0
v -280 -32 0
v -288 -32 0
v -288 -24 0
v -280 -24 0
v -288 -32 0
v -296 -32 0
v -296 -24 0
v -288 -24 0
v -296 -32 0
v -304 -32 0
v -304 -24 0
v -296 -24 0
v -312 -32 0
v -320 -32 0
v -320 -24 0
v -312 -24 0
v -320 -32 0
v -328 -32 0
v -328 -24 0
v -320 -24 0
v -328 -32 0
v -336 -32 0
v -336 -24 0
v -328 -24 0
v -392 -32 0
v -400 -32 0
v -400 -24 0
v -392 -24 0
v -400 -32 0
v -408 -32 0
v -408 -24 0
v -400 -24 0
v -408 -32 0
v -416 -32 0
v -416 -24 0
v -408 -24 0
v -88 -40 0
v -96 -40 0
v -96 -32 0
v -88 -32 0
v -96 -40 0
v -104 -40 0
v -104 -32 0
v -96 -32 0
v -104 -40 0
v -112 -40 0
v -112 -32 0
v -104 -32 0
v -168 -40 0
v -176 -40 0
v -176 -32 0
v -168 -32 0
v -176 -40 0
v -184 -40 0
v -184 -32 0
v -176 -32 0
v -184 -40 0
v -192 -40 0
v -192 -32 0
v -184 -32 0
v -200 -40 0
v -208 -40 0
v -208 -32 0
v -200 -32 0
v -208 -40 0
v -216 -40 0
v -216 -32 0
v -208 -32 0
v -216 -40 0
v -224 -40 0
v -224 -32 0
v -216 -32 0
v -272 -40 0
v -280 -40 0
v -280 -32 0
v -272 -32 0
v -280 -40 0
v -288 -40 0
v -288 -32 0
v -280 -32 0
v -288 -40 0
v -296 -40 0
v -296 -32 0
v -288 -32 0
v -304 -40 0
v -312 -40 0
v -312 -32 0
v -304 -32 0
v -312 -40 0
v -320 -40 0
v -320 -32 0
v -312 -32 0
v -320 -40 0
v -328 -40 0
v -328 -32 0
v -320 -32 0
v -384 -40 0
v -392 -40 0
v -392 -32 0
v -384 -32 0
v -392 -40 0
v -400 -40 0
v -400 -32 0
v -392 -32 0
v -400 -40 0
v -408 -40 0
v -408 -32 0
v -400 -32 0
v -96 -48 0
v -104 -48 0
v -104 -40 0
v -96 -40 0
v -104 -48 0
v -112 -48 0
v -112 -40 0
v -104 -40 0
v -112 -48 0
v -120 -48 0
v -120 -40 0
v -112 -40 0
v -176 -48 0
v -184 -48 0
v -184 -40 0
v -176 -40 0
v -184 -48 0
v -192 -48 0
v -192 -40 0
v -184 -40 0
v -192 -48 0
v -200 -48 0
v -200 -40 0
v -192 -40 0
v -208 -48 0
v -216 -48 0
v -216 -40 0
v -208 -40 0
v -216 -48 0
v -224 -48 0
v -224 -40 0
v -216 -40 0
v -224 -48 0
v -232 -48 0
v -232 -40 0
v -224 -40 0
v -264 -48 0
v -272 -48 0
v -272 -40 0
v -264 -40 0
v -272 -48 0
v -280 -48 0
v -280 -40 0
v -272 -40 0
v -280 -48 0
v -288 -48 0
v -288 -40 0
v -280 -40 0
v -296 -48 0
v -304 -48 0
v -304 -40 0
v -296 -40 0
v -304 -48 0
v -312 -48 0
v -312 -40 0
v -304 -40 0
v -312 -48 0
v -320 -48 0
v -320 -40 0
v -312 -40 0
v -376 -48 0
v -384 -48 0
v -384 -40 0
v -376 -40 0
v -384 -48 0
v -392 -48 0
v -392 -40 0
v -384 -40 0
v -392 -48 0
v -400 -48 0
v -400 -40 0
v -392 -40 0
v -104 -56 0
v -112 -56 0
v -112 -48 0
v -104 -48 0
v -112 -56 0
v -120 -56 0
v -120 -48 0
v -112 -48 0
v -120 -56 0
v -128 -56 0
v -128 -48 0
v -120 -48 0
v -184 -56 0
v -192 -56 0
v -192 -48 0
v -184 -48 0
v -192 -56 0
v -200 -56 0
v -200 -48 0
v -192 -48 0
v -200 -56 0
v -208 -56 0
v -208 -48 0
v -200 -48 0
v -208 -56 0
v -216 -56 0
v -216 -48 0
v -208 -48 0
v -216 -56 0
v -224 -56 0
v -224 -48 0
v -216 -48 0
v -224 -56 0
v -232 -56 0
v -232 -48 0
v -224 -48 0
v -264 -56 0
v -272 -56 0
v -272 -48 0
v -264 -48 0
v -272 -56 0
v -280 -56 0
v -280 -48 0
v -272 -48 0
v -280 -56 0
v -288 -56 0
v -288 -48 0
v -280 -48 0
v -288 -56 0
v -296 -56 0
v -296 -48 0
v -288 -48 0
v -296 -56 0
v -304 -56 0
v -304 -48 0
v -296 -48 0
v -304 -56 0
v -312 -56 0
v -312 -48 0
v -304 -48 0
v -368 -56 0
v -376 -56 0
v -376 -48 0
v -368 -48 0
v -376 -56 0
v -384 -56 0
v -384 -48 0
v -376 -48 0
v -384 -56 0
v -392 -56 0
v -392 -48 0
v -384 -48 0
v -112 -64 0
v -120 -64 0
v -120 -56 0
v -112 -56 0
v -120 -64 0
v -128 -64 0
v -128 -56 0
v -120 -56 0
v -128 -64 0
v -136 -64 0
v -136 -56 0
v -128 -56 0
v -176 -64 0
v -184 -64 0
v -184 -56 0
v -176 -56 0
v -184 -64 0
v -192 -64 0
v -192 -56 0
v -184 -56 0
v -192 -64 0
v -200 -64 0
v -200 -56 0
v -192 -56 0
v -208 -64 0
v -216 -64 0
v -216 -56 0
v -208 -56 0
v -216 -64 0
v -224 -64 0
v -224 -56 0
v -216 -56 0
v -224 -64 0
v -232 -64 0
v -232 -56 0
v -224 -56 0
v -264 -64 0
v -272 -64 0
v -272 -56 0
v -264 -56 0
v -272 -64 0
v -280 -64 0
v -280 -56 0
v -272 -56 0
v -280 -64 0
v -288 -64 0
v -288 -56 0
v -280 -56 0
v -296 -64 0
v -304 -64 0
v -304 -56 0
v -296 -56 0
v -304 -64 0
v -312 -64 0
v -312 -56 0
v -304 -56 0
v -312 -64 0
v -320 -64 0
v -320 -56 0
v -312 -56 0
v -360 -64 0
v -368 -64 0
v -368 -56 0
v -360 -56 0
v -368 -64 0
v -376 -64 0
v -376 -56 0
v -368 -56 0
v -376 -64 0
v -384 -64 0
v -384 -56 0
v -376 -56 0
v -120 -72 0
v -128 -72 0
v -128 -64 0
v -120 -64 0
v -128 -72 0
v -136 -72 0
v -136 -64 0
v -128 -64 0
v -136 -72 0
v -144 -72 0
v -144 -64 0
v -136 -64 0
v -168 -72 0
v -176 -72 0
v -176 -64 0
v -168 -64 0
v -176 -72 0
v -184 -72 0
v -184 -64 0
v -176 -64 0
v -184 -72 0
v -192 -72 0
v -192 -64 0
v -184 -64 0
v -200 -72 0
v -208 -72 0
v -208 -64 0
v -200 -64 0
v -208 -72 0
v -216 -72 0
v -216 -64 0
v -208 -64 0
v -216 -72 0
v -224 -72 0
v -224 -64 0
v -216 -64 0
v -272 -72 0
v -280 -72 0
v -280 -64 0
v -272 -64 0
v -280 -72 0
v -288 -72 0
v -288 -64 0
v -280 -64 0
v -288 -72 0
v -296 -72 0
v -296 -64 0
v -288 -64 0
v -304 -72 0
v -312 -72 0
v -312 -64 0
v -304 -64 0
v -312 -72 0
v -320 -72 0
v -320 -64 0
v -312 -64 0
v -320 -72 0
v -328 -72 0
v -328 -64 0
v -320 -64 0
v -352 -72 0
v -360 -72 0
v -360 -64 0
v -352 -64 0
v -360 -72 0
v -368 -72 0
v -368 -64 0
v -360 -64 0
v -368 -72 0
v -376 -72 0
v -376 -64 0
v -368 -64 0
v -128 -80 0
v -136 -80 0
v -136 -72 0
v -128 -72 0
v -136 -80 0
v -144 -80 0
v -144 -72 0
v -136 -72 0
v -144 -80 0
v -152 -80 0
v -152 -72 0
v -144 -72 0
v -160 -80 0
v -168 -80 0
v -168 -72 0
v -160 -72 0
v -168 -80 0
v -176 -80 0
v -176 -72 0
v -168 -72 0
v -176 -80 0
v -184 -80 0
v -184 -72 0
v -176 -72 0
v -192 -80 0
v -200 -80 0
v -200 -72 0
v -192 -72 0
v -200 -80 0
v -208 -80 0
v -208 -72 0
v -200 -72 0
v -208 -80 0
v -216 -80 0
v -216 -72 0
v -208 -72 0
v -280 -80 0
v -288 -80 0
v -288 -72 0
v -280 -72 0
v -288 -80 0
v -296 -80 0
v -296 -72 0
v -288 -72 0
v -296 -80 0
v -304 -80 0
v -304 -72 0
v -296 -72 0
v -312 -80 0
v -320 -80 0
v -320 -72 0
v -312 -72 0
v -320 -80 0
v -328 -80 0
v -328 -72 0
v -320 -72 0
v -328 -80 0
v -336 -80 0
v -336 -72 0
v -328 -72 0
v -344 -80 0
v -352 -80 0
v -352 -72 0
v -344 -72 0
v -352 -80 0
v -360 -80 0
v -360 -72 0
v -352 -72 0
v -360 -80 0
v -368 -80 0
v -368 -72 0
v -360 -72 0
v -136 -88 0
v -144 -88 0
v -144 -80 0
v -136 -80 0
v -144 -88 0
v -152 -88 0
v -152 -80 0
v -144 -80 0
v -152 -88 0
v -160 -88 0
v -160 -80 0
v -152 -80 0
v -160 -88 0
v -168 -88 0
v -168 -80 0
v -160 -80 0
v -168 -88 0
v -176 -88 0
v -176 -80 0
v -168 -80 0
v -184 -88 0
v -192 -88 0
v -192 -80 0
v -184 -80 0
v -192 -88 0
v -200 -88 0
v -200 -80 0
v -192 -80 0
v -200 -88 0
v -208 -88 0
v -208 -80 0
v -200 -80 0
v -288 -88 0
v -296 -88 0
v -296 -80 0
v -288 -80 0
v -296 -88 0
v -304 -88 0
v -304 -80 0
v -296 -80 0
v -304 -88 0
v -312 -88 0
v -312 -80 0
v -304 -80 0
v -320 -88 0
v -328 -88 0
v -328 -80 0
v -320 -80 0
v -328 -88 0
v -336 -88 0
v -336 -80 0
v -328 -80 0
v -336 -88 0
v -344 -88 0
v -344 -80 0
v -336 -80 0
v -344 -88 0
v -352 -88 0
v -352 -80 0
v -344 -80 0
v -352 -88 0
v -360 -88 0
v -360 -80 0
v -352 -80 0
v -144 -96 0
v -152 -96 0
v -152 -88 0
v -144 -88 0
v -152 -96 0
v -160 -96 0
v -160 -88 0
v -152 -88 0
v -160 -96 0
v -168 -96 0
v -168 -88 0
v -160 -88 0
v -168 -96 0
v -176 -96 0
v -176 -88 0
v -168 -88 0
v -176 -96 0
v -184 -96 0
v -184 -88 0
v -176 -88 0
v -184 -96 0
v -192 -96 0
v -192 -88 0
v -184 -88 0
v -192 -96 0
v -200 -96 0
v -200 -88 0
v -192 -88 0
v -296 -96 0
v -304 -96 0
v -304 -88 0
v -296 -88 0
v -304 -96 0
v -312 -96 0
v -312 -88 0
v -304 -88 0
v -312 -96 0
v -320 -96 0
v -320 -88 0
v -312 -88 0
v -320 -96 0
v -328 -96 0
v -328 -88 0
v -320 -88 0
v -328 -96 0
v -336 -96 0
v -336 -88 0
v -328 -88 0
v -336 -96 0
v -344 -96 0
v -344 -88 0
v -336 -88 0
v -344 -96 0
v -352 -96 0
v -352 -88 0
v -344 -88 0

# Texture cooridinates (Count = 45)
vt 0.125 0.625
vt 0.25 0.625
vt 0.25 0.75
vt 0.125 0.75
vt 0.5 0.5
vt 0.625 0.5
vt 0.625 0.625
vt 0.5 0.625
vt 0 0.25
vt 0.125 0.25
vt 0.125 0.375
vt 0 0.375
vt 0.5 0.875
vt 0.625 0.875
vt 0.625 1
vt 0.5 1
vt 0.875 0.875
vt 1 0.875
vt 1 1
vt 0.875 1
vt 0.25 0.25
vt 0.25 0.375
vt 0.875 0.5
vt 1 0.5
vt 1 0.625
vt 0.875 0.625
vt 0.875 0.75
vt 1 0.75
vt 0 0.75
vt 0.125 0.875
vt 0 0.875
vt 0 0.125
vt 0.125 0.125
vt 0.125 0.5
vt 0.25 0.5
vt 0.25 0.125
vt 0.5 0.75
vt 0.625 0.75
vt 0.125 1
vt 0 1
vt 0.25 0.875
vt 0.25 1
vt 0.75 0.5
vt 0.75 0.625
vt 0.75 0.75

# Normal
vn 0 0 -1

# Mesh description
g 1_3_21b_mesh_0002

# Faces
f 1/1/1 2/2/1 3/3/1 4/4/1
f 5/1/1 6/2/1 7/3/1 8/4/1
f 9/1/1 10/2/1 11/3/1 12/4/1
f 13/1/1 14/2/1 15/3/1 16/4/1
f 17/1/1 18/2/1 19/3/1 20/4/1
f 21/1/1 22/2/1 23/3/1 24/4/1
f 25/1/1 26/2/1 27/3/1 28/4/1
f 29/1/1 30/2/1 31/3/1 32/4/1
f 33/1/1 34/2/1 35/3/1 36/4/1
f 37/1/1 38/2/1 39/3/1 40/4/1
f 41/1/1 42/2/1 43/3/1 44/4/1
f 45/1/1 46/2/1 47/3/1 48/4/1
f 49/1/1 50/2/1 51/3/1 52/4/1
f 53/1/1 54/2/1 55/3/1 56/4/1
f 57/1/1 58/2/1 59/3/1 60/4/1
f 61/1/1 62/2/1 63/3/1 64/4/1
f 65/1/1 66/2/1 67/3/1 68/4/1
f 69/1/1 70/2/1 71/3/1 72/4/1
f 73/1/1 74/2/1 75/3/1 76/4/1
f 77/1/1 78/2/1 79/3/1 80/4/1
f 81/1/1 82/2/1 83/3/1 84/4/1
f 85/1/1 86/2/1 87/3/1 88/4/1
f 89/1/1 90/2/1 91/3/1 92/4/1
f 93/1/1 94/2/1 95/3/1 96/4/1
f 97/1/1 98/2/1 99/3/1 100/4/1
f 101/1/1 102/2/1 103/3/1 104/4/1
f 105/1/1 106/2/1 107/3/1 108/4/1
f 109/1/1 110/2/1 111/3/1 112/4/1
f 113/1/1 114/2/1 115/3/1 116/4/1
f 117/1/1 118/2/1 119/3/1 120/4/1
f 121/1/1 122/2/1 123/3/1 124/4/1
f 125/1/1 126/2/1 127/3/1 128/4/1
f 129/1/1 130/2/1 131/3/1 132/4/1
f 133/1/1 134/2/1 135/3/1 136/4/1
f 137/1/1 138/2/1 139/3/1 140/4/1
f 141/1/1 142/2/1 143/3/1 144/4/1
f 145/1/1 146/2/1 147/3/1 148/4/1
f 149/1/1 150/2/1 151/3/1 152/4/1
f 153/1/1 154/2/1 155/3/1 156/4/1
f 157/1/1 158/2/1 159/3/1 160/4/1
f 161/1/1 162/2/1 163/3/1 164/4/1
f 165/1/1 166/2/1 167/3/1 168/4/1
f 169/1/1 170/2/1 171/3/1 172/4/1
f 173/1/1 174/2/1 175/3/1 176/4/1
f 177/1/1 178/2/1 179/3/1 180/4/1
f 181/1/1 182/2/1 183/3/1 184/4/1
f 185/1/1 186/2/1 187/3/1 188/4/1
f 189/1/1 190/2/1 191/3/1 192/4/1
f 193/1/1 194/2/1 195/3/1 196/4/1
f 197/1/1 198/2/1 199/3/1 200/4/1
f 201/1/1 202/2/1 203/3/1 204/4/1
f 205/1/1 206/2/1 207/3/1 208/4/1
f 209/1/1 210/2/1 211/3/1 212/4/1
f 213/1/1 214/2/1 215/3/1 216/4/1
f 217/1/1 218/2/1 219/3/1 220/4/1
f 221/1/1 222/2/1 223/3/1 224/4/1
f 225/1/1 226/2/1 227/3/1 228/4/1
f 229/1/1 230/2/1 231/3/1 232/4/1
f 233/1/1 234/2/1 235/3/1 236/4/1
f 237/1/1 238/2/1 239/3/1 240/4/1
f 241/1/1 242/2/1 243/3/1 244/4/1
f 245/5/1 246/6/1 247/7/1 248/8/1
f 249/9/1 250/10/1 251/11/1 252/12/1
f 253/13/1 254/14/1 255/15/1 256/16/1
f 257/5/1 258/6/1 259/7/1 260/8/1
f 261/9/1 262/10/1 263/11/1 264/12/1
f 265/13/1 266/14/1 267/15/1 268/16/1
f 269/5/1 270/6/1 271/7/1 272/8/1
f 273/9/1 274/10/1 275/11/1 276/12/1
f 277/13/1 278/14/1 279/15/1 280/16/1
f 281/17/1 282/18/1 283/19/1 284/20/1
f 285/10/1 286/21/1 287/22/1 288/11/1
f 289/23/1 290/24/1 291/25/1 292/26/1
f 293/17/1 294/18/1 295/19/1 296/20/1
f 297/10/1 298/21/1 299/22/1 300/11/1
f 301/23/1 302/24/1 303/25/1 304/26/1
f 305/17/1 306/18/1 307/19/1 308/20/1
f 309/10/1 310/21/1 311/22/1 312/11/1
f 313/23/1 314/24/1 315/25/1 316/26/1
f 317/5/1 318/6/1 319/7/1 320/8/1
f 321/9/1 322/10/1 323/11/1 324/12/1
f 325/13/1 326/14/1 327/15/1 328/16/1
f 329/5/1 330/6/1 331/7/1 332/8/1
f 333/9/1 334/10/1 335/11/1 336/12/1
f 337/13/1 338/14/1 339/15/1 340/16/1
f 341/5/1 342/6/1 343/7/1 344/8/1
f 345/9/1 346/10/1 347/11/1 348/12/1
f 349/13/1 350/14/1 351/15/1 352/16/1
f 353/17/1 354/18/1 355/19/1 356/20/1
f 357/10/1 358/21/1 359/22/1 360/11/1
f 361/23/1 362/24/1 363/25/1 364/26/1
f 365/17/1 366/18/1 367/19/1 368/20/1
f 369/10/1 370/21/1 371/22/1 372/11/1
f 373/23/1 374/24/1 375/25/1 376/26/1
f 377/17/1 378/18/1 379/19/1 380/20/1
f 381/10/1 382/21/1 383/22/1 384/11/1
f 385/23/1 386/24/1 387/25/1 388/26/1
f 389/5/1 390/6/1 391/7/1 392/8/1
f 393/9/1 394/10/1 395/11/1 396/12/1
f 397/13/1 398/14/1 399/15/1 400/16/1
f 401/5/1 402/6/1 403/7/1 404/8/1
f 405/9/1 406/10/1 407/11/1 408/12/1
f 409/13/1 410/14/1 411/15/1 412/16/1
f 413/5/1 414/6/1 415/7/1 416/8/1
f 417/9/1 418/10/1 419/11/1 420/12/1
f 421/13/1 422/14/1 423/15/1 424/16/1
f 425/17/1 426/18/1 427/19/1 428/20/1
f 429/10/1 430/21/1 431/22/1 432/11/1
f 433/23/1 434/24/1 435/25/1 436/26/1
f 437/17/1 438/18/1 439/19/1 440/20/1
f 441/10/1 442/21/1 443/22/1 444/11/1
f 445/23/1 446/24/1 447/25/1 448/26/1
f 449/17/1 450/18/1 451/19/1 452/20/1
f 453/10/1 454/21/1 455/22/1 456/11/1
f 457/23/1 458/24/1 459/25/1 460/26/1
f 461/5/1 462/6/1 463/7/1 464/8/1
f 465/9/1 466/10/1 467/11/1 468/12/1
f 469/13/1 470/14/1 471/15/1 472/16/1
f 473/5/1 474/6/1 475/7/1 476/8/1
f 477/9/1 478/10/1 479/11/1 480/12/1
f 481/13/1 482/14/1 483/15/1 484/16/1
f 485/5/1 486/6/1 487/7/1 488/8/1
f 489/9/1 490/10/1 491/11/1 492/12/1
f 493/13/1 494/14/1 495/15/1 496/16/1
f 497/17/1 498/18/1 499/19/1 500/20/1
f 501/10/1 502/21/1 503/22/1 504/11/1
f 505/23/1 506/24/1 507/25/1 508/26/1
f 509/17/1 510/18/1 511/19/1 512/20/1
f 513/10/1 514/21/1 515/22/1 516/11/1
f 517/23/1 518/24/1 519/25/1 520/26/1
f 521/17/1 522/18/1 523/19/1 524/20/1
f 525/10/1 526/21/1 527/22/1 528/11/1
f 529/23/1 530/24/1 531/25/1 532/26/1
f 533/5/1 534/6/1 535/7/1 536/8/1
f 537/9/1 538/10/1 539/11/1 540/12/1
f 541/13/1 542/14/1 543/15/1 544/16/1
f 545/5/1 546/6/1 547/7/1 548/8/1
f 549/9/1 550/10/1 551/11/1 552/12/1
f 553/13/1 554/14/1 555/15/1 556/16/1
f 557/5/1 558/6/1 559/7/1 560/8/1
f 561/9/1 562/10/1 563/11/1 564/12/1
f 565/13/1 566/14/1 567/15/1 568/16/1
f 569/17/1 570/18/1 571/19/1 572/20/1
f 573/27/1 574/28/1 575/18/1 576/17/1
f 577/23/1 578/24/1 579/25/1 580/26/1
f 581/17/1 582/18/1 583/19/1 584/20/1
f 585/10/1 586/21/1 587/22/1 588/11/1
f 589/23/1 590/24/1 591/25/1 592/26/1
f 593/17/1 594/18/1 595/19/1 596/20/1
f 597/10/1 598/21/1 599/22/1 600/11/1
f 601/23/1 602/24/1 603/25/1 604/26/1
f 605/5/1 606/6/1 607/7/1 608/8/1
f 609/9/1 610/10/1 611/11/1 612/12/1
f 613/13/1 614/14/1 615/15/1 616/16/1
f 617/29/1 618/4/1 619/30/1 620/31/1
f 621/32/1 622/33/1 623/10/1 624/9/1
f 625/34/1 626/35/1 627/2/1 628/1/1
f 629/34/1 630/35/1 631/2/1 632/1/1
f 633/33/1 634/36/1 635/21/1 636/10/1
f 637/37/1 638/38/1 639/14/1 640/13/1
f 641/8/1 642/7/1 643/38/1 644/37/1
f 645/32/1 646/33/1 647/10/1 648/9/1
f 649/31/1 650/30/1 651/39/1 652/40/1
f 653/30/1 654/41/1 655/42/1 656/39/1
f 657/33/1 658/36/1 659/21/1 660/10/1
f 661/29/1 662/4/1 663/30/1 664/31/1
f 665/17/1 666/18/1 667/19/1 668/20/1
f 669/10/1 670/21/1 671/22/1 672/11/1
f 673/23/1 674/24/1 675/25/1 676/26/1
f 677/5/1 678/6/1 679/7/1 680/8/1
f 681/9/1 682/10/1 683/11/1 684/12/1
f 685/13/1 686/14/1 687/15/1 688/16/1
f 689/17/1 690/18/1 691/19/1 692/20/1
f 693/10/1 694/21/1 695/22/1 696/11/1
f 697/6/1 698/43/1 699/44/1 700/7/1
f 701/17/1 702/18/1 703/19/1 704/20/1
f 705/7/1 706/44/1 707/45/1 708/38/1
f 709/6/1 710/43/1 711/44/1 712/7/1
f 713/5/1 714/6/1 715/7/1 716/8/1
f 717/8/1 718/7/1 719/38/1 720/37/1
f 721/13/1 722/14/1 723/15/1 724/16/1
f 725/5/1 726/6/1 727/7/1 728/8/1
f 729/8/1 730/7/1 731/38/1 732/37/1
f 733/13/1 734/14/1 735/15/1 736/16/1
f 737/17/1 738/18/1 739/19/1 740/20/1
f 741/10/1 742/21/1 743/22/1 744/11/1
f 745/23/1 746/24/1 747/25/1 748/26/1
f 749/5/1 750/6/1 751/7/1 752/8/1
f 753/9/1 754/10/1 755/11/1 756/12/1
f 757/13/1 758/14/1 759/15/1 760/16/1
f 761/17/1 762/18/1 763/19/1 764/20/1
f 765/10/1 766/21/1 767/22/1 768/11/1
f 769/6/1 770/43/1 771/44/1 772/7/1
f 773/17/1 774/18/1 775/19/1 776/20/1
f 777/10/1 778/21/1 779/22/1 780/11/1
f 781/6/1 782/43/1 783/44/1 784/7/1
f 785/5/1 786/6/1 787/7/1 788/8/1
f 789/9/1 790/10/1 791/11/1 792/12/1
f 793/13/1 794/14/1 795/15/1 796/16/1
f 797/5/1 798/6/1 799/7/1 800/8/1
f 801/9/1 802/10/1 803/11/1 804/12/1
f 805/13/1 806/14/1 807/15/1 808/16/1
f 809/17/1 810/18/1 811/19/1 812/20/1
f 813/10/1 814/21/1 815/22/1 816/11/1
f 817/23/1 818/24/1 819/25/1 820/26/1
f 821/5/1 822/6/1 823/7/1 824/8/1
f 825/9/1 826/10/1 827/11/1 828/12/1
f 829/13/1 830/14/1 831/15/1 832/16/1
f 833/17/1 834/18/1 835/19/1 836/20/1
f 837/10/1 838/21/1 839/22/1 840/11/1
f 841/6/1 842/43/1 843/44/1 844/7/1
f 845/17/1 846/18/1 847/19/1 848/20/1
f 849/10/1 850/21/1 851/22/1 852/11/1
f 853/6/1 854/43/1 855/44/1 856/7/1
f 857/5/1 858/6/1 859/7/1 860/8/1
f 861/9/1 862/10/1 863/11/1 864/12/1
f 865/13/1 866/14/1 867/15/1 868/16/1
f 869/5/1 870/6/1 871/7/1 872/8/1
f 873/9/1 874/10/1 875/11/1 876/12/1
f 877/13/1 878/14/1 879/15/1 880/16/1
f 881/17/1 882/18/1 883/19/1 884/20/1
f 885/10/1 886/21/1 887/22/1 888/11/1
f 889/23/1 890/24/1 891/25/1 892/26/1
f 893/5/1 894/6/1 895/7/1 896/8/1
f 897/9/1 898/10/1 899/11/1 900/12/1
f 901/30/1 902/41/1 903/42/1 904/39/1
f 905/10/1 906/21/1 907/22/1 908/11/1
f 909/6/1 910/43/1 911/44/1 912/7/1
f 913/17/1 914/18/1 915/19/1 916/20/1
f 917/10/1 918/21/1 919/22/1 920/11/1
f 921/6/1 922/43/1 923/44/1 924/7/1
f 925/5/1 926/6/1 927/7/1 928/8/1
f 929/9/1 930/10/1 931/11/1 932/12/1
f 933/13/1 934/14/1 935/15/1 936/16/1
f 937/5/1 938/6/1 939/7/1 940/8/1
f 941/37/1 942/38/1 943/14/1 944/13/1
f 945/31/1 946/30/1 947/39/1 948/40/1
f 949/10/1 950/21/1 951/22/1 952/11/1
f 953/23/1 954/24/1 955/25/1 956/26/1
f 957/5/1 958/6/1 959/7/1 960/8/1
f 961/1/1 962/2/1 963/3/1 964/4/1
f 965/1/1 966/2/1 967/3/1 968/4/1
f 969/34/1 970/35/1 971/2/1 972/1/1
f 973/34/1 974/35/1 975/2/1 976/1/1
f 977/1/1 978/2/1 979/3/1 980/4/1
f 981/6/1 982/43/1 983/44/1 984/7/1
f 985/5/1 986/6/1 987/7/1 988/8/1
f 989/1/1 990/2/1 991/3/1 992/4/1
f 993/34/1 994/35/1 995/2/1 996/1/1
f 997/34/1 998/35/1 999/2/1 1000/1/1
f 1001/1/1 1002/2/1 1003/3/1 1004/4/1
f 1005/1/1 1006/2/1 1007/3/1 1008/4/1
f 1009/23/1 1010/24/1 1011/25/1 1012/26/1

