# Tiled2Unity generated file. Do not modify by hand.
# Wavefront file for '1_2_Module50_mesh_0002.obj'

# Vertices (Count = 172)
v -392 -248 0
v -400 -248 0
v -400 -240 0
v -392 -240 0
v -392 -256 0
v -400 -256 0
v -400 -248 0
v -392 -248 0
v -392 -264 0
v -400 -264 0
v -400 -256 0
v -392 -256 0
v -392 -272 0
v -400 -272 0
v -400 -264 0
v -392 -264 0
v -392 -280 0
v -400 -280 0
v -400 -272 0
v -392 -272 0
v -392 -288 0
v -400 -288 0
v -400 -280 0
v -392 -280 0
v -392 -296 0
v -400 -296 0
v -400 -288 0
v -392 -288 0
v -392 -304 0
v -400 -304 0
v -400 -296 0
v -392 -296 0
v -392 -312 0
v -400 -312 0
v -400 -304 0
v -392 -304 0
v -392 -320 0
v -400 -320 0
v -400 -312 0
v -392 -312 0
v -392 -328 0
v -400 -328 0
v -400 -320 0
v -392 -320 0
v -392 -336 0
v -400 -336 0
v -400 -328 0
v -392 -328 0
v -392 -344 0
v -400 -344 0
v -400 -336 0
v -392 -336 0
v -392 -352 0
v -400 -352 0
v -400 -344 0
v -392 -344 0
v -392 -360 0
v -400 -360 0
v -400 -352 0
v -392 -352 0
v -392 -368 0
v -400 -368 0
v -400 -360 0
v -392 -360 0
v -392 -376 0
v -400 -376 0
v -400 -368 0
v -392 -368 0
v -392 -384 0
v -400 -384 0
v -400 -376 0
v -392 -376 0
v -392 -392 0
v -400 -392 0
v -400 -384 0
v -392 -384 0
v -184 -400 0
v -192 -400 0
v -192 -392 0
v -184 -392 0
v -392 -400 0
v -400 -400 0
v -400 -392 0
v -392 -392 0
v -184 -408 0
v -192 -408 0
v -192 -400 0
v -184 -400 0
v -392 -408 0
v -400 -408 0
v -400 -400 0
v -392 -400 0
v -184 -416 0
v -192 -416 0
v -192 -408 0
v -184 -408 0
v -392 -416 0
v -400 -416 0
v -400 -408 0
v -392 -408 0
v -184 -424 0
v -192 -424 0
v -192 -416 0
v -184 -416 0
v -392 -424 0
v -400 -424 0
v -400 -416 0
v -392 -416 0
v -184 -432 0
v -192 -432 0
v -192 -424 0
v -184 -424 0
v -392 -432 0
v -400 -432 0
v -400 -424 0
v -392 -424 0
v -184 -440 0
v -192 -440 0
v -192 -432 0
v -184 -432 0
v -392 -440 0
v -400 -440 0
v -400 -432 0
v -392 -432 0
v -184 -448 0
v -192 -448 0
v -192 -440 0
v -184 -440 0
v -392 -448 0
v -400 -448 0
v -400 -440 0
v -392 -440 0
v -184 -456 0
v -192 -456 0
v -192 -448 0
v -184 -448 0
v -392 -456 0
v -400 -456 0
v -400 -448 0
v -392 -448 0
v -184 -464 0
v -192 -464 0
v -192 -456 0
v -184 -456 0
v -392 -464 0
v -400 -464 0
v -400 -456 0
v -392 -456 0
v -184 -472 0
v -192 -472 0
v -192 -464 0
v -184 -464 0
v -392 -472 0
v -400 -472 0
v -400 -464 0
v -392 -464 0
v -184 -480 0
v -192 -480 0
v -192 -472 0
v -184 -472 0
v -392 -480 0
v -400 -480 0
v -400 -472 0
v -392 -472 0
v -184 -488 0
v -192 -488 0
v -192 -480 0
v -184 -480 0
v -392 -488 0
v -400 -488 0
v -400 -480 0
v -392 -480 0

# Texture cooridinates (Count = 4)
vt 0.3333333 0.3333333
vt 0.6666667 0.3333333
vt 0.6666667 0.6666666
vt 0.3333333 0.6666666

# Normal
vn 0 0 -1

# Mesh description
g 1_2_Module50_mesh_0002

# Faces
f 1/1/1 2/2/1 3/3/1 4/4/1
f 5/1/1 6/2/1 7/3/1 8/4/1
f 9/1/1 10/2/1 11/3/1 12/4/1
f 13/1/1 14/2/1 15/3/1 16/4/1
f 17/1/1 18/2/1 19/3/1 20/4/1
f 21/1/1 22/2/1 23/3/1 24/4/1
f 25/1/1 26/2/1 27/3/1 28/4/1
f 29/1/1 30/2/1 31/3/1 32/4/1
f 33/1/1 34/2/1 35/3/1 36/4/1
f 37/1/1 38/2/1 39/3/1 40/4/1
f 41/1/1 42/2/1 43/3/1 44/4/1
f 45/1/1 46/2/1 47/3/1 48/4/1
f 49/1/1 50/2/1 51/3/1 52/4/1
f 53/1/1 54/2/1 55/3/1 56/4/1
f 57/1/1 58/2/1 59/3/1 60/4/1
f 61/1/1 62/2/1 63/3/1 64/4/1
f 65/1/1 66/2/1 67/3/1 68/4/1
f 69/1/1 70/2/1 71/3/1 72/4/1
f 73/1/1 74/2/1 75/3/1 76/4/1
f 77/1/1 78/2/1 79/3/1 80/4/1
f 81/1/1 82/2/1 83/3/1 84/4/1
f 85/1/1 86/2/1 87/3/1 88/4/1
f 89/1/1 90/2/1 91/3/1 92/4/1
f 93/1/1 94/2/1 95/3/1 96/4/1
f 97/1/1 98/2/1 99/3/1 100/4/1
f 101/1/1 102/2/1 103/3/1 104/4/1
f 105/1/1 106/2/1 107/3/1 108/4/1
f 109/1/1 110/2/1 111/3/1 112/4/1
f 113/1/1 114/2/1 115/3/1 116/4/1
f 117/1/1 118/2/1 119/3/1 120/4/1
f 121/1/1 122/2/1 123/3/1 124/4/1
f 125/1/1 126/2/1 127/3/1 128/4/1
f 129/1/1 130/2/1 131/3/1 132/4/1
f 133/1/1 134/2/1 135/3/1 136/4/1
f 137/1/1 138/2/1 139/3/1 140/4/1
f 141/1/1 142/2/1 143/3/1 144/4/1
f 145/1/1 146/2/1 147/3/1 148/4/1
f 149/1/1 150/2/1 151/3/1 152/4/1
f 153/1/1 154/2/1 155/3/1 156/4/1
f 157/1/1 158/2/1 159/3/1 160/4/1
f 161/1/1 162/2/1 163/3/1 164/4/1
f 165/1/1 166/2/1 167/3/1 168/4/1
f 169/1/1 170/2/1 171/3/1 172/4/1

