# Tiled2Unity generated file. Do not modify by hand.
# Wavefront file for '1_3_Module43_mesh_0002.obj'

# Vertices (Count = 584)
v -224 -208 0
v -232 -208 0
v -232 -200 0
v -224 -200 0
v -232 -208 0
v -240 -208 0
v -240 -200 0
v -232 -200 0
v -240 -208 0
v -248 -208 0
v -248 -200 0
v -240 -200 0
v -224 -216 0
v -232 -216 0
v -232 -208 0
v -224 -208 0
v -232 -216 0
v -240 -216 0
v -240 -208 0
v -232 -208 0
v -240 -216 0
v -248 -216 0
v -248 -208 0
v -240 -208 0
v -224 -224 0
v -232 -224 0
v -232 -216 0
v -224 -216 0
v -232 -224 0
v -240 -224 0
v -240 -216 0
v -232 -216 0
v -240 -224 0
v -248 -224 0
v -248 -216 0
v -240 -216 0
v -224 -232 0
v -232 -232 0
v -232 -224 0
v -224 -224 0
v -232 -232 0
v -240 -232 0
v -240 -224 0
v -232 -224 0
v -240 -232 0
v -248 -232 0
v -248 -224 0
v -240 -224 0
v -224 -240 0
v -232 -240 0
v -232 -232 0
v -224 -232 0
v -232 -240 0
v -240 -240 0
v -240 -232 0
v -232 -232 0
v -240 -240 0
v -248 -240 0
v -248 -232 0
v -240 -232 0
v -80 -248 0
v -88 -248 0
v -88 -240 0
v -80 -240 0
v -88 -248 0
v -96 -248 0
v -96 -240 0
v -88 -240 0
v -96 -248 0
v -104 -248 0
v -104 -240 0
v -96 -240 0
v -224 -248 0
v -232 -248 0
v -232 -240 0
v -224 -240 0
v -232 -248 0
v -240 -248 0
v -240 -240 0
v -232 -240 0
v -240 -248 0
v -248 -248 0
v -248 -240 0
v -240 -240 0
v -384 -248 0
v -392 -248 0
v -392 -240 0
v -384 -240 0
v -392 -248 0
v -400 -248 0
v -400 -240 0
v -392 -240 0
v -400 -248 0
v -408 -248 0
v -408 -240 0
v -400 -240 0
v -80 -256 0
v -88 -256 0
v -88 -248 0
v -80 -248 0
v -88 -256 0
v -96 -256 0
v -96 -248 0
v -88 -248 0
v -96 -256 0
v -104 -256 0
v -104 -248 0
v -96 -248 0
v -224 -256 0
v -232 -256 0
v -232 -248 0
v -224 -248 0
v -232 -256 0
v -240 -256 0
v -240 -248 0
v -232 -248 0
v -240 -256 0
v -248 -256 0
v -248 -248 0
v -240 -248 0
v -384 -256 0
v -392 -256 0
v -392 -248 0
v -384 -248 0
v -392 -256 0
v -400 -256 0
v -400 -248 0
v -392 -248 0
v -400 -256 0
v -408 -256 0
v -408 -248 0
v -400 -248 0
v -80 -264 0
v -88 -264 0
v -88 -256 0
v -80 -256 0
v -88 -264 0
v -96 -264 0
v -96 -256 0
v -88 -256 0
v -96 -264 0
v -104 -264 0
v -104 -256 0
v -96 -256 0
v -224 -264 0
v -232 -264 0
v -232 -256 0
v -224 -256 0
v -232 -264 0
v -240 -264 0
v -240 -256 0
v -232 -256 0
v -240 -264 0
v -248 -264 0
v -248 -256 0
v -240 -256 0
v -384 -264 0
v -392 -264 0
v -392 -256 0
v -384 -256 0
v -392 -264 0
v -400 -264 0
v -400 -256 0
v -392 -256 0
v -400 -264 0
v -408 -264 0
v -408 -256 0
v -400 -256 0
v -80 -272 0
v -88 -272 0
v -88 -264 0
v -80 -264 0
v -88 -272 0
v -96 -272 0
v -96 -264 0
v -88 -264 0
v -96 -272 0
v -104 -272 0
v -104 -264 0
v -96 -264 0
v -232 -272 0
v -240 -272 0
v -240 -264 0
v -232 -264 0
v -384 -272 0
v -392 -272 0
v -392 -264 0
v -384 -264 0
v -392 -272 0
v -400 -272 0
v -400 -264 0
v -392 -264 0
v -400 -272 0
v -408 -272 0
v -408 -264 0
v -400 -264 0
v -80 -280 0
v -88 -280 0
v -88 -272 0
v -80 -272 0
v -88 -280 0
v -96 -280 0
v -96 -272 0
v -88 -272 0
v -96 -280 0
v -104 -280 0
v -104 -272 0
v -96 -272 0
v -232 -280 0
v -240 -280 0
v -240 -272 0
v -232 -272 0
v -384 -280 0
v -392 -280 0
v -392 -272 0
v -384 -272 0
v -392 -280 0
v -400 -280 0
v -400 -272 0
v -392 -272 0
v -400 -280 0
v -408 -280 0
v -408 -272 0
v -400 -272 0
v -80 -288 0
v -88 -288 0
v -88 -280 0
v -80 -280 0
v -88 -288 0
v -96 -288 0
v -96 -280 0
v -88 -280 0
v -96 -288 0
v -104 -288 0
v -104 -280 0
v -96 -280 0
v -232 -288 0
v -240 -288 0
v -240 -280 0
v -232 -280 0
v -384 -288 0
v -392 -288 0
v -392 -280 0
v -384 -280 0
v -392 -288 0
v -400 -288 0
v -400 -280 0
v -392 -280 0
v -400 -288 0
v -408 -288 0
v -408 -280 0
v -400 -280 0
v -80 -296 0
v -88 -296 0
v -88 -288 0
v -80 -288 0
v -88 -296 0
v -96 -296 0
v -96 -288 0
v -88 -288 0
v -96 -296 0
v -104 -296 0
v -104 -288 0
v -96 -288 0
v -232 -296 0
v -240 -296 0
v -240 -288 0
v -232 -288 0
v -384 -296 0
v -392 -296 0
v -392 -288 0
v -384 -288 0
v -392 -296 0
v -400 -296 0
v -400 -288 0
v -392 -288 0
v -400 -296 0
v -408 -296 0
v -408 -288 0
v -400 -288 0
v -80 -304 0
v -88 -304 0
v -88 -296 0
v -80 -296 0
v -88 -304 0
v -96 -304 0
v -96 -296 0
v -88 -296 0
v -96 -304 0
v -104 -304 0
v -104 -296 0
v -96 -296 0
v -232 -304 0
v -240 -304 0
v -240 -296 0
v -232 -296 0
v -384 -304 0
v -392 -304 0
v -392 -296 0
v -384 -296 0
v -392 -304 0
v -400 -304 0
v -400 -296 0
v -392 -296 0
v -400 -304 0
v -408 -304 0
v -408 -296 0
v -400 -296 0
v -88 -312 0
v -96 -312 0
v -96 -304 0
v -88 -304 0
v -232 -312 0
v -240 -312 0
v -240 -304 0
v -232 -304 0
v -392 -312 0
v -400 -312 0
v -400 -304 0
v -392 -304 0
v -88 -320 0
v -96 -320 0
v -96 -312 0
v -88 -312 0
v -232 -320 0
v -240 -320 0
v -240 -312 0
v -232 -312 0
v -392 -320 0
v -400 -320 0
v -400 -312 0
v -392 -312 0
v -88 -328 0
v -96 -328 0
v -96 -320 0
v -88 -320 0
v -232 -328 0
v -240 -328 0
v -240 -320 0
v -232 -320 0
v -392 -328 0
v -400 -328 0
v -400 -320 0
v -392 -320 0
v -88 -336 0
v -96 -336 0
v -96 -328 0
v -88 -328 0
v -232 -336 0
v -240 -336 0
v -240 -328 0
v -232 -328 0
v -392 -336 0
v -400 -336 0
v -400 -328 0
v -392 -328 0
v -88 -344 0
v -96 -344 0
v -96 -336 0
v -88 -336 0
v -232 -344 0
v -240 -344 0
v -240 -336 0
v -232 -336 0
v -392 -344 0
v -400 -344 0
v -400 -336 0
v -392 -336 0
v -88 -352 0
v -96 -352 0
v -96 -344 0
v -88 -344 0
v -232 -352 0
v -240 -352 0
v -240 -344 0
v -232 -344 0
v -392 -352 0
v -400 -352 0
v -400 -344 0
v -392 -344 0
v -88 -360 0
v -96 -360 0
v -96 -352 0
v -88 -352 0
v -232 -360 0
v -240 -360 0
v -240 -352 0
v -232 -352 0
v -392 -360 0
v -400 -360 0
v -400 -352 0
v -392 -352 0
v -88 -368 0
v -96 -368 0
v -96 -360 0
v -88 -360 0
v -232 -368 0
v -240 -368 0
v -240 -360 0
v -232 -360 0
v -392 -368 0
v -400 -368 0
v -400 -360 0
v -392 -360 0
v -88 -376 0
v -96 -376 0
v -96 -368 0
v -88 -368 0
v -232 -376 0
v -240 -376 0
v -240 -368 0
v -232 -368 0
v -392 -376 0
v -400 -376 0
v -400 -368 0
v -392 -368 0
v -88 -384 0
v -96 -384 0
v -96 -376 0
v -88 -376 0
v -232 -384 0
v -240 -384 0
v -240 -376 0
v -232 -376 0
v -392 -384 0
v -400 -384 0
v -400 -376 0
v -392 -376 0
v -88 -392 0
v -96 -392 0
v -96 -384 0
v -88 -384 0
v -232 -392 0
v -240 -392 0
v -240 -384 0
v -232 -384 0
v -392 -392 0
v -400 -392 0
v -400 -384 0
v -392 -384 0
v -88 -400 0
v -96 -400 0
v -96 -392 0
v -88 -392 0
v -232 -400 0
v -240 -400 0
v -240 -392 0
v -232 -392 0
v -392 -400 0
v -400 -400 0
v -400 -392 0
v -392 -392 0
v -88 -408 0
v -96 -408 0
v -96 -400 0
v -88 -400 0
v -232 -408 0
v -240 -408 0
v -240 -400 0
v -232 -400 0
v -392 -408 0
v -400 -408 0
v -400 -400 0
v -392 -400 0
v -88 -416 0
v -96 -416 0
v -96 -408 0
v -88 -408 0
v -232 -416 0
v -240 -416 0
v -240 -408 0
v -232 -408 0
v -392 -416 0
v -400 -416 0
v -400 -408 0
v -392 -408 0
v -88 -424 0
v -96 -424 0
v -96 -416 0
v -88 -416 0
v -232 -424 0
v -240 -424 0
v -240 -416 0
v -232 -416 0
v -392 -424 0
v -400 -424 0
v -400 -416 0
v -392 -416 0
v -88 -432 0
v -96 -432 0
v -96 -424 0
v -88 -424 0
v -232 -432 0
v -240 -432 0
v -240 -424 0
v -232 -424 0
v -392 -432 0
v -400 -432 0
v -400 -424 0
v -392 -424 0
v -88 -440 0
v -96 -440 0
v -96 -432 0
v -88 -432 0
v -232 -440 0
v -240 -440 0
v -240 -432 0
v -232 -432 0
v -392 -440 0
v -400 -440 0
v -400 -432 0
v -392 -432 0
v -88 -448 0
v -96 -448 0
v -96 -440 0
v -88 -440 0
v -232 -448 0
v -240 -448 0
v -240 -440 0
v -232 -440 0
v -392 -448 0
v -400 -448 0
v -400 -440 0
v -392 -440 0
v -88 -456 0
v -96 -456 0
v -96 -448 0
v -88 -448 0
v -232 -456 0
v -240 -456 0
v -240 -448 0
v -232 -448 0
v -392 -456 0
v -400 -456 0
v -400 -448 0
v -392 -448 0
v -88 -464 0
v -96 -464 0
v -96 -456 0
v -88 -456 0
v -232 -464 0
v -240 -464 0
v -240 -456 0
v -232 -456 0
v -392 -464 0
v -400 -464 0
v -400 -456 0
v -392 -456 0
v -88 -472 0
v -96 -472 0
v -96 -464 0
v -88 -464 0
v -232 -472 0
v -240 -472 0
v -240 -464 0
v -232 -464 0
v -392 -472 0
v -400 -472 0
v -400 -464 0
v -392 -464 0
v -88 -480 0
v -96 -480 0
v -96 -472 0
v -88 -472 0
v -232 -480 0
v -240 -480 0
v -240 -472 0
v -232 -472 0
v -392 -480 0
v -400 -480 0
v -400 -472 0
v -392 -472 0
v -88 -488 0
v -96 -488 0
v -96 -480 0
v -88 -480 0
v -232 -488 0
v -240 -488 0
v -240 -480 0
v -232 -480 0
v -392 -488 0
v -400 -488 0
v -400 -480 0
v -392 -480 0

# Texture cooridinates (Count = 16)
vt 0 0.6666666
vt 0.3333333 0.6666666
vt 0.3333333 1
vt 0 1
vt 0.3333333 0.3333333
vt 0.6666667 0.3333333
vt 0.6666667 0.6666666
vt 1 0.6666666
vt 1 1
vt 0.6666667 1
vt 0 0
vt 0.3333333 0
vt 0 0.3333333
vt 0.6666667 0
vt 1 0
vt 1 0.3333333

# Normal
vn 0 0 -1

# Mesh description
g 1_3_Module43_mesh_0002

# Faces
f 1/1/1 2/2/1 3/3/1 4/4/1
f 5/5/1 6/6/1 7/7/1 8/2/1
f 9/7/1 10/8/1 11/9/1 12/10/1
f 13/5/1 14/6/1 15/7/1 16/2/1
f 17/5/1 18/6/1 19/7/1 20/2/1
f 21/5/1 22/6/1 23/7/1 24/2/1
f 25/5/1 26/6/1 27/7/1 28/2/1
f 29/5/1 30/6/1 31/7/1 32/2/1
f 33/5/1 34/6/1 35/7/1 36/2/1
f 37/5/1 38/6/1 39/7/1 40/2/1
f 41/5/1 42/6/1 43/7/1 44/2/1
f 45/5/1 46/6/1 47/7/1 48/2/1
f 49/5/1 50/6/1 51/7/1 52/2/1
f 53/5/1 54/6/1 55/7/1 56/2/1
f 57/5/1 58/6/1 59/7/1 60/2/1
f 61/1/1 62/2/1 63/3/1 64/4/1
f 65/5/1 66/6/1 67/7/1 68/2/1
f 69/7/1 70/8/1 71/9/1 72/10/1
f 73/5/1 74/6/1 75/7/1 76/2/1
f 77/5/1 78/6/1 79/7/1 80/2/1
f 81/5/1 82/6/1 83/7/1 84/2/1
f 85/1/1 86/2/1 87/3/1 88/4/1
f 89/5/1 90/6/1 91/7/1 92/2/1
f 93/7/1 94/8/1 95/9/1 96/10/1
f 97/5/1 98/6/1 99/7/1 100/2/1
f 101/5/1 102/6/1 103/7/1 104/2/1
f 105/5/1 106/6/1 107/7/1 108/2/1
f 109/5/1 110/6/1 111/7/1 112/2/1
f 113/5/1 114/6/1 115/7/1 116/2/1
f 117/5/1 118/6/1 119/7/1 120/2/1
f 121/5/1 122/6/1 123/7/1 124/2/1
f 125/5/1 126/6/1 127/7/1 128/2/1
f 129/5/1 130/6/1 131/7/1 132/2/1
f 133/5/1 134/6/1 135/7/1 136/2/1
f 137/5/1 138/6/1 139/7/1 140/2/1
f 141/5/1 142/6/1 143/7/1 144/2/1
f 145/11/1 146/12/1 147/5/1 148/13/1
f 149/5/1 150/6/1 151/7/1 152/2/1
f 153/14/1 154/15/1 155/16/1 156/6/1
f 157/5/1 158/6/1 159/7/1 160/2/1
f 161/5/1 162/6/1 163/7/1 164/2/1
f 165/5/1 166/6/1 167/7/1 168/2/1
f 169/5/1 170/6/1 171/7/1 172/2/1
f 173/5/1 174/6/1 175/7/1 176/2/1
f 177/5/1 178/6/1 179/7/1 180/2/1
f 181/5/1 182/6/1 183/7/1 184/2/1
f 185/5/1 186/6/1 187/7/1 188/2/1
f 189/5/1 190/6/1 191/7/1 192/2/1
f 193/5/1 194/6/1 195/7/1 196/2/1
f 197/5/1 198/6/1 199/7/1 200/2/1
f 201/5/1 202/6/1 203/7/1 204/2/1
f 205/5/1 206/6/1 207/7/1 208/2/1
f 209/5/1 210/6/1 211/7/1 212/2/1
f 213/5/1 214/6/1 215/7/1 216/2/1
f 217/5/1 218/6/1 219/7/1 220/2/1
f 221/5/1 222/6/1 223/7/1 224/2/1
f 225/5/1 226/6/1 227/7/1 228/2/1
f 229/5/1 230/6/1 231/7/1 232/2/1
f 233/5/1 234/6/1 235/7/1 236/2/1
f 237/5/1 238/6/1 239/7/1 240/2/1
f 241/5/1 242/6/1 243/7/1 244/2/1
f 245/5/1 246/6/1 247/7/1 248/2/1
f 249/5/1 250/6/1 251/7/1 252/2/1
f 253/5/1 254/6/1 255/7/1 256/2/1
f 257/5/1 258/6/1 259/7/1 260/2/1
f 261/5/1 262/6/1 263/7/1 264/2/1
f 265/5/1 266/6/1 267/7/1 268/2/1
f 269/5/1 270/6/1 271/7/1 272/2/1
f 273/5/1 274/6/1 275/7/1 276/2/1
f 277/5/1 278/6/1 279/7/1 280/2/1
f 281/11/1 282/12/1 283/5/1 284/13/1
f 285/5/1 286/6/1 287/7/1 288/2/1
f 289/14/1 290/15/1 291/16/1 292/6/1
f 293/5/1 294/6/1 295/7/1 296/2/1
f 297/11/1 298/12/1 299/5/1 300/13/1
f 301/5/1 302/6/1 303/7/1 304/2/1
f 305/14/1 306/15/1 307/16/1 308/6/1
f 309/5/1 310/6/1 311/7/1 312/2/1
f 313/5/1 314/6/1 315/7/1 316/2/1
f 317/5/1 318/6/1 319/7/1 320/2/1
f 321/5/1 322/6/1 323/7/1 324/2/1
f 325/5/1 326/6/1 327/7/1 328/2/1
f 329/5/1 330/6/1 331/7/1 332/2/1
f 333/5/1 334/6/1 335/7/1 336/2/1
f 337/5/1 338/6/1 339/7/1 340/2/1
f 341/5/1 342/6/1 343/7/1 344/2/1
f 345/5/1 346/6/1 347/7/1 348/2/1
f 349/5/1 350/6/1 351/7/1 352/2/1
f 353/5/1 354/6/1 355/7/1 356/2/1
f 357/5/1 358/6/1 359/7/1 360/2/1
f 361/5/1 362/6/1 363/7/1 364/2/1
f 365/5/1 366/6/1 367/7/1 368/2/1
f 369/5/1 370/6/1 371/7/1 372/2/1
f 373/5/1 374/6/1 375/7/1 376/2/1
f 377/5/1 378/6/1 379/7/1 380/2/1
f 381/5/1 382/6/1 383/7/1 384/2/1
f 385/5/1 386/6/1 387/7/1 388/2/1
f 389/5/1 390/6/1 391/7/1 392/2/1
f 393/5/1 394/6/1 395/7/1 396/2/1
f 397/5/1 398/6/1 399/7/1 400/2/1
f 401/5/1 402/6/1 403/7/1 404/2/1
f 405/5/1 406/6/1 407/7/1 408/2/1
f 409/5/1 410/6/1 411/7/1 412/2/1
f 413/5/1 414/6/1 415/7/1 416/2/1
f 417/5/1 418/6/1 419/7/1 420/2/1
f 421/5/1 422/6/1 423/7/1 424/2/1
f 425/5/1 426/6/1 427/7/1 428/2/1
f 429/5/1 430/6/1 431/7/1 432/2/1
f 433/5/1 434/6/1 435/7/1 436/2/1
f 437/5/1 438/6/1 439/7/1 440/2/1
f 441/5/1 442/6/1 443/7/1 444/2/1
f 445/5/1 446/6/1 447/7/1 448/2/1
f 449/5/1 450/6/1 451/7/1 452/2/1
f 453/5/1 454/6/1 455/7/1 456/2/1
f 457/5/1 458/6/1 459/7/1 460/2/1
f 461/5/1 462/6/1 463/7/1 464/2/1
f 465/5/1 466/6/1 467/7/1 468/2/1
f 469/5/1 470/6/1 471/7/1 472/2/1
f 473/5/1 474/6/1 475/7/1 476/2/1
f 477/5/1 478/6/1 479/7/1 480/2/1
f 481/5/1 482/6/1 483/7/1 484/2/1
f 485/5/1 486/6/1 487/7/1 488/2/1
f 489/5/1 490/6/1 491/7/1 492/2/1
f 493/5/1 494/6/1 495/7/1 496/2/1
f 497/5/1 498/6/1 499/7/1 500/2/1
f 501/5/1 502/6/1 503/7/1 504/2/1
f 505/5/1 506/6/1 507/7/1 508/2/1
f 509/5/1 510/6/1 511/7/1 512/2/1
f 513/5/1 514/6/1 515/7/1 516/2/1
f 517/5/1 518/6/1 519/7/1 520/2/1
f 521/5/1 522/6/1 523/7/1 524/2/1
f 525/5/1 526/6/1 527/7/1 528/2/1
f 529/5/1 530/6/1 531/7/1 532/2/1
f 533/5/1 534/6/1 535/7/1 536/2/1
f 537/5/1 538/6/1 539/7/1 540/2/1
f 541/5/1 542/6/1 543/7/1 544/2/1
f 545/5/1 546/6/1 547/7/1 548/2/1
f 549/5/1 550/6/1 551/7/1 552/2/1
f 553/5/1 554/6/1 555/7/1 556/2/1
f 557/5/1 558/6/1 559/7/1 560/2/1
f 561/5/1 562/6/1 563/7/1 564/2/1
f 565/5/1 566/6/1 567/7/1 568/2/1
f 569/5/1 570/6/1 571/7/1 572/2/1
f 573/5/1 574/6/1 575/7/1 576/2/1
f 577/5/1 578/6/1 579/7/1 580/2/1
f 581/5/1 582/6/1 583/7/1 584/2/1

