# Tiled2Unity generated file. Do not modify by hand.
# Wavefront file for '1_3_33_mesh_0002.obj'

# Vertices (Count = 576)
v 0 -8 0
v -8 -8 0
v -8 0 0
v 0 0 0
v -8 -8 0
v -16 -8 0
v -16 0 0
v -8 0 0
v -16 -8 0
v -24 -8 0
v -24 0 0
v -16 0 0
v -24 -8 0
v -32 -8 0
v -32 0 0
v -24 0 0
v -32 -8 0
v -40 -8 0
v -40 0 0
v -32 0 0
v -40 -8 0
v -48 -8 0
v -48 0 0
v -40 0 0
v -48 -8 0
v -56 -8 0
v -56 0 0
v -48 0 0
v -56 -8 0
v -64 -8 0
v -64 0 0
v -56 0 0
v -64 -8 0
v -72 -8 0
v -72 0 0
v -64 0 0
v -72 -8 0
v -80 -8 0
v -80 0 0
v -72 0 0
v -80 -8 0
v -88 -8 0
v -88 0 0
v -80 0 0
v -88 -8 0
v -96 -8 0
v -96 0 0
v -88 0 0
v -96 -8 0
v -104 -8 0
v -104 0 0
v -96 0 0
v -104 -8 0
v -112 -8 0
v -112 0 0
v -104 0 0
v -112 -8 0
v -120 -8 0
v -120 0 0
v -112 0 0
v -120 -8 0
v -128 -8 0
v -128 0 0
v -120 0 0
v -128 -8 0
v -136 -8 0
v -136 0 0
v -128 0 0
v -136 -8 0
v -144 -8 0
v -144 0 0
v -136 0 0
v -144 -8 0
v -152 -8 0
v -152 0 0
v -144 0 0
v -152 -8 0
v -160 -8 0
v -160 0 0
v -152 0 0
v -160 -8 0
v -168 -8 0
v -168 0 0
v -160 0 0
v -168 -8 0
v -176 -8 0
v -176 0 0
v -168 0 0
v -176 -8 0
v -184 -8 0
v -184 0 0
v -176 0 0
v -184 -8 0
v -192 -8 0
v -192 0 0
v -184 0 0
v -192 -8 0
v -200 -8 0
v -200 0 0
v -192 0 0
v -200 -8 0
v -208 -8 0
v -208 0 0
v -200 0 0
v -208 -8 0
v -216 -8 0
v -216 0 0
v -208 0 0
v -216 -8 0
v -224 -8 0
v -224 0 0
v -216 0 0
v -224 -8 0
v -232 -8 0
v -232 0 0
v -224 0 0
v -232 -8 0
v -240 -8 0
v -240 0 0
v -232 0 0
v -240 -8 0
v -248 -8 0
v -248 0 0
v -240 0 0
v -248 -8 0
v -256 -8 0
v -256 0 0
v -248 0 0
v -256 -8 0
v -264 -8 0
v -264 0 0
v -256 0 0
v -264 -8 0
v -272 -8 0
v -272 0 0
v -264 0 0
v -272 -8 0
v -280 -8 0
v -280 0 0
v -272 0 0
v -280 -8 0
v -288 -8 0
v -288 0 0
v -280 0 0
v -288 -8 0
v -296 -8 0
v -296 0 0
v -288 0 0
v -296 -8 0
v -304 -8 0
v -304 0 0
v -296 0 0
v -304 -8 0
v -312 -8 0
v -312 0 0
v -304 0 0
v -312 -8 0
v -320 -8 0
v -320 0 0
v -312 0 0
v -320 -8 0
v -328 -8 0
v -328 0 0
v -320 0 0
v -328 -8 0
v -336 -8 0
v -336 0 0
v -328 0 0
v -336 -8 0
v -344 -8 0
v -344 0 0
v -336 0 0
v -344 -8 0
v -352 -8 0
v -352 0 0
v -344 0 0
v -352 -8 0
v -360 -8 0
v -360 0 0
v -352 0 0
v -360 -8 0
v -368 -8 0
v -368 0 0
v -360 0 0
v -368 -8 0
v -376 -8 0
v -376 0 0
v -368 0 0
v -376 -8 0
v -384 -8 0
v -384 0 0
v -376 0 0
v -384 -8 0
v -392 -8 0
v -392 0 0
v -384 0 0
v -392 -8 0
v -400 -8 0
v -400 0 0
v -392 0 0
v -400 -8 0
v -408 -8 0
v -408 0 0
v -400 0 0
v -408 -8 0
v -416 -8 0
v -416 0 0
v -408 0 0
v -416 -8 0
v -424 -8 0
v -424 0 0
v -416 0 0
v -424 -8 0
v -432 -8 0
v -432 0 0
v -424 0 0
v -432 -8 0
v -440 -8 0
v -440 0 0
v -432 0 0
v -440 -8 0
v -448 -8 0
v -448 0 0
v -440 0 0
v -448 -8 0
v -456 -8 0
v -456 0 0
v -448 0 0
v -456 -8 0
v -464 -8 0
v -464 0 0
v -456 0 0
v -464 -8 0
v -472 -8 0
v -472 0 0
v -464 0 0
v -472 -8 0
v -480 -8 0
v -480 0 0
v -472 0 0
v -480 -8 0
v -488 -8 0
v -488 0 0
v -480 0 0
v -232 -104 0
v -240 -104 0
v -240 -96 0
v -232 -96 0
v -240 -104 0
v -248 -104 0
v -248 -96 0
v -240 -96 0
v -248 -104 0
v -256 -104 0
v -256 -96 0
v -248 -96 0
v -256 -104 0
v -264 -104 0
v -264 -96 0
v -256 -96 0
v -264 -104 0
v -272 -104 0
v -272 -96 0
v -264 -96 0
v -272 -104 0
v -280 -104 0
v -280 -96 0
v -272 -96 0
v -280 -104 0
v -288 -104 0
v -288 -96 0
v -280 -96 0
v -288 -104 0
v -296 -104 0
v -296 -96 0
v -288 -96 0
v -440 -104 0
v -448 -104 0
v -448 -96 0
v -440 -96 0
v -448 -104 0
v -456 -104 0
v -456 -96 0
v -448 -96 0
v -456 -104 0
v -464 -104 0
v -464 -96 0
v -456 -96 0
v -232 -112 0
v -240 -112 0
v -240 -104 0
v -232 -104 0
v -240 -112 0
v -248 -112 0
v -248 -104 0
v -240 -104 0
v -248 -112 0
v -256 -112 0
v -256 -104 0
v -248 -104 0
v -256 -112 0
v -264 -112 0
v -264 -104 0
v -256 -104 0
v -264 -112 0
v -272 -112 0
v -272 -104 0
v -264 -104 0
v -272 -112 0
v -280 -112 0
v -280 -104 0
v -272 -104 0
v -280 -112 0
v -288 -112 0
v -288 -104 0
v -280 -104 0
v -288 -112 0
v -296 -112 0
v -296 -104 0
v -288 -104 0
v -440 -112 0
v -448 -112 0
v -448 -104 0
v -440 -104 0
v -448 -112 0
v -456 -112 0
v -456 -104 0
v -448 -104 0
v -456 -112 0
v -464 -112 0
v -464 -104 0
v -456 -104 0
v -232 -120 0
v -240 -120 0
v -240 -112 0
v -232 -112 0
v -240 -120 0
v -248 -120 0
v -248 -112 0
v -240 -112 0
v -248 -120 0
v -256 -120 0
v -256 -112 0
v -248 -112 0
v -256 -120 0
v -264 -120 0
v -264 -112 0
v -256 -112 0
v -264 -120 0
v -272 -120 0
v -272 -112 0
v -264 -112 0
v -272 -120 0
v -280 -120 0
v -280 -112 0
v -272 -112 0
v -280 -120 0
v -288 -120 0
v -288 -112 0
v -280 -112 0
v -288 -120 0
v -296 -120 0
v -296 -112 0
v -288 -112 0
v -440 -120 0
v -448 -120 0
v -448 -112 0
v -440 -112 0
v -448 -120 0
v -456 -120 0
v -456 -112 0
v -448 -112 0
v -456 -120 0
v -464 -120 0
v -464 -112 0
v -456 -112 0
v -232 -128 0
v -240 -128 0
v -240 -120 0
v -232 -120 0
v -240 -128 0
v -248 -128 0
v -248 -120 0
v -240 -120 0
v -248 -128 0
v -256 -128 0
v -256 -120 0
v -248 -120 0
v -256 -128 0
v -264 -128 0
v -264 -120 0
v -256 -120 0
v -264 -128 0
v -272 -128 0
v -272 -120 0
v -264 -120 0
v -272 -128 0
v -280 -128 0
v -280 -120 0
v -272 -120 0
v -280 -128 0
v -288 -128 0
v -288 -120 0
v -280 -120 0
v -288 -128 0
v -296 -128 0
v -296 -120 0
v -288 -120 0
v -232 -136 0
v -240 -136 0
v -240 -128 0
v -232 -128 0
v -240 -136 0
v -248 -136 0
v -248 -128 0
v -240 -128 0
v -248 -136 0
v -256 -136 0
v -256 -128 0
v -248 -128 0
v -256 -136 0
v -264 -136 0
v -264 -128 0
v -256 -128 0
v -264 -136 0
v -272 -136 0
v -272 -128 0
v -264 -128 0
v -272 -136 0
v -280 -136 0
v -280 -128 0
v -272 -128 0
v -280 -136 0
v -288 -136 0
v -288 -128 0
v -280 -128 0
v -288 -136 0
v -296 -136 0
v -296 -128 0
v -288 -128 0
v -232 -144 0
v -240 -144 0
v -240 -136 0
v -232 -136 0
v -240 -144 0
v -248 -144 0
v -248 -136 0
v -240 -136 0
v -248 -144 0
v -256 -144 0
v -256 -136 0
v -248 -136 0
v -256 -144 0
v -264 -144 0
v -264 -136 0
v -256 -136 0
v -264 -144 0
v -272 -144 0
v -272 -136 0
v -264 -136 0
v -272 -144 0
v -280 -144 0
v -280 -136 0
v -272 -136 0
v -280 -144 0
v -288 -144 0
v -288 -136 0
v -280 -136 0
v -288 -144 0
v -296 -144 0
v -296 -136 0
v -288 -136 0
v -240 -152 0
v -248 -152 0
v -248 -144 0
v -240 -144 0
v -248 -152 0
v -256 -152 0
v -256 -144 0
v -248 -144 0
v -256 -152 0
v -264 -152 0
v -264 -144 0
v -256 -144 0
v -264 -152 0
v -272 -152 0
v -272 -144 0
v -264 -144 0
v -272 -152 0
v -280 -152 0
v -280 -144 0
v -272 -144 0
v -280 -152 0
v -288 -152 0
v -288 -144 0
v -280 -144 0
v -240 -160 0
v -248 -160 0
v -248 -152 0
v -240 -152 0
v -248 -160 0
v -256 -160 0
v -256 -152 0
v -248 -152 0
v -256 -160 0
v -264 -160 0
v -264 -152 0
v -256 -152 0
v -264 -160 0
v -272 -160 0
v -272 -152 0
v -264 -152 0
v -272 -160 0
v -280 -160 0
v -280 -152 0
v -272 -152 0
v -280 -160 0
v -288 -160 0
v -288 -152 0
v -280 -152 0
v -240 -168 0
v -248 -168 0
v -248 -160 0
v -240 -160 0
v -248 -168 0
v -256 -168 0
v -256 -160 0
v -248 -160 0
v -256 -168 0
v -264 -168 0
v -264 -160 0
v -256 -160 0
v -264 -168 0
v -272 -168 0
v -272 -160 0
v -264 -160 0
v -272 -168 0
v -280 -168 0
v -280 -160 0
v -272 -160 0
v -280 -168 0
v -288 -168 0
v -288 -160 0
v -280 -160 0
v -248 -176 0
v -256 -176 0
v -256 -168 0
v -248 -168 0
v -256 -176 0
v -264 -176 0
v -264 -168 0
v -256 -168 0
v -264 -176 0
v -272 -176 0
v -272 -168 0
v -264 -168 0
v -272 -176 0
v -280 -176 0
v -280 -168 0
v -272 -168 0
v -248 -184 0
v -256 -184 0
v -256 -176 0
v -248 -176 0
v -256 -184 0
v -264 -184 0
v -264 -176 0
v -256 -176 0
v -264 -184 0
v -272 -184 0
v -272 -176 0
v -264 -176 0
v -272 -184 0
v -280 -184 0
v -280 -176 0
v -272 -176 0

# Texture cooridinates (Count = 42)
vt 0.125 0.625
vt 0.25 0.625
vt 0.25 0.75
vt 0.125 0.75
vt 0 0.875
vt 0.125 0.875
vt 0.125 1
vt 0 1
vt 0.25 0.875
vt 0.25 1
vt 0.375 0.875
vt 0.375 1
vt 0.5 0.875
vt 0.5 1
vt 0 0.75
vt 0.375 0.75
vt 0.5 0.75
vt 0 0.625
vt 0.375 0.625
vt 0.5 0.625
vt 0.625 0.625
vt 0.625 0.75
vt 0.75 0.625
vt 0.75 0.75
vt 0.5 0.5
vt 0.625 0.5
vt 0.75 0.5
vt 0.5 0.125
vt 0.625 0.125
vt 0.625 0.25
vt 0.5 0.25
vt 0.75 0.125
vt 0.75 0.25
vt 0.875 0.125
vt 0.875 0.25
vt 1 0.125
vt 1 0.25
vt 0.5 0
vt 0.625 0
vt 0.75 0
vt 0.875 0
vt 1 0

# Normal
vn 0 0 -1

# Mesh description
g 1_3_33_mesh_0002

# Faces
f 1/1/1 2/2/1 3/3/1 4/4/1
f 5/1/1 6/2/1 7/3/1 8/4/1
f 9/1/1 10/2/1 11/3/1 12/4/1
f 13/1/1 14/2/1 15/3/1 16/4/1
f 17/1/1 18/2/1 19/3/1 20/4/1
f 21/1/1 22/2/1 23/3/1 24/4/1
f 25/1/1 26/2/1 27/3/1 28/4/1
f 29/1/1 30/2/1 31/3/1 32/4/1
f 33/1/1 34/2/1 35/3/1 36/4/1
f 37/1/1 38/2/1 39/3/1 40/4/1
f 41/1/1 42/2/1 43/3/1 44/4/1
f 45/1/1 46/2/1 47/3/1 48/4/1
f 49/1/1 50/2/1 51/3/1 52/4/1
f 53/1/1 54/2/1 55/3/1 56/4/1
f 57/1/1 58/2/1 59/3/1 60/4/1
f 61/1/1 62/2/1 63/3/1 64/4/1
f 65/1/1 66/2/1 67/3/1 68/4/1
f 69/1/1 70/2/1 71/3/1 72/4/1
f 73/1/1 74/2/1 75/3/1 76/4/1
f 77/1/1 78/2/1 79/3/1 80/4/1
f 81/1/1 82/2/1 83/3/1 84/4/1
f 85/1/1 86/2/1 87/3/1 88/4/1
f 89/1/1 90/2/1 91/3/1 92/4/1
f 93/1/1 94/2/1 95/3/1 96/4/1
f 97/1/1 98/2/1 99/3/1 100/4/1
f 101/1/1 102/2/1 103/3/1 104/4/1
f 105/1/1 106/2/1 107/3/1 108/4/1
f 109/1/1 110/2/1 111/3/1 112/4/1
f 113/1/1 114/2/1 115/3/1 116/4/1
f 117/1/1 118/2/1 119/3/1 120/4/1
f 121/1/1 122/2/1 123/3/1 124/4/1
f 125/1/1 126/2/1 127/3/1 128/4/1
f 129/1/1 130/2/1 131/3/1 132/4/1
f 133/1/1 134/2/1 135/3/1 136/4/1
f 137/1/1 138/2/1 139/3/1 140/4/1
f 141/1/1 142/2/1 143/3/1 144/4/1
f 145/1/1 146/2/1 147/3/1 148/4/1
f 149/1/1 150/2/1 151/3/1 152/4/1
f 153/1/1 154/2/1 155/3/1 156/4/1
f 157/1/1 158/2/1 159/3/1 160/4/1
f 161/1/1 162/2/1 163/3/1 164/4/1
f 165/1/1 166/2/1 167/3/1 168/4/1
f 169/1/1 170/2/1 171/3/1 172/4/1
f 173/1/1 174/2/1 175/3/1 176/4/1
f 177/1/1 178/2/1 179/3/1 180/4/1
f 181/1/1 182/2/1 183/3/1 184/4/1
f 185/1/1 186/2/1 187/3/1 188/4/1
f 189/1/1 190/2/1 191/3/1 192/4/1
f 193/1/1 194/2/1 195/3/1 196/4/1
f 197/1/1 198/2/1 199/3/1 200/4/1
f 201/1/1 202/2/1 203/3/1 204/4/1
f 205/1/1 206/2/1 207/3/1 208/4/1
f 209/1/1 210/2/1 211/3/1 212/4/1
f 213/1/1 214/2/1 215/3/1 216/4/1
f 217/1/1 218/2/1 219/3/1 220/4/1
f 221/1/1 222/2/1 223/3/1 224/4/1
f 225/1/1 226/2/1 227/3/1 228/4/1
f 229/1/1 230/2/1 231/3/1 232/4/1
f 233/1/1 234/2/1 235/3/1 236/4/1
f 237/1/1 238/2/1 239/3/1 240/4/1
f 241/1/1 242/2/1 243/3/1 244/4/1
f 245/5/1 246/6/1 247/7/1 248/8/1
f 249/6/1 250/9/1 251/10/1 252/7/1
f 253/9/1 254/11/1 255/12/1 256/10/1
f 257/11/1 258/13/1 259/14/1 260/12/1
f 261/5/1 262/6/1 263/7/1 264/8/1
f 265/6/1 266/9/1 267/10/1 268/7/1
f 269/9/1 270/11/1 271/12/1 272/10/1
f 273/11/1 274/13/1 275/14/1 276/12/1
f 277/5/1 278/6/1 279/7/1 280/8/1
f 281/6/1 282/9/1 283/10/1 284/7/1
f 285/9/1 286/11/1 287/12/1 288/10/1
f 289/15/1 290/4/1 291/6/1 292/5/1
f 293/4/1 294/3/1 295/9/1 296/6/1
f 297/3/1 298/16/1 299/11/1 300/9/1
f 301/16/1 302/17/1 303/13/1 304/11/1
f 305/15/1 306/4/1 307/6/1 308/5/1
f 309/4/1 310/3/1 311/9/1 312/6/1
f 313/3/1 314/16/1 315/11/1 316/9/1
f 317/16/1 318/17/1 319/13/1 320/11/1
f 321/15/1 322/4/1 323/6/1 324/5/1
f 325/4/1 326/3/1 327/9/1 328/6/1
f 329/3/1 330/16/1 331/11/1 332/9/1
f 333/15/1 334/4/1 335/6/1 336/5/1
f 337/15/1 338/4/1 339/6/1 340/5/1
f 341/15/1 342/4/1 343/6/1 344/5/1
f 345/15/1 346/4/1 347/6/1 348/5/1
f 349/15/1 350/4/1 351/6/1 352/5/1
f 353/15/1 354/4/1 355/6/1 356/5/1
f 357/15/1 358/4/1 359/6/1 360/5/1
f 361/15/1 362/4/1 363/6/1 364/5/1
f 365/18/1 366/1/1 367/4/1 368/15/1
f 369/1/1 370/2/1 371/3/1 372/4/1
f 373/2/1 374/19/1 375/16/1 376/3/1
f 377/15/1 378/4/1 379/6/1 380/5/1
f 381/15/1 382/4/1 383/6/1 384/5/1
f 385/15/1 386/4/1 387/6/1 388/5/1
f 389/15/1 390/4/1 391/6/1 392/5/1
f 393/15/1 394/4/1 395/6/1 396/5/1
f 397/15/1 398/4/1 399/6/1 400/5/1
f 401/15/1 402/4/1 403/6/1 404/5/1
f 405/15/1 406/4/1 407/6/1 408/5/1
f 409/20/1 410/21/1 411/22/1 412/17/1
f 413/15/1 414/4/1 415/6/1 416/5/1
f 417/15/1 418/4/1 419/6/1 420/5/1
f 421/15/1 422/4/1 423/6/1 424/5/1
f 425/15/1 426/4/1 427/6/1 428/5/1
f 429/15/1 430/4/1 431/6/1 432/5/1
f 433/15/1 434/4/1 435/6/1 436/5/1
f 437/21/1 438/23/1 439/24/1 440/22/1
f 441/25/1 442/26/1 443/21/1 444/20/1
f 445/20/1 446/21/1 447/22/1 448/17/1
f 449/15/1 450/4/1 451/6/1 452/5/1
f 453/15/1 454/4/1 455/6/1 456/5/1
f 457/15/1 458/4/1 459/6/1 460/5/1
f 461/15/1 462/4/1 463/6/1 464/5/1
f 465/21/1 466/23/1 467/24/1 468/22/1
f 469/26/1 470/27/1 471/23/1 472/21/1
f 473/15/1 474/4/1 475/6/1 476/5/1
f 477/15/1 478/4/1 479/6/1 480/5/1
f 481/15/1 482/4/1 483/6/1 484/5/1
f 485/15/1 486/4/1 487/6/1 488/5/1
f 489/15/1 490/4/1 491/6/1 492/5/1
f 493/15/1 494/4/1 495/6/1 496/5/1
f 497/20/1 498/21/1 499/22/1 500/17/1
f 501/15/1 502/4/1 503/6/1 504/5/1
f 505/15/1 506/4/1 507/6/1 508/5/1
f 509/15/1 510/4/1 511/6/1 512/5/1
f 513/15/1 514/4/1 515/6/1 516/5/1
f 517/21/1 518/23/1 519/24/1 520/22/1
f 521/25/1 522/26/1 523/21/1 524/20/1
f 525/15/1 526/4/1 527/6/1 528/5/1
f 529/15/1 530/4/1 531/6/1 532/5/1
f 533/15/1 534/4/1 535/6/1 536/5/1
f 537/15/1 538/4/1 539/6/1 540/5/1
f 541/26/1 542/27/1 543/23/1 544/21/1
f 545/28/1 546/29/1 547/30/1 548/31/1
f 549/29/1 550/32/1 551/33/1 552/30/1
f 553/32/1 554/34/1 555/35/1 556/33/1
f 557/34/1 558/36/1 559/37/1 560/35/1
f 561/38/1 562/39/1 563/29/1 564/28/1
f 565/39/1 566/40/1 567/32/1 568/29/1
f 569/40/1 570/41/1 571/34/1 572/32/1
f 573/41/1 574/42/1 575/36/1 576/34/1

