# Tiled2Unity generated file. Do not modify by hand.
# Wavefront file for '1_4_30_mesh_0001.obj'

# Vertices (Count = 416)
v -240 -328 0
v -248 -328 0
v -248 -320 0
v -240 -320 0
v -248 -328 0
v -256 -328 0
v -256 -320 0
v -248 -320 0
v -256 -328 0
v -264 -328 0
v -264 -320 0
v -256 -320 0
v -264 -328 0
v -272 -328 0
v -272 -320 0
v -264 -320 0
v -272 -328 0
v -280 -328 0
v -280 -320 0
v -272 -320 0
v -280 -328 0
v -288 -328 0
v -288 -320 0
v -280 -320 0
v -288 -328 0
v -296 -328 0
v -296 -320 0
v -288 -320 0
v -296 -328 0
v -304 -328 0
v -304 -320 0
v -296 -320 0
v -304 -328 0
v -312 -328 0
v -312 -320 0
v -304 -320 0
v -240 -336 0
v -248 -336 0
v -248 -328 0
v -240 -328 0
v -248 -336 0
v -256 -336 0
v -256 -328 0
v -248 -328 0
v -256 -336 0
v -264 -336 0
v -264 -328 0
v -256 -328 0
v -264 -336 0
v -272 -336 0
v -272 -328 0
v -264 -328 0
v -272 -336 0
v -280 -336 0
v -280 -328 0
v -272 -328 0
v -280 -336 0
v -288 -336 0
v -288 -328 0
v -280 -328 0
v -288 -336 0
v -296 -336 0
v -296 -328 0
v -288 -328 0
v -296 -336 0
v -304 -336 0
v -304 -328 0
v -296 -328 0
v -304 -336 0
v -312 -336 0
v -312 -328 0
v -304 -328 0
v -312 -336 0
v -320 -336 0
v -320 -328 0
v -312 -328 0
v -320 -336 0
v -328 -336 0
v -328 -328 0
v -320 -328 0
v -240 -344 0
v -248 -344 0
v -248 -336 0
v -240 -336 0
v -248 -344 0
v -256 -344 0
v -256 -336 0
v -248 -336 0
v -256 -344 0
v -264 -344 0
v -264 -336 0
v -256 -336 0
v -264 -344 0
v -272 -344 0
v -272 -336 0
v -264 -336 0
v -272 -344 0
v -280 -344 0
v -280 -336 0
v -272 -336 0
v -280 -344 0
v -288 -344 0
v -288 -336 0
v -280 -336 0
v -288 -344 0
v -296 -344 0
v -296 -336 0
v -288 -336 0
v -296 -344 0
v -304 -344 0
v -304 -336 0
v -296 -336 0
v -304 -344 0
v -312 -344 0
v -312 -336 0
v -304 -336 0
v -312 -344 0
v -320 -344 0
v -320 -336 0
v -312 -336 0
v -320 -344 0
v -328 -344 0
v -328 -336 0
v -320 -336 0
v -328 -344 0
v -336 -344 0
v -336 -336 0
v -328 -336 0
v -336 -344 0
v -344 -344 0
v -344 -336 0
v -336 -336 0
v -248 -352 0
v -256 -352 0
v -256 -344 0
v -248 -344 0
v -256 -352 0
v -264 -352 0
v -264 -344 0
v -256 -344 0
v -264 -352 0
v -272 -352 0
v -272 -344 0
v -264 -344 0
v -272 -352 0
v -280 -352 0
v -280 -344 0
v -272 -344 0
v -280 -352 0
v -288 -352 0
v -288 -344 0
v -280 -344 0
v -288 -352 0
v -296 -352 0
v -296 -344 0
v -288 -344 0
v -296 -352 0
v -304 -352 0
v -304 -344 0
v -296 -344 0
v -304 -352 0
v -312 -352 0
v -312 -344 0
v -304 -344 0
v -312 -352 0
v -320 -352 0
v -320 -344 0
v -312 -344 0
v -320 -352 0
v -328 -352 0
v -328 -344 0
v -320 -344 0
v -328 -352 0
v -336 -352 0
v -336 -344 0
v -328 -344 0
v -336 -352 0
v -344 -352 0
v -344 -344 0
v -336 -344 0
v -272 -360 0
v -280 -360 0
v -280 -352 0
v -272 -352 0
v -280 -360 0
v -288 -360 0
v -288 -352 0
v -280 -352 0
v -288 -360 0
v -296 -360 0
v -296 -352 0
v -288 -352 0
v -296 -360 0
v -304 -360 0
v -304 -352 0
v -296 -352 0
v -304 -360 0
v -312 -360 0
v -312 -352 0
v -304 -352 0
v -312 -360 0
v -320 -360 0
v -320 -352 0
v -312 -352 0
v -320 -360 0
v -328 -360 0
v -328 -352 0
v -320 -352 0
v -328 -360 0
v -336 -360 0
v -336 -352 0
v -328 -352 0
v -336 -360 0
v -344 -360 0
v -344 -352 0
v -336 -352 0
v -312 -368 0
v -320 -368 0
v -320 -360 0
v -312 -360 0
v -320 -368 0
v -328 -368 0
v -328 -360 0
v -320 -360 0
v -328 -368 0
v -336 -368 0
v -336 -360 0
v -328 -360 0
v -336 -368 0
v -344 -368 0
v -344 -360 0
v -336 -360 0
v -184 -376 0
v -192 -376 0
v -192 -368 0
v -184 -368 0
v -192 -376 0
v -200 -376 0
v -200 -368 0
v -192 -368 0
v -200 -376 0
v -208 -376 0
v -208 -368 0
v -200 -368 0
v -208 -376 0
v -216 -376 0
v -216 -368 0
v -208 -368 0
v -184 -384 0
v -192 -384 0
v -192 -376 0
v -184 -376 0
v -192 -384 0
v -200 -384 0
v -200 -376 0
v -192 -376 0
v -200 -384 0
v -208 -384 0
v -208 -376 0
v -200 -376 0
v -208 -384 0
v -216 -384 0
v -216 -376 0
v -208 -376 0
v -184 -392 0
v -192 -392 0
v -192 -384 0
v -184 -384 0
v -192 -392 0
v -200 -392 0
v -200 -384 0
v -192 -384 0
v -200 -392 0
v -208 -392 0
v -208 -384 0
v -200 -384 0
v -208 -392 0
v -216 -392 0
v -216 -384 0
v -208 -384 0
v -184 -400 0
v -192 -400 0
v -192 -392 0
v -184 -392 0
v -192 -400 0
v -200 -400 0
v -200 -392 0
v -192 -392 0
v -200 -400 0
v -208 -400 0
v -208 -392 0
v -200 -392 0
v -208 -400 0
v -216 -400 0
v -216 -392 0
v -208 -392 0
v -72 -408 0
v -80 -408 0
v -80 -400 0
v -72 -400 0
v -80 -408 0
v -88 -408 0
v -88 -400 0
v -80 -400 0
v -88 -408 0
v -96 -408 0
v -96 -400 0
v -88 -400 0
v -96 -408 0
v -104 -408 0
v -104 -400 0
v -96 -400 0
v -104 -408 0
v -112 -408 0
v -112 -400 0
v -104 -400 0
v -112 -408 0
v -120 -408 0
v -120 -400 0
v -112 -400 0
v -120 -408 0
v -128 -408 0
v -128 -400 0
v -120 -400 0
v -128 -408 0
v -136 -408 0
v -136 -400 0
v -128 -400 0
v -136 -408 0
v -144 -408 0
v -144 -400 0
v -136 -400 0
v -184 -408 0
v -192 -408 0
v -192 -400 0
v -184 -400 0
v -192 -408 0
v -200 -408 0
v -200 -400 0
v -192 -400 0
v -200 -408 0
v -208 -408 0
v -208 -400 0
v -200 -400 0
v -208 -408 0
v -216 -408 0
v -216 -400 0
v -208 -400 0
v -72 -416 0
v -80 -416 0
v -80 -408 0
v -72 -408 0
v -80 -416 0
v -88 -416 0
v -88 -408 0
v -80 -408 0
v -88 -416 0
v -96 -416 0
v -96 -408 0
v -88 -408 0
v -96 -416 0
v -104 -416 0
v -104 -408 0
v -96 -408 0
v -104 -416 0
v -112 -416 0
v -112 -408 0
v -104 -408 0
v -112 -416 0
v -120 -416 0
v -120 -408 0
v -112 -408 0
v -120 -416 0
v -128 -416 0
v -128 -408 0
v -120 -408 0
v -128 -416 0
v -136 -416 0
v -136 -408 0
v -128 -408 0
v -136 -416 0
v -144 -416 0
v -144 -408 0
v -136 -408 0
v -184 -416 0
v -192 -416 0
v -192 -408 0
v -184 -408 0
v -192 -416 0
v -200 -416 0
v -200 -408 0
v -192 -408 0
v -200 -416 0
v -208 -416 0
v -208 -408 0
v -200 -408 0
v -208 -416 0
v -216 -416 0
v -216 -408 0
v -208 -408 0
v -184 -424 0
v -192 -424 0
v -192 -416 0
v -184 -416 0
v -192 -424 0
v -200 -424 0
v -200 -416 0
v -192 -416 0
v -200 -424 0
v -208 -424 0
v -208 -416 0
v -200 -416 0
v -208 -424 0
v -216 -424 0
v -216 -416 0
v -208 -416 0

# Texture cooridinates (Count = 33)
vt 0 0.875
vt 0.125 0.875
vt 0.125 1
vt 0 1
vt 0.25 0.875
vt 0.25 1
vt 0.375 0.875
vt 0.375 1
vt 0.5 0.875
vt 0.5 1
vt 0.5 0.375
vt 0.625 0.375
vt 0.625 0.5
vt 0.5 0.5
vt 0.75 0.375
vt 0.75 0.5
vt 0 0.75
vt 0.125 0.75
vt 0.25 0.75
vt 0.375 0.75
vt 0.5 0.25
vt 0.625 0.25
vt 0.75 0.25
vt 0.125 0.625
vt 0.25 0.625
vt 0.5 0.625
vt 0.625 0.625
vt 0.625 0.75
vt 0.5 0.75
vt 0 0.625
vt 0.375 0.625
vt 0.75 0.625
vt 0.75 0.75

# Normal
vn 0 0 -1

# Mesh description
g 1_4_30_mesh_0001

# Faces
f 1/1/1 2/2/1 3/3/1 4/4/1
f 5/1/1 6/2/1 7/3/1 8/4/1
f 9/1/1 10/2/1 11/3/1 12/4/1
f 13/1/1 14/2/1 15/3/1 16/4/1
f 17/2/1 18/5/1 19/6/1 20/3/1
f 21/5/1 22/7/1 23/8/1 24/6/1
f 25/7/1 26/9/1 27/10/1 28/8/1
f 29/11/1 30/12/1 31/13/1 32/14/1
f 33/12/1 34/15/1 35/16/1 36/13/1
f 37/17/1 38/18/1 39/2/1 40/1/1
f 41/17/1 42/18/1 43/2/1 44/1/1
f 45/17/1 46/18/1 47/2/1 48/1/1
f 49/17/1 50/18/1 51/2/1 52/1/1
f 53/17/1 54/18/1 55/2/1 56/1/1
f 57/18/1 58/19/1 59/5/1 60/2/1
f 61/19/1 62/20/1 63/7/1 64/5/1
f 65/21/1 66/22/1 67/12/1 68/11/1
f 69/22/1 70/23/1 71/15/1 72/12/1
f 73/11/1 74/12/1 75/13/1 76/14/1
f 77/12/1 78/15/1 79/16/1 80/13/1
f 81/24/1 82/25/1 83/19/1 84/18/1
f 85/19/1 86/20/1 87/7/1 88/5/1
f 89/19/1 90/20/1 91/7/1 92/5/1
f 93/17/1 94/18/1 95/2/1 96/1/1
f 97/17/1 98/18/1 99/2/1 100/1/1
f 101/17/1 102/18/1 103/2/1 104/1/1
f 105/17/1 106/18/1 107/2/1 108/1/1
f 109/18/1 110/19/1 111/5/1 112/2/1
f 113/19/1 114/20/1 115/7/1 116/5/1
f 117/21/1 118/22/1 119/12/1 120/11/1
f 121/22/1 122/23/1 123/15/1 124/12/1
f 125/11/1 126/12/1 127/13/1 128/14/1
f 129/12/1 130/15/1 131/16/1 132/13/1
f 133/24/1 134/25/1 135/19/1 136/18/1
f 137/24/1 138/25/1 139/19/1 140/18/1
f 141/24/1 142/25/1 143/19/1 144/18/1
f 145/26/1 146/27/1 147/28/1 148/29/1
f 149/17/1 150/18/1 151/2/1 152/1/1
f 153/17/1 154/18/1 155/2/1 156/1/1
f 157/18/1 158/19/1 159/5/1 160/2/1
f 161/19/1 162/20/1 163/7/1 164/5/1
f 165/20/1 166/29/1 167/9/1 168/7/1
f 169/19/1 170/20/1 171/7/1 172/5/1
f 173/21/1 174/22/1 175/12/1 176/11/1
f 177/22/1 178/23/1 179/15/1 180/12/1
f 181/14/1 182/13/1 183/27/1 184/26/1
f 185/30/1 186/24/1 187/18/1 188/17/1
f 189/24/1 190/25/1 191/19/1 192/18/1
f 193/25/1 194/31/1 195/20/1 196/19/1
f 197/31/1 198/26/1 199/29/1 200/20/1
f 201/26/1 202/27/1 203/28/1 204/29/1
f 205/19/1 206/20/1 207/7/1 208/5/1
f 209/19/1 210/20/1 211/7/1 212/5/1
f 213/27/1 214/32/1 215/33/1 216/28/1
f 217/14/1 218/13/1 219/27/1 220/26/1
f 221/24/1 222/25/1 223/19/1 224/18/1
f 225/25/1 226/31/1 227/20/1 228/19/1
f 229/13/1 230/16/1 231/32/1 232/27/1
f 233/1/1 234/2/1 235/3/1 236/4/1
f 237/2/1 238/5/1 239/6/1 240/3/1
f 241/5/1 242/7/1 243/8/1 244/6/1
f 245/7/1 246/9/1 247/10/1 248/8/1
f 249/17/1 250/18/1 251/2/1 252/1/1
f 253/18/1 254/19/1 255/5/1 256/2/1
f 257/19/1 258/20/1 259/7/1 260/5/1
f 261/20/1 262/29/1 263/9/1 264/7/1
f 265/17/1 266/18/1 267/2/1 268/1/1
f 269/18/1 270/19/1 271/5/1 272/2/1
f 273/19/1 274/20/1 275/7/1 276/5/1
f 277/20/1 278/29/1 279/9/1 280/7/1
f 281/17/1 282/18/1 283/2/1 284/1/1
f 285/18/1 286/19/1 287/5/1 288/2/1
f 289/19/1 290/20/1 291/7/1 292/5/1
f 293/20/1 294/29/1 295/9/1 296/7/1
f 297/1/1 298/2/1 299/3/1 300/4/1
f 301/2/1 302/5/1 303/6/1 304/3/1
f 305/5/1 306/7/1 307/8/1 308/6/1
f 309/1/1 310/2/1 311/3/1 312/4/1
f 313/2/1 314/5/1 315/6/1 316/3/1
f 317/1/1 318/2/1 319/3/1 320/4/1
f 321/2/1 322/5/1 323/6/1 324/3/1
f 325/5/1 326/7/1 327/8/1 328/6/1
f 329/7/1 330/9/1 331/10/1 332/8/1
f 333/17/1 334/18/1 335/2/1 336/1/1
f 337/18/1 338/19/1 339/5/1 340/2/1
f 341/19/1 342/20/1 343/7/1 344/5/1
f 345/20/1 346/29/1 347/9/1 348/7/1
f 349/30/1 350/24/1 351/18/1 352/17/1
f 353/24/1 354/25/1 355/19/1 356/18/1
f 357/30/1 358/24/1 359/18/1 360/17/1
f 361/24/1 362/25/1 363/19/1 364/18/1
f 365/30/1 366/24/1 367/18/1 368/17/1
f 369/30/1 370/24/1 371/18/1 372/17/1
f 373/24/1 374/25/1 375/19/1 376/18/1
f 377/25/1 378/31/1 379/20/1 380/19/1
f 381/31/1 382/26/1 383/29/1 384/20/1
f 385/17/1 386/18/1 387/2/1 388/1/1
f 389/18/1 390/19/1 391/5/1 392/2/1
f 393/19/1 394/20/1 395/7/1 396/5/1
f 397/20/1 398/29/1 399/9/1 400/7/1
f 401/17/1 402/18/1 403/2/1 404/1/1
f 405/18/1 406/19/1 407/5/1 408/2/1
f 409/19/1 410/20/1 411/7/1 412/5/1
f 413/20/1 414/29/1 415/9/1 416/7/1

