# Tiled2Unity generated file. Do not modify by hand.
# Wavefront file for '1_1_Module49_mesh_0002.obj'

# Vertices (Count = 64)
v -344 -136 0
v -352 -136 0
v -352 -128 0
v -344 -128 0
v -352 -136 0
v -360 -136 0
v -360 -128 0
v -352 -128 0
v -360 -136 0
v -368 -136 0
v -368 -128 0
v -360 -128 0
v -160 -152 0
v -168 -152 0
v -168 -144 0
v -160 -144 0
v -232 -152 0
v -240 -152 0
v -240 -144 0
v -232 -144 0
v -88 -160 0
v -96 -160 0
v -96 -152 0
v -88 -152 0
v -96 -160 0
v -104 -160 0
v -104 -152 0
v -96 -152 0
v -104 -160 0
v -112 -160 0
v -112 -152 0
v -104 -152 0
v -112 -160 0
v -120 -160 0
v -120 -152 0
v -112 -152 0
v -280 -160 0
v -288 -160 0
v -288 -152 0
v -280 -152 0
v -288 -160 0
v -296 -160 0
v -296 -152 0
v -288 -152 0
v -128 -176 0
v -136 -176 0
v -136 -168 0
v -128 -168 0
v -136 -176 0
v -144 -176 0
v -144 -168 0
v -136 -168 0
v -192 -176 0
v -200 -176 0
v -200 -168 0
v -192 -168 0
v -200 -176 0
v -208 -176 0
v -208 -168 0
v -200 -168 0
v -256 -176 0
v -264 -176 0
v -264 -168 0
v -256 -168 0

# Texture cooridinates (Count = 4)
vt 0 0
vt 1 0
vt 1 1
vt 0 1

# Normal
vn 0 0 -1

# Mesh description
g 1_1_Module49_mesh_0002

# Faces
f 1/1/1 2/2/1 3/3/1 4/4/1
f 5/1/1 6/2/1 7/3/1 8/4/1
f 9/1/1 10/2/1 11/3/1 12/4/1
f 13/1/1 14/2/1 15/3/1 16/4/1
f 17/1/1 18/2/1 19/3/1 20/4/1
f 21/1/1 22/2/1 23/3/1 24/4/1
f 25/1/1 26/2/1 27/3/1 28/4/1
f 29/1/1 30/2/1 31/3/1 32/4/1
f 33/1/1 34/2/1 35/3/1 36/4/1
f 37/1/1 38/2/1 39/3/1 40/4/1
f 41/1/1 42/2/1 43/3/1 44/4/1
f 45/1/1 46/2/1 47/3/1 48/4/1
f 49/1/1 50/2/1 51/3/1 52/4/1
f 53/1/1 54/2/1 55/3/1 56/4/1
f 57/1/1 58/2/1 59/3/1 60/4/1
f 61/1/1 62/2/1 63/3/1 64/4/1

