# Tiled2Unity generated file. Do not modify by hand.
# Wavefront file for '1_1_Module36_mesh_0003.obj'

# Vertices (Count = 80)
v -168 -184 0
v -176 -184 0
v -176 -176 0
v -168 -176 0
v -176 -184 0
v -184 -184 0
v -184 -176 0
v -176 -176 0
v -184 -184 0
v -192 -184 0
v -192 -176 0
v -184 -176 0
v -192 -184 0
v -200 -184 0
v -200 -176 0
v -192 -176 0
v -200 -184 0
v -208 -184 0
v -208 -176 0
v -200 -176 0
v -272 -184 0
v -280 -184 0
v -280 -176 0
v -272 -176 0
v -280 -184 0
v -288 -184 0
v -288 -176 0
v -280 -176 0
v -288 -184 0
v -296 -184 0
v -296 -176 0
v -288 -176 0
v -296 -184 0
v -304 -184 0
v -304 -176 0
v -296 -176 0
v -304 -184 0
v -312 -184 0
v -312 -176 0
v -304 -176 0
v -64 -208 0
v -72 -208 0
v -72 -200 0
v -64 -200 0
v -72 -208 0
v -80 -208 0
v -80 -200 0
v -72 -200 0
v -80 -208 0
v -88 -208 0
v -88 -200 0
v -80 -200 0
v -88 -208 0
v -96 -208 0
v -96 -200 0
v -88 -200 0
v -96 -208 0
v -104 -208 0
v -104 -200 0
v -96 -200 0
v -376 -208 0
v -384 -208 0
v -384 -200 0
v -376 -200 0
v -384 -208 0
v -392 -208 0
v -392 -200 0
v -384 -200 0
v -392 -208 0
v -400 -208 0
v -400 -200 0
v -392 -200 0
v -400 -208 0
v -408 -208 0
v -408 -200 0
v -400 -200 0
v -408 -208 0
v -416 -208 0
v -416 -200 0
v -408 -200 0

# Texture cooridinates (Count = 4)
vt 0 0
vt 1 0
vt 1 1
vt 0 1

# Normal
vn 0 0 -1

# Mesh description
g 1_1_Module36_mesh_0003

# Faces
f 1/1/1 2/2/1 3/3/1 4/4/1
f 5/1/1 6/2/1 7/3/1 8/4/1
f 9/1/1 10/2/1 11/3/1 12/4/1
f 13/1/1 14/2/1 15/3/1 16/4/1
f 17/1/1 18/2/1 19/3/1 20/4/1
f 21/1/1 22/2/1 23/3/1 24/4/1
f 25/1/1 26/2/1 27/3/1 28/4/1
f 29/1/1 30/2/1 31/3/1 32/4/1
f 33/1/1 34/2/1 35/3/1 36/4/1
f 37/1/1 38/2/1 39/3/1 40/4/1
f 41/1/1 42/2/1 43/3/1 44/4/1
f 45/1/1 46/2/1 47/3/1 48/4/1
f 49/1/1 50/2/1 51/3/1 52/4/1
f 53/1/1 54/2/1 55/3/1 56/4/1
f 57/1/1 58/2/1 59/3/1 60/4/1
f 61/1/1 62/2/1 63/3/1 64/4/1
f 65/1/1 66/2/1 67/3/1 68/4/1
f 69/1/1 70/2/1 71/3/1 72/4/1
f 73/1/1 74/2/1 75/3/1 76/4/1
f 77/1/1 78/2/1 79/3/1 80/4/1

