# Tiled2Unity generated file. Do not modify by hand.
# Wavefront file for '1_1_Module19_mesh_0002.obj'

# Vertices (Count = 312)
v -88 -16 0
v -96 -16 0
v -96 -8 0
v -88 -8 0
v -96 -16 0
v -104 -16 0
v -104 -8 0
v -96 -8 0
v -248 -16 0
v -256 -16 0
v -256 -8 0
v -248 -8 0
v -408 -16 0
v -416 -16 0
v -416 -8 0
v -408 -8 0
v -416 -16 0
v -424 -16 0
v -424 -8 0
v -416 -8 0
v -88 -24 0
v -96 -24 0
v -96 -16 0
v -88 -16 0
v -96 -24 0
v -104 -24 0
v -104 -16 0
v -96 -16 0
v -248 -24 0
v -256 -24 0
v -256 -16 0
v -248 -16 0
v -408 -24 0
v -416 -24 0
v -416 -16 0
v -408 -16 0
v -416 -24 0
v -424 -24 0
v -424 -16 0
v -416 -16 0
v -64 -32 0
v -72 -32 0
v -72 -24 0
v -64 -24 0
v -72 -32 0
v -80 -32 0
v -80 -24 0
v -72 -24 0
v -80 -32 0
v -88 -32 0
v -88 -24 0
v -80 -24 0
v -88 -32 0
v -96 -32 0
v -96 -24 0
v -88 -24 0
v -96 -32 0
v -104 -32 0
v -104 -24 0
v -96 -24 0
v -104 -32 0
v -112 -32 0
v -112 -24 0
v -104 -24 0
v -112 -32 0
v -120 -32 0
v -120 -24 0
v -112 -24 0
v -120 -32 0
v -128 -32 0
v -128 -24 0
v -120 -24 0
v -248 -32 0
v -256 -32 0
v -256 -24 0
v -248 -24 0
v -384 -32 0
v -392 -32 0
v -392 -24 0
v -384 -24 0
v -392 -32 0
v -400 -32 0
v -400 -24 0
v -392 -24 0
v -400 -32 0
v -408 -32 0
v -408 -24 0
v -400 -24 0
v -408 -32 0
v -416 -32 0
v -416 -24 0
v -408 -24 0
v -416 -32 0
v -424 -32 0
v -424 -24 0
v -416 -24 0
v -424 -32 0
v -432 -32 0
v -432 -24 0
v -424 -24 0
v -432 -32 0
v -440 -32 0
v -440 -24 0
v -432 -24 0
v -440 -32 0
v -448 -32 0
v -448 -24 0
v -440 -24 0
v -64 -40 0
v -72 -40 0
v -72 -32 0
v -64 -32 0
v -88 -40 0
v -96 -40 0
v -96 -32 0
v -88 -32 0
v -96 -40 0
v -104 -40 0
v -104 -32 0
v -96 -32 0
v -120 -40 0
v -128 -40 0
v -128 -32 0
v -120 -32 0
v -248 -40 0
v -256 -40 0
v -256 -32 0
v -248 -32 0
v -384 -40 0
v -392 -40 0
v -392 -32 0
v -384 -32 0
v -408 -40 0
v -416 -40 0
v -416 -32 0
v -408 -32 0
v -416 -40 0
v -424 -40 0
v -424 -32 0
v -416 -32 0
v -440 -40 0
v -448 -40 0
v -448 -32 0
v -440 -32 0
v -64 -48 0
v -72 -48 0
v -72 -40 0
v -64 -40 0
v -88 -48 0
v -96 -48 0
v -96 -40 0
v -88 -40 0
v -96 -48 0
v -104 -48 0
v -104 -40 0
v -96 -40 0
v -120 -48 0
v -128 -48 0
v -128 -40 0
v -120 -40 0
v -248 -48 0
v -256 -48 0
v -256 -40 0
v -248 -40 0
v -384 -48 0
v -392 -48 0
v -392 -40 0
v -384 -40 0
v -408 -48 0
v -416 -48 0
v -416 -40 0
v -408 -40 0
v -416 -48 0
v -424 -48 0
v -424 -40 0
v -416 -40 0
v -440 -48 0
v -448 -48 0
v -448 -40 0
v -440 -40 0
v -88 -56 0
v -96 -56 0
v -96 -48 0
v -88 -48 0
v -96 -56 0
v -104 -56 0
v -104 -48 0
v -96 -48 0
v -248 -56 0
v -256 -56 0
v -256 -48 0
v -248 -48 0
v -408 -56 0
v -416 -56 0
v -416 -48 0
v -408 -48 0
v -416 -56 0
v -424 -56 0
v -424 -48 0
v -416 -48 0
v -88 -64 0
v -96 -64 0
v -96 -56 0
v -88 -56 0
v -96 -64 0
v -104 -64 0
v -104 -56 0
v -96 -56 0
v -224 -64 0
v -232 -64 0
v -232 -56 0
v -224 -56 0
v -248 -64 0
v -256 -64 0
v -256 -56 0
v -248 -56 0
v -272 -64 0
v -280 -64 0
v -280 -56 0
v -272 -56 0
v -408 -64 0
v -416 -64 0
v -416 -56 0
v -408 -56 0
v -416 -64 0
v -424 -64 0
v -424 -56 0
v -416 -56 0
v -88 -72 0
v -96 -72 0
v -96 -64 0
v -88 -64 0
v -96 -72 0
v -104 -72 0
v -104 -64 0
v -96 -64 0
v -224 -72 0
v -232 -72 0
v -232 -64 0
v -224 -64 0
v -248 -72 0
v -256 -72 0
v -256 -64 0
v -248 -64 0
v -272 -72 0
v -280 -72 0
v -280 -64 0
v -272 -64 0
v -408 -72 0
v -416 -72 0
v -416 -64 0
v -408 -64 0
v -416 -72 0
v -424 -72 0
v -424 -64 0
v -416 -64 0
v -88 -80 0
v -96 -80 0
v -96 -72 0
v -88 -72 0
v -96 -80 0
v -104 -80 0
v -104 -72 0
v -96 -72 0
v -224 -80 0
v -232 -80 0
v -232 -72 0
v -224 -72 0
v -232 -80 0
v -240 -80 0
v -240 -72 0
v -232 -72 0
v -240 -80 0
v -248 -80 0
v -248 -72 0
v -240 -72 0
v -248 -80 0
v -256 -80 0
v -256 -72 0
v -248 -72 0
v -256 -80 0
v -264 -80 0
v -264 -72 0
v -256 -72 0
v -264 -80 0
v -272 -80 0
v -272 -72 0
v -264 -72 0
v -272 -80 0
v -280 -80 0
v -280 -72 0
v -272 -72 0
v -408 -80 0
v -416 -80 0
v -416 -72 0
v -408 -72 0
v -416 -80 0
v -424 -80 0
v -424 -72 0
v -416 -72 0
v -224 -88 0
v -232 -88 0
v -232 -80 0
v -224 -80 0
v -248 -88 0
v -256 -88 0
v -256 -80 0
v -248 -80 0
v -272 -88 0
v -280 -88 0
v -280 -80 0
v -272 -80 0

# Texture cooridinates (Count = 16)
vt 0.3333333 0.6666666
vt 0.6666667 0.6666666
vt 0.6666667 1
vt 0.3333333 1
vt 0 0
vt 0.3333333 0
vt 0.3333333 0.3333333
vt 0 0.3333333
vt 0.6666667 0
vt 1 0
vt 1 0.3333333
vt 0.6666667 0.3333333
vt 0 0.6666666
vt 0 1
vt 1 0.6666666
vt 1 1

# Normal
vn 0 0 -1

# Mesh description
g 1_1_Module19_mesh_0002

# Faces
f 1/1/1 2/2/1 3/3/1 4/4/1
f 5/1/1 6/2/1 7/3/1 8/4/1
f 9/1/1 10/2/1 11/3/1 12/4/1
f 13/1/1 14/2/1 15/3/1 16/4/1
f 17/1/1 18/2/1 19/3/1 20/4/1
f 21/1/1 22/2/1 23/3/1 24/4/1
f 25/1/1 26/2/1 27/3/1 28/4/1
f 29/1/1 30/2/1 31/3/1 32/4/1
f 33/1/1 34/2/1 35/3/1 36/4/1
f 37/1/1 38/2/1 39/3/1 40/4/1
f 41/1/1 42/2/1 43/3/1 44/4/1
f 45/1/1 46/2/1 47/3/1 48/4/1
f 49/1/1 50/2/1 51/3/1 52/4/1
f 53/1/1 54/2/1 55/3/1 56/4/1
f 57/1/1 58/2/1 59/3/1 60/4/1
f 61/1/1 62/2/1 63/3/1 64/4/1
f 65/1/1 66/2/1 67/3/1 68/4/1
f 69/1/1 70/2/1 71/3/1 72/4/1
f 73/1/1 74/2/1 75/3/1 76/4/1
f 77/1/1 78/2/1 79/3/1 80/4/1
f 81/1/1 82/2/1 83/3/1 84/4/1
f 85/1/1 86/2/1 87/3/1 88/4/1
f 89/1/1 90/2/1 91/3/1 92/4/1
f 93/1/1 94/2/1 95/3/1 96/4/1
f 97/1/1 98/2/1 99/3/1 100/4/1
f 101/1/1 102/2/1 103/3/1 104/4/1
f 105/1/1 106/2/1 107/3/1 108/4/1
f 109/1/1 110/2/1 111/3/1 112/4/1
f 113/1/1 114/2/1 115/3/1 116/4/1
f 117/1/1 118/2/1 119/3/1 120/4/1
f 121/1/1 122/2/1 123/3/1 124/4/1
f 125/1/1 126/2/1 127/3/1 128/4/1
f 129/1/1 130/2/1 131/3/1 132/4/1
f 133/1/1 134/2/1 135/3/1 136/4/1
f 137/1/1 138/2/1 139/3/1 140/4/1
f 141/1/1 142/2/1 143/3/1 144/4/1
f 145/5/1 146/6/1 147/7/1 148/8/1
f 149/1/1 150/2/1 151/3/1 152/4/1
f 153/1/1 154/2/1 155/3/1 156/4/1
f 157/9/1 158/10/1 159/11/1 160/12/1
f 161/1/1 162/2/1 163/3/1 164/4/1
f 165/5/1 166/6/1 167/7/1 168/8/1
f 169/1/1 170/2/1 171/3/1 172/4/1
f 173/1/1 174/2/1 175/3/1 176/4/1
f 177/9/1 178/10/1 179/11/1 180/12/1
f 181/1/1 182/2/1 183/3/1 184/4/1
f 185/1/1 186/2/1 187/3/1 188/4/1
f 189/1/1 190/2/1 191/3/1 192/4/1
f 193/1/1 194/2/1 195/3/1 196/4/1
f 197/1/1 198/2/1 199/3/1 200/4/1
f 201/1/1 202/2/1 203/3/1 204/4/1
f 205/1/1 206/2/1 207/3/1 208/4/1
f 209/13/1 210/1/1 211/4/1 212/14/1
f 213/1/1 214/2/1 215/3/1 216/4/1
f 217/2/1 218/15/1 219/16/1 220/3/1
f 221/1/1 222/2/1 223/3/1 224/4/1
f 225/1/1 226/2/1 227/3/1 228/4/1
f 229/1/1 230/2/1 231/3/1 232/4/1
f 233/1/1 234/2/1 235/3/1 236/4/1
f 237/1/1 238/2/1 239/3/1 240/4/1
f 241/1/1 242/2/1 243/3/1 244/4/1
f 245/1/1 246/2/1 247/3/1 248/4/1
f 249/1/1 250/2/1 251/3/1 252/4/1
f 253/1/1 254/2/1 255/3/1 256/4/1
f 257/5/1 258/6/1 259/7/1 260/8/1
f 261/9/1 262/10/1 263/11/1 264/12/1
f 265/1/1 266/2/1 267/3/1 268/4/1
f 269/1/1 270/2/1 271/3/1 272/4/1
f 273/1/1 274/2/1 275/3/1 276/4/1
f 277/1/1 278/2/1 279/3/1 280/4/1
f 281/1/1 282/2/1 283/3/1 284/4/1
f 285/1/1 286/2/1 287/3/1 288/4/1
f 289/1/1 290/2/1 291/3/1 292/4/1
f 293/5/1 294/6/1 295/7/1 296/8/1
f 297/9/1 298/10/1 299/11/1 300/12/1
f 301/5/1 302/6/1 303/7/1 304/8/1
f 305/1/1 306/2/1 307/3/1 308/4/1
f 309/9/1 310/10/1 311/11/1 312/12/1

