# Tiled2Unity generated file. Do not modify by hand.
# Wavefront file for '1_4_Module51_mesh_0003.obj'

# Vertices (Count = 280)
v -392 -16 0
v -400 -16 0
v -400 -8 0
v -392 -8 0
v -392 -24 0
v -400 -24 0
v -400 -16 0
v -392 -16 0
v -392 -32 0
v -400 -32 0
v -400 -24 0
v -392 -24 0
v -80 -40 0
v -88 -40 0
v -88 -32 0
v -80 -32 0
v -392 -40 0
v -400 -40 0
v -400 -32 0
v -392 -32 0
v -80 -48 0
v -88 -48 0
v -88 -40 0
v -80 -40 0
v -392 -48 0
v -400 -48 0
v -400 -40 0
v -392 -40 0
v -168 -192 0
v -176 -192 0
v -176 -184 0
v -168 -184 0
v -176 -192 0
v -184 -192 0
v -184 -184 0
v -176 -184 0
v -184 -192 0
v -192 -192 0
v -192 -184 0
v -184 -184 0
v -192 -192 0
v -200 -192 0
v -200 -184 0
v -192 -184 0
v -200 -192 0
v -208 -192 0
v -208 -184 0
v -200 -184 0
v -272 -192 0
v -280 -192 0
v -280 -184 0
v -272 -184 0
v -280 -192 0
v -288 -192 0
v -288 -184 0
v -280 -184 0
v -288 -192 0
v -296 -192 0
v -296 -184 0
v -288 -184 0
v -296 -192 0
v -304 -192 0
v -304 -184 0
v -296 -184 0
v -304 -192 0
v -312 -192 0
v -312 -184 0
v -304 -184 0
v -168 -200 0
v -176 -200 0
v -176 -192 0
v -168 -192 0
v -176 -200 0
v -184 -200 0
v -184 -192 0
v -176 -192 0
v -184 -200 0
v -192 -200 0
v -192 -192 0
v -184 -192 0
v -192 -200 0
v -200 -200 0
v -200 -192 0
v -192 -192 0
v -200 -200 0
v -208 -200 0
v -208 -192 0
v -200 -192 0
v -272 -200 0
v -280 -200 0
v -280 -192 0
v -272 -192 0
v -280 -200 0
v -288 -200 0
v -288 -192 0
v -280 -192 0
v -288 -200 0
v -296 -200 0
v -296 -192 0
v -288 -192 0
v -296 -200 0
v -304 -200 0
v -304 -192 0
v -296 -192 0
v -304 -200 0
v -312 -200 0
v -312 -192 0
v -304 -192 0
v -168 -208 0
v -176 -208 0
v -176 -200 0
v -168 -200 0
v -176 -208 0
v -184 -208 0
v -184 -200 0
v -176 -200 0
v -184 -208 0
v -192 -208 0
v -192 -200 0
v -184 -200 0
v -192 -208 0
v -200 -208 0
v -200 -200 0
v -192 -200 0
v -200 -208 0
v -208 -208 0
v -208 -200 0
v -200 -200 0
v -272 -208 0
v -280 -208 0
v -280 -200 0
v -272 -200 0
v -280 -208 0
v -288 -208 0
v -288 -200 0
v -280 -200 0
v -288 -208 0
v -296 -208 0
v -296 -200 0
v -288 -200 0
v -296 -208 0
v -304 -208 0
v -304 -200 0
v -296 -200 0
v -304 -208 0
v -312 -208 0
v -312 -200 0
v -304 -200 0
v -64 -216 0
v -72 -216 0
v -72 -208 0
v -64 -208 0
v -72 -216 0
v -80 -216 0
v -80 -208 0
v -72 -208 0
v -80 -216 0
v -88 -216 0
v -88 -208 0
v -80 -208 0
v -88 -216 0
v -96 -216 0
v -96 -208 0
v -88 -208 0
v -96 -216 0
v -104 -216 0
v -104 -208 0
v -96 -208 0
v -384 -216 0
v -392 -216 0
v -392 -208 0
v -384 -208 0
v -392 -216 0
v -400 -216 0
v -400 -208 0
v -392 -208 0
v -400 -216 0
v -408 -216 0
v -408 -208 0
v -400 -208 0
v -408 -216 0
v -416 -216 0
v -416 -208 0
v -408 -208 0
v -64 -224 0
v -72 -224 0
v -72 -216 0
v -64 -216 0
v -72 -224 0
v -80 -224 0
v -80 -216 0
v -72 -216 0
v -88 -224 0
v -96 -224 0
v -96 -216 0
v -88 -216 0
v -96 -224 0
v -104 -224 0
v -104 -216 0
v -96 -216 0
v -384 -224 0
v -392 -224 0
v -392 -216 0
v -384 -216 0
v -392 -224 0
v -400 -224 0
v -400 -216 0
v -392 -216 0
v -400 -224 0
v -408 -224 0
v -408 -216 0
v -400 -216 0
v -408 -224 0
v -416 -224 0
v -416 -216 0
v -408 -216 0
v -64 -232 0
v -72 -232 0
v -72 -224 0
v -64 -224 0
v -72 -232 0
v -80 -232 0
v -80 -224 0
v -72 -224 0
v -88 -232 0
v -96 -232 0
v -96 -224 0
v -88 -224 0
v -96 -232 0
v -104 -232 0
v -104 -224 0
v -96 -224 0
v -384 -232 0
v -392 -232 0
v -392 -224 0
v -384 -224 0
v -392 -232 0
v -400 -232 0
v -400 -224 0
v -392 -224 0
v -408 -232 0
v -416 -232 0
v -416 -224 0
v -408 -224 0
v -64 -240 0
v -72 -240 0
v -72 -232 0
v -64 -232 0
v -72 -240 0
v -80 -240 0
v -80 -232 0
v -72 -232 0
v -80 -240 0
v -88 -240 0
v -88 -232 0
v -80 -232 0
v -88 -240 0
v -96 -240 0
v -96 -232 0
v -88 -232 0
v -96 -240 0
v -104 -240 0
v -104 -232 0
v -96 -232 0
v -384 -240 0
v -392 -240 0
v -392 -232 0
v -384 -232 0
v -392 -240 0
v -400 -240 0
v -400 -232 0
v -392 -232 0
v -400 -240 0
v -408 -240 0
v -408 -232 0
v -400 -232 0
v -408 -240 0
v -416 -240 0
v -416 -232 0
v -408 -232 0

# Texture cooridinates (Count = 8)
vt 0.3333333 0.6666666
vt 0.6666667 0.6666666
vt 0.6666667 1
vt 0.3333333 1
vt 0 0
vt 0.3333333 0
vt 0.3333333 0.3333333
vt 0 0.3333333

# Normal
vn 0 0 -1

# Mesh description
g 1_4_Module51_mesh_0003

# Faces
f 1/1/1 2/2/1 3/3/1 4/4/1
f 5/1/1 6/2/1 7/3/1 8/4/1
f 9/1/1 10/2/1 11/3/1 12/4/1
f 13/1/1 14/2/1 15/3/1 16/4/1
f 17/1/1 18/2/1 19/3/1 20/4/1
f 21/5/1 22/6/1 23/7/1 24/8/1
f 25/5/1 26/6/1 27/7/1 28/8/1
f 29/1/1 30/2/1 31/3/1 32/4/1
f 33/1/1 34/2/1 35/3/1 36/4/1
f 37/1/1 38/2/1 39/3/1 40/4/1
f 41/1/1 42/2/1 43/3/1 44/4/1
f 45/1/1 46/2/1 47/3/1 48/4/1
f 49/1/1 50/2/1 51/3/1 52/4/1
f 53/1/1 54/2/1 55/3/1 56/4/1
f 57/1/1 58/2/1 59/3/1 60/4/1
f 61/1/1 62/2/1 63/3/1 64/4/1
f 65/1/1 66/2/1 67/3/1 68/4/1
f 69/1/1 70/2/1 71/3/1 72/4/1
f 73/1/1 74/2/1 75/3/1 76/4/1
f 77/1/1 78/2/1 79/3/1 80/4/1
f 81/1/1 82/2/1 83/3/1 84/4/1
f 85/1/1 86/2/1 87/3/1 88/4/1
f 89/1/1 90/2/1 91/3/1 92/4/1
f 93/1/1 94/2/1 95/3/1 96/4/1
f 97/1/1 98/2/1 99/3/1 100/4/1
f 101/1/1 102/2/1 103/3/1 104/4/1
f 105/1/1 106/2/1 107/3/1 108/4/1
f 109/1/1 110/2/1 111/3/1 112/4/1
f 113/1/1 114/2/1 115/3/1 116/4/1
f 117/1/1 118/2/1 119/3/1 120/4/1
f 121/1/1 122/2/1 123/3/1 124/4/1
f 125/1/1 126/2/1 127/3/1 128/4/1
f 129/1/1 130/2/1 131/3/1 132/4/1
f 133/1/1 134/2/1 135/3/1 136/4/1
f 137/1/1 138/2/1 139/3/1 140/4/1
f 141/1/1 142/2/1 143/3/1 144/4/1
f 145/1/1 146/2/1 147/3/1 148/4/1
f 149/1/1 150/2/1 151/3/1 152/4/1
f 153/1/1 154/2/1 155/3/1 156/4/1
f 157/1/1 158/2/1 159/3/1 160/4/1
f 161/1/1 162/2/1 163/3/1 164/4/1
f 165/1/1 166/2/1 167/3/1 168/4/1
f 169/1/1 170/2/1 171/3/1 172/4/1
f 173/1/1 174/2/1 175/3/1 176/4/1
f 177/1/1 178/2/1 179/3/1 180/4/1
f 181/1/1 182/2/1 183/3/1 184/4/1
f 185/1/1 186/2/1 187/3/1 188/4/1
f 189/1/1 190/2/1 191/3/1 192/4/1
f 193/1/1 194/2/1 195/3/1 196/4/1
f 197/1/1 198/2/1 199/3/1 200/4/1
f 201/1/1 202/2/1 203/3/1 204/4/1
f 205/1/1 206/2/1 207/3/1 208/4/1
f 209/1/1 210/2/1 211/3/1 212/4/1
f 213/1/1 214/2/1 215/3/1 216/4/1
f 217/1/1 218/2/1 219/3/1 220/4/1
f 221/1/1 222/2/1 223/3/1 224/4/1
f 225/1/1 226/2/1 227/3/1 228/4/1
f 229/1/1 230/2/1 231/3/1 232/4/1
f 233/1/1 234/2/1 235/3/1 236/4/1
f 237/1/1 238/2/1 239/3/1 240/4/1
f 241/1/1 242/2/1 243/3/1 244/4/1
f 245/1/1 246/2/1 247/3/1 248/4/1
f 249/1/1 250/2/1 251/3/1 252/4/1
f 253/1/1 254/2/1 255/3/1 256/4/1
f 257/1/1 258/2/1 259/3/1 260/4/1
f 261/1/1 262/2/1 263/3/1 264/4/1
f 265/1/1 266/2/1 267/3/1 268/4/1
f 269/1/1 270/2/1 271/3/1 272/4/1
f 273/1/1 274/2/1 275/3/1 276/4/1
f 277/1/1 278/2/1 279/3/1 280/4/1

