# Tiled2Unity generated file. Do not modify by hand.
# Wavefront file for '1_1_19_mesh_0001.obj'

# Vertices (Count = 168)
v -296 -120 0
v -304 -120 0
v -304 -112 0
v -296 -112 0
v -304 -120 0
v -312 -120 0
v -312 -112 0
v -304 -112 0
v -312 -120 0
v -320 -120 0
v -320 -112 0
v -312 -112 0
v -320 -120 0
v -328 -120 0
v -328 -112 0
v -320 -112 0
v -328 -120 0
v -336 -120 0
v -336 -112 0
v -328 -112 0
v -336 -120 0
v -344 -120 0
v -344 -112 0
v -336 -112 0
v -344 -120 0
v -352 -120 0
v -352 -112 0
v -344 -112 0
v -296 -128 0
v -304 -128 0
v -304 -120 0
v -296 -120 0
v -304 -128 0
v -312 -128 0
v -312 -120 0
v -304 -120 0
v -312 -128 0
v -320 -128 0
v -320 -120 0
v -312 -120 0
v -320 -128 0
v -328 -128 0
v -328 -120 0
v -320 -120 0
v -328 -128 0
v -336 -128 0
v -336 -120 0
v -328 -120 0
v -336 -128 0
v -344 -128 0
v -344 -120 0
v -336 -120 0
v -344 -128 0
v -352 -128 0
v -352 -120 0
v -344 -120 0
v -136 -136 0
v -144 -136 0
v -144 -128 0
v -136 -128 0
v -144 -136 0
v -152 -136 0
v -152 -128 0
v -144 -128 0
v -152 -136 0
v -160 -136 0
v -160 -128 0
v -152 -128 0
v -160 -136 0
v -168 -136 0
v -168 -128 0
v -160 -128 0
v -168 -136 0
v -176 -136 0
v -176 -128 0
v -168 -128 0
v -176 -136 0
v -184 -136 0
v -184 -128 0
v -176 -128 0
v -184 -136 0
v -192 -136 0
v -192 -128 0
v -184 -128 0
v -296 -136 0
v -304 -136 0
v -304 -128 0
v -296 -128 0
v -304 -136 0
v -312 -136 0
v -312 -128 0
v -304 -128 0
v -312 -136 0
v -320 -136 0
v -320 -128 0
v -312 -128 0
v -320 -136 0
v -328 -136 0
v -328 -128 0
v -320 -128 0
v -328 -136 0
v -336 -136 0
v -336 -128 0
v -328 -128 0
v -336 -136 0
v -344 -136 0
v -344 -128 0
v -336 -128 0
v -344 -136 0
v -352 -136 0
v -352 -128 0
v -344 -128 0
v -136 -144 0
v -144 -144 0
v -144 -136 0
v -136 -136 0
v -144 -144 0
v -152 -144 0
v -152 -136 0
v -144 -136 0
v -152 -144 0
v -160 -144 0
v -160 -136 0
v -152 -136 0
v -160 -144 0
v -168 -144 0
v -168 -136 0
v -160 -136 0
v -168 -144 0
v -176 -144 0
v -176 -136 0
v -168 -136 0
v -176 -144 0
v -184 -144 0
v -184 -136 0
v -176 -136 0
v -184 -144 0
v -192 -144 0
v -192 -136 0
v -184 -136 0
v -136 -152 0
v -144 -152 0
v -144 -144 0
v -136 -144 0
v -144 -152 0
v -152 -152 0
v -152 -144 0
v -144 -144 0
v -152 -152 0
v -160 -152 0
v -160 -144 0
v -152 -144 0
v -160 -152 0
v -168 -152 0
v -168 -144 0
v -160 -144 0
v -168 -152 0
v -176 -152 0
v -176 -144 0
v -168 -144 0
v -176 -152 0
v -184 -152 0
v -184 -144 0
v -176 -144 0
v -184 -152 0
v -192 -152 0
v -192 -144 0
v -184 -144 0

# Texture cooridinates (Count = 28)
vt 0 0.875
vt 0.125 0.875
vt 0.125 1
vt 0 1
vt 0.25 0.875
vt 0.25 1
vt 0.375 0.875
vt 0.375 1
vt 0.5 0.875
vt 0.5 1
vt 0.5 0.625
vt 0.625 0.625
vt 0.625 0.75
vt 0.5 0.75
vt 0.125 0.75
vt 0.25 0.75
vt 0.875 0.625
vt 1 0.625
vt 1 0.75
vt 0.875 0.75
vt 0.5 0.5
vt 0.625 0.5
vt 0.125 0.625
vt 0.25 0.625
vt 0.375 0.625
vt 0.375 0.75
vt 0.875 0.5
vt 1 0.5

# Normal
vn 0 0 -1

# Mesh description
g 1_1_19_mesh_0001

# Faces
f 1/1/1 2/2/1 3/3/1 4/4/1
f 5/2/1 6/5/1 7/6/1 8/3/1
f 9/5/1 10/7/1 11/8/1 12/6/1
f 13/1/1 14/2/1 15/3/1 16/4/1
f 17/2/1 18/5/1 19/6/1 20/3/1
f 21/5/1 22/7/1 23/8/1 24/6/1
f 25/7/1 26/9/1 27/10/1 28/8/1
f 29/11/1 30/12/1 31/13/1 32/14/1
f 33/15/1 34/16/1 35/5/1 36/2/1
f 37/15/1 38/16/1 39/5/1 40/2/1
f 41/15/1 42/16/1 43/5/1 44/2/1
f 45/15/1 46/16/1 47/5/1 48/2/1
f 49/15/1 50/16/1 51/5/1 52/2/1
f 53/17/1 54/18/1 55/19/1 56/20/1
f 57/1/1 58/2/1 59/3/1 60/4/1
f 61/2/1 62/5/1 63/6/1 64/3/1
f 65/5/1 66/7/1 67/8/1 68/6/1
f 69/1/1 70/2/1 71/3/1 72/4/1
f 73/2/1 74/5/1 75/6/1 76/3/1
f 77/5/1 78/7/1 79/8/1 80/6/1
f 81/7/1 82/9/1 83/10/1 84/8/1
f 85/21/1 86/22/1 87/12/1 88/11/1
f 89/23/1 90/24/1 91/16/1 92/15/1
f 93/24/1 94/25/1 95/26/1 96/16/1
f 97/23/1 98/24/1 99/16/1 100/15/1
f 101/23/1 102/24/1 103/16/1 104/15/1
f 105/24/1 106/25/1 107/26/1 108/16/1
f 109/27/1 110/28/1 111/18/1 112/17/1
f 113/11/1 114/12/1 115/13/1 116/14/1
f 117/15/1 118/16/1 119/5/1 120/2/1
f 121/15/1 122/16/1 123/5/1 124/2/1
f 125/15/1 126/16/1 127/5/1 128/2/1
f 129/15/1 130/16/1 131/5/1 132/2/1
f 133/15/1 134/16/1 135/5/1 136/2/1
f 137/17/1 138/18/1 139/19/1 140/20/1
f 141/21/1 142/22/1 143/12/1 144/11/1
f 145/23/1 146/24/1 147/16/1 148/15/1
f 149/24/1 150/25/1 151/26/1 152/16/1
f 153/23/1 154/24/1 155/16/1 156/15/1
f 157/23/1 158/24/1 159/16/1 160/15/1
f 161/24/1 162/25/1 163/26/1 164/16/1
f 165/27/1 166/28/1 167/18/1 168/17/1

