# Tiled2Unity generated file. Do not modify by hand.
# Wavefront file for '1_3_Module40_mesh_0001.obj'

# Vertices (Count = 480)
v -136 -24 0
v -144 -24 0
v -144 -16 0
v -136 -16 0
v -144 -24 0
v -152 -24 0
v -152 -16 0
v -144 -16 0
v -184 -24 0
v -192 -24 0
v -192 -16 0
v -184 -16 0
v -192 -24 0
v -200 -24 0
v -200 -16 0
v -192 -16 0
v -232 -24 0
v -240 -24 0
v -240 -16 0
v -232 -16 0
v -240 -24 0
v -248 -24 0
v -248 -16 0
v -240 -16 0
v -280 -24 0
v -288 -24 0
v -288 -16 0
v -280 -16 0
v -288 -24 0
v -296 -24 0
v -296 -16 0
v -288 -16 0
v -328 -24 0
v -336 -24 0
v -336 -16 0
v -328 -16 0
v -336 -24 0
v -344 -24 0
v -344 -16 0
v -336 -16 0
v -136 -32 0
v -144 -32 0
v -144 -24 0
v -136 -24 0
v -144 -32 0
v -152 -32 0
v -152 -24 0
v -144 -24 0
v -184 -32 0
v -192 -32 0
v -192 -24 0
v -184 -24 0
v -192 -32 0
v -200 -32 0
v -200 -24 0
v -192 -24 0
v -232 -32 0
v -240 -32 0
v -240 -24 0
v -232 -24 0
v -240 -32 0
v -248 -32 0
v -248 -24 0
v -240 -24 0
v -280 -32 0
v -288 -32 0
v -288 -24 0
v -280 -24 0
v -288 -32 0
v -296 -32 0
v -296 -24 0
v -288 -24 0
v -328 -32 0
v -336 -32 0
v -336 -24 0
v -328 -24 0
v -336 -32 0
v -344 -32 0
v -344 -24 0
v -336 -24 0
v -112 -72 0
v -120 -72 0
v -120 -64 0
v -112 -64 0
v -120 -72 0
v -128 -72 0
v -128 -64 0
v -120 -64 0
v -160 -72 0
v -168 -72 0
v -168 -64 0
v -160 -64 0
v -168 -72 0
v -176 -72 0
v -176 -64 0
v -168 -64 0
v -208 -72 0
v -216 -72 0
v -216 -64 0
v -208 -64 0
v -216 -72 0
v -224 -72 0
v -224 -64 0
v -216 -64 0
v -256 -72 0
v -264 -72 0
v -264 -64 0
v -256 -64 0
v -264 -72 0
v -272 -72 0
v -272 -64 0
v -264 -64 0
v -304 -72 0
v -312 -72 0
v -312 -64 0
v -304 -64 0
v -312 -72 0
v -320 -72 0
v -320 -64 0
v -312 -64 0
v -352 -72 0
v -360 -72 0
v -360 -64 0
v -352 -64 0
v -360 -72 0
v -368 -72 0
v -368 -64 0
v -360 -64 0
v -112 -80 0
v -120 -80 0
v -120 -72 0
v -112 -72 0
v -120 -80 0
v -128 -80 0
v -128 -72 0
v -120 -72 0
v -160 -80 0
v -168 -80 0
v -168 -72 0
v -160 -72 0
v -168 -80 0
v -176 -80 0
v -176 -72 0
v -168 -72 0
v -208 -80 0
v -216 -80 0
v -216 -72 0
v -208 -72 0
v -216 -80 0
v -224 -80 0
v -224 -72 0
v -216 -72 0
v -256 -80 0
v -264 -80 0
v -264 -72 0
v -256 -72 0
v -264 -80 0
v -272 -80 0
v -272 -72 0
v -264 -72 0
v -304 -80 0
v -312 -80 0
v -312 -72 0
v -304 -72 0
v -312 -80 0
v -320 -80 0
v -320 -72 0
v -312 -72 0
v -352 -80 0
v -360 -80 0
v -360 -72 0
v -352 -72 0
v -360 -80 0
v -368 -80 0
v -368 -72 0
v -360 -72 0
v -88 -128 0
v -96 -128 0
v -96 -120 0
v -88 -120 0
v -96 -128 0
v -104 -128 0
v -104 -120 0
v -96 -120 0
v -184 -128 0
v -192 -128 0
v -192 -120 0
v -184 -120 0
v -192 -128 0
v -200 -128 0
v -200 -120 0
v -192 -120 0
v -232 -128 0
v -240 -128 0
v -240 -120 0
v -232 -120 0
v -240 -128 0
v -248 -128 0
v -248 -120 0
v -240 -120 0
v -280 -128 0
v -288 -128 0
v -288 -120 0
v -280 -120 0
v -288 -128 0
v -296 -128 0
v -296 -120 0
v -288 -120 0
v -376 -128 0
v -384 -128 0
v -384 -120 0
v -376 -120 0
v -384 -128 0
v -392 -128 0
v -392 -120 0
v -384 -120 0
v -88 -136 0
v -96 -136 0
v -96 -128 0
v -88 -128 0
v -96 -136 0
v -104 -136 0
v -104 -128 0
v -96 -128 0
v -184 -136 0
v -192 -136 0
v -192 -128 0
v -184 -128 0
v -192 -136 0
v -200 -136 0
v -200 -128 0
v -192 -128 0
v -232 -136 0
v -240 -136 0
v -240 -128 0
v -232 -128 0
v -240 -136 0
v -248 -136 0
v -248 -128 0
v -240 -128 0
v -280 -136 0
v -288 -136 0
v -288 -128 0
v -280 -128 0
v -288 -136 0
v -296 -136 0
v -296 -128 0
v -288 -128 0
v -376 -136 0
v -384 -136 0
v -384 -128 0
v -376 -128 0
v -384 -136 0
v -392 -136 0
v -392 -128 0
v -384 -128 0
v -112 -184 0
v -120 -184 0
v -120 -176 0
v -112 -176 0
v -120 -184 0
v -128 -184 0
v -128 -176 0
v -120 -176 0
v -160 -184 0
v -168 -184 0
v -168 -176 0
v -160 -176 0
v -168 -184 0
v -176 -184 0
v -176 -176 0
v -168 -176 0
v -208 -184 0
v -216 -184 0
v -216 -176 0
v -208 -176 0
v -216 -184 0
v -224 -184 0
v -224 -176 0
v -216 -176 0
v -256 -184 0
v -264 -184 0
v -264 -176 0
v -256 -176 0
v -264 -184 0
v -272 -184 0
v -272 -176 0
v -264 -176 0
v -304 -184 0
v -312 -184 0
v -312 -176 0
v -304 -176 0
v -312 -184 0
v -320 -184 0
v -320 -176 0
v -312 -176 0
v -352 -184 0
v -360 -184 0
v -360 -176 0
v -352 -176 0
v -360 -184 0
v -368 -184 0
v -368 -176 0
v -360 -176 0
v -112 -192 0
v -120 -192 0
v -120 -184 0
v -112 -184 0
v -120 -192 0
v -128 -192 0
v -128 -184 0
v -120 -184 0
v -160 -192 0
v -168 -192 0
v -168 -184 0
v -160 -184 0
v -168 -192 0
v -176 -192 0
v -176 -184 0
v -168 -184 0
v -208 -192 0
v -216 -192 0
v -216 -184 0
v -208 -184 0
v -216 -192 0
v -224 -192 0
v -224 -184 0
v -216 -184 0
v -256 -192 0
v -264 -192 0
v -264 -184 0
v -256 -184 0
v -264 -192 0
v -272 -192 0
v -272 -184 0
v -264 -184 0
v -304 -192 0
v -312 -192 0
v -312 -184 0
v -304 -184 0
v -312 -192 0
v -320 -192 0
v -320 -184 0
v -312 -184 0
v -352 -192 0
v -360 -192 0
v -360 -184 0
v -352 -184 0
v -360 -192 0
v -368 -192 0
v -368 -184 0
v -360 -184 0
v -136 -224 0
v -144 -224 0
v -144 -216 0
v -136 -216 0
v -144 -224 0
v -152 -224 0
v -152 -216 0
v -144 -216 0
v -184 -224 0
v -192 -224 0
v -192 -216 0
v -184 -216 0
v -192 -224 0
v -200 -224 0
v -200 -216 0
v -192 -216 0
v -232 -224 0
v -240 -224 0
v -240 -216 0
v -232 -216 0
v -240 -224 0
v -248 -224 0
v -248 -216 0
v -240 -216 0
v -280 -224 0
v -288 -224 0
v -288 -216 0
v -280 -216 0
v -288 -224 0
v -296 -224 0
v -296 -216 0
v -288 -216 0
v -328 -224 0
v -336 -224 0
v -336 -216 0
v -328 -216 0
v -336 -224 0
v -344 -224 0
v -344 -216 0
v -336 -216 0
v -136 -232 0
v -144 -232 0
v -144 -224 0
v -136 -224 0
v -144 -232 0
v -152 -232 0
v -152 -224 0
v -144 -224 0
v -184 -232 0
v -192 -232 0
v -192 -224 0
v -184 -224 0
v -192 -232 0
v -200 -232 0
v -200 -224 0
v -192 -224 0
v -232 -232 0
v -240 -232 0
v -240 -224 0
v -232 -224 0
v -240 -232 0
v -248 -232 0
v -248 -224 0
v -240 -224 0
v -280 -232 0
v -288 -232 0
v -288 -224 0
v -280 -224 0
v -288 -232 0
v -296 -232 0
v -296 -224 0
v -288 -224 0
v -328 -232 0
v -336 -232 0
v -336 -224 0
v -328 -224 0
v -336 -232 0
v -344 -232 0
v -344 -224 0
v -336 -224 0
v -208 -256 0
v -216 -256 0
v -216 -248 0
v -208 -248 0
v -216 -256 0
v -224 -256 0
v -224 -248 0
v -216 -248 0
v -256 -256 0
v -264 -256 0
v -264 -248 0
v -256 -248 0
v -264 -256 0
v -272 -256 0
v -272 -248 0
v -264 -248 0
v -208 -264 0
v -216 -264 0
v -216 -256 0
v -208 -256 0
v -216 -264 0
v -224 -264 0
v -224 -256 0
v -216 -256 0
v -256 -264 0
v -264 -264 0
v -264 -256 0
v -256 -256 0
v -264 -264 0
v -272 -264 0
v -272 -256 0
v -264 -256 0
v -232 -296 0
v -240 -296 0
v -240 -288 0
v -232 -288 0
v -240 -296 0
v -248 -296 0
v -248 -288 0
v -240 -288 0
v -232 -304 0
v -240 -304 0
v -240 -296 0
v -232 -296 0
v -240 -304 0
v -248 -304 0
v -248 -296 0
v -240 -296 0

# Texture cooridinates (Count = 16)
vt 0 0.6666666
vt 0.3333333 0.6666666
vt 0.3333333 1
vt 0 1
vt 0.6666667 0.6666666
vt 1 0.6666666
vt 1 1
vt 0.6666667 1
vt 0 0
vt 0.3333333 0
vt 0.3333333 0.3333333
vt 0 0.3333333
vt 0.6666667 0
vt 1 0
vt 1 0.3333333
vt 0.6666667 0.3333333

# Normal
vn 0 0 -1

# Mesh description
g 1_3_Module40_mesh_0001

# Faces
f 1/1/1 2/2/1 3/3/1 4/4/1
f 5/5/1 6/6/1 7/7/1 8/8/1
f 9/1/1 10/2/1 11/3/1 12/4/1
f 13/5/1 14/6/1 15/7/1 16/8/1
f 17/1/1 18/2/1 19/3/1 20/4/1
f 21/5/1 22/6/1 23/7/1 24/8/1
f 25/1/1 26/2/1 27/3/1 28/4/1
f 29/5/1 30/6/1 31/7/1 32/8/1
f 33/1/1 34/2/1 35/3/1 36/4/1
f 37/5/1 38/6/1 39/7/1 40/8/1
f 41/9/1 42/10/1 43/11/1 44/12/1
f 45/13/1 46/14/1 47/15/1 48/16/1
f 49/9/1 50/10/1 51/11/1 52/12/1
f 53/13/1 54/14/1 55/15/1 56/16/1
f 57/9/1 58/10/1 59/11/1 60/12/1
f 61/13/1 62/14/1 63/15/1 64/16/1
f 65/9/1 66/10/1 67/11/1 68/12/1
f 69/13/1 70/14/1 71/15/1 72/16/1
f 73/9/1 74/10/1 75/11/1 76/12/1
f 77/13/1 78/14/1 79/15/1 80/16/1
f 81/1/1 82/2/1 83/3/1 84/4/1
f 85/5/1 86/6/1 87/7/1 88/8/1
f 89/1/1 90/2/1 91/3/1 92/4/1
f 93/5/1 94/6/1 95/7/1 96/8/1
f 97/1/1 98/2/1 99/3/1 100/4/1
f 101/5/1 102/6/1 103/7/1 104/8/1
f 105/1/1 106/2/1 107/3/1 108/4/1
f 109/5/1 110/6/1 111/7/1 112/8/1
f 113/1/1 114/2/1 115/3/1 116/4/1
f 117/5/1 118/6/1 119/7/1 120/8/1
f 121/1/1 122/2/1 123/3/1 124/4/1
f 125/5/1 126/6/1 127/7/1 128/8/1
f 129/9/1 130/10/1 131/11/1 132/12/1
f 133/13/1 134/14/1 135/15/1 136/16/1
f 137/9/1 138/10/1 139/11/1 140/12/1
f 141/13/1 142/14/1 143/15/1 144/16/1
f 145/9/1 146/10/1 147/11/1 148/12/1
f 149/13/1 150/14/1 151/15/1 152/16/1
f 153/9/1 154/10/1 155/11/1 156/12/1
f 157/13/1 158/14/1 159/15/1 160/16/1
f 161/9/1 162/10/1 163/11/1 164/12/1
f 165/13/1 166/14/1 167/15/1 168/16/1
f 169/9/1 170/10/1 171/11/1 172/12/1
f 173/13/1 174/14/1 175/15/1 176/16/1
f 177/1/1 178/2/1 179/3/1 180/4/1
f 181/5/1 182/6/1 183/7/1 184/8/1
f 185/1/1 186/2/1 187/3/1 188/4/1
f 189/5/1 190/6/1 191/7/1 192/8/1
f 193/1/1 194/2/1 195/3/1 196/4/1
f 197/5/1 198/6/1 199/7/1 200/8/1
f 201/1/1 202/2/1 203/3/1 204/4/1
f 205/5/1 206/6/1 207/7/1 208/8/1
f 209/1/1 210/2/1 211/3/1 212/4/1
f 213/5/1 214/6/1 215/7/1 216/8/1
f 217/9/1 218/10/1 219/11/1 220/12/1
f 221/13/1 222/14/1 223/15/1 224/16/1
f 225/9/1 226/10/1 227/11/1 228/12/1
f 229/13/1 230/14/1 231/15/1 232/16/1
f 233/9/1 234/10/1 235/11/1 236/12/1
f 237/13/1 238/14/1 239/15/1 240/16/1
f 241/9/1 242/10/1 243/11/1 244/12/1
f 245/13/1 246/14/1 247/15/1 248/16/1
f 249/9/1 250/10/1 251/11/1 252/12/1
f 253/13/1 254/14/1 255/15/1 256/16/1
f 257/1/1 258/2/1 259/3/1 260/4/1
f 261/5/1 262/6/1 263/7/1 264/8/1
f 265/1/1 266/2/1 267/3/1 268/4/1
f 269/5/1 270/6/1 271/7/1 272/8/1
f 273/1/1 274/2/1 275/3/1 276/4/1
f 277/5/1 278/6/1 279/7/1 280/8/1
f 281/1/1 282/2/1 283/3/1 284/4/1
f 285/5/1 286/6/1 287/7/1 288/8/1
f 289/1/1 290/2/1 291/3/1 292/4/1
f 293/5/1 294/6/1 295/7/1 296/8/1
f 297/1/1 298/2/1 299/3/1 300/4/1
f 301/5/1 302/6/1 303/7/1 304/8/1
f 305/9/1 306/10/1 307/11/1 308/12/1
f 309/13/1 310/14/1 311/15/1 312/16/1
f 313/9/1 314/10/1 315/11/1 316/12/1
f 317/13/1 318/14/1 319/15/1 320/16/1
f 321/9/1 322/10/1 323/11/1 324/12/1
f 325/13/1 326/14/1 327/15/1 328/16/1
f 329/9/1 330/10/1 331/11/1 332/12/1
f 333/13/1 334/14/1 335/15/1 336/16/1
f 337/9/1 338/10/1 339/11/1 340/12/1
f 341/13/1 342/14/1 343/15/1 344/16/1
f 345/9/1 346/10/1 347/11/1 348/12/1
f 349/13/1 350/14/1 351/15/1 352/16/1
f 353/1/1 354/2/1 355/3/1 356/4/1
f 357/5/1 358/6/1 359/7/1 360/8/1
f 361/1/1 362/2/1 363/3/1 364/4/1
f 365/5/1 366/6/1 367/7/1 368/8/1
f 369/1/1 370/2/1 371/3/1 372/4/1
f 373/5/1 374/6/1 375/7/1 376/8/1
f 377/1/1 378/2/1 379/3/1 380/4/1
f 381/5/1 382/6/1 383/7/1 384/8/1
f 385/1/1 386/2/1 387/3/1 388/4/1
f 389/5/1 390/6/1 391/7/1 392/8/1
f 393/9/1 394/10/1 395/11/1 396/12/1
f 397/13/1 398/14/1 399/15/1 400/16/1
f 401/9/1 402/10/1 403/11/1 404/12/1
f 405/13/1 406/14/1 407/15/1 408/16/1
f 409/9/1 410/10/1 411/11/1 412/12/1
f 413/13/1 414/14/1 415/15/1 416/16/1
f 417/9/1 418/10/1 419/11/1 420/12/1
f 421/13/1 422/14/1 423/15/1 424/16/1
f 425/9/1 426/10/1 427/11/1 428/12/1
f 429/13/1 430/14/1 431/15/1 432/16/1
f 433/1/1 434/2/1 435/3/1 436/4/1
f 437/5/1 438/6/1 439/7/1 440/8/1
f 441/1/1 442/2/1 443/3/1 444/4/1
f 445/5/1 446/6/1 447/7/1 448/8/1
f 449/9/1 450/10/1 451/11/1 452/12/1
f 453/13/1 454/14/1 455/15/1 456/16/1
f 457/9/1 458/10/1 459/11/1 460/12/1
f 461/13/1 462/14/1 463/15/1 464/16/1
f 465/1/1 466/2/1 467/3/1 468/4/1
f 469/5/1 470/6/1 471/7/1 472/8/1
f 473/9/1 474/10/1 475/11/1 476/12/1
f 477/13/1 478/14/1 479/15/1 480/16/1

