# Tiled2Unity generated file. Do not modify by hand.
# Wavefront file for '1_1_13_mesh_0001.obj'

# Vertices (Count = 92)
v -208 -16 0
v -216 -16 0
v -216 -8 0
v -208 -8 0
v -336 -16 0
v -344 -16 0
v -344 -8 0
v -336 -8 0
v -208 -24 0
v -216 -24 0
v -216 -16 0
v -208 -16 0
v -336 -24 0
v -344 -24 0
v -344 -16 0
v -336 -16 0
v -208 -32 0
v -216 -32 0
v -216 -24 0
v -208 -24 0
v -336 -32 0
v -344 -32 0
v -344 -24 0
v -336 -24 0
v -208 -40 0
v -216 -40 0
v -216 -32 0
v -208 -32 0
v -336 -40 0
v -344 -40 0
v -344 -32 0
v -336 -32 0
v -208 -48 0
v -216 -48 0
v -216 -40 0
v -208 -40 0
v -336 -48 0
v -344 -48 0
v -344 -40 0
v -336 -40 0
v -208 -56 0
v -216 -56 0
v -216 -48 0
v -208 -48 0
v -336 -56 0
v -344 -56 0
v -344 -48 0
v -336 -48 0
v -208 -64 0
v -216 -64 0
v -216 -56 0
v -208 -56 0
v -336 -64 0
v -344 -64 0
v -344 -56 0
v -336 -56 0
v -208 -72 0
v -216 -72 0
v -216 -64 0
v -208 -64 0
v -336 -72 0
v -344 -72 0
v -344 -64 0
v -336 -64 0
v -208 -80 0
v -216 -80 0
v -216 -72 0
v -208 -72 0
v -208 -88 0
v -216 -88 0
v -216 -80 0
v -208 -80 0
v -208 -96 0
v -216 -96 0
v -216 -88 0
v -208 -88 0
v -208 -104 0
v -216 -104 0
v -216 -96 0
v -208 -96 0
v -208 -112 0
v -216 -112 0
v -216 -104 0
v -208 -104 0
v -208 -120 0
v -216 -120 0
v -216 -112 0
v -208 -112 0
v -208 -128 0
v -216 -128 0
v -216 -120 0
v -208 -120 0

# Texture cooridinates (Count = 10)
vt 0.125 0.75
vt 0.25 0.75
vt 0.25 0.875
vt 0.125 0.875
vt 0.5 0.625
vt 0.625 0.625
vt 0.625 0.75
vt 0.5 0.75
vt 0.5 0.5
vt 0.625 0.5

# Normal
vn 0 0 -1

# Mesh description
g 1_1_13_mesh_0001

# Faces
f 1/1/1 2/2/1 3/3/1 4/4/1
f 5/1/1 6/2/1 7/3/1 8/4/1
f 9/1/1 10/2/1 11/3/1 12/4/1
f 13/1/1 14/2/1 15/3/1 16/4/1
f 17/1/1 18/2/1 19/3/1 20/4/1
f 21/1/1 22/2/1 23/3/1 24/4/1
f 25/1/1 26/2/1 27/3/1 28/4/1
f 29/1/1 30/2/1 31/3/1 32/4/1
f 33/1/1 34/2/1 35/3/1 36/4/1
f 37/1/1 38/2/1 39/3/1 40/4/1
f 41/1/1 42/2/1 43/3/1 44/4/1
f 45/1/1 46/2/1 47/3/1 48/4/1
f 49/1/1 50/2/1 51/3/1 52/4/1
f 53/5/1 54/6/1 55/7/1 56/8/1
f 57/1/1 58/2/1 59/3/1 60/4/1
f 61/9/1 62/10/1 63/6/1 64/5/1
f 65/1/1 66/2/1 67/3/1 68/4/1
f 69/1/1 70/2/1 71/3/1 72/4/1
f 73/1/1 74/2/1 75/3/1 76/4/1
f 77/1/1 78/2/1 79/3/1 80/4/1
f 81/1/1 82/2/1 83/3/1 84/4/1
f 85/5/1 86/6/1 87/7/1 88/8/1
f 89/9/1 90/10/1 91/6/1 92/5/1

