# Tiled2Unity generated file. Do not modify by hand.
# Wavefront file for '1_2_18_mesh_0002.obj'

# Vertices (Count = 404)
v 0 -8 0
v -8 -8 0
v -8 0 0
v 0 0 0
v -8 -8 0
v -16 -8 0
v -16 0 0
v -8 0 0
v -16 -8 0
v -24 -8 0
v -24 0 0
v -16 0 0
v -24 -8 0
v -32 -8 0
v -32 0 0
v -24 0 0
v -32 -8 0
v -40 -8 0
v -40 0 0
v -32 0 0
v -40 -8 0
v -48 -8 0
v -48 0 0
v -40 0 0
v -48 -8 0
v -56 -8 0
v -56 0 0
v -48 0 0
v -56 -8 0
v -64 -8 0
v -64 0 0
v -56 0 0
v -64 -8 0
v -72 -8 0
v -72 0 0
v -64 0 0
v -72 -8 0
v -80 -8 0
v -80 0 0
v -72 0 0
v -80 -8 0
v -88 -8 0
v -88 0 0
v -80 0 0
v -88 -8 0
v -96 -8 0
v -96 0 0
v -88 0 0
v -96 -8 0
v -104 -8 0
v -104 0 0
v -96 0 0
v -104 -8 0
v -112 -8 0
v -112 0 0
v -104 0 0
v -112 -8 0
v -120 -8 0
v -120 0 0
v -112 0 0
v -120 -8 0
v -128 -8 0
v -128 0 0
v -120 0 0
v -128 -8 0
v -136 -8 0
v -136 0 0
v -128 0 0
v -136 -8 0
v -144 -8 0
v -144 0 0
v -136 0 0
v -144 -8 0
v -152 -8 0
v -152 0 0
v -144 0 0
v -152 -8 0
v -160 -8 0
v -160 0 0
v -152 0 0
v -160 -8 0
v -168 -8 0
v -168 0 0
v -160 0 0
v -168 -8 0
v -176 -8 0
v -176 0 0
v -168 0 0
v -176 -8 0
v -184 -8 0
v -184 0 0
v -176 0 0
v -184 -8 0
v -192 -8 0
v -192 0 0
v -184 0 0
v -192 -8 0
v -200 -8 0
v -200 0 0
v -192 0 0
v -200 -8 0
v -208 -8 0
v -208 0 0
v -200 0 0
v -208 -8 0
v -216 -8 0
v -216 0 0
v -208 0 0
v -216 -8 0
v -224 -8 0
v -224 0 0
v -216 0 0
v -224 -8 0
v -232 -8 0
v -232 0 0
v -224 0 0
v -232 -8 0
v -240 -8 0
v -240 0 0
v -232 0 0
v -240 -8 0
v -248 -8 0
v -248 0 0
v -240 0 0
v -248 -8 0
v -256 -8 0
v -256 0 0
v -248 0 0
v -256 -8 0
v -264 -8 0
v -264 0 0
v -256 0 0
v -264 -8 0
v -272 -8 0
v -272 0 0
v -264 0 0
v -272 -8 0
v -280 -8 0
v -280 0 0
v -272 0 0
v -280 -8 0
v -288 -8 0
v -288 0 0
v -280 0 0
v -288 -8 0
v -296 -8 0
v -296 0 0
v -288 0 0
v -296 -8 0
v -304 -8 0
v -304 0 0
v -296 0 0
v -304 -8 0
v -312 -8 0
v -312 0 0
v -304 0 0
v -312 -8 0
v -320 -8 0
v -320 0 0
v -312 0 0
v -320 -8 0
v -328 -8 0
v -328 0 0
v -320 0 0
v -328 -8 0
v -336 -8 0
v -336 0 0
v -328 0 0
v -336 -8 0
v -344 -8 0
v -344 0 0
v -336 0 0
v -344 -8 0
v -352 -8 0
v -352 0 0
v -344 0 0
v -352 -8 0
v -360 -8 0
v -360 0 0
v -352 0 0
v -360 -8 0
v -368 -8 0
v -368 0 0
v -360 0 0
v -368 -8 0
v -376 -8 0
v -376 0 0
v -368 0 0
v -376 -8 0
v -384 -8 0
v -384 0 0
v -376 0 0
v -384 -8 0
v -392 -8 0
v -392 0 0
v -384 0 0
v -392 -8 0
v -400 -8 0
v -400 0 0
v -392 0 0
v -400 -8 0
v -408 -8 0
v -408 0 0
v -400 0 0
v -408 -8 0
v -416 -8 0
v -416 0 0
v -408 0 0
v -416 -8 0
v -424 -8 0
v -424 0 0
v -416 0 0
v -424 -8 0
v -432 -8 0
v -432 0 0
v -424 0 0
v -432 -8 0
v -440 -8 0
v -440 0 0
v -432 0 0
v -440 -8 0
v -448 -8 0
v -448 0 0
v -440 0 0
v -448 -8 0
v -456 -8 0
v -456 0 0
v -448 0 0
v -456 -8 0
v -464 -8 0
v -464 0 0
v -456 0 0
v -464 -8 0
v -472 -8 0
v -472 0 0
v -464 0 0
v -472 -8 0
v -480 -8 0
v -480 0 0
v -472 0 0
v -480 -8 0
v -488 -8 0
v -488 0 0
v -480 0 0
v -64 -16 0
v -72 -16 0
v -72 -8 0
v -64 -8 0
v -136 -16 0
v -144 -16 0
v -144 -8 0
v -136 -8 0
v -200 -16 0
v -208 -16 0
v -208 -8 0
v -200 -8 0
v -272 -16 0
v -280 -16 0
v -280 -8 0
v -272 -8 0
v -336 -16 0
v -344 -16 0
v -344 -8 0
v -336 -8 0
v -408 -16 0
v -416 -16 0
v -416 -8 0
v -408 -8 0
v -64 -24 0
v -72 -24 0
v -72 -16 0
v -64 -16 0
v -136 -24 0
v -144 -24 0
v -144 -16 0
v -136 -16 0
v -200 -24 0
v -208 -24 0
v -208 -16 0
v -200 -16 0
v -272 -24 0
v -280 -24 0
v -280 -16 0
v -272 -16 0
v -336 -24 0
v -344 -24 0
v -344 -16 0
v -336 -16 0
v -408 -24 0
v -416 -24 0
v -416 -16 0
v -408 -16 0
v -64 -32 0
v -72 -32 0
v -72 -24 0
v -64 -24 0
v -136 -32 0
v -144 -32 0
v -144 -24 0
v -136 -24 0
v -200 -32 0
v -208 -32 0
v -208 -24 0
v -200 -24 0
v -272 -32 0
v -280 -32 0
v -280 -24 0
v -272 -24 0
v -336 -32 0
v -344 -32 0
v -344 -24 0
v -336 -24 0
v -408 -32 0
v -416 -32 0
v -416 -24 0
v -408 -24 0
v -64 -40 0
v -72 -40 0
v -72 -32 0
v -64 -32 0
v -136 -40 0
v -144 -40 0
v -144 -32 0
v -136 -32 0
v -200 -40 0
v -208 -40 0
v -208 -32 0
v -200 -32 0
v -272 -40 0
v -280 -40 0
v -280 -32 0
v -272 -32 0
v -336 -40 0
v -344 -40 0
v -344 -32 0
v -336 -32 0
v -408 -40 0
v -416 -40 0
v -416 -32 0
v -408 -32 0
v -64 -48 0
v -72 -48 0
v -72 -40 0
v -64 -40 0
v -136 -48 0
v -144 -48 0
v -144 -40 0
v -136 -40 0
v -200 -48 0
v -208 -48 0
v -208 -40 0
v -200 -40 0
v -272 -48 0
v -280 -48 0
v -280 -40 0
v -272 -40 0
v -336 -48 0
v -344 -48 0
v -344 -40 0
v -336 -40 0
v -408 -48 0
v -416 -48 0
v -416 -40 0
v -408 -40 0
v -64 -56 0
v -72 -56 0
v -72 -48 0
v -64 -48 0
v -136 -56 0
v -144 -56 0
v -144 -48 0
v -136 -48 0
v -336 -56 0
v -344 -56 0
v -344 -48 0
v -336 -48 0
v -408 -56 0
v -416 -56 0
v -416 -48 0
v -408 -48 0
v -64 -64 0
v -72 -64 0
v -72 -56 0
v -64 -56 0
v -136 -64 0
v -144 -64 0
v -144 -56 0
v -136 -56 0
v -336 -64 0
v -344 -64 0
v -344 -56 0
v -336 -56 0
v -408 -64 0
v -416 -64 0
v -416 -56 0
v -408 -56 0
v -64 -72 0
v -72 -72 0
v -72 -64 0
v -64 -64 0
v -136 -72 0
v -144 -72 0
v -144 -64 0
v -136 -64 0

# Texture cooridinates (Count = 13)
vt 0.125 0.625
vt 0.25 0.625
vt 0.25 0.75
vt 0.125 0.75
vt 0.125 0.875
vt 0 0.875
vt 0 0.75
vt 0.5 0.625
vt 0.625 0.625
vt 0.625 0.75
vt 0.5 0.75
vt 0.5 0.5
vt 0.625 0.5

# Normal
vn 0 0 -1

# Mesh description
g 1_2_18_mesh_0002

# Faces
f 1/1/1 2/2/1 3/3/1 4/4/1
f 5/1/1 6/2/1 7/3/1 8/4/1
f 9/1/1 10/2/1 11/3/1 12/4/1
f 13/1/1 14/2/1 15/3/1 16/4/1
f 17/1/1 18/2/1 19/3/1 20/4/1
f 21/1/1 22/2/1 23/3/1 24/4/1
f 25/1/1 26/2/1 27/3/1 28/4/1
f 29/1/1 30/2/1 31/3/1 32/4/1
f 33/4/1 34/5/1 35/6/1 36/7/1
f 37/1/1 38/2/1 39/3/1 40/4/1
f 41/1/1 42/2/1 43/3/1 44/4/1
f 45/1/1 46/2/1 47/3/1 48/4/1
f 49/1/1 50/2/1 51/3/1 52/4/1
f 53/1/1 54/2/1 55/3/1 56/4/1
f 57/1/1 58/2/1 59/3/1 60/4/1
f 61/1/1 62/2/1 63/3/1 64/4/1
f 65/1/1 66/2/1 67/3/1 68/4/1
f 69/4/1 70/5/1 71/6/1 72/7/1
f 73/1/1 74/2/1 75/3/1 76/4/1
f 77/1/1 78/2/1 79/3/1 80/4/1
f 81/1/1 82/2/1 83/3/1 84/4/1
f 85/1/1 86/2/1 87/3/1 88/4/1
f 89/1/1 90/2/1 91/3/1 92/4/1
f 93/1/1 94/2/1 95/3/1 96/4/1
f 97/1/1 98/2/1 99/3/1 100/4/1
f 101/4/1 102/5/1 103/6/1 104/7/1
f 105/1/1 106/2/1 107/3/1 108/4/1
f 109/1/1 110/2/1 111/3/1 112/4/1
f 113/1/1 114/2/1 115/3/1 116/4/1
f 117/1/1 118/2/1 119/3/1 120/4/1
f 121/1/1 122/2/1 123/3/1 124/4/1
f 125/1/1 126/2/1 127/3/1 128/4/1
f 129/1/1 130/2/1 131/3/1 132/4/1
f 133/1/1 134/2/1 135/3/1 136/4/1
f 137/4/1 138/5/1 139/6/1 140/7/1
f 141/1/1 142/2/1 143/3/1 144/4/1
f 145/1/1 146/2/1 147/3/1 148/4/1
f 149/1/1 150/2/1 151/3/1 152/4/1
f 153/1/1 154/2/1 155/3/1 156/4/1
f 157/1/1 158/2/1 159/3/1 160/4/1
f 161/1/1 162/2/1 163/3/1 164/4/1
f 165/1/1 166/2/1 167/3/1 168/4/1
f 169/4/1 170/5/1 171/6/1 172/7/1
f 173/1/1 174/2/1 175/3/1 176/4/1
f 177/1/1 178/2/1 179/3/1 180/4/1
f 181/1/1 182/2/1 183/3/1 184/4/1
f 185/1/1 186/2/1 187/3/1 188/4/1
f 189/1/1 190/2/1 191/3/1 192/4/1
f 193/1/1 194/2/1 195/3/1 196/4/1
f 197/1/1 198/2/1 199/3/1 200/4/1
f 201/1/1 202/2/1 203/3/1 204/4/1
f 205/4/1 206/5/1 207/6/1 208/7/1
f 209/1/1 210/2/1 211/3/1 212/4/1
f 213/1/1 214/2/1 215/3/1 216/4/1
f 217/1/1 218/2/1 219/3/1 220/4/1
f 221/1/1 222/2/1 223/3/1 224/4/1
f 225/1/1 226/2/1 227/3/1 228/4/1
f 229/1/1 230/2/1 231/3/1 232/4/1
f 233/1/1 234/2/1 235/3/1 236/4/1
f 237/1/1 238/2/1 239/3/1 240/4/1
f 241/1/1 242/2/1 243/3/1 244/4/1
f 245/4/1 246/5/1 247/6/1 248/7/1
f 249/4/1 250/5/1 251/6/1 252/7/1
f 253/7/1 254/4/1 255/5/1 256/6/1
f 257/7/1 258/4/1 259/5/1 260/6/1
f 261/7/1 262/4/1 263/5/1 264/6/1
f 265/7/1 266/4/1 267/5/1 268/6/1
f 269/4/1 270/5/1 271/6/1 272/7/1
f 273/4/1 274/5/1 275/6/1 276/7/1
f 277/7/1 278/4/1 279/5/1 280/6/1
f 281/7/1 282/4/1 283/5/1 284/6/1
f 285/7/1 286/4/1 287/5/1 288/6/1
f 289/7/1 290/4/1 291/5/1 292/6/1
f 293/4/1 294/5/1 295/6/1 296/7/1
f 297/4/1 298/5/1 299/6/1 300/7/1
f 301/7/1 302/4/1 303/5/1 304/6/1
f 305/7/1 306/4/1 307/5/1 308/6/1
f 309/7/1 310/4/1 311/5/1 312/6/1
f 313/7/1 314/4/1 315/5/1 316/6/1
f 317/4/1 318/5/1 319/6/1 320/7/1
f 321/4/1 322/5/1 323/6/1 324/7/1
f 325/8/1 326/9/1 327/10/1 328/11/1
f 329/8/1 330/9/1 331/10/1 332/11/1
f 333/7/1 334/4/1 335/5/1 336/6/1
f 337/7/1 338/4/1 339/5/1 340/6/1
f 341/4/1 342/5/1 343/6/1 344/7/1
f 345/4/1 346/5/1 347/6/1 348/7/1
f 349/12/1 350/13/1 351/9/1 352/8/1
f 353/12/1 354/13/1 355/9/1 356/8/1
f 357/7/1 358/4/1 359/5/1 360/6/1
f 361/7/1 362/4/1 363/5/1 364/6/1
f 365/4/1 366/5/1 367/6/1 368/7/1
f 369/4/1 370/5/1 371/6/1 372/7/1
f 373/8/1 374/9/1 375/10/1 376/11/1
f 377/8/1 378/9/1 379/10/1 380/11/1
f 381/8/1 382/9/1 383/10/1 384/11/1
f 385/8/1 386/9/1 387/10/1 388/11/1
f 389/12/1 390/13/1 391/9/1 392/8/1
f 393/12/1 394/13/1 395/9/1 396/8/1
f 397/12/1 398/13/1 399/9/1 400/8/1
f 401/12/1 402/13/1 403/9/1 404/8/1

