# Tiled2Unity generated file. Do not modify by hand.
# Wavefront file for '1_2_18_mesh_0001.obj'

# Vertices (Count = 788)
v -328 -152 0
v -336 -152 0
v -336 -144 0
v -328 -144 0
v -384 -152 0
v -392 -152 0
v -392 -144 0
v -384 -144 0
v -328 -160 0
v -336 -160 0
v -336 -152 0
v -328 -152 0
v -384 -160 0
v -392 -160 0
v -392 -152 0
v -384 -152 0
v -328 -168 0
v -336 -168 0
v -336 -160 0
v -328 -160 0
v -384 -168 0
v -392 -168 0
v -392 -160 0
v -384 -160 0
v -272 -176 0
v -280 -176 0
v -280 -168 0
v -272 -168 0
v -328 -176 0
v -336 -176 0
v -336 -168 0
v -328 -168 0
v -384 -176 0
v -392 -176 0
v -392 -168 0
v -384 -168 0
v -272 -184 0
v -280 -184 0
v -280 -176 0
v -272 -176 0
v -328 -184 0
v -336 -184 0
v -336 -176 0
v -328 -176 0
v -384 -184 0
v -392 -184 0
v -392 -176 0
v -384 -176 0
v -272 -192 0
v -280 -192 0
v -280 -184 0
v -272 -184 0
v -328 -192 0
v -336 -192 0
v -336 -184 0
v -328 -184 0
v -384 -192 0
v -392 -192 0
v -392 -184 0
v -384 -184 0
v -216 -200 0
v -224 -200 0
v -224 -192 0
v -216 -192 0
v -272 -200 0
v -280 -200 0
v -280 -192 0
v -272 -192 0
v -328 -200 0
v -336 -200 0
v -336 -192 0
v -328 -192 0
v -384 -200 0
v -392 -200 0
v -392 -192 0
v -384 -192 0
v -216 -208 0
v -224 -208 0
v -224 -200 0
v -216 -200 0
v -272 -208 0
v -280 -208 0
v -280 -200 0
v -272 -200 0
v -328 -208 0
v -336 -208 0
v -336 -200 0
v -328 -200 0
v -384 -208 0
v -392 -208 0
v -392 -200 0
v -384 -200 0
v -216 -216 0
v -224 -216 0
v -224 -208 0
v -216 -208 0
v -272 -216 0
v -280 -216 0
v -280 -208 0
v -272 -208 0
v -328 -216 0
v -336 -216 0
v -336 -208 0
v -328 -208 0
v -384 -216 0
v -392 -216 0
v -392 -208 0
v -384 -208 0
v -160 -224 0
v -168 -224 0
v -168 -216 0
v -160 -216 0
v -216 -224 0
v -224 -224 0
v -224 -216 0
v -216 -216 0
v -272 -224 0
v -280 -224 0
v -280 -216 0
v -272 -216 0
v -328 -224 0
v -336 -224 0
v -336 -216 0
v -328 -216 0
v -384 -224 0
v -392 -224 0
v -392 -216 0
v -384 -216 0
v -160 -232 0
v -168 -232 0
v -168 -224 0
v -160 -224 0
v -216 -232 0
v -224 -232 0
v -224 -224 0
v -216 -224 0
v -272 -232 0
v -280 -232 0
v -280 -224 0
v -272 -224 0
v -328 -232 0
v -336 -232 0
v -336 -224 0
v -328 -224 0
v -384 -232 0
v -392 -232 0
v -392 -224 0
v -384 -224 0
v -160 -240 0
v -168 -240 0
v -168 -232 0
v -160 -232 0
v -216 -240 0
v -224 -240 0
v -224 -232 0
v -216 -232 0
v -272 -240 0
v -280 -240 0
v -280 -232 0
v -272 -232 0
v -328 -240 0
v -336 -240 0
v -336 -232 0
v -328 -232 0
v -384 -240 0
v -392 -240 0
v -392 -232 0
v -384 -232 0
v -160 -248 0
v -168 -248 0
v -168 -240 0
v -160 -240 0
v -216 -248 0
v -224 -248 0
v -224 -240 0
v -216 -240 0
v -272 -248 0
v -280 -248 0
v -280 -240 0
v -272 -240 0
v -328 -248 0
v -336 -248 0
v -336 -240 0
v -328 -240 0
v -384 -248 0
v -392 -248 0
v -392 -240 0
v -384 -240 0
v -160 -256 0
v -168 -256 0
v -168 -248 0
v -160 -248 0
v -216 -256 0
v -224 -256 0
v -224 -248 0
v -216 -248 0
v -272 -256 0
v -280 -256 0
v -280 -248 0
v -272 -248 0
v -328 -256 0
v -336 -256 0
v -336 -248 0
v -328 -248 0
v -384 -256 0
v -392 -256 0
v -392 -248 0
v -384 -248 0
v -160 -264 0
v -168 -264 0
v -168 -256 0
v -160 -256 0
v -216 -264 0
v -224 -264 0
v -224 -256 0
v -216 -256 0
v -272 -264 0
v -280 -264 0
v -280 -256 0
v -272 -256 0
v -328 -264 0
v -336 -264 0
v -336 -256 0
v -328 -256 0
v -384 -264 0
v -392 -264 0
v -392 -256 0
v -384 -256 0
v -160 -272 0
v -168 -272 0
v -168 -264 0
v -160 -264 0
v -216 -272 0
v -224 -272 0
v -224 -264 0
v -216 -264 0
v -272 -272 0
v -280 -272 0
v -280 -264 0
v -272 -264 0
v -328 -272 0
v -336 -272 0
v -336 -264 0
v -328 -264 0
v -384 -272 0
v -392 -272 0
v -392 -264 0
v -384 -264 0
v -160 -280 0
v -168 -280 0
v -168 -272 0
v -160 -272 0
v -216 -280 0
v -224 -280 0
v -224 -272 0
v -216 -272 0
v -272 -280 0
v -280 -280 0
v -280 -272 0
v -272 -272 0
v -328 -280 0
v -336 -280 0
v -336 -272 0
v -328 -272 0
v -384 -280 0
v -392 -280 0
v -392 -272 0
v -384 -272 0
v -160 -288 0
v -168 -288 0
v -168 -280 0
v -160 -280 0
v -216 -288 0
v -224 -288 0
v -224 -280 0
v -216 -280 0
v -272 -288 0
v -280 -288 0
v -280 -280 0
v -272 -280 0
v -328 -288 0
v -336 -288 0
v -336 -280 0
v -328 -280 0
v -384 -288 0
v -392 -288 0
v -392 -280 0
v -384 -280 0
v -160 -296 0
v -168 -296 0
v -168 -288 0
v -160 -288 0
v -216 -296 0
v -224 -296 0
v -224 -288 0
v -216 -288 0
v -272 -296 0
v -280 -296 0
v -280 -288 0
v -272 -288 0
v -328 -296 0
v -336 -296 0
v -336 -288 0
v -328 -288 0
v -384 -296 0
v -392 -296 0
v -392 -288 0
v -384 -288 0
v -160 -304 0
v -168 -304 0
v -168 -296 0
v -160 -296 0
v -216 -304 0
v -224 -304 0
v -224 -296 0
v -216 -296 0
v -272 -304 0
v -280 -304 0
v -280 -296 0
v -272 -296 0
v -328 -304 0
v -336 -304 0
v -336 -296 0
v -328 -296 0
v -384 -304 0
v -392 -304 0
v -392 -296 0
v -384 -296 0
v -160 -312 0
v -168 -312 0
v -168 -304 0
v -160 -304 0
v -216 -312 0
v -224 -312 0
v -224 -304 0
v -216 -304 0
v -272 -312 0
v -280 -312 0
v -280 -304 0
v -272 -304 0
v -328 -312 0
v -336 -312 0
v -336 -304 0
v -328 -304 0
v -384 -312 0
v -392 -312 0
v -392 -304 0
v -384 -304 0
v -160 -320 0
v -168 -320 0
v -168 -312 0
v -160 -312 0
v -216 -320 0
v -224 -320 0
v -224 -312 0
v -216 -312 0
v -272 -320 0
v -280 -320 0
v -280 -312 0
v -272 -312 0
v -328 -320 0
v -336 -320 0
v -336 -312 0
v -328 -312 0
v -384 -320 0
v -392 -320 0
v -392 -312 0
v -384 -312 0
v -160 -328 0
v -168 -328 0
v -168 -320 0
v -160 -320 0
v -216 -328 0
v -224 -328 0
v -224 -320 0
v -216 -320 0
v -272 -328 0
v -280 -328 0
v -280 -320 0
v -272 -320 0
v -328 -328 0
v -336 -328 0
v -336 -320 0
v -328 -320 0
v -384 -328 0
v -392 -328 0
v -392 -320 0
v -384 -320 0
v -160 -336 0
v -168 -336 0
v -168 -328 0
v -160 -328 0
v -216 -336 0
v -224 -336 0
v -224 -328 0
v -216 -328 0
v -272 -336 0
v -280 -336 0
v -280 -328 0
v -272 -328 0
v -328 -336 0
v -336 -336 0
v -336 -328 0
v -328 -328 0
v -384 -336 0
v -392 -336 0
v -392 -328 0
v -384 -328 0
v -160 -344 0
v -168 -344 0
v -168 -336 0
v -160 -336 0
v -216 -344 0
v -224 -344 0
v -224 -336 0
v -216 -336 0
v -272 -344 0
v -280 -344 0
v -280 -336 0
v -272 -336 0
v -328 -344 0
v -336 -344 0
v -336 -336 0
v -328 -336 0
v -384 -344 0
v -392 -344 0
v -392 -336 0
v -384 -336 0
v -160 -352 0
v -168 -352 0
v -168 -344 0
v -160 -344 0
v -216 -352 0
v -224 -352 0
v -224 -344 0
v -216 -344 0
v -272 -352 0
v -280 -352 0
v -280 -344 0
v -272 -344 0
v -328 -352 0
v -336 -352 0
v -336 -344 0
v -328 -344 0
v -384 -352 0
v -392 -352 0
v -392 -344 0
v -384 -344 0
v -160 -360 0
v -168 -360 0
v -168 -352 0
v -160 -352 0
v -216 -360 0
v -224 -360 0
v -224 -352 0
v -216 -352 0
v -272 -360 0
v -280 -360 0
v -280 -352 0
v -272 -352 0
v -328 -360 0
v -336 -360 0
v -336 -352 0
v -328 -352 0
v -384 -360 0
v -392 -360 0
v -392 -352 0
v -384 -352 0
v -160 -368 0
v -168 -368 0
v -168 -360 0
v -160 -360 0
v -216 -368 0
v -224 -368 0
v -224 -360 0
v -216 -360 0
v -272 -368 0
v -280 -368 0
v -280 -360 0
v -272 -360 0
v -328 -368 0
v -336 -368 0
v -336 -360 0
v -328 -360 0
v -384 -368 0
v -392 -368 0
v -392 -360 0
v -384 -360 0
v -160 -376 0
v -168 -376 0
v -168 -368 0
v -160 -368 0
v -216 -376 0
v -224 -376 0
v -224 -368 0
v -216 -368 0
v -272 -376 0
v -280 -376 0
v -280 -368 0
v -272 -368 0
v -328 -376 0
v -336 -376 0
v -336 -368 0
v -328 -368 0
v -384 -376 0
v -392 -376 0
v -392 -368 0
v -384 -368 0
v -160 -384 0
v -168 -384 0
v -168 -376 0
v -160 -376 0
v -216 -384 0
v -224 -384 0
v -224 -376 0
v -216 -376 0
v -272 -384 0
v -280 -384 0
v -280 -376 0
v -272 -376 0
v -328 -384 0
v -336 -384 0
v -336 -376 0
v -328 -376 0
v -384 -384 0
v -392 -384 0
v -392 -376 0
v -384 -376 0
v -160 -392 0
v -168 -392 0
v -168 -384 0
v -160 -384 0
v -216 -392 0
v -224 -392 0
v -224 -384 0
v -216 -384 0
v -272 -392 0
v -280 -392 0
v -280 -384 0
v -272 -384 0
v -328 -392 0
v -336 -392 0
v -336 -384 0
v -328 -384 0
v -384 -392 0
v -392 -392 0
v -392 -384 0
v -384 -384 0
v -160 -400 0
v -168 -400 0
v -168 -392 0
v -160 -392 0
v -216 -400 0
v -224 -400 0
v -224 -392 0
v -216 -392 0
v -272 -400 0
v -280 -400 0
v -280 -392 0
v -272 -392 0
v -328 -400 0
v -336 -400 0
v -336 -392 0
v -328 -392 0
v -384 -400 0
v -392 -400 0
v -392 -392 0
v -384 -392 0
v -160 -408 0
v -168 -408 0
v -168 -400 0
v -160 -400 0
v -216 -408 0
v -224 -408 0
v -224 -400 0
v -216 -400 0
v -272 -408 0
v -280 -408 0
v -280 -400 0
v -272 -400 0
v -328 -408 0
v -336 -408 0
v -336 -400 0
v -328 -400 0
v -384 -408 0
v -392 -408 0
v -392 -400 0
v -384 -400 0
v -160 -416 0
v -168 -416 0
v -168 -408 0
v -160 -408 0
v -216 -416 0
v -224 -416 0
v -224 -408 0
v -216 -408 0
v -272 -416 0
v -280 -416 0
v -280 -408 0
v -272 -408 0
v -328 -416 0
v -336 -416 0
v -336 -408 0
v -328 -408 0
v -384 -416 0
v -392 -416 0
v -392 -408 0
v -384 -408 0
v -160 -424 0
v -168 -424 0
v -168 -416 0
v -160 -416 0
v -216 -424 0
v -224 -424 0
v -224 -416 0
v -216 -416 0
v -272 -424 0
v -280 -424 0
v -280 -416 0
v -272 -416 0
v -328 -424 0
v -336 -424 0
v -336 -416 0
v -328 -416 0
v -384 -424 0
v -392 -424 0
v -392 -416 0
v -384 -416 0
v -160 -432 0
v -168 -432 0
v -168 -424 0
v -160 -424 0
v -216 -432 0
v -224 -432 0
v -224 -424 0
v -216 -424 0
v -272 -432 0
v -280 -432 0
v -280 -424 0
v -272 -424 0
v -328 -432 0
v -336 -432 0
v -336 -424 0
v -328 -424 0
v -384 -432 0
v -392 -432 0
v -392 -424 0
v -384 -424 0
v -160 -440 0
v -168 -440 0
v -168 -432 0
v -160 -432 0
v -216 -440 0
v -224 -440 0
v -224 -432 0
v -216 -432 0
v -272 -440 0
v -280 -440 0
v -280 -432 0
v -272 -432 0
v -328 -440 0
v -336 -440 0
v -336 -432 0
v -328 -432 0
v -384 -440 0
v -392 -440 0
v -392 -432 0
v -384 -432 0
v -160 -448 0
v -168 -448 0
v -168 -440 0
v -160 -440 0
v -216 -448 0
v -224 -448 0
v -224 -440 0
v -216 -440 0
v -272 -448 0
v -280 -448 0
v -280 -440 0
v -272 -440 0
v -328 -448 0
v -336 -448 0
v -336 -440 0
v -328 -440 0
v -384 -448 0
v -392 -448 0
v -392 -440 0
v -384 -440 0
v -160 -456 0
v -168 -456 0
v -168 -448 0
v -160 -448 0
v -216 -456 0
v -224 -456 0
v -224 -448 0
v -216 -448 0
v -272 -456 0
v -280 -456 0
v -280 -448 0
v -272 -448 0
v -328 -456 0
v -336 -456 0
v -336 -448 0
v -328 -448 0
v -384 -456 0
v -392 -456 0
v -392 -448 0
v -384 -448 0
v -160 -464 0
v -168 -464 0
v -168 -456 0
v -160 -456 0
v -216 -464 0
v -224 -464 0
v -224 -456 0
v -216 -456 0
v -272 -464 0
v -280 -464 0
v -280 -456 0
v -272 -456 0
v -328 -464 0
v -336 -464 0
v -336 -456 0
v -328 -456 0
v -384 -464 0
v -392 -464 0
v -392 -456 0
v -384 -456 0
v -160 -472 0
v -168 -472 0
v -168 -464 0
v -160 -464 0
v -216 -472 0
v -224 -472 0
v -224 -464 0
v -216 -464 0
v -272 -472 0
v -280 -472 0
v -280 -464 0
v -272 -464 0
v -328 -472 0
v -336 -472 0
v -336 -464 0
v -328 -464 0
v -384 -472 0
v -392 -472 0
v -392 -464 0
v -384 -464 0
v -160 -480 0
v -168 -480 0
v -168 -472 0
v -160 -472 0
v -216 -480 0
v -224 -480 0
v -224 -472 0
v -216 -472 0
v -272 -480 0
v -280 -480 0
v -280 -472 0
v -272 -472 0
v -328 -480 0
v -336 -480 0
v -336 -472 0
v -328 -472 0
v -384 -480 0
v -392 -480 0
v -392 -472 0
v -384 -472 0
v -160 -488 0
v -168 -488 0
v -168 -480 0
v -160 -480 0
v -216 -488 0
v -224 -488 0
v -224 -480 0
v -216 -480 0
v -272 -488 0
v -280 -488 0
v -280 -480 0
v -272 -480 0
v -328 -488 0
v -336 -488 0
v -336 -480 0
v -328 -480 0
v -384 -488 0
v -392 -488 0
v -392 -480 0
v -384 -480 0

# Texture cooridinates (Count = 10)
vt 0.625 0.875
vt 0.75 0.875
vt 0.75 1
vt 0.625 1
vt 0.625 0.75
vt 0.75 0.75
vt 0 0.75
vt 0.125 0.75
vt 0.125 0.875
vt 0 0.875

# Normal
vn 0 0 -1

# Mesh description
g 1_2_18_mesh_0001

# Faces
f 1/1/1 2/2/1 3/3/1 4/4/1
f 5/1/1 6/2/1 7/3/1 8/4/1
f 9/5/1 10/6/1 11/2/1 12/1/1
f 13/5/1 14/6/1 15/2/1 16/1/1
f 17/7/1 18/8/1 19/9/1 20/10/1
f 21/7/1 22/8/1 23/9/1 24/10/1
f 25/1/1 26/2/1 27/3/1 28/4/1
f 29/7/1 30/8/1 31/9/1 32/10/1
f 33/7/1 34/8/1 35/9/1 36/10/1
f 37/5/1 38/6/1 39/2/1 40/1/1
f 41/7/1 42/8/1 43/9/1 44/10/1
f 45/7/1 46/8/1 47/9/1 48/10/1
f 49/7/1 50/8/1 51/9/1 52/10/1
f 53/7/1 54/8/1 55/9/1 56/10/1
f 57/7/1 58/8/1 59/9/1 60/10/1
f 61/1/1 62/2/1 63/3/1 64/4/1
f 65/7/1 66/8/1 67/9/1 68/10/1
f 69/7/1 70/8/1 71/9/1 72/10/1
f 73/7/1 74/8/1 75/9/1 76/10/1
f 77/5/1 78/6/1 79/2/1 80/1/1
f 81/7/1 82/8/1 83/9/1 84/10/1
f 85/7/1 86/8/1 87/9/1 88/10/1
f 89/7/1 90/8/1 91/9/1 92/10/1
f 93/7/1 94/8/1 95/9/1 96/10/1
f 97/7/1 98/8/1 99/9/1 100/10/1
f 101/7/1 102/8/1 103/9/1 104/10/1
f 105/7/1 106/8/1 107/9/1 108/10/1
f 109/1/1 110/2/1 111/3/1 112/4/1
f 113/7/1 114/8/1 115/9/1 116/10/1
f 117/7/1 118/8/1 119/9/1 120/10/1
f 121/7/1 122/8/1 123/9/1 124/10/1
f 125/7/1 126/8/1 127/9/1 128/10/1
f 129/5/1 130/6/1 131/2/1 132/1/1
f 133/7/1 134/8/1 135/9/1 136/10/1
f 137/7/1 138/8/1 139/9/1 140/10/1
f 141/7/1 142/8/1 143/9/1 144/10/1
f 145/7/1 146/8/1 147/9/1 148/10/1
f 149/7/1 150/8/1 151/9/1 152/10/1
f 153/7/1 154/8/1 155/9/1 156/10/1
f 157/7/1 158/8/1 159/9/1 160/10/1
f 161/7/1 162/8/1 163/9/1 164/10/1
f 165/7/1 166/8/1 167/9/1 168/10/1
f 169/7/1 170/8/1 171/9/1 172/10/1
f 173/7/1 174/8/1 175/9/1 176/10/1
f 177/7/1 178/8/1 179/9/1 180/10/1
f 181/7/1 182/8/1 183/9/1 184/10/1
f 185/7/1 186/8/1 187/9/1 188/10/1
f 189/7/1 190/8/1 191/9/1 192/10/1
f 193/7/1 194/8/1 195/9/1 196/10/1
f 197/7/1 198/8/1 199/9/1 200/10/1
f 201/7/1 202/8/1 203/9/1 204/10/1
f 205/7/1 206/8/1 207/9/1 208/10/1
f 209/7/1 210/8/1 211/9/1 212/10/1
f 213/7/1 214/8/1 215/9/1 216/10/1
f 217/7/1 218/8/1 219/9/1 220/10/1
f 221/7/1 222/8/1 223/9/1 224/10/1
f 225/7/1 226/8/1 227/9/1 228/10/1
f 229/7/1 230/8/1 231/9/1 232/10/1
f 233/7/1 234/8/1 235/9/1 236/10/1
f 237/7/1 238/8/1 239/9/1 240/10/1
f 241/7/1 242/8/1 243/9/1 244/10/1
f 245/7/1 246/8/1 247/9/1 248/10/1
f 249/7/1 250/8/1 251/9/1 252/10/1
f 253/7/1 254/8/1 255/9/1 256/10/1
f 257/7/1 258/8/1 259/9/1 260/10/1
f 261/7/1 262/8/1 263/9/1 264/10/1
f 265/7/1 266/8/1 267/9/1 268/10/1
f 269/7/1 270/8/1 271/9/1 272/10/1
f 273/7/1 274/8/1 275/9/1 276/10/1
f 277/7/1 278/8/1 279/9/1 280/10/1
f 281/7/1 282/8/1 283/9/1 284/10/1
f 285/7/1 286/8/1 287/9/1 288/10/1
f 289/7/1 290/8/1 291/9/1 292/10/1
f 293/7/1 294/8/1 295/9/1 296/10/1
f 297/7/1 298/8/1 299/9/1 300/10/1
f 301/7/1 302/8/1 303/9/1 304/10/1
f 305/7/1 306/8/1 307/9/1 308/10/1
f 309/7/1 310/8/1 311/9/1 312/10/1
f 313/7/1 314/8/1 315/9/1 316/10/1
f 317/7/1 318/8/1 319/9/1 320/10/1
f 321/7/1 322/8/1 323/9/1 324/10/1
f 325/7/1 326/8/1 327/9/1 328/10/1
f 329/7/1 330/8/1 331/9/1 332/10/1
f 333/7/1 334/8/1 335/9/1 336/10/1
f 337/7/1 338/8/1 339/9/1 340/10/1
f 341/7/1 342/8/1 343/9/1 344/10/1
f 345/7/1 346/8/1 347/9/1 348/10/1
f 349/7/1 350/8/1 351/9/1 352/10/1
f 353/7/1 354/8/1 355/9/1 356/10/1
f 357/7/1 358/8/1 359/9/1 360/10/1
f 361/7/1 362/8/1 363/9/1 364/10/1
f 365/7/1 366/8/1 367/9/1 368/10/1
f 369/7/1 370/8/1 371/9/1 372/10/1
f 373/7/1 374/8/1 375/9/1 376/10/1
f 377/7/1 378/8/1 379/9/1 380/10/1
f 381/7/1 382/8/1 383/9/1 384/10/1
f 385/7/1 386/8/1 387/9/1 388/10/1
f 389/7/1 390/8/1 391/9/1 392/10/1
f 393/7/1 394/8/1 395/9/1 396/10/1
f 397/7/1 398/8/1 399/9/1 400/10/1
f 401/7/1 402/8/1 403/9/1 404/10/1
f 405/7/1 406/8/1 407/9/1 408/10/1
f 409/7/1 410/8/1 411/9/1 412/10/1
f 413/7/1 414/8/1 415/9/1 416/10/1
f 417/7/1 418/8/1 419/9/1 420/10/1
f 421/7/1 422/8/1 423/9/1 424/10/1
f 425/7/1 426/8/1 427/9/1 428/10/1
f 429/7/1 430/8/1 431/9/1 432/10/1
f 433/7/1 434/8/1 435/9/1 436/10/1
f 437/7/1 438/8/1 439/9/1 440/10/1
f 441/7/1 442/8/1 443/9/1 444/10/1
f 445/7/1 446/8/1 447/9/1 448/10/1
f 449/7/1 450/8/1 451/9/1 452/10/1
f 453/7/1 454/8/1 455/9/1 456/10/1
f 457/7/1 458/8/1 459/9/1 460/10/1
f 461/7/1 462/8/1 463/9/1 464/10/1
f 465/7/1 466/8/1 467/9/1 468/10/1
f 469/7/1 470/8/1 471/9/1 472/10/1
f 473/7/1 474/8/1 475/9/1 476/10/1
f 477/7/1 478/8/1 479/9/1 480/10/1
f 481/7/1 482/8/1 483/9/1 484/10/1
f 485/7/1 486/8/1 487/9/1 488/10/1
f 489/7/1 490/8/1 491/9/1 492/10/1
f 493/7/1 494/8/1 495/9/1 496/10/1
f 497/7/1 498/8/1 499/9/1 500/10/1
f 501/7/1 502/8/1 503/9/1 504/10/1
f 505/7/1 506/8/1 507/9/1 508/10/1
f 509/7/1 510/8/1 511/9/1 512/10/1
f 513/7/1 514/8/1 515/9/1 516/10/1
f 517/7/1 518/8/1 519/9/1 520/10/1
f 521/7/1 522/8/1 523/9/1 524/10/1
f 525/7/1 526/8/1 527/9/1 528/10/1
f 529/7/1 530/8/1 531/9/1 532/10/1
f 533/7/1 534/8/1 535/9/1 536/10/1
f 537/7/1 538/8/1 539/9/1 540/10/1
f 541/7/1 542/8/1 543/9/1 544/10/1
f 545/7/1 546/8/1 547/9/1 548/10/1
f 549/7/1 550/8/1 551/9/1 552/10/1
f 553/7/1 554/8/1 555/9/1 556/10/1
f 557/7/1 558/8/1 559/9/1 560/10/1
f 561/7/1 562/8/1 563/9/1 564/10/1
f 565/7/1 566/8/1 567/9/1 568/10/1
f 569/7/1 570/8/1 571/9/1 572/10/1
f 573/7/1 574/8/1 575/9/1 576/10/1
f 577/7/1 578/8/1 579/9/1 580/10/1
f 581/7/1 582/8/1 583/9/1 584/10/1
f 585/7/1 586/8/1 587/9/1 588/10/1
f 589/7/1 590/8/1 591/9/1 592/10/1
f 593/7/1 594/8/1 595/9/1 596/10/1
f 597/7/1 598/8/1 599/9/1 600/10/1
f 601/7/1 602/8/1 603/9/1 604/10/1
f 605/7/1 606/8/1 607/9/1 608/10/1
f 609/7/1 610/8/1 611/9/1 612/10/1
f 613/7/1 614/8/1 615/9/1 616/10/1
f 617/7/1 618/8/1 619/9/1 620/10/1
f 621/7/1 622/8/1 623/9/1 624/10/1
f 625/7/1 626/8/1 627/9/1 628/10/1
f 629/7/1 630/8/1 631/9/1 632/10/1
f 633/7/1 634/8/1 635/9/1 636/10/1
f 637/7/1 638/8/1 639/9/1 640/10/1
f 641/7/1 642/8/1 643/9/1 644/10/1
f 645/7/1 646/8/1 647/9/1 648/10/1
f 649/7/1 650/8/1 651/9/1 652/10/1
f 653/7/1 654/8/1 655/9/1 656/10/1
f 657/7/1 658/8/1 659/9/1 660/10/1
f 661/7/1 662/8/1 663/9/1 664/10/1
f 665/7/1 666/8/1 667/9/1 668/10/1
f 669/7/1 670/8/1 671/9/1 672/10/1
f 673/7/1 674/8/1 675/9/1 676/10/1
f 677/7/1 678/8/1 679/9/1 680/10/1
f 681/7/1 682/8/1 683/9/1 684/10/1
f 685/7/1 686/8/1 687/9/1 688/10/1
f 689/7/1 690/8/1 691/9/1 692/10/1
f 693/7/1 694/8/1 695/9/1 696/10/1
f 697/7/1 698/8/1 699/9/1 700/10/1
f 701/7/1 702/8/1 703/9/1 704/10/1
f 705/7/1 706/8/1 707/9/1 708/10/1
f 709/7/1 710/8/1 711/9/1 712/10/1
f 713/7/1 714/8/1 715/9/1 716/10/1
f 717/7/1 718/8/1 719/9/1 720/10/1
f 721/7/1 722/8/1 723/9/1 724/10/1
f 725/7/1 726/8/1 727/9/1 728/10/1
f 729/7/1 730/8/1 731/9/1 732/10/1
f 733/7/1 734/8/1 735/9/1 736/10/1
f 737/7/1 738/8/1 739/9/1 740/10/1
f 741/7/1 742/8/1 743/9/1 744/10/1
f 745/7/1 746/8/1 747/9/1 748/10/1
f 749/7/1 750/8/1 751/9/1 752/10/1
f 753/7/1 754/8/1 755/9/1 756/10/1
f 757/7/1 758/8/1 759/9/1 760/10/1
f 761/7/1 762/8/1 763/9/1 764/10/1
f 765/7/1 766/8/1 767/9/1 768/10/1
f 769/7/1 770/8/1 771/9/1 772/10/1
f 773/7/1 774/8/1 775/9/1 776/10/1
f 777/7/1 778/8/1 779/9/1 780/10/1
f 781/7/1 782/8/1 783/9/1 784/10/1
f 785/7/1 786/8/1 787/9/1 788/10/1

