# Tiled2Unity generated file. Do not modify by hand.
# Wavefront file for '1_3_Module39_mesh_0002.obj'

# Vertices (Count = 104)
v -240 -112 0
v -248 -112 0
v -248 -104 0
v -240 -104 0
v -248 -112 0
v -256 -112 0
v -256 -104 0
v -248 -104 0
v -240 -120 0
v -248 -120 0
v -248 -112 0
v -240 -112 0
v -248 -120 0
v -256 -120 0
v -256 -112 0
v -248 -112 0
v -208 -136 0
v -216 -136 0
v -216 -128 0
v -208 -128 0
v -280 -136 0
v -288 -136 0
v -288 -128 0
v -280 -128 0
v -208 -144 0
v -216 -144 0
v -216 -136 0
v -208 -136 0
v -280 -144 0
v -288 -144 0
v -288 -136 0
v -280 -136 0
v -208 -152 0
v -216 -152 0
v -216 -144 0
v -208 -144 0
v -280 -152 0
v -288 -152 0
v -288 -144 0
v -280 -144 0
v -208 -160 0
v -216 -160 0
v -216 -152 0
v -208 -152 0
v -280 -160 0
v -288 -160 0
v -288 -152 0
v -280 -152 0
v -400 -184 0
v -408 -184 0
v -408 -176 0
v -400 -176 0
v -408 -184 0
v -416 -184 0
v -416 -176 0
v -408 -176 0
v -56 -192 0
v -64 -192 0
v -64 -184 0
v -56 -184 0
v -64 -192 0
v -72 -192 0
v -72 -184 0
v -64 -184 0
v -400 -192 0
v -408 -192 0
v -408 -184 0
v -400 -184 0
v -408 -192 0
v -416 -192 0
v -416 -184 0
v -408 -184 0
v -416 -192 0
v -424 -192 0
v -424 -184 0
v -416 -184 0
v -56 -200 0
v -64 -200 0
v -64 -192 0
v -56 -192 0
v -72 -200 0
v -80 -200 0
v -80 -192 0
v -72 -192 0
v -400 -200 0
v -408 -200 0
v -408 -192 0
v -400 -192 0
v -408 -200 0
v -416 -200 0
v -416 -192 0
v -408 -192 0
v -416 -200 0
v -424 -200 0
v -424 -192 0
v -416 -192 0
v -392 -208 0
v -400 -208 0
v -400 -200 0
v -392 -200 0
v -400 -208 0
v -408 -208 0
v -408 -200 0
v -400 -200 0

# Texture cooridinates (Count = 16)
vt 0 0.6666666
vt 0.3333333 0.6666666
vt 0.3333333 1
vt 0 1
vt 0.6666667 0.6666666
vt 1 0.6666666
vt 1 1
vt 0.6666667 1
vt 0 0
vt 0.3333333 0
vt 0.3333333 0.3333333
vt 0 0.3333333
vt 0.6666667 0
vt 1 0
vt 1 0.3333333
vt 0.6666667 0.3333333

# Normal
vn 0 0 -1

# Mesh description
g 1_3_Module39_mesh_0002

# Faces
f 1/1/1 2/2/1 3/3/1 4/4/1
f 5/5/1 6/6/1 7/7/1 8/8/1
f 9/2/1 10/5/1 11/8/1 12/3/1
f 13/2/1 14/5/1 15/8/1 16/3/1
f 17/2/1 18/5/1 19/8/1 20/3/1
f 21/2/1 22/5/1 23/8/1 24/3/1
f 25/2/1 26/5/1 27/8/1 28/3/1
f 29/2/1 30/5/1 31/8/1 32/3/1
f 33/2/1 34/5/1 35/8/1 36/3/1
f 37/2/1 38/5/1 39/8/1 40/3/1
f 41/2/1 42/5/1 43/8/1 44/3/1
f 45/2/1 46/5/1 47/8/1 48/3/1
f 49/1/1 50/2/1 51/3/1 52/4/1
f 53/5/1 54/6/1 55/7/1 56/8/1
f 57/1/1 58/2/1 59/3/1 60/4/1
f 61/5/1 62/6/1 63/7/1 64/8/1
f 65/2/1 66/5/1 67/8/1 68/3/1
f 69/2/1 70/5/1 71/8/1 72/3/1
f 73/5/1 74/6/1 75/7/1 76/8/1
f 77/9/1 78/10/1 79/11/1 80/12/1
f 81/5/1 82/6/1 83/7/1 84/8/1
f 85/2/1 86/5/1 87/8/1 88/3/1
f 89/2/1 90/5/1 91/8/1 92/3/1
f 93/13/1 94/14/1 95/15/1 96/16/1
f 97/1/1 98/2/1 99/3/1 100/4/1
f 101/2/1 102/5/1 103/8/1 104/3/1

