# Tiled2Unity generated file. Do not modify by hand.
# Wavefront file for '1_1_Module47_mesh_0002.obj'

# Vertices (Count = 776)
v -40 -16 0
v -48 -16 0
v -48 -8 0
v -40 -8 0
v -96 -16 0
v -104 -16 0
v -104 -8 0
v -96 -8 0
v -104 -16 0
v -112 -16 0
v -112 -8 0
v -104 -8 0
v -112 -16 0
v -120 -16 0
v -120 -8 0
v -112 -8 0
v -128 -16 0
v -136 -16 0
v -136 -8 0
v -128 -8 0
v -136 -16 0
v -144 -16 0
v -144 -8 0
v -136 -8 0
v -144 -16 0
v -152 -16 0
v -152 -8 0
v -144 -8 0
v -224 -16 0
v -232 -16 0
v -232 -8 0
v -224 -8 0
v -232 -16 0
v -240 -16 0
v -240 -8 0
v -232 -8 0
v -248 -16 0
v -256 -16 0
v -256 -8 0
v -248 -8 0
v -256 -16 0
v -264 -16 0
v -264 -8 0
v -256 -8 0
v -336 -16 0
v -344 -16 0
v -344 -8 0
v -336 -8 0
v -344 -16 0
v -352 -16 0
v -352 -8 0
v -344 -8 0
v -352 -16 0
v -360 -16 0
v -360 -8 0
v -352 -8 0
v -368 -16 0
v -376 -16 0
v -376 -8 0
v -368 -8 0
v -376 -16 0
v -384 -16 0
v -384 -8 0
v -376 -8 0
v -384 -16 0
v -392 -16 0
v -392 -8 0
v -384 -8 0
v -40 -24 0
v -48 -24 0
v -48 -16 0
v -40 -16 0
v -88 -24 0
v -96 -24 0
v -96 -16 0
v -88 -16 0
v -96 -24 0
v -104 -24 0
v -104 -16 0
v -96 -16 0
v -104 -24 0
v -112 -24 0
v -112 -16 0
v -104 -16 0
v -136 -24 0
v -144 -24 0
v -144 -16 0
v -136 -16 0
v -144 -24 0
v -152 -24 0
v -152 -16 0
v -144 -16 0
v -152 -24 0
v -160 -24 0
v -160 -16 0
v -152 -16 0
v -216 -24 0
v -224 -24 0
v -224 -16 0
v -216 -16 0
v -224 -24 0
v -232 -24 0
v -232 -16 0
v -224 -16 0
v -232 -24 0
v -240 -24 0
v -240 -16 0
v -232 -16 0
v -248 -24 0
v -256 -24 0
v -256 -16 0
v -248 -16 0
v -256 -24 0
v -264 -24 0
v -264 -16 0
v -256 -16 0
v -264 -24 0
v -272 -24 0
v -272 -16 0
v -264 -16 0
v -328 -24 0
v -336 -24 0
v -336 -16 0
v -328 -16 0
v -336 -24 0
v -344 -24 0
v -344 -16 0
v -336 -16 0
v -344 -24 0
v -352 -24 0
v -352 -16 0
v -344 -16 0
v -376 -24 0
v -384 -24 0
v -384 -16 0
v -376 -16 0
v -384 -24 0
v -392 -24 0
v -392 -16 0
v -384 -16 0
v -392 -24 0
v -400 -24 0
v -400 -16 0
v -392 -16 0
v -40 -32 0
v -48 -32 0
v -48 -24 0
v -40 -24 0
v -80 -32 0
v -88 -32 0
v -88 -24 0
v -80 -24 0
v -88 -32 0
v -96 -32 0
v -96 -24 0
v -88 -24 0
v -96 -32 0
v -104 -32 0
v -104 -24 0
v -96 -24 0
v -144 -32 0
v -152 -32 0
v -152 -24 0
v -144 -24 0
v -152 -32 0
v -160 -32 0
v -160 -24 0
v -152 -24 0
v -160 -32 0
v -168 -32 0
v -168 -24 0
v -160 -24 0
v -208 -32 0
v -216 -32 0
v -216 -24 0
v -208 -24 0
v -216 -32 0
v -224 -32 0
v -224 -24 0
v -216 -24 0
v -232 -32 0
v -240 -32 0
v -240 -24 0
v -232 -24 0
v -248 -32 0
v -256 -32 0
v -256 -24 0
v -248 -24 0
v -264 -32 0
v -272 -32 0
v -272 -24 0
v -264 -24 0
v -272 -32 0
v -280 -32 0
v -280 -24 0
v -272 -24 0
v -320 -32 0
v -328 -32 0
v -328 -24 0
v -320 -24 0
v -328 -32 0
v -336 -32 0
v -336 -24 0
v -328 -24 0
v -336 -32 0
v -344 -32 0
v -344 -24 0
v -336 -24 0
v -384 -32 0
v -392 -32 0
v -392 -24 0
v -384 -24 0
v -392 -32 0
v -400 -32 0
v -400 -24 0
v -392 -24 0
v -400 -32 0
v -408 -32 0
v -408 -24 0
v -400 -24 0
v -40 -40 0
v -48 -40 0
v -48 -32 0
v -40 -32 0
v -80 -40 0
v -88 -40 0
v -88 -32 0
v -80 -32 0
v -88 -40 0
v -96 -40 0
v -96 -32 0
v -88 -32 0
v -96 -40 0
v -104 -40 0
v -104 -32 0
v -96 -32 0
v -104 -40 0
v -112 -40 0
v -112 -32 0
v -104 -32 0
v -112 -40 0
v -120 -40 0
v -120 -32 0
v -112 -32 0
v -120 -40 0
v -128 -40 0
v -128 -32 0
v -120 -32 0
v -128 -40 0
v -136 -40 0
v -136 -32 0
v -128 -32 0
v -136 -40 0
v -144 -40 0
v -144 -32 0
v -136 -32 0
v -144 -40 0
v -152 -40 0
v -152 -32 0
v -144 -32 0
v -152 -40 0
v -160 -40 0
v -160 -32 0
v -152 -32 0
v -160 -40 0
v -168 -40 0
v -168 -32 0
v -160 -32 0
v -168 -40 0
v -176 -40 0
v -176 -32 0
v -168 -32 0
v -176 -40 0
v -184 -40 0
v -184 -32 0
v -176 -32 0
v -184 -40 0
v -192 -40 0
v -192 -32 0
v -184 -32 0
v -192 -40 0
v -200 -40 0
v -200 -32 0
v -192 -32 0
v -200 -40 0
v -208 -40 0
v -208 -32 0
v -200 -32 0
v -208 -40 0
v -216 -40 0
v -216 -32 0
v -208 -32 0
v -216 -40 0
v -224 -40 0
v -224 -32 0
v -216 -32 0
v -224 -40 0
v -232 -40 0
v -232 -32 0
v -224 -32 0
v -232 -40 0
v -240 -40 0
v -240 -32 0
v -232 -32 0
v -240 -40 0
v -248 -40 0
v -248 -32 0
v -240 -32 0
v -248 -40 0
v -256 -40 0
v -256 -32 0
v -248 -32 0
v -256 -40 0
v -264 -40 0
v -264 -32 0
v -256 -32 0
v -264 -40 0
v -272 -40 0
v -272 -32 0
v -264 -32 0
v -272 -40 0
v -280 -40 0
v -280 -32 0
v -272 -32 0
v -280 -40 0
v -288 -40 0
v -288 -32 0
v -280 -32 0
v -288 -40 0
v -296 -40 0
v -296 -32 0
v -288 -32 0
v -296 -40 0
v -304 -40 0
v -304 -32 0
v -296 -32 0
v -304 -40 0
v -312 -40 0
v -312 -32 0
v -304 -32 0
v -312 -40 0
v -320 -40 0
v -320 -32 0
v -312 -32 0
v -320 -40 0
v -328 -40 0
v -328 -32 0
v -320 -32 0
v -328 -40 0
v -336 -40 0
v -336 -32 0
v -328 -32 0
v -336 -40 0
v -344 -40 0
v -344 -32 0
v -336 -32 0
v -344 -40 0
v -352 -40 0
v -352 -32 0
v -344 -32 0
v -352 -40 0
v -360 -40 0
v -360 -32 0
v -352 -32 0
v -360 -40 0
v -368 -40 0
v -368 -32 0
v -360 -32 0
v -368 -40 0
v -376 -40 0
v -376 -32 0
v -368 -32 0
v -376 -40 0
v -384 -40 0
v -384 -32 0
v -376 -32 0
v -384 -40 0
v -392 -40 0
v -392 -32 0
v -384 -32 0
v -392 -40 0
v -400 -40 0
v -400 -32 0
v -392 -32 0
v -400 -40 0
v -408 -40 0
v -408 -32 0
v -400 -32 0
v -40 -48 0
v -48 -48 0
v -48 -40 0
v -40 -40 0
v -40 -56 0
v -48 -56 0
v -48 -48 0
v -40 -48 0
v -176 -56 0
v -184 -56 0
v -184 -48 0
v -176 -48 0
v -184 -56 0
v -192 -56 0
v -192 -48 0
v -184 -48 0
v -192 -56 0
v -200 -56 0
v -200 -48 0
v -192 -48 0
v -288 -56 0
v -296 -56 0
v -296 -48 0
v -288 -48 0
v -296 -56 0
v -304 -56 0
v -304 -48 0
v -296 -48 0
v -304 -56 0
v -312 -56 0
v -312 -48 0
v -304 -48 0
v -40 -64 0
v -48 -64 0
v -48 -56 0
v -40 -56 0
v -176 -64 0
v -184 -64 0
v -184 -56 0
v -176 -56 0
v -184 -64 0
v -192 -64 0
v -192 -56 0
v -184 -56 0
v -192 -64 0
v -200 -64 0
v -200 -56 0
v -192 -56 0
v -288 -64 0
v -296 -64 0
v -296 -56 0
v -288 -56 0
v -296 -64 0
v -304 -64 0
v -304 -56 0
v -296 -56 0
v -304 -64 0
v -312 -64 0
v -312 -56 0
v -304 -56 0
v -40 -72 0
v -48 -72 0
v -48 -64 0
v -40 -64 0
v -176 -72 0
v -184 -72 0
v -184 -64 0
v -176 -64 0
v -184 -72 0
v -192 -72 0
v -192 -64 0
v -184 -64 0
v -192 -72 0
v -200 -72 0
v -200 -64 0
v -192 -64 0
v -288 -72 0
v -296 -72 0
v -296 -64 0
v -288 -64 0
v -296 -72 0
v -304 -72 0
v -304 -64 0
v -296 -64 0
v -304 -72 0
v -312 -72 0
v -312 -64 0
v -304 -64 0
v -40 -80 0
v -48 -80 0
v -48 -72 0
v -40 -72 0
v -40 -88 0
v -48 -88 0
v -48 -80 0
v -40 -80 0
v -40 -96 0
v -48 -96 0
v -48 -88 0
v -40 -88 0
v -40 -104 0
v -48 -104 0
v -48 -96 0
v -40 -96 0
v -40 -152 0
v -48 -152 0
v -48 -144 0
v -40 -144 0
v -40 -160 0
v -48 -160 0
v -48 -152 0
v -40 -152 0
v -40 -168 0
v -48 -168 0
v -48 -160 0
v -40 -160 0
v -40 -176 0
v -48 -176 0
v -48 -168 0
v -40 -168 0
v -40 -184 0
v -48 -184 0
v -48 -176 0
v -40 -176 0
v -176 -184 0
v -184 -184 0
v -184 -176 0
v -176 -176 0
v -184 -184 0
v -192 -184 0
v -192 -176 0
v -184 -176 0
v -192 -184 0
v -200 -184 0
v -200 -176 0
v -192 -176 0
v -288 -184 0
v -296 -184 0
v -296 -176 0
v -288 -176 0
v -296 -184 0
v -304 -184 0
v -304 -176 0
v -296 -176 0
v -304 -184 0
v -312 -184 0
v -312 -176 0
v -304 -176 0
v -40 -192 0
v -48 -192 0
v -48 -184 0
v -40 -184 0
v -176 -192 0
v -184 -192 0
v -184 -184 0
v -176 -184 0
v -184 -192 0
v -192 -192 0
v -192 -184 0
v -184 -184 0
v -192 -192 0
v -200 -192 0
v -200 -184 0
v -192 -184 0
v -288 -192 0
v -296 -192 0
v -296 -184 0
v -288 -184 0
v -296 -192 0
v -304 -192 0
v -304 -184 0
v -296 -184 0
v -304 -192 0
v -312 -192 0
v -312 -184 0
v -304 -184 0
v -40 -200 0
v -48 -200 0
v -48 -192 0
v -40 -192 0
v -176 -200 0
v -184 -200 0
v -184 -192 0
v -176 -192 0
v -184 -200 0
v -192 -200 0
v -192 -192 0
v -184 -192 0
v -192 -200 0
v -200 -200 0
v -200 -192 0
v -192 -192 0
v -288 -200 0
v -296 -200 0
v -296 -192 0
v -288 -192 0
v -296 -200 0
v -304 -200 0
v -304 -192 0
v -296 -192 0
v -304 -200 0
v -312 -200 0
v -312 -192 0
v -304 -192 0
v -40 -208 0
v -48 -208 0
v -48 -200 0
v -40 -200 0
v -40 -216 0
v -48 -216 0
v -48 -208 0
v -40 -208 0
v -40 -224 0
v -48 -224 0
v -48 -216 0
v -40 -216 0
v -40 -232 0
v -48 -232 0
v -48 -224 0
v -40 -224 0
v -40 -240 0
v -48 -240 0
v -48 -232 0
v -40 -232 0
v -80 -240 0
v -88 -240 0
v -88 -232 0
v -80 -232 0
v -88 -240 0
v -96 -240 0
v -96 -232 0
v -88 -232 0
v -96 -240 0
v -104 -240 0
v -104 -232 0
v -96 -232 0
v -104 -240 0
v -112 -240 0
v -112 -232 0
v -104 -232 0
v -112 -240 0
v -120 -240 0
v -120 -232 0
v -112 -232 0
v -120 -240 0
v -128 -240 0
v -128 -232 0
v -120 -232 0
v -128 -240 0
v -136 -240 0
v -136 -232 0
v -128 -232 0
v -136 -240 0
v -144 -240 0
v -144 -232 0
v -136 -232 0
v -144 -240 0
v -152 -240 0
v -152 -232 0
v -144 -232 0
v -152 -240 0
v -160 -240 0
v -160 -232 0
v -152 -232 0
v -160 -240 0
v -168 -240 0
v -168 -232 0
v -160 -232 0
v -168 -240 0
v -176 -240 0
v -176 -232 0
v -168 -232 0
v -176 -240 0
v -184 -240 0
v -184 -232 0
v -176 -232 0
v -184 -240 0
v -192 -240 0
v -192 -232 0
v -184 -232 0
v -192 -240 0
v -200 -240 0
v -200 -232 0
v -192 -232 0
v -200 -240 0
v -208 -240 0
v -208 -232 0
v -200 -232 0
v -208 -240 0
v -216 -240 0
v -216 -232 0
v -208 -232 0
v -216 -240 0
v -224 -240 0
v -224 -232 0
v -216 -232 0
v -224 -240 0
v -232 -240 0
v -232 -232 0
v -224 -232 0
v -232 -240 0
v -240 -240 0
v -240 -232 0
v -232 -232 0
v -240 -240 0
v -248 -240 0
v -248 -232 0
v -240 -232 0
v -248 -240 0
v -256 -240 0
v -256 -232 0
v -248 -232 0
v -256 -240 0
v -264 -240 0
v -264 -232 0
v -256 -232 0
v -264 -240 0
v -272 -240 0
v -272 -232 0
v -264 -232 0
v -272 -240 0
v -280 -240 0
v -280 -232 0
v -272 -232 0
v -280 -240 0
v -288 -240 0
v -288 -232 0
v -280 -232 0
v -288 -240 0
v -296 -240 0
v -296 -232 0
v -288 -232 0
v -296 -240 0
v -304 -240 0
v -304 -232 0
v -296 -232 0
v -304 -240 0
v -312 -240 0
v -312 -232 0
v -304 -232 0
v -312 -240 0
v -320 -240 0
v -320 -232 0
v -312 -232 0
v -320 -240 0
v -328 -240 0
v -328 -232 0
v -320 -232 0
v -328 -240 0
v -336 -240 0
v -336 -232 0
v -328 -232 0
v -336 -240 0
v -344 -240 0
v -344 -232 0
v -336 -232 0
v -344 -240 0
v -352 -240 0
v -352 -232 0
v -344 -232 0
v -352 -240 0
v -360 -240 0
v -360 -232 0
v -352 -232 0
v -360 -240 0
v -368 -240 0
v -368 -232 0
v -360 -232 0
v -368 -240 0
v -376 -240 0
v -376 -232 0
v -368 -232 0
v -376 -240 0
v -384 -240 0
v -384 -232 0
v -376 -232 0
v -384 -240 0
v -392 -240 0
v -392 -232 0
v -384 -232 0
v -392 -240 0
v -400 -240 0
v -400 -232 0
v -392 -232 0
v -400 -240 0
v -408 -240 0
v -408 -232 0
v -400 -232 0

# Texture cooridinates (Count = 16)
vt 0.3333333 0.6666666
vt 0.6666667 0.6666666
vt 0.6666667 1
vt 0.3333333 1
vt 0 0.6666666
vt 0 1
vt 0.6666667 0
vt 1 0
vt 1 0.3333333
vt 0.6666667 0.3333333
vt 0 0
vt 0.3333333 0
vt 0.3333333 0.3333333
vt 0 0.3333333
vt 1 0.6666666
vt 1 1

# Normal
vn 0 0 -1

# Mesh description
g 1_1_Module47_mesh_0002

# Faces
f 1/1/1 2/2/1 3/3/1 4/4/1
f 5/5/1 6/1/1 7/4/1 8/6/1
f 9/1/1 10/2/1 11/3/1 12/4/1
f 13/7/1 14/8/1 15/9/1 16/10/1
f 17/11/1 18/12/1 19/13/1 20/14/1
f 21/13/1 22/10/1 23/2/1 24/1/1
f 25/2/1 26/15/1 27/16/1 28/3/1
f 29/5/1 30/1/1 31/4/1 32/6/1
f 33/13/1 34/10/1 35/2/1 36/1/1
f 37/13/1 38/10/1 39/2/1 40/1/1
f 41/2/1 42/15/1 43/16/1 44/3/1
f 45/5/1 46/1/1 47/4/1 48/6/1
f 49/13/1 50/10/1 51/2/1 52/1/1
f 53/7/1 54/8/1 55/9/1 56/10/1
f 57/11/1 58/12/1 59/13/1 60/14/1
f 61/1/1 62/2/1 63/3/1 64/4/1
f 65/2/1 66/15/1 67/16/1 68/3/1
f 69/1/1 70/2/1 71/3/1 72/4/1
f 73/5/1 74/1/1 75/4/1 76/6/1
f 77/1/1 78/2/1 79/3/1 80/4/1
f 81/7/1 82/8/1 83/9/1 84/10/1
f 85/11/1 86/12/1 87/13/1 88/14/1
f 89/13/1 90/10/1 91/2/1 92/1/1
f 93/2/1 94/15/1 95/16/1 96/3/1
f 97/5/1 98/1/1 99/4/1 100/6/1
f 101/13/1 102/10/1 103/2/1 104/1/1
f 105/13/1 106/10/1 107/2/1 108/1/1
f 109/13/1 110/10/1 111/2/1 112/1/1
f 113/13/1 114/10/1 115/2/1 116/1/1
f 117/2/1 118/15/1 119/16/1 120/3/1
f 121/5/1 122/1/1 123/4/1 124/6/1
f 125/13/1 126/10/1 127/2/1 128/1/1
f 129/7/1 130/8/1 131/9/1 132/10/1
f 133/11/1 134/12/1 135/13/1 136/14/1
f 137/1/1 138/2/1 139/3/1 140/4/1
f 141/2/1 142/15/1 143/16/1 144/3/1
f 145/1/1 146/2/1 147/3/1 148/4/1
f 149/5/1 150/1/1 151/4/1 152/6/1
f 153/1/1 154/2/1 155/3/1 156/4/1
f 157/7/1 158/8/1 159/9/1 160/10/1
f 161/11/1 162/12/1 163/13/1 164/14/1
f 165/13/1 166/10/1 167/2/1 168/1/1
f 169/2/1 170/15/1 171/16/1 172/3/1
f 173/5/1 174/1/1 175/4/1 176/6/1
f 177/13/1 178/10/1 179/2/1 180/1/1
f 181/13/1 182/10/1 183/2/1 184/1/1
f 185/13/1 186/10/1 187/2/1 188/1/1
f 189/13/1 190/10/1 191/2/1 192/1/1
f 193/2/1 194/15/1 195/16/1 196/3/1
f 197/5/1 198/1/1 199/4/1 200/6/1
f 201/13/1 202/10/1 203/2/1 204/1/1
f 205/7/1 206/8/1 207/9/1 208/10/1
f 209/11/1 210/12/1 211/13/1 212/14/1
f 213/1/1 214/2/1 215/3/1 216/4/1
f 217/2/1 218/15/1 219/16/1 220/3/1
f 221/1/1 222/2/1 223/3/1 224/4/1
f 225/1/1 226/2/1 227/3/1 228/4/1
f 229/1/1 230/2/1 231/3/1 232/4/1
f 233/1/1 234/2/1 235/3/1 236/4/1
f 237/1/1 238/2/1 239/3/1 240/4/1
f 241/1/1 242/2/1 243/3/1 244/4/1
f 245/1/1 246/2/1 247/3/1 248/4/1
f 249/1/1 250/2/1 251/3/1 252/4/1
f 253/1/1 254/2/1 255/3/1 256/4/1
f 257/1/1 258/2/1 259/3/1 260/4/1
f 261/1/1 262/2/1 263/3/1 264/4/1
f 265/1/1 266/2/1 267/3/1 268/4/1
f 269/1/1 270/2/1 271/3/1 272/4/1
f 273/1/1 274/2/1 275/3/1 276/4/1
f 277/1/1 278/2/1 279/3/1 280/4/1
f 281/1/1 282/2/1 283/3/1 284/4/1
f 285/1/1 286/2/1 287/3/1 288/4/1
f 289/1/1 290/2/1 291/3/1 292/4/1
f 293/1/1 294/2/1 295/3/1 296/4/1
f 297/1/1 298/2/1 299/3/1 300/4/1
f 301/1/1 302/2/1 303/3/1 304/4/1
f 305/1/1 306/2/1 307/3/1 308/4/1
f 309/1/1 310/2/1 311/3/1 312/4/1
f 313/1/1 314/2/1 315/3/1 316/4/1
f 317/1/1 318/2/1 319/3/1 320/4/1
f 321/1/1 322/2/1 323/3/1 324/4/1
f 325/1/1 326/2/1 327/3/1 328/4/1
f 329/1/1 330/2/1 331/3/1 332/4/1
f 333/1/1 334/2/1 335/3/1 336/4/1
f 337/1/1 338/2/1 339/3/1 340/4/1
f 341/1/1 342/2/1 343/3/1 344/4/1
f 345/1/1 346/2/1 347/3/1 348/4/1
f 349/1/1 350/2/1 351/3/1 352/4/1
f 353/1/1 354/2/1 355/3/1 356/4/1
f 357/1/1 358/2/1 359/3/1 360/4/1
f 361/1/1 362/2/1 363/3/1 364/4/1
f 365/1/1 366/2/1 367/3/1 368/4/1
f 369/1/1 370/2/1 371/3/1 372/4/1
f 373/1/1 374/2/1 375/3/1 376/4/1
f 377/1/1 378/2/1 379/3/1 380/4/1
f 381/1/1 382/2/1 383/3/1 384/4/1
f 385/1/1 386/2/1 387/3/1 388/4/1
f 389/1/1 390/2/1 391/3/1 392/4/1
f 393/1/1 394/2/1 395/3/1 396/4/1
f 397/13/1 398/10/1 399/2/1 400/1/1
f 401/13/1 402/10/1 403/2/1 404/1/1
f 405/13/1 406/10/1 407/2/1 408/1/1
f 409/13/1 410/10/1 411/2/1 412/1/1
f 413/13/1 414/10/1 415/2/1 416/1/1
f 417/13/1 418/10/1 419/2/1 420/1/1
f 421/1/1 422/2/1 423/3/1 424/4/1
f 425/13/1 426/10/1 427/2/1 428/1/1
f 429/13/1 430/10/1 431/2/1 432/1/1
f 433/13/1 434/10/1 435/2/1 436/1/1
f 437/13/1 438/10/1 439/2/1 440/1/1
f 441/13/1 442/10/1 443/2/1 444/1/1
f 445/13/1 446/10/1 447/2/1 448/1/1
f 449/1/1 450/2/1 451/3/1 452/4/1
f 453/13/1 454/10/1 455/2/1 456/1/1
f 457/13/1 458/10/1 459/2/1 460/1/1
f 461/13/1 462/10/1 463/2/1 464/1/1
f 465/13/1 466/10/1 467/2/1 468/1/1
f 469/13/1 470/10/1 471/2/1 472/1/1
f 473/13/1 474/10/1 475/2/1 476/1/1
f 477/1/1 478/2/1 479/3/1 480/4/1
f 481/1/1 482/2/1 483/3/1 484/4/1
f 485/1/1 486/2/1 487/3/1 488/4/1
f 489/1/1 490/2/1 491/3/1 492/4/1
f 493/1/1 494/2/1 495/3/1 496/4/1
f 497/1/1 498/2/1 499/3/1 500/4/1
f 501/1/1 502/2/1 503/3/1 504/4/1
f 505/1/1 506/2/1 507/3/1 508/4/1
f 509/1/1 510/2/1 511/3/1 512/4/1
f 513/13/1 514/10/1 515/2/1 516/1/1
f 517/13/1 518/10/1 519/2/1 520/1/1
f 521/13/1 522/10/1 523/2/1 524/1/1
f 525/13/1 526/10/1 527/2/1 528/1/1
f 529/13/1 530/10/1 531/2/1 532/1/1
f 533/13/1 534/10/1 535/2/1 536/1/1
f 537/1/1 538/2/1 539/3/1 540/4/1
f 541/13/1 542/10/1 543/2/1 544/1/1
f 545/13/1 546/10/1 547/2/1 548/1/1
f 549/13/1 550/10/1 551/2/1 552/1/1
f 553/13/1 554/10/1 555/2/1 556/1/1
f 557/13/1 558/10/1 559/2/1 560/1/1
f 561/13/1 562/10/1 563/2/1 564/1/1
f 565/1/1 566/2/1 567/3/1 568/4/1
f 569/13/1 570/10/1 571/2/1 572/1/1
f 573/13/1 574/10/1 575/2/1 576/1/1
f 577/13/1 578/10/1 579/2/1 580/1/1
f 581/13/1 582/10/1 583/2/1 584/1/1
f 585/13/1 586/10/1 587/2/1 588/1/1
f 589/13/1 590/10/1 591/2/1 592/1/1
f 593/1/1 594/2/1 595/3/1 596/4/1
f 597/1/1 598/2/1 599/3/1 600/4/1
f 601/1/1 602/2/1 603/3/1 604/4/1
f 605/1/1 606/2/1 607/3/1 608/4/1
f 609/1/1 610/2/1 611/3/1 612/4/1
f 613/1/1 614/2/1 615/3/1 616/4/1
f 617/1/1 618/2/1 619/3/1 620/4/1
f 621/1/1 622/2/1 623/3/1 624/4/1
f 625/1/1 626/2/1 627/3/1 628/4/1
f 629/1/1 630/2/1 631/3/1 632/4/1
f 633/1/1 634/2/1 635/3/1 636/4/1
f 637/1/1 638/2/1 639/3/1 640/4/1
f 641/1/1 642/2/1 643/3/1 644/4/1
f 645/1/1 646/2/1 647/3/1 648/4/1
f 649/1/1 650/2/1 651/3/1 652/4/1
f 653/1/1 654/2/1 655/3/1 656/4/1
f 657/1/1 658/2/1 659/3/1 660/4/1
f 661/1/1 662/2/1 663/3/1 664/4/1
f 665/1/1 666/2/1 667/3/1 668/4/1
f 669/1/1 670/2/1 671/3/1 672/4/1
f 673/1/1 674/2/1 675/3/1 676/4/1
f 677/1/1 678/2/1 679/3/1 680/4/1
f 681/1/1 682/2/1 683/3/1 684/4/1
f 685/1/1 686/2/1 687/3/1 688/4/1
f 689/1/1 690/2/1 691/3/1 692/4/1
f 693/1/1 694/2/1 695/3/1 696/4/1
f 697/1/1 698/2/1 699/3/1 700/4/1
f 701/1/1 702/2/1 703/3/1 704/4/1
f 705/1/1 706/2/1 707/3/1 708/4/1
f 709/1/1 710/2/1 711/3/1 712/4/1
f 713/1/1 714/2/1 715/3/1 716/4/1
f 717/1/1 718/2/1 719/3/1 720/4/1
f 721/1/1 722/2/1 723/3/1 724/4/1
f 725/1/1 726/2/1 727/3/1 728/4/1
f 729/1/1 730/2/1 731/3/1 732/4/1
f 733/1/1 734/2/1 735/3/1 736/4/1
f 737/1/1 738/2/1 739/3/1 740/4/1
f 741/1/1 742/2/1 743/3/1 744/4/1
f 745/1/1 746/2/1 747/3/1 748/4/1
f 749/1/1 750/2/1 751/3/1 752/4/1
f 753/1/1 754/2/1 755/3/1 756/4/1
f 757/1/1 758/2/1 759/3/1 760/4/1
f 761/1/1 762/2/1 763/3/1 764/4/1
f 765/1/1 766/2/1 767/3/1 768/4/1
f 769/1/1 770/2/1 771/3/1 772/4/1
f 773/1/1 774/2/1 775/3/1 776/4/1

