# Tiled2Unity generated file. Do not modify by hand.
# Wavefront file for '1_1_Module52_mesh_0003.obj'

# Vertices (Count = 40)
v -232 -96 0
v -240 -96 0
v -240 -88 0
v -232 -88 0
v -272 -96 0
v -280 -96 0
v -280 -88 0
v -272 -88 0
v -224 -104 0
v -232 -104 0
v -232 -96 0
v -224 -96 0
v -280 -104 0
v -288 -104 0
v -288 -96 0
v -280 -96 0
v -216 -112 0
v -224 -112 0
v -224 -104 0
v -216 -104 0
v -288 -112 0
v -296 -112 0
v -296 -104 0
v -288 -104 0
v -224 -168 0
v -232 -168 0
v -232 -160 0
v -224 -160 0
v -280 -168 0
v -288 -168 0
v -288 -160 0
v -280 -160 0
v -232 -176 0
v -240 -176 0
v -240 -168 0
v -232 -168 0
v -272 -176 0
v -280 -176 0
v -280 -168 0
v -272 -168 0

# Texture cooridinates (Count = 4)
vt 0 0
vt 1 0
vt 1 1
vt 0 1

# Normal
vn 0 0 -1

# Mesh description
g 1_1_Module52_mesh_0003

# Faces
f 1/1/1 2/2/1 3/3/1 4/4/1
f 5/1/1 6/2/1 7/3/1 8/4/1
f 9/1/1 10/2/1 11/3/1 12/4/1
f 13/1/1 14/2/1 15/3/1 16/4/1
f 17/1/1 18/2/1 19/3/1 20/4/1
f 21/1/1 22/2/1 23/3/1 24/4/1
f 25/1/1 26/2/1 27/3/1 28/4/1
f 29/1/1 30/2/1 31/3/1 32/4/1
f 33/1/1 34/2/1 35/3/1 36/4/1
f 37/1/1 38/2/1 39/3/1 40/4/1

