# Tiled2Unity generated file. Do not modify by hand.
# Wavefront file for '1_1_Module42_mesh_0001.obj'

# Vertices (Count = 840)
v -136 -16 0
v -144 -16 0
v -144 -8 0
v -136 -8 0
v -144 -16 0
v -152 -16 0
v -152 -8 0
v -144 -8 0
v -152 -16 0
v -160 -16 0
v -160 -8 0
v -152 -8 0
v -328 -16 0
v -336 -16 0
v -336 -8 0
v -328 -8 0
v -336 -16 0
v -344 -16 0
v -344 -8 0
v -336 -8 0
v -344 -16 0
v -352 -16 0
v -352 -8 0
v -344 -8 0
v -128 -24 0
v -136 -24 0
v -136 -16 0
v -128 -16 0
v -136 -24 0
v -144 -24 0
v -144 -16 0
v -136 -16 0
v -144 -24 0
v -152 -24 0
v -152 -16 0
v -144 -16 0
v -152 -24 0
v -160 -24 0
v -160 -16 0
v -152 -16 0
v -160 -24 0
v -168 -24 0
v -168 -16 0
v -160 -16 0
v -320 -24 0
v -328 -24 0
v -328 -16 0
v -320 -16 0
v -328 -24 0
v -336 -24 0
v -336 -16 0
v -328 -16 0
v -336 -24 0
v -344 -24 0
v -344 -16 0
v -336 -16 0
v -344 -24 0
v -352 -24 0
v -352 -16 0
v -344 -16 0
v -352 -24 0
v -360 -24 0
v -360 -16 0
v -352 -16 0
v -120 -32 0
v -128 -32 0
v -128 -24 0
v -120 -24 0
v -128 -32 0
v -136 -32 0
v -136 -24 0
v -128 -24 0
v -144 -32 0
v -152 -32 0
v -152 -24 0
v -144 -24 0
v -160 -32 0
v -168 -32 0
v -168 -24 0
v -160 -24 0
v -168 -32 0
v -176 -32 0
v -176 -24 0
v -168 -24 0
v -312 -32 0
v -320 -32 0
v -320 -24 0
v -312 -24 0
v -320 -32 0
v -328 -32 0
v -328 -24 0
v -320 -24 0
v -336 -32 0
v -344 -32 0
v -344 -24 0
v -336 -24 0
v -352 -32 0
v -360 -32 0
v -360 -24 0
v -352 -24 0
v -360 -32 0
v -368 -32 0
v -368 -24 0
v -360 -24 0
v -112 -40 0
v -120 -40 0
v -120 -32 0
v -112 -32 0
v -120 -40 0
v -128 -40 0
v -128 -32 0
v -120 -32 0
v -144 -40 0
v -152 -40 0
v -152 -32 0
v -144 -32 0
v -168 -40 0
v -176 -40 0
v -176 -32 0
v -168 -32 0
v -176 -40 0
v -184 -40 0
v -184 -32 0
v -176 -32 0
v -304 -40 0
v -312 -40 0
v -312 -32 0
v -304 -32 0
v -312 -40 0
v -320 -40 0
v -320 -32 0
v -312 -32 0
v -336 -40 0
v -344 -40 0
v -344 -32 0
v -336 -32 0
v -360 -40 0
v -368 -40 0
v -368 -32 0
v -360 -32 0
v -368 -40 0
v -376 -40 0
v -376 -32 0
v -368 -32 0
v -104 -48 0
v -112 -48 0
v -112 -40 0
v -104 -40 0
v -112 -48 0
v -120 -48 0
v -120 -40 0
v -112 -40 0
v -144 -48 0
v -152 -48 0
v -152 -40 0
v -144 -40 0
v -176 -48 0
v -184 -48 0
v -184 -40 0
v -176 -40 0
v -184 -48 0
v -192 -48 0
v -192 -40 0
v -184 -40 0
v -296 -48 0
v -304 -48 0
v -304 -40 0
v -296 -40 0
v -304 -48 0
v -312 -48 0
v -312 -40 0
v -304 -40 0
v -336 -48 0
v -344 -48 0
v -344 -40 0
v -336 -40 0
v -368 -48 0
v -376 -48 0
v -376 -40 0
v -368 -40 0
v -376 -48 0
v -384 -48 0
v -384 -40 0
v -376 -40 0
v -104 -56 0
v -112 -56 0
v -112 -48 0
v -104 -48 0
v -136 -56 0
v -144 -56 0
v -144 -48 0
v -136 -48 0
v -144 -56 0
v -152 -56 0
v -152 -48 0
v -144 -48 0
v -152 -56 0
v -160 -56 0
v -160 -48 0
v -152 -48 0
v -184 -56 0
v -192 -56 0
v -192 -48 0
v -184 -48 0
v -296 -56 0
v -304 -56 0
v -304 -48 0
v -296 -48 0
v -328 -56 0
v -336 -56 0
v -336 -48 0
v -328 -48 0
v -336 -56 0
v -344 -56 0
v -344 -48 0
v -336 -48 0
v -344 -56 0
v -352 -56 0
v -352 -48 0
v -344 -48 0
v -376 -56 0
v -384 -56 0
v -384 -48 0
v -376 -48 0
v -104 -64 0
v -112 -64 0
v -112 -56 0
v -104 -56 0
v -112 -64 0
v -120 -64 0
v -120 -56 0
v -112 -56 0
v -128 -64 0
v -136 -64 0
v -136 -56 0
v -128 -56 0
v -136 -64 0
v -144 -64 0
v -144 -56 0
v -136 -56 0
v -152 -64 0
v -160 -64 0
v -160 -56 0
v -152 -56 0
v -160 -64 0
v -168 -64 0
v -168 -56 0
v -160 -56 0
v -176 -64 0
v -184 -64 0
v -184 -56 0
v -176 -56 0
v -184 -64 0
v -192 -64 0
v -192 -56 0
v -184 -56 0
v -296 -64 0
v -304 -64 0
v -304 -56 0
v -296 -56 0
v -304 -64 0
v -312 -64 0
v -312 -56 0
v -304 -56 0
v -320 -64 0
v -328 -64 0
v -328 -56 0
v -320 -56 0
v -328 -64 0
v -336 -64 0
v -336 -56 0
v -328 -56 0
v -344 -64 0
v -352 -64 0
v -352 -56 0
v -344 -56 0
v -352 -64 0
v -360 -64 0
v -360 -56 0
v -352 -56 0
v -368 -64 0
v -376 -64 0
v -376 -56 0
v -368 -56 0
v -376 -64 0
v -384 -64 0
v -384 -56 0
v -376 -56 0
v -112 -72 0
v -120 -72 0
v -120 -64 0
v -112 -64 0
v -120 -72 0
v -128 -72 0
v -128 -64 0
v -120 -64 0
v -128 -72 0
v -136 -72 0
v -136 -64 0
v -128 -64 0
v -160 -72 0
v -168 -72 0
v -168 -64 0
v -160 -64 0
v -168 -72 0
v -176 -72 0
v -176 -64 0
v -168 -64 0
v -176 -72 0
v -184 -72 0
v -184 -64 0
v -176 -64 0
v -304 -72 0
v -312 -72 0
v -312 -64 0
v -304 -64 0
v -312 -72 0
v -320 -72 0
v -320 -64 0
v -312 -64 0
v -320 -72 0
v -328 -72 0
v -328 -64 0
v -320 -64 0
v -352 -72 0
v -360 -72 0
v -360 -64 0
v -352 -64 0
v -360 -72 0
v -368 -72 0
v -368 -64 0
v -360 -64 0
v -368 -72 0
v -376 -72 0
v -376 -64 0
v -368 -64 0
v -208 -160 0
v -216 -160 0
v -216 -152 0
v -208 -152 0
v -216 -160 0
v -224 -160 0
v -224 -152 0
v -216 -152 0
v -224 -160 0
v -232 -160 0
v -232 -152 0
v -224 -152 0
v -256 -160 0
v -264 -160 0
v -264 -152 0
v -256 -152 0
v -264 -160 0
v -272 -160 0
v -272 -152 0
v -264 -152 0
v -272 -160 0
v -280 -160 0
v -280 -152 0
v -272 -152 0
v -200 -168 0
v -208 -168 0
v -208 -160 0
v -200 -160 0
v -208 -168 0
v -216 -168 0
v -216 -160 0
v -208 -160 0
v -224 -168 0
v -232 -168 0
v -232 -160 0
v -224 -160 0
v -232 -168 0
v -240 -168 0
v -240 -160 0
v -232 -160 0
v -248 -168 0
v -256 -168 0
v -256 -160 0
v -248 -160 0
v -256 -168 0
v -264 -168 0
v -264 -160 0
v -256 -160 0
v -272 -168 0
v -280 -168 0
v -280 -160 0
v -272 -160 0
v -280 -168 0
v -288 -168 0
v -288 -160 0
v -280 -160 0
v -200 -176 0
v -208 -176 0
v -208 -168 0
v -200 -168 0
v -232 -176 0
v -240 -176 0
v -240 -168 0
v -232 -168 0
v -240 -176 0
v -248 -176 0
v -248 -168 0
v -240 -168 0
v -248 -176 0
v -256 -176 0
v -256 -168 0
v -248 -168 0
v -280 -176 0
v -288 -176 0
v -288 -168 0
v -280 -168 0
v -56 -184 0
v -64 -184 0
v -64 -176 0
v -56 -176 0
v -64 -184 0
v -72 -184 0
v -72 -176 0
v -64 -176 0
v -72 -184 0
v -80 -184 0
v -80 -176 0
v -72 -176 0
v -104 -184 0
v -112 -184 0
v -112 -176 0
v -104 -176 0
v -112 -184 0
v -120 -184 0
v -120 -176 0
v -112 -176 0
v -120 -184 0
v -128 -184 0
v -128 -176 0
v -120 -176 0
v -200 -184 0
v -208 -184 0
v -208 -176 0
v -200 -176 0
v -208 -184 0
v -216 -184 0
v -216 -176 0
v -208 -176 0
v -240 -184 0
v -248 -184 0
v -248 -176 0
v -240 -176 0
v -272 -184 0
v -280 -184 0
v -280 -176 0
v -272 -176 0
v -280 -184 0
v -288 -184 0
v -288 -176 0
v -280 -176 0
v -360 -184 0
v -368 -184 0
v -368 -176 0
v -360 -176 0
v -368 -184 0
v -376 -184 0
v -376 -176 0
v -368 -176 0
v -376 -184 0
v -384 -184 0
v -384 -176 0
v -376 -176 0
v -408 -184 0
v -416 -184 0
v -416 -176 0
v -408 -176 0
v -416 -184 0
v -424 -184 0
v -424 -176 0
v -416 -176 0
v -424 -184 0
v -432 -184 0
v -432 -176 0
v -424 -176 0
v -48 -192 0
v -56 -192 0
v -56 -184 0
v -48 -184 0
v -56 -192 0
v -64 -192 0
v -64 -184 0
v -56 -184 0
v -72 -192 0
v -80 -192 0
v -80 -184 0
v -72 -184 0
v -80 -192 0
v -88 -192 0
v -88 -184 0
v -80 -184 0
v -96 -192 0
v -104 -192 0
v -104 -184 0
v -96 -184 0
v -104 -192 0
v -112 -192 0
v -112 -184 0
v -104 -184 0
v -120 -192 0
v -128 -192 0
v -128 -184 0
v -120 -184 0
v -128 -192 0
v -136 -192 0
v -136 -184 0
v -128 -184 0
v -208 -192 0
v -216 -192 0
v -216 -184 0
v -208 -184 0
v -216 -192 0
v -224 -192 0
v -224 -184 0
v -216 -184 0
v -240 -192 0
v -248 -192 0
v -248 -184 0
v -240 -184 0
v -264 -192 0
v -272 -192 0
v -272 -184 0
v -264 -184 0
v -272 -192 0
v -280 -192 0
v -280 -184 0
v -272 -184 0
v -352 -192 0
v -360 -192 0
v -360 -184 0
v -352 -184 0
v -360 -192 0
v -368 -192 0
v -368 -184 0
v -360 -184 0
v -376 -192 0
v -384 -192 0
v -384 -184 0
v -376 -184 0
v -384 -192 0
v -392 -192 0
v -392 -184 0
v -384 -184 0
v -400 -192 0
v -408 -192 0
v -408 -184 0
v -400 -184 0
v -408 -192 0
v -416 -192 0
v -416 -184 0
v -408 -184 0
v -424 -192 0
v -432 -192 0
v -432 -184 0
v -424 -184 0
v -432 -192 0
v -440 -192 0
v -440 -184 0
v -432 -184 0
v -48 -200 0
v -56 -200 0
v -56 -192 0
v -48 -192 0
v -80 -200 0
v -88 -200 0
v -88 -192 0
v -80 -192 0
v -88 -200 0
v -96 -200 0
v -96 -192 0
v -88 -192 0
v -96 -200 0
v -104 -200 0
v -104 -192 0
v -96 -192 0
v -128 -200 0
v -136 -200 0
v -136 -192 0
v -128 -192 0
v -216 -200 0
v -224 -200 0
v -224 -192 0
v -216 -192 0
v -224 -200 0
v -232 -200 0
v -232 -192 0
v -224 -192 0
v -240 -200 0
v -248 -200 0
v -248 -192 0
v -240 -192 0
v -256 -200 0
v -264 -200 0
v -264 -192 0
v -256 -192 0
v -264 -200 0
v -272 -200 0
v -272 -192 0
v -264 -192 0
v -352 -200 0
v -360 -200 0
v -360 -192 0
v -352 -192 0
v -384 -200 0
v -392 -200 0
v -392 -192 0
v -384 -192 0
v -392 -200 0
v -400 -200 0
v -400 -192 0
v -392 -192 0
v -400 -200 0
v -408 -200 0
v -408 -192 0
v -400 -192 0
v -432 -200 0
v -440 -200 0
v -440 -192 0
v -432 -192 0
v -48 -208 0
v -56 -208 0
v -56 -200 0
v -48 -200 0
v -56 -208 0
v -64 -208 0
v -64 -200 0
v -56 -200 0
v -88 -208 0
v -96 -208 0
v -96 -200 0
v -88 -200 0
v -120 -208 0
v -128 -208 0
v -128 -200 0
v -120 -200 0
v -128 -208 0
v -136 -208 0
v -136 -200 0
v -128 -200 0
v -224 -208 0
v -232 -208 0
v -232 -200 0
v -224 -200 0
v -232 -208 0
v -240 -208 0
v -240 -200 0
v -232 -200 0
v -240 -208 0
v -248 -208 0
v -248 -200 0
v -240 -200 0
v -248 -208 0
v -256 -208 0
v -256 -200 0
v -248 -200 0
v -256 -208 0
v -264 -208 0
v -264 -200 0
v -256 -200 0
v -352 -208 0
v -360 -208 0
v -360 -200 0
v -352 -200 0
v -360 -208 0
v -368 -208 0
v -368 -200 0
v -360 -200 0
v -392 -208 0
v -400 -208 0
v -400 -200 0
v -392 -200 0
v -424 -208 0
v -432 -208 0
v -432 -200 0
v -424 -200 0
v -432 -208 0
v -440 -208 0
v -440 -200 0
v -432 -200 0
v -56 -216 0
v -64 -216 0
v -64 -208 0
v -56 -208 0
v -64 -216 0
v -72 -216 0
v -72 -208 0
v -64 -208 0
v -88 -216 0
v -96 -216 0
v -96 -208 0
v -88 -208 0
v -112 -216 0
v -120 -216 0
v -120 -208 0
v -112 -208 0
v -120 -216 0
v -128 -216 0
v -128 -208 0
v -120 -208 0
v -232 -216 0
v -240 -216 0
v -240 -208 0
v -232 -208 0
v -240 -216 0
v -248 -216 0
v -248 -208 0
v -240 -208 0
v -248 -216 0
v -256 -216 0
v -256 -208 0
v -248 -208 0
v -360 -216 0
v -368 -216 0
v -368 -208 0
v -360 -208 0
v -368 -216 0
v -376 -216 0
v -376 -208 0
v -368 -208 0
v -392 -216 0
v -400 -216 0
v -400 -208 0
v -392 -208 0
v -416 -216 0
v -424 -216 0
v -424 -208 0
v -416 -208 0
v -424 -216 0
v -432 -216 0
v -432 -208 0
v -424 -208 0
v -64 -224 0
v -72 -224 0
v -72 -216 0
v -64 -216 0
v -72 -224 0
v -80 -224 0
v -80 -216 0
v -72 -216 0
v -88 -224 0
v -96 -224 0
v -96 -216 0
v -88 -216 0
v -104 -224 0
v -112 -224 0
v -112 -216 0
v -104 -216 0
v -112 -224 0
v -120 -224 0
v -120 -216 0
v -112 -216 0
v -368 -224 0
v -376 -224 0
v -376 -216 0
v -368 -216 0
v -376 -224 0
v -384 -224 0
v -384 -216 0
v -376 -216 0
v -392 -224 0
v -400 -224 0
v -400 -216 0
v -392 -216 0
v -408 -224 0
v -416 -224 0
v -416 -216 0
v -408 -216 0
v -416 -224 0
v -424 -224 0
v -424 -216 0
v -416 -216 0
v -72 -232 0
v -80 -232 0
v -80 -224 0
v -72 -224 0
v -80 -232 0
v -88 -232 0
v -88 -224 0
v -80 -224 0
v -88 -232 0
v -96 -232 0
v -96 -224 0
v -88 -224 0
v -96 -232 0
v -104 -232 0
v -104 -224 0
v -96 -224 0
v -104 -232 0
v -112 -232 0
v -112 -224 0
v -104 -224 0
v -376 -232 0
v -384 -232 0
v -384 -224 0
v -376 -224 0
v -384 -232 0
v -392 -232 0
v -392 -224 0
v -384 -224 0
v -392 -232 0
v -400 -232 0
v -400 -224 0
v -392 -224 0
v -400 -232 0
v -408 -232 0
v -408 -224 0
v -400 -224 0
v -408 -232 0
v -416 -232 0
v -416 -224 0
v -408 -224 0
v -80 -240 0
v -88 -240 0
v -88 -232 0
v -80 -232 0
v -88 -240 0
v -96 -240 0
v -96 -232 0
v -88 -232 0
v -96 -240 0
v -104 -240 0
v -104 -232 0
v -96 -232 0
v -384 -240 0
v -392 -240 0
v -392 -232 0
v -384 -232 0
v -392 -240 0
v -400 -240 0
v -400 -232 0
v -392 -232 0
v -400 -240 0
v -408 -240 0
v -408 -232 0
v -400 -232 0

# Texture cooridinates (Count = 16)
vt 0 0.6666666
vt 0.3333333 0.6666666
vt 0.3333333 1
vt 0 1
vt 0.6666667 0.6666666
vt 0.6666667 1
vt 1 0.6666666
vt 1 1
vt 0.6666667 0
vt 1 0
vt 1 0.3333333
vt 0.6666667 0.3333333
vt 0 0
vt 0.3333333 0
vt 0.3333333 0.3333333
vt 0 0.3333333

# Normal
vn 0 0 -1

# Mesh description
g 1_1_Module42_mesh_0001

# Faces
f 1/1/1 2/2/1 3/3/1 4/4/1
f 5/2/1 6/5/1 7/6/1 8/3/1
f 9/5/1 10/7/1 11/8/1 12/6/1
f 13/1/1 14/2/1 15/3/1 16/4/1
f 17/2/1 18/5/1 19/6/1 20/3/1
f 21/5/1 22/7/1 23/8/1 24/6/1
f 25/1/1 26/2/1 27/3/1 28/4/1
f 29/9/1 30/10/1 31/11/1 32/12/1
f 33/2/1 34/5/1 35/6/1 36/3/1
f 37/13/1 38/14/1 39/15/1 40/16/1
f 41/5/1 42/7/1 43/8/1 44/6/1
f 45/1/1 46/2/1 47/3/1 48/4/1
f 49/9/1 50/10/1 51/11/1 52/12/1
f 53/2/1 54/5/1 55/6/1 56/3/1
f 57/13/1 58/14/1 59/15/1 60/16/1
f 61/5/1 62/7/1 63/8/1 64/6/1
f 65/1/1 66/2/1 67/3/1 68/4/1
f 69/9/1 70/10/1 71/11/1 72/12/1
f 73/2/1 74/5/1 75/6/1 76/3/1
f 77/13/1 78/14/1 79/15/1 80/16/1
f 81/5/1 82/7/1 83/8/1 84/6/1
f 85/1/1 86/2/1 87/3/1 88/4/1
f 89/9/1 90/10/1 91/11/1 92/12/1
f 93/2/1 94/5/1 95/6/1 96/3/1
f 97/13/1 98/14/1 99/15/1 100/16/1
f 101/5/1 102/7/1 103/8/1 104/6/1
f 105/1/1 106/2/1 107/3/1 108/4/1
f 109/9/1 110/10/1 111/11/1 112/12/1
f 113/2/1 114/5/1 115/6/1 116/3/1
f 117/13/1 118/14/1 119/15/1 120/16/1
f 121/5/1 122/7/1 123/8/1 124/6/1
f 125/1/1 126/2/1 127/3/1 128/4/1
f 129/9/1 130/10/1 131/11/1 132/12/1
f 133/2/1 134/5/1 135/6/1 136/3/1
f 137/13/1 138/14/1 139/15/1 140/16/1
f 141/5/1 142/7/1 143/8/1 144/6/1
f 145/1/1 146/2/1 147/3/1 148/4/1
f 149/9/1 150/10/1 151/11/1 152/12/1
f 153/2/1 154/5/1 155/6/1 156/3/1
f 157/13/1 158/14/1 159/15/1 160/16/1
f 161/5/1 162/7/1 163/8/1 164/6/1
f 165/1/1 166/2/1 167/3/1 168/4/1
f 169/9/1 170/10/1 171/11/1 172/12/1
f 173/2/1 174/5/1 175/6/1 176/3/1
f 177/13/1 178/14/1 179/15/1 180/16/1
f 181/5/1 182/7/1 183/8/1 184/6/1
f 185/2/1 186/5/1 187/6/1 188/3/1
f 189/1/1 190/2/1 191/3/1 192/4/1
f 193/2/1 194/5/1 195/6/1 196/3/1
f 197/5/1 198/7/1 199/8/1 200/6/1
f 201/2/1 202/5/1 203/6/1 204/3/1
f 205/2/1 206/5/1 207/6/1 208/3/1
f 209/1/1 210/2/1 211/3/1 212/4/1
f 213/2/1 214/5/1 215/6/1 216/3/1
f 217/5/1 218/7/1 219/8/1 220/6/1
f 221/2/1 222/5/1 223/6/1 224/3/1
f 225/13/1 226/14/1 227/15/1 228/16/1
f 229/5/1 230/7/1 231/8/1 232/6/1
f 233/1/1 234/2/1 235/3/1 236/4/1
f 237/9/1 238/10/1 239/11/1 240/12/1
f 241/13/1 242/14/1 243/15/1 244/16/1
f 245/5/1 246/7/1 247/8/1 248/6/1
f 249/1/1 250/2/1 251/3/1 252/4/1
f 253/9/1 254/10/1 255/11/1 256/12/1
f 257/13/1 258/14/1 259/15/1 260/16/1
f 261/5/1 262/7/1 263/8/1 264/6/1
f 265/1/1 266/2/1 267/3/1 268/4/1
f 269/9/1 270/10/1 271/11/1 272/12/1
f 273/13/1 274/14/1 275/15/1 276/16/1
f 277/5/1 278/7/1 279/8/1 280/6/1
f 281/1/1 282/2/1 283/3/1 284/4/1
f 285/9/1 286/10/1 287/11/1 288/12/1
f 289/13/1 290/14/1 291/15/1 292/16/1
f 293/2/1 294/5/1 295/6/1 296/3/1
f 297/9/1 298/10/1 299/11/1 300/12/1
f 301/13/1 302/14/1 303/15/1 304/16/1
f 305/2/1 306/5/1 307/6/1 308/3/1
f 309/9/1 310/10/1 311/11/1 312/12/1
f 313/13/1 314/14/1 315/15/1 316/16/1
f 317/2/1 318/5/1 319/6/1 320/3/1
f 321/9/1 322/10/1 323/11/1 324/12/1
f 325/13/1 326/14/1 327/15/1 328/16/1
f 329/2/1 330/5/1 331/6/1 332/3/1
f 333/9/1 334/10/1 335/11/1 336/12/1
f 337/1/1 338/2/1 339/3/1 340/4/1
f 341/2/1 342/5/1 343/6/1 344/3/1
f 345/5/1 346/7/1 347/8/1 348/6/1
f 349/1/1 350/2/1 351/3/1 352/4/1
f 353/2/1 354/5/1 355/6/1 356/3/1
f 357/5/1 358/7/1 359/8/1 360/6/1
f 361/1/1 362/2/1 363/3/1 364/4/1
f 365/9/1 366/10/1 367/11/1 368/12/1
f 369/13/1 370/14/1 371/15/1 372/16/1
f 373/5/1 374/7/1 375/8/1 376/6/1
f 377/1/1 378/2/1 379/3/1 380/4/1
f 381/9/1 382/10/1 383/11/1 384/12/1
f 385/13/1 386/14/1 387/15/1 388/16/1
f 389/5/1 390/7/1 391/8/1 392/6/1
f 393/2/1 394/5/1 395/6/1 396/3/1
f 397/13/1 398/14/1 399/15/1 400/16/1
f 401/2/1 402/5/1 403/6/1 404/3/1
f 405/9/1 406/10/1 407/11/1 408/12/1
f 409/2/1 410/5/1 411/6/1 412/3/1
f 413/1/1 414/2/1 415/3/1 416/4/1
f 417/2/1 418/5/1 419/6/1 420/3/1
f 421/5/1 422/7/1 423/8/1 424/6/1
f 425/1/1 426/2/1 427/3/1 428/4/1
f 429/2/1 430/5/1 431/6/1 432/3/1
f 433/5/1 434/7/1 435/8/1 436/6/1
f 437/13/1 438/14/1 439/15/1 440/16/1
f 441/5/1 442/7/1 443/8/1 444/6/1
f 445/2/1 446/5/1 447/6/1 448/3/1
f 449/1/1 450/2/1 451/3/1 452/4/1
f 453/9/1 454/10/1 455/11/1 456/12/1
f 457/1/1 458/2/1 459/3/1 460/4/1
f 461/2/1 462/5/1 463/6/1 464/3/1
f 465/5/1 466/7/1 467/8/1 468/6/1
f 469/1/1 470/2/1 471/3/1 472/4/1
f 473/2/1 474/5/1 475/6/1 476/3/1
f 477/5/1 478/7/1 479/8/1 480/6/1
f 481/1/1 482/2/1 483/3/1 484/4/1
f 485/9/1 486/10/1 487/11/1 488/12/1
f 489/13/1 490/14/1 491/15/1 492/16/1
f 493/5/1 494/7/1 495/8/1 496/6/1
f 497/1/1 498/2/1 499/3/1 500/4/1
f 501/9/1 502/10/1 503/11/1 504/12/1
f 505/13/1 506/14/1 507/15/1 508/16/1
f 509/5/1 510/7/1 511/8/1 512/6/1
f 513/13/1 514/14/1 515/15/1 516/16/1
f 517/5/1 518/7/1 519/8/1 520/6/1
f 521/2/1 522/5/1 523/6/1 524/3/1
f 525/1/1 526/2/1 527/3/1 528/4/1
f 529/9/1 530/10/1 531/11/1 532/12/1
f 533/1/1 534/2/1 535/3/1 536/4/1
f 537/9/1 538/10/1 539/11/1 540/12/1
f 541/13/1 542/14/1 543/15/1 544/16/1
f 545/5/1 546/7/1 547/8/1 548/6/1
f 549/1/1 550/2/1 551/3/1 552/4/1
f 553/9/1 554/10/1 555/11/1 556/12/1
f 557/13/1 558/14/1 559/15/1 560/16/1
f 561/5/1 562/7/1 563/8/1 564/6/1
f 565/2/1 566/5/1 567/6/1 568/3/1
f 569/13/1 570/14/1 571/15/1 572/16/1
f 573/2/1 574/5/1 575/6/1 576/3/1
f 577/9/1 578/10/1 579/11/1 580/12/1
f 581/2/1 582/5/1 583/6/1 584/3/1
f 585/13/1 586/14/1 587/15/1 588/16/1
f 589/5/1 590/7/1 591/8/1 592/6/1
f 593/2/1 594/5/1 595/6/1 596/3/1
f 597/1/1 598/2/1 599/3/1 600/4/1
f 601/9/1 602/10/1 603/11/1 604/12/1
f 605/2/1 606/5/1 607/6/1 608/3/1
f 609/13/1 610/14/1 611/15/1 612/16/1
f 613/2/1 614/5/1 615/6/1 616/3/1
f 617/9/1 618/10/1 619/11/1 620/12/1
f 621/2/1 622/5/1 623/6/1 624/3/1
f 625/13/1 626/14/1 627/15/1 628/16/1
f 629/5/1 630/7/1 631/8/1 632/6/1
f 633/2/1 634/5/1 635/6/1 636/3/1
f 637/1/1 638/2/1 639/3/1 640/4/1
f 641/9/1 642/10/1 643/11/1 644/12/1
f 645/13/1 646/14/1 647/15/1 648/16/1
f 649/5/1 650/7/1 651/8/1 652/6/1
f 653/2/1 654/5/1 655/6/1 656/3/1
f 657/1/1 658/2/1 659/3/1 660/4/1
f 661/9/1 662/10/1 663/11/1 664/12/1
f 665/13/1 666/14/1 667/15/1 668/16/1
f 669/5/1 670/7/1 671/8/1 672/6/1
f 673/2/1 674/5/1 675/6/1 676/3/1
f 677/1/1 678/2/1 679/3/1 680/4/1
f 681/9/1 682/10/1 683/11/1 684/12/1
f 685/13/1 686/14/1 687/15/1 688/16/1
f 689/5/1 690/7/1 691/8/1 692/6/1
f 693/2/1 694/5/1 695/6/1 696/3/1
f 697/1/1 698/2/1 699/3/1 700/4/1
f 701/9/1 702/10/1 703/11/1 704/12/1
f 705/13/1 706/14/1 707/15/1 708/16/1
f 709/2/1 710/5/1 711/6/1 712/3/1
f 713/9/1 714/10/1 715/11/1 716/12/1
f 717/13/1 718/14/1 719/15/1 720/16/1
f 721/5/1 722/7/1 723/8/1 724/6/1
f 725/2/1 726/5/1 727/6/1 728/3/1
f 729/1/1 730/2/1 731/3/1 732/4/1
f 733/9/1 734/10/1 735/11/1 736/12/1
f 737/13/1 738/14/1 739/15/1 740/16/1
f 741/5/1 742/7/1 743/8/1 744/6/1
f 745/2/1 746/5/1 747/6/1 748/3/1
f 749/1/1 750/2/1 751/3/1 752/4/1
f 753/9/1 754/10/1 755/11/1 756/12/1
f 757/13/1 758/14/1 759/15/1 760/16/1
f 761/5/1 762/7/1 763/8/1 764/6/1
f 765/2/1 766/5/1 767/6/1 768/3/1
f 769/1/1 770/2/1 771/3/1 772/4/1
f 773/9/1 774/10/1 775/11/1 776/12/1
f 777/13/1 778/14/1 779/15/1 780/16/1
f 781/5/1 782/7/1 783/8/1 784/6/1
f 785/2/1 786/5/1 787/6/1 788/3/1
f 789/1/1 790/2/1 791/3/1 792/4/1
f 793/9/1 794/10/1 795/11/1 796/12/1
f 797/13/1 798/14/1 799/15/1 800/16/1
f 801/5/1 802/7/1 803/8/1 804/6/1
f 805/2/1 806/5/1 807/6/1 808/3/1
f 809/1/1 810/2/1 811/3/1 812/4/1
f 813/9/1 814/10/1 815/11/1 816/12/1
f 817/13/1 818/14/1 819/15/1 820/16/1
f 821/2/1 822/5/1 823/6/1 824/3/1
f 825/9/1 826/10/1 827/11/1 828/12/1
f 829/13/1 830/14/1 831/15/1 832/16/1
f 833/2/1 834/5/1 835/6/1 836/3/1
f 837/9/1 838/10/1 839/11/1 840/12/1

