# Tiled2Unity generated file. Do not modify by hand.
# Wavefront file for '1_1_Experimental1_mesh_0001.obj'

# Vertices (Count = 564)
v 0 -8 0
v -8 -8 0
v -8 0 0
v 0 0 0
v -8 -8 0
v -16 -8 0
v -16 0 0
v -8 0 0
v -16 -8 0
v -24 -8 0
v -24 0 0
v -16 0 0
v -24 -8 0
v -32 -8 0
v -32 0 0
v -24 0 0
v -32 -8 0
v -40 -8 0
v -40 0 0
v -32 0 0
v -40 -8 0
v -48 -8 0
v -48 0 0
v -40 0 0
v -48 -8 0
v -56 -8 0
v -56 0 0
v -48 0 0
v -56 -8 0
v -64 -8 0
v -64 0 0
v -56 0 0
v -64 -8 0
v -72 -8 0
v -72 0 0
v -64 0 0
v -72 -8 0
v -80 -8 0
v -80 0 0
v -72 0 0
v -80 -8 0
v -88 -8 0
v -88 0 0
v -80 0 0
v -88 -8 0
v -96 -8 0
v -96 0 0
v -88 0 0
v -96 -8 0
v -104 -8 0
v -104 0 0
v -96 0 0
v -104 -8 0
v -112 -8 0
v -112 0 0
v -104 0 0
v -112 -8 0
v -120 -8 0
v -120 0 0
v -112 0 0
v -120 -8 0
v -128 -8 0
v -128 0 0
v -120 0 0
v -128 -8 0
v -136 -8 0
v -136 0 0
v -128 0 0
v -136 -8 0
v -144 -8 0
v -144 0 0
v -136 0 0
v -144 -8 0
v -152 -8 0
v -152 0 0
v -144 0 0
v -152 -8 0
v -160 -8 0
v -160 0 0
v -152 0 0
v -160 -8 0
v -168 -8 0
v -168 0 0
v -160 0 0
v -168 -8 0
v -176 -8 0
v -176 0 0
v -168 0 0
v -176 -8 0
v -184 -8 0
v -184 0 0
v -176 0 0
v -184 -8 0
v -192 -8 0
v -192 0 0
v -184 0 0
v -192 -8 0
v -200 -8 0
v -200 0 0
v -192 0 0
v -200 -8 0
v -208 -8 0
v -208 0 0
v -200 0 0
v -208 -8 0
v -216 -8 0
v -216 0 0
v -208 0 0
v -216 -8 0
v -224 -8 0
v -224 0 0
v -216 0 0
v -224 -8 0
v -232 -8 0
v -232 0 0
v -224 0 0
v -232 -8 0
v -240 -8 0
v -240 0 0
v -232 0 0
v -240 -8 0
v -248 -8 0
v -248 0 0
v -240 0 0
v -248 -8 0
v -256 -8 0
v -256 0 0
v -248 0 0
v -256 -8 0
v -264 -8 0
v -264 0 0
v -256 0 0
v -264 -8 0
v -272 -8 0
v -272 0 0
v -264 0 0
v -272 -8 0
v -280 -8 0
v -280 0 0
v -272 0 0
v -280 -8 0
v -288 -8 0
v -288 0 0
v -280 0 0
v -288 -8 0
v -296 -8 0
v -296 0 0
v -288 0 0
v -296 -8 0
v -304 -8 0
v -304 0 0
v -296 0 0
v -304 -8 0
v -312 -8 0
v -312 0 0
v -304 0 0
v -312 -8 0
v -320 -8 0
v -320 0 0
v -312 0 0
v -320 -8 0
v -328 -8 0
v -328 0 0
v -320 0 0
v -328 -8 0
v -336 -8 0
v -336 0 0
v -328 0 0
v -336 -8 0
v -344 -8 0
v -344 0 0
v -336 0 0
v -344 -8 0
v -352 -8 0
v -352 0 0
v -344 0 0
v -352 -8 0
v -360 -8 0
v -360 0 0
v -352 0 0
v -360 -8 0
v -368 -8 0
v -368 0 0
v -360 0 0
v -368 -8 0
v -376 -8 0
v -376 0 0
v -368 0 0
v -376 -8 0
v -384 -8 0
v -384 0 0
v -376 0 0
v -384 -8 0
v -392 -8 0
v -392 0 0
v -384 0 0
v -392 -8 0
v -400 -8 0
v -400 0 0
v -392 0 0
v -400 -8 0
v -408 -8 0
v -408 0 0
v -400 0 0
v -408 -8 0
v -416 -8 0
v -416 0 0
v -408 0 0
v -416 -8 0
v -424 -8 0
v -424 0 0
v -416 0 0
v -424 -8 0
v -432 -8 0
v -432 0 0
v -424 0 0
v -432 -8 0
v -440 -8 0
v -440 0 0
v -432 0 0
v -440 -8 0
v -448 -8 0
v -448 0 0
v -440 0 0
v -448 -8 0
v -456 -8 0
v -456 0 0
v -448 0 0
v -456 -8 0
v -464 -8 0
v -464 0 0
v -456 0 0
v -464 -8 0
v -472 -8 0
v -472 0 0
v -464 0 0
v -472 -8 0
v -480 -8 0
v -480 0 0
v -472 0 0
v -480 -8 0
v -488 -8 0
v -488 0 0
v -480 0 0
v -80 -16 0
v -88 -16 0
v -88 -8 0
v -80 -8 0
v -144 -16 0
v -152 -16 0
v -152 -8 0
v -144 -8 0
v -192 -16 0
v -200 -16 0
v -200 -8 0
v -192 -8 0
v -240 -16 0
v -248 -16 0
v -248 -8 0
v -240 -8 0
v -248 -16 0
v -256 -16 0
v -256 -8 0
v -248 -8 0
v -280 -16 0
v -288 -16 0
v -288 -8 0
v -280 -8 0
v -400 -16 0
v -408 -16 0
v -408 -8 0
v -400 -8 0
v -480 -16 0
v -488 -16 0
v -488 -8 0
v -480 -8 0
v -80 -24 0
v -88 -24 0
v -88 -16 0
v -80 -16 0
v -144 -24 0
v -152 -24 0
v -152 -16 0
v -144 -16 0
v -192 -24 0
v -200 -24 0
v -200 -16 0
v -192 -16 0
v -240 -24 0
v -248 -24 0
v -248 -16 0
v -240 -16 0
v -400 -24 0
v -408 -24 0
v -408 -16 0
v -400 -16 0
v -480 -24 0
v -488 -24 0
v -488 -16 0
v -480 -16 0
v -80 -32 0
v -88 -32 0
v -88 -24 0
v -80 -24 0
v -144 -32 0
v -152 -32 0
v -152 -24 0
v -144 -24 0
v -152 -32 0
v -160 -32 0
v -160 -24 0
v -152 -24 0
v -192 -32 0
v -200 -32 0
v -200 -24 0
v -192 -24 0
v -240 -32 0
v -248 -32 0
v -248 -24 0
v -240 -24 0
v -400 -32 0
v -408 -32 0
v -408 -24 0
v -400 -24 0
v -480 -32 0
v -488 -32 0
v -488 -24 0
v -480 -24 0
v -80 -40 0
v -88 -40 0
v -88 -32 0
v -80 -32 0
v -136 -40 0
v -144 -40 0
v -144 -32 0
v -136 -32 0
v -144 -40 0
v -152 -40 0
v -152 -32 0
v -144 -32 0
v -240 -40 0
v -248 -40 0
v -248 -32 0
v -240 -32 0
v -400 -40 0
v -408 -40 0
v -408 -32 0
v -400 -32 0
v -480 -40 0
v -488 -40 0
v -488 -32 0
v -480 -32 0
v -80 -48 0
v -88 -48 0
v -88 -40 0
v -80 -40 0
v -144 -48 0
v -152 -48 0
v -152 -40 0
v -144 -40 0
v -240 -48 0
v -248 -48 0
v -248 -40 0
v -240 -40 0
v -400 -48 0
v -408 -48 0
v -408 -40 0
v -400 -40 0
v -80 -56 0
v -88 -56 0
v -88 -48 0
v -80 -48 0
v -144 -56 0
v -152 -56 0
v -152 -48 0
v -144 -48 0
v -240 -56 0
v -248 -56 0
v -248 -48 0
v -240 -48 0
v -80 -64 0
v -88 -64 0
v -88 -56 0
v -80 -56 0
v -240 -64 0
v -248 -64 0
v -248 -56 0
v -240 -56 0
v -80 -72 0
v -88 -72 0
v -88 -64 0
v -80 -64 0
v -80 -80 0
v -88 -80 0
v -88 -72 0
v -80 -72 0
v -288 -80 0
v -296 -80 0
v -296 -72 0
v -288 -72 0
v -296 -80 0
v -304 -80 0
v -304 -72 0
v -296 -72 0
v -304 -80 0
v -312 -80 0
v -312 -72 0
v -304 -72 0
v -312 -80 0
v -320 -80 0
v -320 -72 0
v -312 -72 0
v -320 -80 0
v -328 -80 0
v -328 -72 0
v -320 -72 0
v -328 -80 0
v -336 -80 0
v -336 -72 0
v -328 -72 0
v -336 -80 0
v -344 -80 0
v -344 -72 0
v -336 -72 0
v -288 -88 0
v -296 -88 0
v -296 -80 0
v -288 -80 0
v -296 -88 0
v -304 -88 0
v -304 -80 0
v -296 -80 0
v -304 -88 0
v -312 -88 0
v -312 -80 0
v -304 -80 0
v -312 -88 0
v -320 -88 0
v -320 -80 0
v -312 -80 0
v -320 -88 0
v -328 -88 0
v -328 -80 0
v -320 -80 0
v -328 -88 0
v -336 -88 0
v -336 -80 0
v -328 -80 0
v -336 -88 0
v -344 -88 0
v -344 -80 0
v -336 -80 0
v -128 -96 0
v -136 -96 0
v -136 -88 0
v -128 -88 0
v -136 -96 0
v -144 -96 0
v -144 -88 0
v -136 -88 0
v -144 -96 0
v -152 -96 0
v -152 -88 0
v -144 -88 0
v -152 -96 0
v -160 -96 0
v -160 -88 0
v -152 -88 0
v -160 -96 0
v -168 -96 0
v -168 -88 0
v -160 -88 0
v -168 -96 0
v -176 -96 0
v -176 -88 0
v -168 -88 0
v -176 -96 0
v -184 -96 0
v -184 -88 0
v -176 -88 0
v -288 -96 0
v -296 -96 0
v -296 -88 0
v -288 -88 0
v -296 -96 0
v -304 -96 0
v -304 -88 0
v -296 -88 0
v -304 -96 0
v -312 -96 0
v -312 -88 0
v -304 -88 0
v -312 -96 0
v -320 -96 0
v -320 -88 0
v -312 -88 0
v -320 -96 0
v -328 -96 0
v -328 -88 0
v -320 -88 0
v -328 -96 0
v -336 -96 0
v -336 -88 0
v -328 -88 0
v -336 -96 0
v -344 -96 0
v -344 -88 0
v -336 -88 0
v -128 -104 0
v -136 -104 0
v -136 -96 0
v -128 -96 0
v -136 -104 0
v -144 -104 0
v -144 -96 0
v -136 -96 0
v -144 -104 0
v -152 -104 0
v -152 -96 0
v -144 -96 0
v -152 -104 0
v -160 -104 0
v -160 -96 0
v -152 -96 0
v -160 -104 0
v -168 -104 0
v -168 -96 0
v -160 -96 0
v -168 -104 0
v -176 -104 0
v -176 -96 0
v -168 -96 0
v -176 -104 0
v -184 -104 0
v -184 -96 0
v -176 -96 0
v -128 -112 0
v -136 -112 0
v -136 -104 0
v -128 -104 0
v -136 -112 0
v -144 -112 0
v -144 -104 0
v -136 -104 0
v -144 -112 0
v -152 -112 0
v -152 -104 0
v -144 -104 0
v -152 -112 0
v -160 -112 0
v -160 -104 0
v -152 -104 0
v -160 -112 0
v -168 -112 0
v -168 -104 0
v -160 -104 0
v -168 -112 0
v -176 -112 0
v -176 -104 0
v -168 -104 0
v -176 -112 0
v -184 -112 0
v -184 -104 0
v -176 -104 0

# Texture cooridinates (Count = 12)
vt 0.3333333 0.6666666
vt 0.6666667 0.6666666
vt 0.6666667 1
vt 0.3333333 1
vt 0.3333333 0.3333333
vt 0.6666667 0.3333333
vt 0 0
vt 0.3333333 0
vt 0 0.3333333
vt 0.6666667 0
vt 1 0
vt 1 0.3333333

# Normal
vn 0 0 -1

# Mesh description
g 1_1_Experimental1_mesh_0001

# Faces
f 1/1/1 2/2/1 3/3/1 4/4/1
f 5/1/1 6/2/1 7/3/1 8/4/1
f 9/1/1 10/2/1 11/3/1 12/4/1
f 13/1/1 14/2/1 15/3/1 16/4/1
f 17/1/1 18/2/1 19/3/1 20/4/1
f 21/1/1 22/2/1 23/3/1 24/4/1
f 25/1/1 26/2/1 27/3/1 28/4/1
f 29/1/1 30/2/1 31/3/1 32/4/1
f 33/1/1 34/2/1 35/3/1 36/4/1
f 37/1/1 38/2/1 39/3/1 40/4/1
f 41/1/1 42/2/1 43/3/1 44/4/1
f 45/1/1 46/2/1 47/3/1 48/4/1
f 49/1/1 50/2/1 51/3/1 52/4/1
f 53/1/1 54/2/1 55/3/1 56/4/1
f 57/1/1 58/2/1 59/3/1 60/4/1
f 61/1/1 62/2/1 63/3/1 64/4/1
f 65/1/1 66/2/1 67/3/1 68/4/1
f 69/1/1 70/2/1 71/3/1 72/4/1
f 73/1/1 74/2/1 75/3/1 76/4/1
f 77/1/1 78/2/1 79/3/1 80/4/1
f 81/1/1 82/2/1 83/3/1 84/4/1
f 85/1/1 86/2/1 87/3/1 88/4/1
f 89/1/1 90/2/1 91/3/1 92/4/1
f 93/1/1 94/2/1 95/3/1 96/4/1
f 97/1/1 98/2/1 99/3/1 100/4/1
f 101/1/1 102/2/1 103/3/1 104/4/1
f 105/1/1 106/2/1 107/3/1 108/4/1
f 109/1/1 110/2/1 111/3/1 112/4/1
f 113/1/1 114/2/1 115/3/1 116/4/1
f 117/1/1 118/2/1 119/3/1 120/4/1
f 121/1/1 122/2/1 123/3/1 124/4/1
f 125/1/1 126/2/1 127/3/1 128/4/1
f 129/1/1 130/2/1 131/3/1 132/4/1
f 133/1/1 134/2/1 135/3/1 136/4/1
f 137/1/1 138/2/1 139/3/1 140/4/1
f 141/1/1 142/2/1 143/3/1 144/4/1
f 145/1/1 146/2/1 147/3/1 148/4/1
f 149/1/1 150/2/1 151/3/1 152/4/1
f 153/1/1 154/2/1 155/3/1 156/4/1
f 157/1/1 158/2/1 159/3/1 160/4/1
f 161/1/1 162/2/1 163/3/1 164/4/1
f 165/1/1 166/2/1 167/3/1 168/4/1
f 169/1/1 170/2/1 171/3/1 172/4/1
f 173/1/1 174/2/1 175/3/1 176/4/1
f 177/1/1 178/2/1 179/3/1 180/4/1
f 181/1/1 182/2/1 183/3/1 184/4/1
f 185/1/1 186/2/1 187/3/1 188/4/1
f 189/1/1 190/2/1 191/3/1 192/4/1
f 193/1/1 194/2/1 195/3/1 196/4/1
f 197/1/1 198/2/1 199/3/1 200/4/1
f 201/1/1 202/2/1 203/3/1 204/4/1
f 205/1/1 206/2/1 207/3/1 208/4/1
f 209/1/1 210/2/1 211/3/1 212/4/1
f 213/1/1 214/2/1 215/3/1 216/4/1
f 217/1/1 218/2/1 219/3/1 220/4/1
f 221/1/1 222/2/1 223/3/1 224/4/1
f 225/1/1 226/2/1 227/3/1 228/4/1
f 229/1/1 230/2/1 231/3/1 232/4/1
f 233/1/1 234/2/1 235/3/1 236/4/1
f 237/1/1 238/2/1 239/3/1 240/4/1
f 241/1/1 242/2/1 243/3/1 244/4/1
f 245/1/1 246/2/1 247/3/1 248/4/1
f 249/5/1 250/6/1 251/2/1 252/1/1
f 253/5/1 254/6/1 255/2/1 256/1/1
f 257/1/1 258/2/1 259/3/1 260/4/1
f 261/5/1 262/6/1 263/2/1 264/1/1
f 265/5/1 266/6/1 267/2/1 268/1/1
f 269/1/1 270/2/1 271/3/1 272/4/1
f 273/5/1 274/6/1 275/2/1 276/1/1
f 277/1/1 278/2/1 279/3/1 280/4/1
f 281/5/1 282/6/1 283/2/1 284/1/1
f 285/5/1 286/6/1 287/2/1 288/1/1
f 289/1/1 290/2/1 291/3/1 292/4/1
f 293/1/1 294/2/1 295/3/1 296/4/1
f 297/5/1 298/6/1 299/2/1 300/1/1
f 301/1/1 302/2/1 303/3/1 304/4/1
f 305/5/1 306/6/1 307/2/1 308/1/1
f 309/5/1 310/6/1 311/2/1 312/1/1
f 313/5/1 314/6/1 315/2/1 316/1/1
f 317/1/1 318/2/1 319/3/1 320/4/1
f 321/1/1 322/2/1 323/3/1 324/4/1
f 325/5/1 326/6/1 327/2/1 328/1/1
f 329/1/1 330/2/1 331/3/1 332/4/1
f 333/5/1 334/6/1 335/2/1 336/1/1
f 337/5/1 338/6/1 339/2/1 340/1/1
f 341/1/1 342/2/1 343/3/1 344/4/1
f 345/1/1 346/2/1 347/3/1 348/4/1
f 349/5/1 350/6/1 351/2/1 352/1/1
f 353/1/1 354/2/1 355/3/1 356/4/1
f 357/5/1 358/6/1 359/2/1 360/1/1
f 361/1/1 362/2/1 363/3/1 364/4/1
f 365/7/1 366/8/1 367/5/1 368/9/1
f 369/1/1 370/2/1 371/3/1 372/4/1
f 373/5/1 374/6/1 375/2/1 376/1/1
f 377/1/1 378/2/1 379/3/1 380/4/1
f 381/1/1 382/2/1 383/3/1 384/4/1
f 385/7/1 386/8/1 387/5/1 388/9/1
f 389/1/1 390/2/1 391/3/1 392/4/1
f 393/7/1 394/8/1 395/5/1 396/9/1
f 397/1/1 398/2/1 399/3/1 400/4/1
f 401/1/1 402/2/1 403/3/1 404/4/1
f 405/1/1 406/2/1 407/3/1 408/4/1
f 409/1/1 410/2/1 411/3/1 412/4/1
f 413/1/1 414/2/1 415/3/1 416/4/1
f 417/1/1 418/2/1 419/3/1 420/4/1
f 421/1/1 422/2/1 423/3/1 424/4/1
f 425/1/1 426/2/1 427/3/1 428/4/1
f 429/1/1 430/2/1 431/3/1 432/4/1
f 433/1/1 434/2/1 435/3/1 436/4/1
f 437/1/1 438/2/1 439/3/1 440/4/1
f 441/1/1 442/2/1 443/3/1 444/4/1
f 445/1/1 446/2/1 447/3/1 448/4/1
f 449/1/1 450/2/1 451/3/1 452/4/1
f 453/1/1 454/2/1 455/3/1 456/4/1
f 457/1/1 458/2/1 459/3/1 460/4/1
f 461/1/1 462/2/1 463/3/1 464/4/1
f 465/1/1 466/2/1 467/3/1 468/4/1
f 469/1/1 470/2/1 471/3/1 472/4/1
f 473/1/1 474/2/1 475/3/1 476/4/1
f 477/1/1 478/2/1 479/3/1 480/4/1
f 481/7/1 482/8/1 483/5/1 484/9/1
f 485/1/1 486/2/1 487/3/1 488/4/1
f 489/1/1 490/2/1 491/3/1 492/4/1
f 493/1/1 494/2/1 495/3/1 496/4/1
f 497/1/1 498/2/1 499/3/1 500/4/1
f 501/1/1 502/2/1 503/3/1 504/4/1
f 505/10/1 506/11/1 507/12/1 508/6/1
f 509/1/1 510/2/1 511/3/1 512/4/1
f 513/1/1 514/2/1 515/3/1 516/4/1
f 517/1/1 518/2/1 519/3/1 520/4/1
f 521/1/1 522/2/1 523/3/1 524/4/1
f 525/1/1 526/2/1 527/3/1 528/4/1
f 529/1/1 530/2/1 531/3/1 532/4/1
f 533/1/1 534/2/1 535/3/1 536/4/1
f 537/7/1 538/8/1 539/5/1 540/9/1
f 541/1/1 542/2/1 543/3/1 544/4/1
f 545/1/1 546/2/1 547/3/1 548/4/1
f 549/1/1 550/2/1 551/3/1 552/4/1
f 553/1/1 554/2/1 555/3/1 556/4/1
f 557/1/1 558/2/1 559/3/1 560/4/1
f 561/10/1 562/11/1 563/12/1 564/6/1

