# Tiled2Unity generated file. Do not modify by hand.
# Wavefront file for '1_4_Module48_mesh_0003.obj'

# Vertices (Count = 248)
v 0 -8 0
v -8 -8 0
v -8 0 0
v 0 0 0
v -480 -8 0
v -488 -8 0
v -488 0 0
v -480 0 0
v -168 -24 0
v -176 -24 0
v -176 -16 0
v -168 -16 0
v -328 -24 0
v -336 -24 0
v -336 -16 0
v -328 -16 0
v -160 -32 0
v -168 -32 0
v -168 -24 0
v -160 -24 0
v -168 -32 0
v -176 -32 0
v -176 -24 0
v -168 -24 0
v -176 -32 0
v -184 -32 0
v -184 -24 0
v -176 -24 0
v -320 -32 0
v -328 -32 0
v -328 -24 0
v -320 -24 0
v -328 -32 0
v -336 -32 0
v -336 -24 0
v -328 -24 0
v -336 -32 0
v -344 -32 0
v -344 -24 0
v -336 -24 0
v -152 -40 0
v -160 -40 0
v -160 -32 0
v -152 -32 0
v -160 -40 0
v -168 -40 0
v -168 -32 0
v -160 -32 0
v -168 -40 0
v -176 -40 0
v -176 -32 0
v -168 -32 0
v -176 -40 0
v -184 -40 0
v -184 -32 0
v -176 -32 0
v -312 -40 0
v -320 -40 0
v -320 -32 0
v -312 -32 0
v -320 -40 0
v -328 -40 0
v -328 -32 0
v -320 -32 0
v -328 -40 0
v -336 -40 0
v -336 -32 0
v -328 -32 0
v -336 -40 0
v -344 -40 0
v -344 -32 0
v -336 -32 0
v -160 -48 0
v -168 -48 0
v -168 -40 0
v -160 -40 0
v -168 -48 0
v -176 -48 0
v -176 -40 0
v -168 -40 0
v -176 -48 0
v -184 -48 0
v -184 -40 0
v -176 -40 0
v -320 -48 0
v -328 -48 0
v -328 -40 0
v -320 -40 0
v -328 -48 0
v -336 -48 0
v -336 -40 0
v -328 -40 0
v -336 -48 0
v -344 -48 0
v -344 -40 0
v -336 -40 0
v -168 -56 0
v -176 -56 0
v -176 -48 0
v -168 -48 0
v -328 -56 0
v -336 -56 0
v -336 -48 0
v -328 -48 0
v -88 -64 0
v -96 -64 0
v -96 -56 0
v -88 -56 0
v -408 -64 0
v -416 -64 0
v -416 -56 0
v -408 -56 0
v -80 -72 0
v -88 -72 0
v -88 -64 0
v -80 -64 0
v -88 -72 0
v -96 -72 0
v -96 -64 0
v -88 -64 0
v -96 -72 0
v -104 -72 0
v -104 -64 0
v -96 -64 0
v -248 -72 0
v -256 -72 0
v -256 -64 0
v -248 -64 0
v -400 -72 0
v -408 -72 0
v -408 -64 0
v -400 -64 0
v -408 -72 0
v -416 -72 0
v -416 -64 0
v -408 -64 0
v -416 -72 0
v -424 -72 0
v -424 -64 0
v -416 -64 0
v -72 -80 0
v -80 -80 0
v -80 -72 0
v -72 -72 0
v -80 -80 0
v -88 -80 0
v -88 -72 0
v -80 -72 0
v -88 -80 0
v -96 -80 0
v -96 -72 0
v -88 -72 0
v -96 -80 0
v -104 -80 0
v -104 -72 0
v -96 -72 0
v -240 -80 0
v -248 -80 0
v -248 -72 0
v -240 -72 0
v -248 -80 0
v -256 -80 0
v -256 -72 0
v -248 -72 0
v -256 -80 0
v -264 -80 0
v -264 -72 0
v -256 -72 0
v -392 -80 0
v -400 -80 0
v -400 -72 0
v -392 -72 0
v -400 -80 0
v -408 -80 0
v -408 -72 0
v -400 -72 0
v -408 -80 0
v -416 -80 0
v -416 -72 0
v -408 -72 0
v -416 -80 0
v -424 -80 0
v -424 -72 0
v -416 -72 0
v -80 -88 0
v -88 -88 0
v -88 -80 0
v -80 -80 0
v -88 -88 0
v -96 -88 0
v -96 -80 0
v -88 -80 0
v -96 -88 0
v -104 -88 0
v -104 -80 0
v -96 -80 0
v -232 -88 0
v -240 -88 0
v -240 -80 0
v -232 -80 0
v -240 -88 0
v -248 -88 0
v -248 -80 0
v -240 -80 0
v -248 -88 0
v -256 -88 0
v -256 -80 0
v -248 -80 0
v -256 -88 0
v -264 -88 0
v -264 -80 0
v -256 -80 0
v -400 -88 0
v -408 -88 0
v -408 -80 0
v -400 -80 0
v -408 -88 0
v -416 -88 0
v -416 -80 0
v -408 -80 0
v -416 -88 0
v -424 -88 0
v -424 -80 0
v -416 -80 0
v -88 -96 0
v -96 -96 0
v -96 -88 0
v -88 -88 0
v -240 -96 0
v -248 -96 0
v -248 -88 0
v -240 -88 0
v -248 -96 0
v -256 -96 0
v -256 -88 0
v -248 -88 0
v -256 -96 0
v -264 -96 0
v -264 -88 0
v -256 -88 0
v -408 -96 0
v -416 -96 0
v -416 -88 0
v -408 -88 0
v -248 -104 0
v -256 -104 0
v -256 -96 0
v -248 -96 0

# Texture cooridinates (Count = 16)
vt 0.3333333 0.6666666
vt 0.6666667 0.6666666
vt 0.6666667 1
vt 0.3333333 1
vt 0 0.6666666
vt 0 1
vt 0.6666667 0
vt 1 0
vt 1 0.3333333
vt 0.6666667 0.3333333
vt 0 0
vt 0.3333333 0
vt 0.3333333 0.3333333
vt 0 0.3333333
vt 1 0.6666666
vt 1 1

# Normal
vn 0 0 -1

# Mesh description
g 1_4_Module48_mesh_0003

# Faces
f 1/1/1 2/2/1 3/3/1 4/4/1
f 5/1/1 6/2/1 7/3/1 8/4/1
f 9/5/1 10/1/1 11/4/1 12/6/1
f 13/5/1 14/1/1 15/4/1 16/6/1
f 17/5/1 18/1/1 19/4/1 20/6/1
f 21/7/1 22/8/1 23/9/1 24/10/1
f 25/5/1 26/1/1 27/4/1 28/6/1
f 29/5/1 30/1/1 31/4/1 32/6/1
f 33/7/1 34/8/1 35/9/1 36/10/1
f 37/5/1 38/1/1 39/4/1 40/6/1
f 41/1/1 42/2/1 43/3/1 44/4/1
f 45/1/1 46/2/1 47/3/1 48/4/1
f 49/1/1 50/2/1 51/3/1 52/4/1
f 53/1/1 54/2/1 55/3/1 56/4/1
f 57/1/1 58/2/1 59/3/1 60/4/1
f 61/1/1 62/2/1 63/3/1 64/4/1
f 65/1/1 66/2/1 67/3/1 68/4/1
f 69/1/1 70/2/1 71/3/1 72/4/1
f 73/11/1 74/12/1 75/13/1 76/14/1
f 77/2/1 78/15/1 79/16/1 80/3/1
f 81/11/1 82/12/1 83/13/1 84/14/1
f 85/11/1 86/12/1 87/13/1 88/14/1
f 89/2/1 90/15/1 91/16/1 92/3/1
f 93/11/1 94/12/1 95/13/1 96/14/1
f 97/11/1 98/12/1 99/13/1 100/14/1
f 101/11/1 102/12/1 103/13/1 104/14/1
f 105/5/1 106/1/1 107/4/1 108/6/1
f 109/5/1 110/1/1 111/4/1 112/6/1
f 113/5/1 114/1/1 115/4/1 116/6/1
f 117/7/1 118/8/1 119/9/1 120/10/1
f 121/5/1 122/1/1 123/4/1 124/6/1
f 125/5/1 126/1/1 127/4/1 128/6/1
f 129/5/1 130/1/1 131/4/1 132/6/1
f 133/7/1 134/8/1 135/9/1 136/10/1
f 137/5/1 138/1/1 139/4/1 140/6/1
f 141/1/1 142/2/1 143/3/1 144/4/1
f 145/1/1 146/2/1 147/3/1 148/4/1
f 149/1/1 150/2/1 151/3/1 152/4/1
f 153/1/1 154/2/1 155/3/1 156/4/1
f 157/5/1 158/1/1 159/4/1 160/6/1
f 161/7/1 162/8/1 163/9/1 164/10/1
f 165/5/1 166/1/1 167/4/1 168/6/1
f 169/1/1 170/2/1 171/3/1 172/4/1
f 173/1/1 174/2/1 175/3/1 176/4/1
f 177/1/1 178/2/1 179/3/1 180/4/1
f 181/1/1 182/2/1 183/3/1 184/4/1
f 185/11/1 186/12/1 187/13/1 188/14/1
f 189/2/1 190/15/1 191/16/1 192/3/1
f 193/11/1 194/12/1 195/13/1 196/14/1
f 197/1/1 198/2/1 199/3/1 200/4/1
f 201/1/1 202/2/1 203/3/1 204/4/1
f 205/1/1 206/2/1 207/3/1 208/4/1
f 209/1/1 210/2/1 211/3/1 212/4/1
f 213/11/1 214/12/1 215/13/1 216/14/1
f 217/2/1 218/15/1 219/16/1 220/3/1
f 221/11/1 222/12/1 223/13/1 224/14/1
f 225/11/1 226/12/1 227/13/1 228/14/1
f 229/11/1 230/12/1 231/13/1 232/14/1
f 233/2/1 234/15/1 235/16/1 236/3/1
f 237/11/1 238/12/1 239/13/1 240/14/1
f 241/11/1 242/12/1 243/13/1 244/14/1
f 245/11/1 246/12/1 247/13/1 248/14/1

