# Tiled2Unity generated file. Do not modify by hand.
# Wavefront file for '1_1_Module2_mesh_0001.obj'

# Vertices (Count = 208)
v -128 -16 0
v -136 -16 0
v -136 -8 0
v -128 -8 0
v -352 -16 0
v -360 -16 0
v -360 -8 0
v -352 -8 0
v -112 -24 0
v -120 -24 0
v -120 -16 0
v -112 -16 0
v -128 -24 0
v -136 -24 0
v -136 -16 0
v -128 -16 0
v -144 -24 0
v -152 -24 0
v -152 -16 0
v -144 -16 0
v -336 -24 0
v -344 -24 0
v -344 -16 0
v -336 -16 0
v -352 -24 0
v -360 -24 0
v -360 -16 0
v -352 -16 0
v -368 -24 0
v -376 -24 0
v -376 -16 0
v -368 -16 0
v -112 -32 0
v -120 -32 0
v -120 -24 0
v -112 -24 0
v -120 -32 0
v -128 -32 0
v -128 -24 0
v -120 -24 0
v -128 -32 0
v -136 -32 0
v -136 -24 0
v -128 -24 0
v -136 -32 0
v -144 -32 0
v -144 -24 0
v -136 -24 0
v -144 -32 0
v -152 -32 0
v -152 -24 0
v -144 -24 0
v -336 -32 0
v -344 -32 0
v -344 -24 0
v -336 -24 0
v -344 -32 0
v -352 -32 0
v -352 -24 0
v -344 -24 0
v -352 -32 0
v -360 -32 0
v -360 -24 0
v -352 -24 0
v -360 -32 0
v -368 -32 0
v -368 -24 0
v -360 -24 0
v -368 -32 0
v -376 -32 0
v -376 -24 0
v -368 -24 0
v -96 -40 0
v -104 -40 0
v -104 -32 0
v -96 -32 0
v -128 -40 0
v -136 -40 0
v -136 -32 0
v -128 -32 0
v -160 -40 0
v -168 -40 0
v -168 -32 0
v -160 -32 0
v -320 -40 0
v -328 -40 0
v -328 -32 0
v -320 -32 0
v -352 -40 0
v -360 -40 0
v -360 -32 0
v -352 -32 0
v -384 -40 0
v -392 -40 0
v -392 -32 0
v -384 -32 0
v -96 -48 0
v -104 -48 0
v -104 -40 0
v -96 -40 0
v -104 -48 0
v -112 -48 0
v -112 -40 0
v -104 -40 0
v -112 -48 0
v -120 -48 0
v -120 -40 0
v -112 -40 0
v -120 -48 0
v -128 -48 0
v -128 -40 0
v -120 -40 0
v -128 -48 0
v -136 -48 0
v -136 -40 0
v -128 -40 0
v -136 -48 0
v -144 -48 0
v -144 -40 0
v -136 -40 0
v -144 -48 0
v -152 -48 0
v -152 -40 0
v -144 -40 0
v -152 -48 0
v -160 -48 0
v -160 -40 0
v -152 -40 0
v -160 -48 0
v -168 -48 0
v -168 -40 0
v -160 -40 0
v -320 -48 0
v -328 -48 0
v -328 -40 0
v -320 -40 0
v -328 -48 0
v -336 -48 0
v -336 -40 0
v -328 -40 0
v -336 -48 0
v -344 -48 0
v -344 -40 0
v -336 -40 0
v -344 -48 0
v -352 -48 0
v -352 -40 0
v -344 -40 0
v -352 -48 0
v -360 -48 0
v -360 -40 0
v -352 -40 0
v -360 -48 0
v -368 -48 0
v -368 -40 0
v -360 -40 0
v -368 -48 0
v -376 -48 0
v -376 -40 0
v -368 -40 0
v -376 -48 0
v -384 -48 0
v -384 -40 0
v -376 -40 0
v -384 -48 0
v -392 -48 0
v -392 -40 0
v -384 -40 0
v -128 -56 0
v -136 -56 0
v -136 -48 0
v -128 -48 0
v -352 -56 0
v -360 -56 0
v -360 -48 0
v -352 -48 0
v -128 -64 0
v -136 -64 0
v -136 -56 0
v -128 -56 0
v -352 -64 0
v -360 -64 0
v -360 -56 0
v -352 -56 0
v -120 -72 0
v -128 -72 0
v -128 -64 0
v -120 -64 0
v -128 -72 0
v -136 -72 0
v -136 -64 0
v -128 -64 0
v -136 -72 0
v -144 -72 0
v -144 -64 0
v -136 -64 0
v -344 -72 0
v -352 -72 0
v -352 -64 0
v -344 -64 0
v -352 -72 0
v -360 -72 0
v -360 -64 0
v -352 -64 0
v -360 -72 0
v -368 -72 0
v -368 -64 0
v -360 -64 0

# Texture cooridinates (Count = 8)
vt 0.3333333 0.6666666
vt 0.6666667 0.6666666
vt 0.6666667 1
vt 0.3333333 1
vt 0 0.6666666
vt 0 1
vt 1 0.6666666
vt 1 1

# Normal
vn 0 0 -1

# Mesh description
g 1_1_Module2_mesh_0001

# Faces
f 1/1/1 2/2/1 3/3/1 4/4/1
f 5/1/1 6/2/1 7/3/1 8/4/1
f 9/5/1 10/1/1 11/4/1 12/6/1
f 13/1/1 14/2/1 15/3/1 16/4/1
f 17/2/1 18/7/1 19/8/1 20/3/1
f 21/5/1 22/1/1 23/4/1 24/6/1
f 25/1/1 26/2/1 27/3/1 28/4/1
f 29/2/1 30/7/1 31/8/1 32/3/1
f 33/1/1 34/2/1 35/3/1 36/4/1
f 37/1/1 38/2/1 39/3/1 40/4/1
f 41/1/1 42/2/1 43/3/1 44/4/1
f 45/1/1 46/2/1 47/3/1 48/4/1
f 49/1/1 50/2/1 51/3/1 52/4/1
f 53/1/1 54/2/1 55/3/1 56/4/1
f 57/1/1 58/2/1 59/3/1 60/4/1
f 61/1/1 62/2/1 63/3/1 64/4/1
f 65/1/1 66/2/1 67/3/1 68/4/1
f 69/1/1 70/2/1 71/3/1 72/4/1
f 73/5/1 74/1/1 75/4/1 76/6/1
f 77/1/1 78/2/1 79/3/1 80/4/1
f 81/2/1 82/7/1 83/8/1 84/3/1
f 85/5/1 86/1/1 87/4/1 88/6/1
f 89/1/1 90/2/1 91/3/1 92/4/1
f 93/2/1 94/7/1 95/8/1 96/3/1
f 97/1/1 98/2/1 99/3/1 100/4/1
f 101/1/1 102/2/1 103/3/1 104/4/1
f 105/1/1 106/2/1 107/3/1 108/4/1
f 109/1/1 110/2/1 111/3/1 112/4/1
f 113/1/1 114/2/1 115/3/1 116/4/1
f 117/1/1 118/2/1 119/3/1 120/4/1
f 121/1/1 122/2/1 123/3/1 124/4/1
f 125/1/1 126/2/1 127/3/1 128/4/1
f 129/1/1 130/2/1 131/3/1 132/4/1
f 133/1/1 134/2/1 135/3/1 136/4/1
f 137/1/1 138/2/1 139/3/1 140/4/1
f 141/1/1 142/2/1 143/3/1 144/4/1
f 145/1/1 146/2/1 147/3/1 148/4/1
f 149/1/1 150/2/1 151/3/1 152/4/1
f 153/1/1 154/2/1 155/3/1 156/4/1
f 157/1/1 158/2/1 159/3/1 160/4/1
f 161/1/1 162/2/1 163/3/1 164/4/1
f 165/1/1 166/2/1 167/3/1 168/4/1
f 169/1/1 170/2/1 171/3/1 172/4/1
f 173/1/1 174/2/1 175/3/1 176/4/1
f 177/1/1 178/2/1 179/3/1 180/4/1
f 181/1/1 182/2/1 183/3/1 184/4/1
f 185/5/1 186/1/1 187/4/1 188/6/1
f 189/1/1 190/2/1 191/3/1 192/4/1
f 193/2/1 194/7/1 195/8/1 196/3/1
f 197/5/1 198/1/1 199/4/1 200/6/1
f 201/1/1 202/2/1 203/3/1 204/4/1
f 205/2/1 206/7/1 207/8/1 208/3/1

