# Tiled2Unity generated file. Do not modify by hand.
# Wavefront file for '1_3_23_mesh_0001.obj'

# Vertices (Count = 640)
v -232 -168 0
v -240 -168 0
v -240 -160 0
v -232 -160 0
v -240 -168 0
v -248 -168 0
v -248 -160 0
v -240 -160 0
v -232 -176 0
v -240 -176 0
v -240 -168 0
v -232 -168 0
v -240 -176 0
v -248 -176 0
v -248 -168 0
v -240 -168 0
v -160 -200 0
v -168 -200 0
v -168 -192 0
v -160 -192 0
v -168 -200 0
v -176 -200 0
v -176 -192 0
v -168 -192 0
v -312 -200 0
v -320 -200 0
v -320 -192 0
v -312 -192 0
v -320 -200 0
v -328 -200 0
v -328 -192 0
v -320 -192 0
v -160 -208 0
v -168 -208 0
v -168 -200 0
v -160 -200 0
v -168 -208 0
v -176 -208 0
v -176 -200 0
v -168 -200 0
v -312 -208 0
v -320 -208 0
v -320 -200 0
v -312 -200 0
v -320 -208 0
v -328 -208 0
v -328 -200 0
v -320 -200 0
v -56 -224 0
v -64 -224 0
v -64 -216 0
v -56 -216 0
v -64 -224 0
v -72 -224 0
v -72 -216 0
v -64 -216 0
v -72 -224 0
v -80 -224 0
v -80 -216 0
v -72 -216 0
v -80 -224 0
v -88 -224 0
v -88 -216 0
v -80 -216 0
v -392 -224 0
v -400 -224 0
v -400 -216 0
v -392 -216 0
v -400 -224 0
v -408 -224 0
v -408 -216 0
v -400 -216 0
v -408 -224 0
v -416 -224 0
v -416 -216 0
v -408 -216 0
v -416 -224 0
v -424 -224 0
v -424 -216 0
v -416 -216 0
v -48 -232 0
v -56 -232 0
v -56 -224 0
v -48 -224 0
v -56 -232 0
v -64 -232 0
v -64 -224 0
v -56 -224 0
v -64 -232 0
v -72 -232 0
v -72 -224 0
v -64 -224 0
v -72 -232 0
v -80 -232 0
v -80 -224 0
v -72 -224 0
v -80 -232 0
v -88 -232 0
v -88 -224 0
v -80 -224 0
v -88 -232 0
v -96 -232 0
v -96 -224 0
v -88 -224 0
v -384 -232 0
v -392 -232 0
v -392 -224 0
v -384 -224 0
v -392 -232 0
v -400 -232 0
v -400 -224 0
v -392 -224 0
v -400 -232 0
v -408 -232 0
v -408 -224 0
v -400 -224 0
v -408 -232 0
v -416 -232 0
v -416 -224 0
v -408 -224 0
v -416 -232 0
v -424 -232 0
v -424 -224 0
v -416 -224 0
v -424 -232 0
v -432 -232 0
v -432 -224 0
v -424 -224 0
v -48 -240 0
v -56 -240 0
v -56 -232 0
v -48 -232 0
v -56 -240 0
v -64 -240 0
v -64 -232 0
v -56 -232 0
v -64 -240 0
v -72 -240 0
v -72 -232 0
v -64 -232 0
v -72 -240 0
v -80 -240 0
v -80 -232 0
v -72 -232 0
v -80 -240 0
v -88 -240 0
v -88 -232 0
v -80 -232 0
v -88 -240 0
v -96 -240 0
v -96 -232 0
v -88 -232 0
v -384 -240 0
v -392 -240 0
v -392 -232 0
v -384 -232 0
v -392 -240 0
v -400 -240 0
v -400 -232 0
v -392 -232 0
v -400 -240 0
v -408 -240 0
v -408 -232 0
v -400 -232 0
v -408 -240 0
v -416 -240 0
v -416 -232 0
v -408 -232 0
v -416 -240 0
v -424 -240 0
v -424 -232 0
v -416 -232 0
v -424 -240 0
v -432 -240 0
v -432 -232 0
v -424 -232 0
v -56 -248 0
v -64 -248 0
v -64 -240 0
v -56 -240 0
v -64 -248 0
v -72 -248 0
v -72 -240 0
v -64 -240 0
v -72 -248 0
v -80 -248 0
v -80 -240 0
v -72 -240 0
v -80 -248 0
v -88 -248 0
v -88 -240 0
v -80 -240 0
v -392 -248 0
v -400 -248 0
v -400 -240 0
v -392 -240 0
v -400 -248 0
v -408 -248 0
v -408 -240 0
v -400 -240 0
v -408 -248 0
v -416 -248 0
v -416 -240 0
v -408 -240 0
v -416 -248 0
v -424 -248 0
v -424 -240 0
v -416 -240 0
v -232 -264 0
v -240 -264 0
v -240 -256 0
v -232 -256 0
v -240 -264 0
v -248 -264 0
v -248 -256 0
v -240 -256 0
v -120 -272 0
v -128 -272 0
v -128 -264 0
v -120 -264 0
v -128 -272 0
v -136 -272 0
v -136 -264 0
v -128 -264 0
v -224 -272 0
v -232 -272 0
v -232 -264 0
v -224 -264 0
v -232 -272 0
v -240 -272 0
v -240 -264 0
v -232 -264 0
v -240 -272 0
v -248 -272 0
v -248 -264 0
v -240 -264 0
v -248 -272 0
v -256 -272 0
v -256 -264 0
v -248 -264 0
v -328 -272 0
v -336 -272 0
v -336 -264 0
v -328 -264 0
v -336 -272 0
v -344 -272 0
v -344 -264 0
v -336 -264 0
v -120 -280 0
v -128 -280 0
v -128 -272 0
v -120 -272 0
v -128 -280 0
v -136 -280 0
v -136 -272 0
v -128 -272 0
v -216 -280 0
v -224 -280 0
v -224 -272 0
v -216 -272 0
v -224 -280 0
v -232 -280 0
v -232 -272 0
v -224 -272 0
v -232 -280 0
v -240 -280 0
v -240 -272 0
v -232 -272 0
v -240 -280 0
v -248 -280 0
v -248 -272 0
v -240 -272 0
v -248 -280 0
v -256 -280 0
v -256 -272 0
v -248 -272 0
v -256 -280 0
v -264 -280 0
v -264 -272 0
v -256 -272 0
v -328 -280 0
v -336 -280 0
v -336 -272 0
v -328 -272 0
v -336 -280 0
v -344 -280 0
v -344 -272 0
v -336 -272 0
v -24 -288 0
v -32 -288 0
v -32 -280 0
v -24 -280 0
v -32 -288 0
v -40 -288 0
v -40 -280 0
v -32 -280 0
v -216 -288 0
v -224 -288 0
v -224 -280 0
v -216 -280 0
v -224 -288 0
v -232 -288 0
v -232 -280 0
v -224 -280 0
v -232 -288 0
v -240 -288 0
v -240 -280 0
v -232 -280 0
v -240 -288 0
v -248 -288 0
v -248 -280 0
v -240 -280 0
v -248 -288 0
v -256 -288 0
v -256 -280 0
v -248 -280 0
v -256 -288 0
v -264 -288 0
v -264 -280 0
v -256 -280 0
v -448 -288 0
v -456 -288 0
v -456 -280 0
v -448 -280 0
v -456 -288 0
v -464 -288 0
v -464 -280 0
v -456 -280 0
v -24 -296 0
v -32 -296 0
v -32 -288 0
v -24 -288 0
v -32 -296 0
v -40 -296 0
v -40 -288 0
v -32 -288 0
v -224 -296 0
v -232 -296 0
v -232 -288 0
v -224 -288 0
v -232 -296 0
v -240 -296 0
v -240 -288 0
v -232 -288 0
v -240 -296 0
v -248 -296 0
v -248 -288 0
v -240 -288 0
v -248 -296 0
v -256 -296 0
v -256 -288 0
v -248 -288 0
v -448 -296 0
v -456 -296 0
v -456 -288 0
v -448 -288 0
v -456 -296 0
v -464 -296 0
v -464 -288 0
v -456 -288 0
v -232 -304 0
v -240 -304 0
v -240 -296 0
v -232 -296 0
v -240 -304 0
v -248 -304 0
v -248 -296 0
v -240 -296 0
v -104 -328 0
v -112 -328 0
v -112 -320 0
v -104 -320 0
v -112 -328 0
v -120 -328 0
v -120 -320 0
v -112 -320 0
v -120 -328 0
v -128 -328 0
v -128 -320 0
v -120 -320 0
v -128 -328 0
v -136 -328 0
v -136 -320 0
v -128 -320 0
v -344 -328 0
v -352 -328 0
v -352 -320 0
v -344 -320 0
v -352 -328 0
v -360 -328 0
v -360 -320 0
v -352 -320 0
v -360 -328 0
v -368 -328 0
v -368 -320 0
v -360 -320 0
v -368 -328 0
v -376 -328 0
v -376 -320 0
v -368 -320 0
v -96 -336 0
v -104 -336 0
v -104 -328 0
v -96 -328 0
v -104 -336 0
v -112 -336 0
v -112 -328 0
v -104 -328 0
v -112 -336 0
v -120 -336 0
v -120 -328 0
v -112 -328 0
v -120 -336 0
v -128 -336 0
v -128 -328 0
v -120 -328 0
v -128 -336 0
v -136 -336 0
v -136 -328 0
v -128 -328 0
v -136 -336 0
v -144 -336 0
v -144 -328 0
v -136 -328 0
v -336 -336 0
v -344 -336 0
v -344 -328 0
v -336 -328 0
v -344 -336 0
v -352 -336 0
v -352 -328 0
v -344 -328 0
v -352 -336 0
v -360 -336 0
v -360 -328 0
v -352 -328 0
v -360 -336 0
v -368 -336 0
v -368 -328 0
v -360 -328 0
v -368 -336 0
v -376 -336 0
v -376 -328 0
v -368 -328 0
v -376 -336 0
v -384 -336 0
v -384 -328 0
v -376 -328 0
v -96 -344 0
v -104 -344 0
v -104 -336 0
v -96 -336 0
v -104 -344 0
v -112 -344 0
v -112 -336 0
v -104 -336 0
v -112 -344 0
v -120 -344 0
v -120 -336 0
v -112 -336 0
v -120 -344 0
v -128 -344 0
v -128 -336 0
v -120 -336 0
v -128 -344 0
v -136 -344 0
v -136 -336 0
v -128 -336 0
v -136 -344 0
v -144 -344 0
v -144 -336 0
v -136 -336 0
v -184 -344 0
v -192 -344 0
v -192 -336 0
v -184 -336 0
v -192 -344 0
v -200 -344 0
v -200 -336 0
v -192 -336 0
v -272 -344 0
v -280 -344 0
v -280 -336 0
v -272 -336 0
v -280 -344 0
v -288 -344 0
v -288 -336 0
v -280 -336 0
v -336 -344 0
v -344 -344 0
v -344 -336 0
v -336 -336 0
v -344 -344 0
v -352 -344 0
v -352 -336 0
v -344 -336 0
v -352 -344 0
v -360 -344 0
v -360 -336 0
v -352 -336 0
v -360 -344 0
v -368 -344 0
v -368 -336 0
v -360 -336 0
v -368 -344 0
v -376 -344 0
v -376 -336 0
v -368 -336 0
v -376 -344 0
v -384 -344 0
v -384 -336 0
v -376 -336 0
v -104 -352 0
v -112 -352 0
v -112 -344 0
v -104 -344 0
v -112 -352 0
v -120 -352 0
v -120 -344 0
v -112 -344 0
v -120 -352 0
v -128 -352 0
v -128 -344 0
v -120 -344 0
v -128 -352 0
v -136 -352 0
v -136 -344 0
v -128 -344 0
v -184 -352 0
v -192 -352 0
v -192 -344 0
v -184 -344 0
v -192 -352 0
v -200 -352 0
v -200 -344 0
v -192 -344 0
v -272 -352 0
v -280 -352 0
v -280 -344 0
v -272 -344 0
v -280 -352 0
v -288 -352 0
v -288 -344 0
v -280 -344 0
v -344 -352 0
v -352 -352 0
v -352 -344 0
v -344 -344 0
v -352 -352 0
v -360 -352 0
v -360 -344 0
v -352 -344 0
v -360 -352 0
v -368 -352 0
v -368 -344 0
v -360 -344 0
v -368 -352 0
v -376 -352 0
v -376 -344 0
v -368 -344 0
v -64 -392 0
v -72 -392 0
v -72 -384 0
v -64 -384 0
v -72 -392 0
v -80 -392 0
v -80 -384 0
v -72 -384 0
v -384 -392 0
v -392 -392 0
v -392 -384 0
v -384 -384 0
v -392 -392 0
v -400 -392 0
v -400 -384 0
v -392 -384 0
v -64 -400 0
v -72 -400 0
v -72 -392 0
v -64 -392 0
v -72 -400 0
v -80 -400 0
v -80 -392 0
v -72 -392 0
v -384 -400 0
v -392 -400 0
v -392 -392 0
v -384 -392 0
v -392 -400 0
v -400 -400 0
v -400 -392 0
v -392 -392 0
v -144 -408 0
v -152 -408 0
v -152 -400 0
v -144 -400 0
v -152 -408 0
v -160 -408 0
v -160 -400 0
v -152 -400 0
v -312 -408 0
v -320 -408 0
v -320 -400 0
v -312 -400 0
v -320 -408 0
v -328 -408 0
v -328 -400 0
v -320 -400 0
v -144 -416 0
v -152 -416 0
v -152 -408 0
v -144 -408 0
v -152 -416 0
v -160 -416 0
v -160 -408 0
v -152 -408 0
v -312 -416 0
v -320 -416 0
v -320 -408 0
v -312 -408 0
v -320 -416 0
v -328 -416 0
v -328 -408 0
v -320 -408 0
v -232 -440 0
v -240 -440 0
v -240 -432 0
v -232 -432 0
v -240 -440 0
v -248 -440 0
v -248 -432 0
v -240 -432 0
v -232 -448 0
v -240 -448 0
v -240 -440 0
v -232 -440 0
v -240 -448 0
v -248 -448 0
v -248 -440 0
v -240 -440 0

# Texture cooridinates (Count = 57)
vt 0.625 0.875
vt 0.75 0.875
vt 0.75 1
vt 0.625 1
vt 0.875 0.875
vt 0.875 1
vt 0.5 0.5
vt 0.625 0.5
vt 0.625 0.625
vt 0.5 0.625
vt 0.75 0.5
vt 0.75 0.625
vt 0.75 0.375
vt 0.875 0.375
vt 0.875 0.5
vt 1 0.375
vt 1 0.5
vt 0.5 0.375
vt 0.625 0.375
vt 0.75 0.25
vt 0.875 0.25
vt 0.125 0.75
vt 0.25 0.75
vt 0.25 0.875
vt 0.125 0.875
vt 0.625 0.25
vt 0.5 0.875
vt 0.5 1
vt 0.5 0.125
vt 0.625 0.125
vt 0.5 0.25
vt 0.875 0.125
vt 1 0.125
vt 1 0.25
vt 1 0.625
vt 0.875 0.625
vt 0.5 0
vt 0.625 0
vt 0.75 0
vt 0.75 0.125
vt 0.875 0
vt 1 0
vt 1 0.875
vt 1 1
vt 0.125 0.25
vt 0.25 0.25
vt 0.25 0.375
vt 0.125 0.375
vt 0 0.25
vt 0 0.375
vt 0.875 0.75
vt 1 0.75
vt 0.75 0.75
vt 0.625 0.75
vt 0.5 0.75
vt 0.375 0.75
vt 0.375 0.875

# Normal
vn 0 0 -1

# Mesh description
g 1_3_23_mesh_0001

# Faces
f 1/1/1 2/2/1 3/3/1 4/4/1
f 5/2/1 6/5/1 7/6/1 8/3/1
f 9/7/1 10/8/1 11/9/1 12/10/1
f 13/8/1 14/11/1 15/12/1 16/9/1
f 17/1/1 18/2/1 19/3/1 20/4/1
f 21/2/1 22/5/1 23/6/1 24/3/1
f 25/1/1 26/2/1 27/3/1 28/4/1
f 29/2/1 30/5/1 31/6/1 32/3/1
f 33/7/1 34/8/1 35/9/1 36/10/1
f 37/8/1 38/11/1 39/12/1 40/9/1
f 41/7/1 42/8/1 43/9/1 44/10/1
f 45/8/1 46/11/1 47/12/1 48/9/1
f 49/13/1 50/14/1 51/15/1 52/11/1
f 53/14/1 54/16/1 55/17/1 56/15/1
f 57/18/1 58/19/1 59/8/1 60/7/1
f 61/19/1 62/13/1 63/11/1 64/8/1
f 65/13/1 66/14/1 67/15/1 68/11/1
f 69/14/1 70/16/1 71/17/1 72/15/1
f 73/18/1 74/19/1 75/8/1 76/7/1
f 77/19/1 78/13/1 79/11/1 80/8/1
f 81/1/1 82/2/1 83/3/1 84/4/1
f 85/20/1 86/21/1 87/14/1 88/13/1
f 89/22/1 90/23/1 91/24/1 92/25/1
f 93/22/1 94/23/1 95/24/1 96/25/1
f 97/26/1 98/20/1 99/13/1 100/19/1
f 101/27/1 102/1/1 103/4/1 104/28/1
f 105/1/1 106/2/1 107/3/1 108/4/1
f 109/20/1 110/21/1 111/14/1 112/13/1
f 113/22/1 114/23/1 115/24/1 116/25/1
f 117/22/1 118/23/1 119/24/1 120/25/1
f 121/26/1 122/20/1 123/13/1 124/19/1
f 125/27/1 126/1/1 127/4/1 128/28/1
f 129/7/1 130/8/1 131/9/1 132/10/1
f 133/29/1 134/30/1 135/26/1 136/31/1
f 137/22/1 138/23/1 139/24/1 140/25/1
f 141/22/1 142/23/1 143/24/1 144/25/1
f 145/32/1 146/33/1 147/34/1 148/21/1
f 149/15/1 150/17/1 151/35/1 152/36/1
f 153/7/1 154/8/1 155/9/1 156/10/1
f 157/29/1 158/30/1 159/26/1 160/31/1
f 161/22/1 162/23/1 163/24/1 164/25/1
f 165/22/1 166/23/1 167/24/1 168/25/1
f 169/32/1 170/33/1 171/34/1 172/21/1
f 173/15/1 174/17/1 175/35/1 176/36/1
f 177/37/1 178/38/1 179/30/1 180/29/1
f 181/38/1 182/39/1 183/40/1 184/30/1
f 185/39/1 186/41/1 187/32/1 188/40/1
f 189/41/1 190/42/1 191/33/1 192/32/1
f 193/37/1 194/38/1 195/30/1 196/29/1
f 197/38/1 198/39/1 199/40/1 200/30/1
f 201/39/1 202/41/1 203/32/1 204/40/1
f 205/41/1 206/42/1 207/33/1 208/32/1
f 209/5/1 210/43/1 211/44/1 212/6/1
f 213/2/1 214/5/1 215/6/1 216/3/1
f 217/1/1 218/2/1 219/3/1 220/4/1
f 221/2/1 222/5/1 223/6/1 224/3/1
f 225/5/1 226/43/1 227/44/1 228/6/1
f 229/45/1 230/46/1 231/47/1 232/48/1
f 233/49/1 234/45/1 235/48/1 236/50/1
f 237/2/1 238/5/1 239/6/1 240/3/1
f 241/1/1 242/2/1 243/3/1 244/4/1
f 245/2/1 246/5/1 247/6/1 248/3/1
f 249/7/1 250/8/1 251/9/1 252/10/1
f 253/8/1 254/11/1 255/12/1 256/9/1
f 257/1/1 258/2/1 259/3/1 260/4/1
f 261/51/1 262/52/1 263/43/1 264/5/1
f 265/8/1 266/11/1 267/12/1 268/9/1
f 269/7/1 270/8/1 271/9/1 272/10/1
f 273/53/1 274/51/1 275/5/1 276/2/1
f 277/2/1 278/5/1 279/6/1 280/3/1
f 281/7/1 282/8/1 283/9/1 284/10/1
f 285/8/1 286/11/1 287/12/1 288/9/1
f 289/1/1 290/2/1 291/3/1 292/4/1
f 293/2/1 294/5/1 295/6/1 296/3/1
f 297/7/1 298/8/1 299/9/1 300/10/1
f 301/10/1 302/9/1 303/54/1 304/55/1
f 305/22/1 306/23/1 307/24/1 308/25/1
f 309/23/1 310/56/1 311/57/1 312/24/1
f 313/9/1 314/12/1 315/53/1 316/54/1
f 317/8/1 318/11/1 319/12/1 320/9/1
f 321/1/1 322/2/1 323/3/1 324/4/1
f 325/2/1 326/5/1 327/6/1 328/3/1
f 329/7/1 330/8/1 331/9/1 332/10/1
f 333/8/1 334/11/1 335/12/1 336/9/1
f 337/7/1 338/8/1 339/9/1 340/10/1
f 341/10/1 342/9/1 343/54/1 344/55/1
f 345/9/1 346/12/1 347/53/1 348/54/1
f 349/8/1 350/11/1 351/12/1 352/9/1
f 353/7/1 354/8/1 355/9/1 356/10/1
f 357/8/1 358/11/1 359/12/1 360/9/1
f 361/7/1 362/8/1 363/9/1 364/10/1
f 365/8/1 366/11/1 367/12/1 368/9/1
f 369/13/1 370/14/1 371/15/1 372/11/1
f 373/14/1 374/16/1 375/17/1 376/15/1
f 377/18/1 378/19/1 379/8/1 380/7/1
f 381/19/1 382/13/1 383/11/1 384/8/1
f 385/13/1 386/14/1 387/15/1 388/11/1
f 389/14/1 390/16/1 391/17/1 392/15/1
f 393/18/1 394/19/1 395/8/1 396/7/1
f 397/19/1 398/13/1 399/11/1 400/8/1
f 401/1/1 402/2/1 403/3/1 404/4/1
f 405/20/1 406/21/1 407/14/1 408/13/1
f 409/22/1 410/23/1 411/24/1 412/25/1
f 413/22/1 414/23/1 415/24/1 416/25/1
f 417/26/1 418/20/1 419/13/1 420/19/1
f 421/27/1 422/1/1 423/4/1 424/28/1
f 425/1/1 426/2/1 427/3/1 428/4/1
f 429/20/1 430/21/1 431/14/1 432/13/1
f 433/22/1 434/23/1 435/24/1 436/25/1
f 437/22/1 438/23/1 439/24/1 440/25/1
f 441/26/1 442/20/1 443/13/1 444/19/1
f 445/27/1 446/1/1 447/4/1 448/28/1
f 449/7/1 450/8/1 451/9/1 452/10/1
f 453/29/1 454/30/1 455/26/1 456/31/1
f 457/22/1 458/23/1 459/24/1 460/25/1
f 461/22/1 462/23/1 463/24/1 464/25/1
f 465/32/1 466/33/1 467/34/1 468/21/1
f 469/15/1 470/17/1 471/35/1 472/36/1
f 473/1/1 474/2/1 475/3/1 476/4/1
f 477/2/1 478/5/1 479/6/1 480/3/1
f 481/1/1 482/2/1 483/3/1 484/4/1
f 485/2/1 486/5/1 487/6/1 488/3/1
f 489/7/1 490/8/1 491/9/1 492/10/1
f 493/29/1 494/30/1 495/26/1 496/31/1
f 497/22/1 498/23/1 499/24/1 500/25/1
f 501/22/1 502/23/1 503/24/1 504/25/1
f 505/32/1 506/33/1 507/34/1 508/21/1
f 509/15/1 510/17/1 511/35/1 512/36/1
f 513/37/1 514/38/1 515/30/1 516/29/1
f 517/38/1 518/39/1 519/40/1 520/30/1
f 521/39/1 522/41/1 523/32/1 524/40/1
f 525/41/1 526/42/1 527/33/1 528/32/1
f 529/7/1 530/8/1 531/9/1 532/10/1
f 533/8/1 534/11/1 535/12/1 536/9/1
f 537/7/1 538/8/1 539/9/1 540/10/1
f 541/8/1 542/11/1 543/12/1 544/9/1
f 545/37/1 546/38/1 547/30/1 548/29/1
f 549/38/1 550/39/1 551/40/1 552/30/1
f 553/39/1 554/41/1 555/32/1 556/40/1
f 557/41/1 558/42/1 559/33/1 560/32/1
f 561/1/1 562/2/1 563/3/1 564/4/1
f 565/2/1 566/5/1 567/6/1 568/3/1
f 569/1/1 570/2/1 571/3/1 572/4/1
f 573/2/1 574/5/1 575/6/1 576/3/1
f 577/7/1 578/8/1 579/9/1 580/10/1
f 581/8/1 582/11/1 583/12/1 584/9/1
f 585/7/1 586/8/1 587/9/1 588/10/1
f 589/8/1 590/11/1 591/12/1 592/9/1
f 593/1/1 594/2/1 595/3/1 596/4/1
f 597/2/1 598/5/1 599/6/1 600/3/1
f 601/1/1 602/2/1 603/3/1 604/4/1
f 605/2/1 606/5/1 607/6/1 608/3/1
f 609/7/1 610/8/1 611/9/1 612/10/1
f 613/8/1 614/11/1 615/12/1 616/9/1
f 617/7/1 618/8/1 619/9/1 620/10/1
f 621/8/1 622/11/1 623/12/1 624/9/1
f 625/1/1 626/2/1 627/3/1 628/4/1
f 629/2/1 630/5/1 631/6/1 632/3/1
f 633/7/1 634/8/1 635/9/1 636/10/1
f 637/8/1 638/11/1 639/12/1 640/9/1

