# Tiled2Unity generated file. Do not modify by hand.
# Wavefront file for '1_3_20_mesh_0002.obj'

# Vertices (Count = 724)
v 0 -8 0
v -8 -8 0
v -8 0 0
v 0 0 0
v -8 -8 0
v -16 -8 0
v -16 0 0
v -8 0 0
v -16 -8 0
v -24 -8 0
v -24 0 0
v -16 0 0
v -24 -8 0
v -32 -8 0
v -32 0 0
v -24 0 0
v -32 -8 0
v -40 -8 0
v -40 0 0
v -32 0 0
v -40 -8 0
v -48 -8 0
v -48 0 0
v -40 0 0
v -48 -8 0
v -56 -8 0
v -56 0 0
v -48 0 0
v -56 -8 0
v -64 -8 0
v -64 0 0
v -56 0 0
v -64 -8 0
v -72 -8 0
v -72 0 0
v -64 0 0
v -72 -8 0
v -80 -8 0
v -80 0 0
v -72 0 0
v -80 -8 0
v -88 -8 0
v -88 0 0
v -80 0 0
v -88 -8 0
v -96 -8 0
v -96 0 0
v -88 0 0
v -96 -8 0
v -104 -8 0
v -104 0 0
v -96 0 0
v -104 -8 0
v -112 -8 0
v -112 0 0
v -104 0 0
v -112 -8 0
v -120 -8 0
v -120 0 0
v -112 0 0
v -120 -8 0
v -128 -8 0
v -128 0 0
v -120 0 0
v -128 -8 0
v -136 -8 0
v -136 0 0
v -128 0 0
v -136 -8 0
v -144 -8 0
v -144 0 0
v -136 0 0
v -144 -8 0
v -152 -8 0
v -152 0 0
v -144 0 0
v -152 -8 0
v -160 -8 0
v -160 0 0
v -152 0 0
v -160 -8 0
v -168 -8 0
v -168 0 0
v -160 0 0
v -168 -8 0
v -176 -8 0
v -176 0 0
v -168 0 0
v -176 -8 0
v -184 -8 0
v -184 0 0
v -176 0 0
v -184 -8 0
v -192 -8 0
v -192 0 0
v -184 0 0
v -192 -8 0
v -200 -8 0
v -200 0 0
v -192 0 0
v -200 -8 0
v -208 -8 0
v -208 0 0
v -200 0 0
v -208 -8 0
v -216 -8 0
v -216 0 0
v -208 0 0
v -216 -8 0
v -224 -8 0
v -224 0 0
v -216 0 0
v -224 -8 0
v -232 -8 0
v -232 0 0
v -224 0 0
v -232 -8 0
v -240 -8 0
v -240 0 0
v -232 0 0
v -240 -8 0
v -248 -8 0
v -248 0 0
v -240 0 0
v -248 -8 0
v -256 -8 0
v -256 0 0
v -248 0 0
v -256 -8 0
v -264 -8 0
v -264 0 0
v -256 0 0
v -264 -8 0
v -272 -8 0
v -272 0 0
v -264 0 0
v -272 -8 0
v -280 -8 0
v -280 0 0
v -272 0 0
v -280 -8 0
v -288 -8 0
v -288 0 0
v -280 0 0
v -288 -8 0
v -296 -8 0
v -296 0 0
v -288 0 0
v -296 -8 0
v -304 -8 0
v -304 0 0
v -296 0 0
v -304 -8 0
v -312 -8 0
v -312 0 0
v -304 0 0
v -312 -8 0
v -320 -8 0
v -320 0 0
v -312 0 0
v -320 -8 0
v -328 -8 0
v -328 0 0
v -320 0 0
v -328 -8 0
v -336 -8 0
v -336 0 0
v -328 0 0
v -336 -8 0
v -344 -8 0
v -344 0 0
v -336 0 0
v -344 -8 0
v -352 -8 0
v -352 0 0
v -344 0 0
v -352 -8 0
v -360 -8 0
v -360 0 0
v -352 0 0
v -360 -8 0
v -368 -8 0
v -368 0 0
v -360 0 0
v -368 -8 0
v -376 -8 0
v -376 0 0
v -368 0 0
v -376 -8 0
v -384 -8 0
v -384 0 0
v -376 0 0
v -384 -8 0
v -392 -8 0
v -392 0 0
v -384 0 0
v -392 -8 0
v -400 -8 0
v -400 0 0
v -392 0 0
v -400 -8 0
v -408 -8 0
v -408 0 0
v -400 0 0
v -408 -8 0
v -416 -8 0
v -416 0 0
v -408 0 0
v -416 -8 0
v -424 -8 0
v -424 0 0
v -416 0 0
v -424 -8 0
v -432 -8 0
v -432 0 0
v -424 0 0
v -432 -8 0
v -440 -8 0
v -440 0 0
v -432 0 0
v -440 -8 0
v -448 -8 0
v -448 0 0
v -440 0 0
v -448 -8 0
v -456 -8 0
v -456 0 0
v -448 0 0
v -456 -8 0
v -464 -8 0
v -464 0 0
v -456 0 0
v -464 -8 0
v -472 -8 0
v -472 0 0
v -464 0 0
v -472 -8 0
v -480 -8 0
v -480 0 0
v -472 0 0
v -480 -8 0
v -488 -8 0
v -488 0 0
v -480 0 0
v -488 -8 0
v -496 -8 0
v -496 0 0
v -488 0 0
v -496 -8 0
v -504 -8 0
v -504 0 0
v -496 0 0
v -504 -8 0
v -512 -8 0
v -512 0 0
v -504 0 0
v -512 -8 0
v -520 -8 0
v -520 0 0
v -512 0 0
v -520 -8 0
v -528 -8 0
v -528 0 0
v -520 0 0
v -528 -8 0
v -536 -8 0
v -536 0 0
v -528 0 0
v -536 -8 0
v -544 -8 0
v -544 0 0
v -536 0 0
v -544 -8 0
v -552 -8 0
v -552 0 0
v -544 0 0
v -552 -8 0
v -560 -8 0
v -560 0 0
v -552 0 0
v -560 -8 0
v -568 -8 0
v -568 0 0
v -560 0 0
v -568 -8 0
v -576 -8 0
v -576 0 0
v -568 0 0
v -576 -8 0
v -584 -8 0
v -584 0 0
v -576 0 0
v -584 -8 0
v -592 -8 0
v -592 0 0
v -584 0 0
v -592 -8 0
v -600 -8 0
v -600 0 0
v -592 0 0
v -32 -56 0
v -40 -56 0
v -40 -48 0
v -32 -48 0
v -40 -56 0
v -48 -56 0
v -48 -48 0
v -40 -48 0
v -48 -56 0
v -56 -56 0
v -56 -48 0
v -48 -48 0
v -312 -56 0
v -320 -56 0
v -320 -48 0
v -312 -48 0
v -320 -56 0
v -328 -56 0
v -328 -48 0
v -320 -48 0
v -328 -56 0
v -336 -56 0
v -336 -48 0
v -328 -48 0
v -336 -56 0
v -344 -56 0
v -344 -48 0
v -336 -48 0
v -32 -64 0
v -40 -64 0
v -40 -56 0
v -32 -56 0
v -40 -64 0
v -48 -64 0
v -48 -56 0
v -40 -56 0
v -48 -64 0
v -56 -64 0
v -56 -56 0
v -48 -56 0
v -312 -64 0
v -320 -64 0
v -320 -56 0
v -312 -56 0
v -320 -64 0
v -328 -64 0
v -328 -56 0
v -320 -56 0
v -328 -64 0
v -336 -64 0
v -336 -56 0
v -328 -56 0
v -336 -64 0
v -344 -64 0
v -344 -56 0
v -336 -56 0
v -32 -72 0
v -40 -72 0
v -40 -64 0
v -32 -64 0
v -40 -72 0
v -48 -72 0
v -48 -64 0
v -40 -64 0
v -48 -72 0
v -56 -72 0
v -56 -64 0
v -48 -64 0
v -312 -72 0
v -320 -72 0
v -320 -64 0
v -312 -64 0
v -320 -72 0
v -328 -72 0
v -328 -64 0
v -320 -64 0
v -328 -72 0
v -336 -72 0
v -336 -64 0
v -328 -64 0
v -336 -72 0
v -344 -72 0
v -344 -64 0
v -336 -64 0
v -448 -112 0
v -456 -112 0
v -456 -104 0
v -448 -104 0
v -456 -112 0
v -464 -112 0
v -464 -104 0
v -456 -104 0
v -464 -112 0
v -472 -112 0
v -472 -104 0
v -464 -104 0
v -472 -112 0
v -480 -112 0
v -480 -104 0
v -472 -104 0
v -480 -112 0
v -488 -112 0
v -488 -104 0
v -480 -104 0
v -488 -112 0
v -496 -112 0
v -496 -104 0
v -488 -104 0
v -496 -112 0
v -504 -112 0
v -504 -104 0
v -496 -104 0
v -432 -120 0
v -440 -120 0
v -440 -112 0
v -432 -112 0
v -440 -120 0
v -448 -120 0
v -448 -112 0
v -440 -112 0
v -448 -120 0
v -456 -120 0
v -456 -112 0
v -448 -112 0
v -456 -120 0
v -464 -120 0
v -464 -112 0
v -456 -112 0
v -464 -120 0
v -472 -120 0
v -472 -112 0
v -464 -112 0
v -472 -120 0
v -480 -120 0
v -480 -112 0
v -472 -112 0
v -480 -120 0
v -488 -120 0
v -488 -112 0
v -480 -112 0
v -488 -120 0
v -496 -120 0
v -496 -112 0
v -488 -112 0
v -496 -120 0
v -504 -120 0
v -504 -112 0
v -496 -112 0
v -504 -120 0
v -512 -120 0
v -512 -112 0
v -504 -112 0
v -432 -128 0
v -440 -128 0
v -440 -120 0
v -432 -120 0
v -440 -128 0
v -448 -128 0
v -448 -120 0
v -440 -120 0
v -448 -128 0
v -456 -128 0
v -456 -120 0
v -448 -120 0
v -456 -128 0
v -464 -128 0
v -464 -120 0
v -456 -120 0
v -464 -128 0
v -472 -128 0
v -472 -120 0
v -464 -120 0
v -472 -128 0
v -480 -128 0
v -480 -120 0
v -472 -120 0
v -480 -128 0
v -488 -128 0
v -488 -120 0
v -480 -120 0
v -488 -128 0
v -496 -128 0
v -496 -120 0
v -488 -120 0
v -496 -128 0
v -504 -128 0
v -504 -120 0
v -496 -120 0
v -504 -128 0
v -512 -128 0
v -512 -120 0
v -504 -120 0
v -512 -128 0
v -520 -128 0
v -520 -120 0
v -512 -120 0
v -432 -136 0
v -440 -136 0
v -440 -128 0
v -432 -128 0
v -440 -136 0
v -448 -136 0
v -448 -128 0
v -440 -128 0
v -448 -136 0
v -456 -136 0
v -456 -128 0
v -448 -128 0
v -456 -136 0
v -464 -136 0
v -464 -128 0
v -456 -128 0
v -464 -136 0
v -472 -136 0
v -472 -128 0
v -464 -128 0
v -472 -136 0
v -480 -136 0
v -480 -128 0
v -472 -128 0
v -480 -136 0
v -488 -136 0
v -488 -128 0
v -480 -128 0
v -488 -136 0
v -496 -136 0
v -496 -128 0
v -488 -128 0
v -496 -136 0
v -504 -136 0
v -504 -128 0
v -496 -128 0
v -504 -136 0
v -512 -136 0
v -512 -128 0
v -504 -128 0
v -512 -136 0
v -520 -136 0
v -520 -128 0
v -512 -128 0
v -128 -192 0
v -136 -192 0
v -136 -184 0
v -128 -184 0
v -136 -192 0
v -144 -192 0
v -144 -184 0
v -136 -184 0
v -128 -200 0
v -136 -200 0
v -136 -192 0
v -128 -192 0
v -136 -200 0
v -144 -200 0
v -144 -192 0
v -136 -192 0
v -144 -200 0
v -152 -200 0
v -152 -192 0
v -144 -192 0
v -152 -200 0
v -160 -200 0
v -160 -192 0
v -152 -192 0
v -128 -208 0
v -136 -208 0
v -136 -200 0
v -128 -200 0
v -136 -208 0
v -144 -208 0
v -144 -200 0
v -136 -200 0
v -144 -208 0
v -152 -208 0
v -152 -200 0
v -144 -200 0
v -152 -208 0
v -160 -208 0
v -160 -200 0
v -152 -200 0
v -160 -208 0
v -168 -208 0
v -168 -200 0
v -160 -200 0
v -168 -208 0
v -176 -208 0
v -176 -200 0
v -168 -200 0
v -128 -216 0
v -136 -216 0
v -136 -208 0
v -128 -208 0
v -136 -216 0
v -144 -216 0
v -144 -208 0
v -136 -208 0
v -144 -216 0
v -152 -216 0
v -152 -208 0
v -144 -208 0
v -152 -216 0
v -160 -216 0
v -160 -208 0
v -152 -208 0
v -160 -216 0
v -168 -216 0
v -168 -208 0
v -160 -208 0
v -168 -216 0
v -176 -216 0
v -176 -208 0
v -168 -208 0
v -176 -216 0
v -184 -216 0
v -184 -208 0
v -176 -208 0
v -184 -216 0
v -192 -216 0
v -192 -208 0
v -184 -208 0
v -128 -224 0
v -136 -224 0
v -136 -216 0
v -128 -216 0
v -136 -224 0
v -144 -224 0
v -144 -216 0
v -136 -216 0
v -144 -224 0
v -152 -224 0
v -152 -216 0
v -144 -216 0
v -152 -224 0
v -160 -224 0
v -160 -216 0
v -152 -216 0
v -160 -224 0
v -168 -224 0
v -168 -216 0
v -160 -216 0
v -168 -224 0
v -176 -224 0
v -176 -216 0
v -168 -216 0
v -176 -224 0
v -184 -224 0
v -184 -216 0
v -176 -216 0
v -184 -224 0
v -192 -224 0
v -192 -216 0
v -184 -216 0
v -192 -224 0
v -200 -224 0
v -200 -216 0
v -192 -216 0
v -200 -224 0
v -208 -224 0
v -208 -216 0
v -200 -216 0
v -144 -232 0
v -152 -232 0
v -152 -224 0
v -144 -224 0
v -152 -232 0
v -160 -232 0
v -160 -224 0
v -152 -224 0
v -160 -232 0
v -168 -232 0
v -168 -224 0
v -160 -224 0
v -168 -232 0
v -176 -232 0
v -176 -224 0
v -168 -224 0
v -176 -232 0
v -184 -232 0
v -184 -224 0
v -176 -224 0
v -184 -232 0
v -192 -232 0
v -192 -224 0
v -184 -224 0
v -192 -232 0
v -200 -232 0
v -200 -224 0
v -192 -224 0
v -200 -232 0
v -208 -232 0
v -208 -224 0
v -200 -224 0
v -208 -232 0
v -216 -232 0
v -216 -224 0
v -208 -224 0
v -160 -240 0
v -168 -240 0
v -168 -232 0
v -160 -232 0
v -168 -240 0
v -176 -240 0
v -176 -232 0
v -168 -232 0
v -176 -240 0
v -184 -240 0
v -184 -232 0
v -176 -232 0
v -184 -240 0
v -192 -240 0
v -192 -232 0
v -184 -232 0
v -192 -240 0
v -200 -240 0
v -200 -232 0
v -192 -232 0
v -200 -240 0
v -208 -240 0
v -208 -232 0
v -200 -232 0
v -208 -240 0
v -216 -240 0
v -216 -232 0
v -208 -232 0

# Texture cooridinates (Count = 51)
vt 0.125 0.625
vt 0.25 0.625
vt 0.25 0.75
vt 0.125 0.75
vt 0 0.875
vt 0.125 0.875
vt 0.125 1
vt 0 1
vt 0.25 0.875
vt 0.25 1
vt 0.375 0.875
vt 0.375 1
vt 0.5 0.875
vt 0.5 1
vt 0 0.75
vt 0.375 0.75
vt 0.5 0.75
vt 0 0.625
vt 0.375 0.625
vt 0.5 0.625
vt 0.75 0.375
vt 0.875 0.375
vt 0.875 0.5
vt 0.75 0.5
vt 1 0.375
vt 1 0.5
vt 0.625 0.875
vt 0.625 1
vt 0.75 0.25
vt 0.875 0.25
vt 0.625 0.75
vt 0.5 0.375
vt 0.625 0.375
vt 0.625 0.5
vt 0.5 0.5
vt 0.5 0.25
vt 0.625 0.25
vt 0.5 0.125
vt 0.625 0.125
vt 0.75 0.125
vt 0.5 0
vt 0.625 0
vt 0.75 0
vt 0.75 0.875
vt 0.875 0.875
vt 0.875 1
vt 0.75 1
vt 0 0.25
vt 0.125 0.25
vt 0.125 0.375
vt 0 0.375

# Normal
vn 0 0 -1

# Mesh description
g 1_3_20_mesh_0002

# Faces
f 1/1/1 2/2/1 3/3/1 4/4/1
f 5/1/1 6/2/1 7/3/1 8/4/1
f 9/1/1 10/2/1 11/3/1 12/4/1
f 13/1/1 14/2/1 15/3/1 16/4/1
f 17/1/1 18/2/1 19/3/1 20/4/1
f 21/1/1 22/2/1 23/3/1 24/4/1
f 25/1/1 26/2/1 27/3/1 28/4/1
f 29/1/1 30/2/1 31/3/1 32/4/1
f 33/1/1 34/2/1 35/3/1 36/4/1
f 37/1/1 38/2/1 39/3/1 40/4/1
f 41/1/1 42/2/1 43/3/1 44/4/1
f 45/1/1 46/2/1 47/3/1 48/4/1
f 49/1/1 50/2/1 51/3/1 52/4/1
f 53/1/1 54/2/1 55/3/1 56/4/1
f 57/1/1 58/2/1 59/3/1 60/4/1
f 61/1/1 62/2/1 63/3/1 64/4/1
f 65/1/1 66/2/1 67/3/1 68/4/1
f 69/1/1 70/2/1 71/3/1 72/4/1
f 73/1/1 74/2/1 75/3/1 76/4/1
f 77/1/1 78/2/1 79/3/1 80/4/1
f 81/1/1 82/2/1 83/3/1 84/4/1
f 85/1/1 86/2/1 87/3/1 88/4/1
f 89/1/1 90/2/1 91/3/1 92/4/1
f 93/1/1 94/2/1 95/3/1 96/4/1
f 97/1/1 98/2/1 99/3/1 100/4/1
f 101/1/1 102/2/1 103/3/1 104/4/1
f 105/1/1 106/2/1 107/3/1 108/4/1
f 109/1/1 110/2/1 111/3/1 112/4/1
f 113/1/1 114/2/1 115/3/1 116/4/1
f 117/1/1 118/2/1 119/3/1 120/4/1
f 121/1/1 122/2/1 123/3/1 124/4/1
f 125/1/1 126/2/1 127/3/1 128/4/1
f 129/1/1 130/2/1 131/3/1 132/4/1
f 133/1/1 134/2/1 135/3/1 136/4/1
f 137/1/1 138/2/1 139/3/1 140/4/1
f 141/1/1 142/2/1 143/3/1 144/4/1
f 145/1/1 146/2/1 147/3/1 148/4/1
f 149/1/1 150/2/1 151/3/1 152/4/1
f 153/1/1 154/2/1 155/3/1 156/4/1
f 157/1/1 158/2/1 159/3/1 160/4/1
f 161/1/1 162/2/1 163/3/1 164/4/1
f 165/1/1 166/2/1 167/3/1 168/4/1
f 169/1/1 170/2/1 171/3/1 172/4/1
f 173/1/1 174/2/1 175/3/1 176/4/1
f 177/1/1 178/2/1 179/3/1 180/4/1
f 181/1/1 182/2/1 183/3/1 184/4/1
f 185/1/1 186/2/1 187/3/1 188/4/1
f 189/1/1 190/2/1 191/3/1 192/4/1
f 193/1/1 194/2/1 195/3/1 196/4/1
f 197/1/1 198/2/1 199/3/1 200/4/1
f 201/1/1 202/2/1 203/3/1 204/4/1
f 205/1/1 206/2/1 207/3/1 208/4/1
f 209/1/1 210/2/1 211/3/1 212/4/1
f 213/1/1 214/2/1 215/3/1 216/4/1
f 217/1/1 218/2/1 219/3/1 220/4/1
f 221/1/1 222/2/1 223/3/1 224/4/1
f 225/1/1 226/2/1 227/3/1 228/4/1
f 229/1/1 230/2/1 231/3/1 232/4/1
f 233/1/1 234/2/1 235/3/1 236/4/1
f 237/1/1 238/2/1 239/3/1 240/4/1
f 241/1/1 242/2/1 243/3/1 244/4/1
f 245/1/1 246/2/1 247/3/1 248/4/1
f 249/1/1 250/2/1 251/3/1 252/4/1
f 253/1/1 254/2/1 255/3/1 256/4/1
f 257/1/1 258/2/1 259/3/1 260/4/1
f 261/1/1 262/2/1 263/3/1 264/4/1
f 265/1/1 266/2/1 267/3/1 268/4/1
f 269/1/1 270/2/1 271/3/1 272/4/1
f 273/1/1 274/2/1 275/3/1 276/4/1
f 277/1/1 278/2/1 279/3/1 280/4/1
f 281/1/1 282/2/1 283/3/1 284/4/1
f 285/1/1 286/2/1 287/3/1 288/4/1
f 289/1/1 290/2/1 291/3/1 292/4/1
f 293/1/1 294/2/1 295/3/1 296/4/1
f 297/1/1 298/2/1 299/3/1 300/4/1
f 301/5/1 302/6/1 303/7/1 304/8/1
f 305/6/1 306/9/1 307/10/1 308/7/1
f 309/9/1 310/11/1 311/12/1 312/10/1
f 313/5/1 314/6/1 315/7/1 316/8/1
f 317/6/1 318/9/1 319/10/1 320/7/1
f 321/9/1 322/11/1 323/12/1 324/10/1
f 325/11/1 326/13/1 327/14/1 328/12/1
f 329/15/1 330/4/1 331/6/1 332/5/1
f 333/4/1 334/3/1 335/9/1 336/6/1
f 337/3/1 338/16/1 339/11/1 340/9/1
f 341/15/1 342/4/1 343/6/1 344/5/1
f 345/4/1 346/3/1 347/9/1 348/6/1
f 349/3/1 350/16/1 351/11/1 352/9/1
f 353/16/1 354/17/1 355/13/1 356/11/1
f 357/18/1 358/1/1 359/4/1 360/15/1
f 361/1/1 362/2/1 363/3/1 364/4/1
f 365/2/1 366/19/1 367/16/1 368/3/1
f 369/18/1 370/1/1 371/4/1 372/15/1
f 373/1/1 374/2/1 375/3/1 376/4/1
f 377/2/1 378/19/1 379/16/1 380/3/1
f 381/19/1 382/20/1 383/17/1 384/16/1
f 385/21/1 386/22/1 387/23/1 388/24/1
f 389/22/1 390/25/1 391/26/1 392/23/1
f 393/5/1 394/6/1 395/7/1 396/8/1
f 397/6/1 398/9/1 399/10/1 400/7/1
f 401/9/1 402/11/1 403/12/1 404/10/1
f 405/11/1 406/13/1 407/14/1 408/12/1
f 409/13/1 410/27/1 411/28/1 412/14/1
f 413/21/1 414/22/1 415/23/1 416/24/1
f 417/22/1 418/25/1 419/26/1 420/23/1
f 421/29/1 422/30/1 423/22/1 424/21/1
f 425/15/1 426/4/1 427/6/1 428/5/1
f 429/15/1 430/4/1 431/6/1 432/5/1
f 433/4/1 434/3/1 435/9/1 436/6/1
f 437/3/1 438/16/1 439/11/1 440/9/1
f 441/16/1 442/17/1 443/13/1 444/11/1
f 445/17/1 446/31/1 447/27/1 448/13/1
f 449/13/1 450/27/1 451/28/1 452/14/1
f 453/29/1 454/30/1 455/22/1 456/21/1
f 457/15/1 458/4/1 459/6/1 460/5/1
f 461/15/1 462/4/1 463/6/1 464/5/1
f 465/15/1 466/4/1 467/6/1 468/5/1
f 469/4/1 470/3/1 471/9/1 472/6/1
f 473/3/1 474/16/1 475/11/1 476/9/1
f 477/16/1 478/17/1 479/13/1 480/11/1
f 481/16/1 482/17/1 483/13/1 484/11/1
f 485/16/1 486/17/1 487/13/1 488/11/1
f 489/17/1 490/31/1 491/27/1 492/13/1
f 493/13/1 494/27/1 495/28/1 496/14/1
f 497/18/1 498/1/1 499/4/1 500/15/1
f 501/18/1 502/1/1 503/4/1 504/15/1
f 505/18/1 506/1/1 507/4/1 508/15/1
f 509/18/1 510/1/1 511/4/1 512/15/1
f 513/18/1 514/1/1 515/4/1 516/15/1
f 517/18/1 518/1/1 519/4/1 520/15/1
f 521/18/1 522/1/1 523/4/1 524/15/1
f 525/18/1 526/1/1 527/4/1 528/15/1
f 529/18/1 530/1/1 531/4/1 532/15/1
f 533/18/1 534/1/1 535/4/1 536/15/1
f 537/17/1 538/31/1 539/27/1 540/13/1
f 541/32/1 542/33/1 543/34/1 544/35/1
f 545/33/1 546/21/1 547/24/1 548/34/1
f 549/36/1 550/37/1 551/33/1 552/32/1
f 553/37/1 554/29/1 555/21/1 556/33/1
f 557/32/1 558/33/1 559/34/1 560/35/1
f 561/33/1 562/21/1 563/24/1 564/34/1
f 565/15/1 566/4/1 567/6/1 568/5/1
f 569/4/1 570/3/1 571/9/1 572/6/1
f 573/36/1 574/37/1 575/33/1 576/32/1
f 577/37/1 578/29/1 579/21/1 580/33/1
f 581/32/1 582/33/1 583/34/1 584/35/1
f 585/33/1 586/21/1 587/24/1 588/34/1
f 589/38/1 590/39/1 591/37/1 592/36/1
f 593/39/1 594/40/1 595/29/1 596/37/1
f 597/15/1 598/4/1 599/6/1 600/5/1
f 601/4/1 602/3/1 603/9/1 604/6/1
f 605/36/1 606/37/1 607/33/1 608/32/1
f 609/37/1 610/29/1 611/21/1 612/33/1
f 613/32/1 614/33/1 615/34/1 616/35/1
f 617/33/1 618/21/1 619/24/1 620/34/1
f 621/41/1 622/42/1 623/39/1 624/38/1
f 625/42/1 626/43/1 627/40/1 628/39/1
f 629/38/1 630/39/1 631/37/1 632/36/1
f 633/39/1 634/40/1 635/29/1 636/37/1
f 637/4/1 638/3/1 639/9/1 640/6/1
f 641/4/1 642/3/1 643/9/1 644/6/1
f 645/36/1 646/37/1 647/33/1 648/32/1
f 649/37/1 650/29/1 651/21/1 652/33/1
f 653/32/1 654/33/1 655/34/1 656/35/1
f 657/33/1 658/21/1 659/24/1 660/34/1
f 661/41/1 662/42/1 663/39/1 664/38/1
f 665/42/1 666/43/1 667/40/1 668/39/1
f 669/38/1 670/39/1 671/37/1 672/36/1
f 673/39/1 674/40/1 675/29/1 676/37/1
f 677/4/1 678/3/1 679/9/1 680/6/1
f 681/4/1 682/3/1 683/9/1 684/6/1
f 685/36/1 686/37/1 687/33/1 688/32/1
f 689/37/1 690/29/1 691/21/1 692/33/1
f 693/44/1 694/45/1 695/46/1 696/47/1
f 697/41/1 698/42/1 699/39/1 700/38/1
f 701/42/1 702/43/1 703/40/1 704/39/1
f 705/18/1 706/1/1 707/4/1 708/15/1
f 709/1/1 710/2/1 711/3/1 712/4/1
f 713/2/1 714/19/1 715/16/1 716/3/1
f 717/19/1 718/20/1 719/17/1 720/16/1
f 721/48/1 722/49/1 723/50/1 724/51/1

