# Tiled2Unity generated file. Do not modify by hand.
# Wavefront file for '1_1_Module33_mesh_0001.obj'

# Vertices (Count = 120)
v -248 -16 0
v -256 -16 0
v -256 -8 0
v -248 -8 0
v -248 -24 0
v -256 -24 0
v -256 -16 0
v -248 -16 0
v -88 -32 0
v -96 -32 0
v -96 -24 0
v -88 -24 0
v -96 -32 0
v -104 -32 0
v -104 -24 0
v -96 -24 0
v -144 -32 0
v -152 -32 0
v -152 -24 0
v -144 -24 0
v -152 -32 0
v -160 -32 0
v -160 -24 0
v -152 -24 0
v -248 -32 0
v -256 -32 0
v -256 -24 0
v -248 -24 0
v -248 -40 0
v -256 -40 0
v -256 -32 0
v -248 -32 0
v -248 -48 0
v -256 -48 0
v -256 -40 0
v -248 -40 0
v -248 -56 0
v -256 -56 0
v -256 -48 0
v -248 -48 0
v -88 -80 0
v -96 -80 0
v -96 -72 0
v -88 -72 0
v -96 -80 0
v -104 -80 0
v -104 -72 0
v -96 -72 0
v -144 -80 0
v -152 -80 0
v -152 -72 0
v -144 -72 0
v -152 -80 0
v -160 -80 0
v -160 -72 0
v -152 -72 0
v -344 -104 0
v -352 -104 0
v -352 -96 0
v -344 -96 0
v -352 -104 0
v -360 -104 0
v -360 -96 0
v -352 -96 0
v -400 -104 0
v -408 -104 0
v -408 -96 0
v -400 -96 0
v -408 -104 0
v -416 -104 0
v -416 -96 0
v -408 -96 0
v -344 -152 0
v -352 -152 0
v -352 -144 0
v -344 -144 0
v -352 -152 0
v -360 -152 0
v -360 -144 0
v -352 -144 0
v -400 -152 0
v -408 -152 0
v -408 -144 0
v -400 -144 0
v -408 -152 0
v -416 -152 0
v -416 -144 0
v -408 -144 0
v -216 -176 0
v -224 -176 0
v -224 -168 0
v -216 -168 0
v -224 -176 0
v -232 -176 0
v -232 -168 0
v -224 -168 0
v -272 -176 0
v -280 -176 0
v -280 -168 0
v -272 -168 0
v -280 -176 0
v -288 -176 0
v -288 -168 0
v -280 -168 0
v -216 -224 0
v -224 -224 0
v -224 -216 0
v -216 -216 0
v -224 -224 0
v -232 -224 0
v -232 -216 0
v -224 -216 0
v -272 -224 0
v -280 -224 0
v -280 -216 0
v -272 -216 0
v -280 -224 0
v -288 -224 0
v -288 -216 0
v -280 -216 0

# Texture cooridinates (Count = 8)
vt 0.3333333 0.6666666
vt 0.6666667 0.6666666
vt 0.6666667 1
vt 0.3333333 1
vt 0 0
vt 0.3333333 0
vt 0.3333333 0.3333333
vt 0 0.3333333

# Normal
vn 0 0 -1

# Mesh description
g 1_1_Module33_mesh_0001

# Faces
f 1/1/1 2/2/1 3/3/1 4/4/1
f 5/1/1 6/2/1 7/3/1 8/4/1
f 9/1/1 10/2/1 11/3/1 12/4/1
f 13/1/1 14/2/1 15/3/1 16/4/1
f 17/1/1 18/2/1 19/3/1 20/4/1
f 21/1/1 22/2/1 23/3/1 24/4/1
f 25/1/1 26/2/1 27/3/1 28/4/1
f 29/1/1 30/2/1 31/3/1 32/4/1
f 33/1/1 34/2/1 35/3/1 36/4/1
f 37/5/1 38/6/1 39/7/1 40/8/1
f 41/1/1 42/2/1 43/3/1 44/4/1
f 45/1/1 46/2/1 47/3/1 48/4/1
f 49/1/1 50/2/1 51/3/1 52/4/1
f 53/1/1 54/2/1 55/3/1 56/4/1
f 57/1/1 58/2/1 59/3/1 60/4/1
f 61/1/1 62/2/1 63/3/1 64/4/1
f 65/1/1 66/2/1 67/3/1 68/4/1
f 69/1/1 70/2/1 71/3/1 72/4/1
f 73/1/1 74/2/1 75/3/1 76/4/1
f 77/1/1 78/2/1 79/3/1 80/4/1
f 81/1/1 82/2/1 83/3/1 84/4/1
f 85/1/1 86/2/1 87/3/1 88/4/1
f 89/1/1 90/2/1 91/3/1 92/4/1
f 93/1/1 94/2/1 95/3/1 96/4/1
f 97/1/1 98/2/1 99/3/1 100/4/1
f 101/1/1 102/2/1 103/3/1 104/4/1
f 105/1/1 106/2/1 107/3/1 108/4/1
f 109/1/1 110/2/1 111/3/1 112/4/1
f 113/1/1 114/2/1 115/3/1 116/4/1
f 117/1/1 118/2/1 119/3/1 120/4/1

