# Tiled2Unity generated file. Do not modify by hand.
# Wavefront file for '1_2_27a_mesh_0004.obj'

# Vertices (Count = 144)
v -216 -248 0
v -224 -248 0
v -224 -240 0
v -216 -240 0
v -224 -248 0
v -232 -248 0
v -232 -240 0
v -224 -240 0
v -232 -248 0
v -240 -248 0
v -240 -240 0
v -232 -240 0
v -240 -248 0
v -248 -248 0
v -248 -240 0
v -240 -240 0
v -248 -248 0
v -256 -248 0
v -256 -240 0
v -248 -240 0
v -256 -248 0
v -264 -248 0
v -264 -240 0
v -256 -240 0
v -128 -272 0
v -136 -272 0
v -136 -264 0
v -128 -264 0
v -136 -272 0
v -144 -272 0
v -144 -264 0
v -136 -264 0
v -336 -272 0
v -344 -272 0
v -344 -264 0
v -336 -264 0
v -120 -280 0
v -128 -280 0
v -128 -272 0
v -120 -272 0
v -128 -280 0
v -136 -280 0
v -136 -272 0
v -128 -272 0
v -336 -280 0
v -344 -280 0
v -344 -272 0
v -336 -272 0
v -344 -280 0
v -352 -280 0
v -352 -272 0
v -344 -272 0
v -112 -288 0
v -120 -288 0
v -120 -280 0
v -112 -280 0
v -120 -288 0
v -128 -288 0
v -128 -280 0
v -120 -280 0
v -344 -288 0
v -352 -288 0
v -352 -280 0
v -344 -280 0
v -352 -288 0
v -360 -288 0
v -360 -280 0
v -352 -280 0
v -352 -296 0
v -360 -296 0
v -360 -288 0
v -352 -288 0
v -208 -472 0
v -216 -472 0
v -216 -464 0
v -208 -464 0
v -216 -472 0
v -224 -472 0
v -224 -464 0
v -216 -464 0
v -224 -472 0
v -232 -472 0
v -232 -464 0
v -224 -464 0
v -232 -472 0
v -240 -472 0
v -240 -464 0
v -232 -464 0
v -240 -472 0
v -248 -472 0
v -248 -464 0
v -240 -464 0
v -248 -472 0
v -256 -472 0
v -256 -464 0
v -248 -464 0
v -256 -472 0
v -264 -472 0
v -264 -464 0
v -256 -464 0
v -264 -472 0
v -272 -472 0
v -272 -464 0
v -264 -464 0
v -216 -480 0
v -224 -480 0
v -224 -472 0
v -216 -472 0
v -224 -480 0
v -232 -480 0
v -232 -472 0
v -224 -472 0
v -232 -480 0
v -240 -480 0
v -240 -472 0
v -232 -472 0
v -240 -480 0
v -248 -480 0
v -248 -472 0
v -240 -472 0
v -248 -480 0
v -256 -480 0
v -256 -472 0
v -248 -472 0
v -256 -480 0
v -264 -480 0
v -264 -472 0
v -256 -472 0
v -224 -488 0
v -232 -488 0
v -232 -480 0
v -224 -480 0
v -232 -488 0
v -240 -488 0
v -240 -480 0
v -232 -480 0
v -240 -488 0
v -248 -488 0
v -248 -480 0
v -240 -480 0
v -248 -488 0
v -256 -488 0
v -256 -480 0
v -248 -480 0

# Texture cooridinates (Count = 38)
vt 0.625 0.875
vt 0.75 0.875
vt 0.75 1
vt 0.625 1
vt 0 0.625
vt 0.125 0.625
vt 0.125 0.75
vt 0 0.75
vt 0.25 0.625
vt 0.375 0.625
vt 0.375 0.75
vt 0.25 0.75
vt 0.5 0.625
vt 0.5 0.75
vt 0.5 0.875
vt 0.5 1
vt 0.625 0.5
vt 0.75 0.5
vt 0.75 0.625
vt 0.625 0.625
vt 0.875 0.875
vt 0.875 1
vt 0.5 0.5
vt 0.625 0.75
vt 0 0.875
vt 0.125 0.875
vt 0.125 1
vt 0 1
vt 0.25 0.875
vt 0.25 1
vt 0.375 0.875
vt 0.375 1
vt 0.875 0.625
vt 1 0.625
vt 1 0.75
vt 0.875 0.75
vt 0.875 0.5
vt 1 0.5

# Normal
vn 0 0 -1

# Mesh description
g 1_2_27a_mesh_0004

# Faces
f 1/1/1 2/2/1 3/3/1 4/4/1
f 5/5/1 6/6/1 7/7/1 8/8/1
f 9/9/1 10/10/1 11/11/1 12/12/1
f 13/10/1 14/13/1 15/14/1 16/11/1
f 17/10/1 18/13/1 19/14/1 20/11/1
f 21/15/1 22/1/1 23/4/1 24/16/1
f 25/1/1 26/2/1 27/3/1 28/4/1
f 29/17/1 30/18/1 31/19/1 32/20/1
f 33/2/1 34/21/1 35/22/1 36/3/1
f 37/1/1 38/2/1 39/3/1 40/4/1
f 41/17/1 42/18/1 43/19/1 44/20/1
f 45/23/1 46/17/1 47/20/1 48/13/1
f 49/2/1 50/21/1 51/22/1 52/3/1
f 53/1/1 54/2/1 55/3/1 56/4/1
f 57/17/1 58/18/1 59/19/1 60/20/1
f 61/23/1 62/17/1 63/20/1 64/13/1
f 65/2/1 66/21/1 67/22/1 68/3/1
f 69/23/1 70/17/1 71/20/1 72/13/1
f 73/23/1 74/17/1 75/20/1 76/13/1
f 77/13/1 78/20/1 79/24/1 80/14/1
f 81/25/1 82/26/1 83/27/1 84/28/1
f 85/26/1 86/29/1 87/30/1 88/27/1
f 89/29/1 90/31/1 91/32/1 92/30/1
f 93/31/1 94/15/1 95/16/1 96/32/1
f 97/33/1 98/34/1 99/35/1 100/36/1
f 101/37/1 102/38/1 103/34/1 104/33/1
f 105/23/1 106/17/1 107/20/1 108/13/1
f 109/13/1 110/20/1 111/24/1 112/14/1
f 113/8/1 114/7/1 115/26/1 116/25/1
f 117/8/1 118/7/1 119/26/1 120/25/1
f 121/33/1 122/34/1 123/35/1 124/36/1
f 125/37/1 126/38/1 127/34/1 128/33/1
f 129/23/1 130/17/1 131/20/1 132/13/1
f 133/13/1 134/20/1 135/24/1 136/14/1
f 137/33/1 138/34/1 139/35/1 140/36/1
f 141/37/1 142/38/1 143/34/1 144/33/1

