# Tiled2Unity generated file. Do not modify by hand.
# Wavefront file for '1_2_27a_mesh_0002.obj'

# Vertices (Count = 44)
v -112 -432 0
v -120 -432 0
v -120 -424 0
v -112 -424 0
v -120 -432 0
v -128 -432 0
v -128 -424 0
v -120 -424 0
v -352 -432 0
v -360 -432 0
v -360 -424 0
v -352 -424 0
v -120 -440 0
v -128 -440 0
v -128 -432 0
v -120 -432 0
v -128 -440 0
v -136 -440 0
v -136 -432 0
v -128 -432 0
v -344 -440 0
v -352 -440 0
v -352 -432 0
v -344 -432 0
v -352 -440 0
v -360 -440 0
v -360 -432 0
v -352 -432 0
v -128 -448 0
v -136 -448 0
v -136 -440 0
v -128 -440 0
v -136 -448 0
v -144 -448 0
v -144 -440 0
v -136 -440 0
v -336 -448 0
v -344 -448 0
v -344 -440 0
v -336 -440 0
v -344 -448 0
v -352 -448 0
v -352 -440 0
v -344 -440 0

# Texture cooridinates (Count = 12)
vt 0.5 0.5
vt 0.625 0.5
vt 0.625 0.625
vt 0.5 0.625
vt 0.75 0.875
vt 0.875 0.875
vt 0.875 1
vt 0.75 1
vt 1 0.875
vt 1 1
vt 0.75 0.5
vt 0.75 0.625

# Normal
vn 0 0 -1

# Mesh description
g 1_2_27a_mesh_0002

# Faces
f 1/1/1 2/2/1 3/3/1 4/4/1
f 5/5/1 6/6/1 7/7/1 8/8/1
f 9/6/1 10/9/1 11/10/1 12/7/1
f 13/1/1 14/2/1 15/3/1 16/4/1
f 17/5/1 18/6/1 19/7/1 20/8/1
f 21/6/1 22/9/1 23/10/1 24/7/1
f 25/2/1 26/11/1 27/12/1 28/3/1
f 29/1/1 30/2/1 31/3/1 32/4/1
f 33/5/1 34/6/1 35/7/1 36/8/1
f 37/6/1 38/9/1 39/10/1 40/7/1
f 41/2/1 42/11/1 43/12/1 44/3/1

