# Tiled2Unity generated file. Do not modify by hand.
# Wavefront file for '1_2_27a_mesh_0001.obj'

# Vertices (Count = 264)
v -216 -328 0
v -224 -328 0
v -224 -320 0
v -216 -320 0
v -224 -328 0
v -232 -328 0
v -232 -320 0
v -224 -320 0
v -232 -328 0
v -240 -328 0
v -240 -320 0
v -232 -320 0
v -240 -328 0
v -248 -328 0
v -248 -320 0
v -240 -320 0
v -248 -328 0
v -256 -328 0
v -256 -320 0
v -248 -320 0
v -256 -328 0
v -264 -328 0
v -264 -320 0
v -256 -320 0
v -208 -336 0
v -216 -336 0
v -216 -328 0
v -208 -328 0
v -216 -336 0
v -224 -336 0
v -224 -328 0
v -216 -328 0
v -224 -336 0
v -232 -336 0
v -232 -328 0
v -224 -328 0
v -232 -336 0
v -240 -336 0
v -240 -328 0
v -232 -328 0
v -240 -336 0
v -248 -336 0
v -248 -328 0
v -240 -328 0
v -248 -336 0
v -256 -336 0
v -256 -328 0
v -248 -328 0
v -256 -336 0
v -264 -336 0
v -264 -328 0
v -256 -328 0
v -264 -336 0
v -272 -336 0
v -272 -328 0
v -264 -328 0
v -200 -344 0
v -208 -344 0
v -208 -336 0
v -200 -336 0
v -208 -344 0
v -216 -344 0
v -216 -336 0
v -208 -336 0
v -216 -344 0
v -224 -344 0
v -224 -336 0
v -216 -336 0
v -224 -344 0
v -232 -344 0
v -232 -336 0
v -224 -336 0
v -232 -344 0
v -240 -344 0
v -240 -336 0
v -232 -336 0
v -240 -344 0
v -248 -344 0
v -248 -336 0
v -240 -336 0
v -248 -344 0
v -256 -344 0
v -256 -336 0
v -248 -336 0
v -256 -344 0
v -264 -344 0
v -264 -336 0
v -256 -336 0
v -264 -344 0
v -272 -344 0
v -272 -336 0
v -264 -336 0
v -272 -344 0
v -280 -344 0
v -280 -336 0
v -272 -336 0
v -200 -352 0
v -208 -352 0
v -208 -344 0
v -200 -344 0
v -208 -352 0
v -216 -352 0
v -216 -344 0
v -208 -344 0
v -216 -352 0
v -224 -352 0
v -224 -344 0
v -216 -344 0
v -256 -352 0
v -264 -352 0
v -264 -344 0
v -256 -344 0
v -264 -352 0
v -272 -352 0
v -272 -344 0
v -264 -344 0
v -272 -352 0
v -280 -352 0
v -280 -344 0
v -272 -344 0
v -200 -360 0
v -208 -360 0
v -208 -352 0
v -200 -352 0
v -208 -360 0
v -216 -360 0
v -216 -352 0
v -208 -352 0
v -216 -360 0
v -224 -360 0
v -224 -352 0
v -216 -352 0
v -256 -360 0
v -264 -360 0
v -264 -352 0
v -256 -352 0
v -264 -360 0
v -272 -360 0
v -272 -352 0
v -264 -352 0
v -272 -360 0
v -280 -360 0
v -280 -352 0
v -272 -352 0
v -200 -368 0
v -208 -368 0
v -208 -360 0
v -200 -360 0
v -208 -368 0
v -216 -368 0
v -216 -360 0
v -208 -360 0
v -216 -368 0
v -224 -368 0
v -224 -360 0
v -216 -360 0
v -256 -368 0
v -264 -368 0
v -264 -360 0
v -256 -360 0
v -264 -368 0
v -272 -368 0
v -272 -360 0
v -264 -360 0
v -272 -368 0
v -280 -368 0
v -280 -360 0
v -272 -360 0
v -200 -376 0
v -208 -376 0
v -208 -368 0
v -200 -368 0
v -208 -376 0
v -216 -376 0
v -216 -368 0
v -208 -368 0
v -216 -376 0
v -224 -376 0
v -224 -368 0
v -216 -368 0
v -224 -376 0
v -232 -376 0
v -232 -368 0
v -224 -368 0
v -232 -376 0
v -240 -376 0
v -240 -368 0
v -232 -368 0
v -240 -376 0
v -248 -376 0
v -248 -368 0
v -240 -368 0
v -248 -376 0
v -256 -376 0
v -256 -368 0
v -248 -368 0
v -256 -376 0
v -264 -376 0
v -264 -368 0
v -256 -368 0
v -264 -376 0
v -272 -376 0
v -272 -368 0
v -264 -368 0
v -272 -376 0
v -280 -376 0
v -280 -368 0
v -272 -368 0
v -208 -384 0
v -216 -384 0
v -216 -376 0
v -208 -376 0
v -216 -384 0
v -224 -384 0
v -224 -376 0
v -216 -376 0
v -224 -384 0
v -232 -384 0
v -232 -376 0
v -224 -376 0
v -232 -384 0
v -240 -384 0
v -240 -376 0
v -232 -376 0
v -240 -384 0
v -248 -384 0
v -248 -376 0
v -240 -376 0
v -248 -384 0
v -256 -384 0
v -256 -376 0
v -248 -376 0
v -256 -384 0
v -264 -384 0
v -264 -376 0
v -256 -376 0
v -264 -384 0
v -272 -384 0
v -272 -376 0
v -264 -376 0
v -216 -392 0
v -224 -392 0
v -224 -384 0
v -216 -384 0
v -224 -392 0
v -232 -392 0
v -232 -384 0
v -224 -384 0
v -232 -392 0
v -240 -392 0
v -240 -384 0
v -232 -384 0
v -240 -392 0
v -248 -392 0
v -248 -384 0
v -240 -384 0
v -248 -392 0
v -256 -392 0
v -256 -384 0
v -248 -384 0
v -256 -392 0
v -264 -392 0
v -264 -384 0
v -256 -384 0

# Texture cooridinates (Count = 31)
vt 0.625 0.875
vt 0.75 0.875
vt 0.75 1
vt 0.625 1
vt 0 0.875
vt 0.125 0.875
vt 0.125 1
vt 0 1
vt 0.25 0.875
vt 0.25 1
vt 0.375 0.875
vt 0.375 1
vt 0.5 0.875
vt 0.5 1
vt 0.625 0.75
vt 0.75 0.75
vt 0 0.75
vt 0.125 0.75
vt 0.5 0.75
vt 0 0.625
vt 0.125 0.625
vt 0.25 0.625
vt 0.25 0.75
vt 0.375 0.75
vt 0.5 0.5
vt 0.625 0.5
vt 0.625 0.625
vt 0.5 0.625
vt 0.75 0.625
vt 0.75 0.5
vt 0.375 0.625

# Normal
vn 0 0 -1

# Mesh description
g 1_2_27a_mesh_0001

# Faces
f 1/1/1 2/2/1 3/3/1 4/4/1
f 5/5/1 6/6/1 7/7/1 8/8/1
f 9/5/1 10/6/1 11/7/1 12/8/1
f 13/6/1 14/9/1 15/10/1 16/7/1
f 17/9/1 18/11/1 19/12/1 20/10/1
f 21/13/1 22/1/1 23/4/1 24/14/1
f 25/1/1 26/2/1 27/3/1 28/4/1
f 29/15/1 30/16/1 31/2/1 32/1/1
f 33/17/1 34/18/1 35/6/1 36/5/1
f 37/17/1 38/18/1 39/6/1 40/5/1
f 41/17/1 42/18/1 43/6/1 44/5/1
f 45/17/1 46/18/1 47/6/1 48/5/1
f 49/19/1 50/15/1 51/1/1 52/13/1
f 53/13/1 54/1/1 55/4/1 56/14/1
f 57/1/1 58/2/1 59/3/1 60/4/1
f 61/15/1 62/16/1 63/2/1 64/1/1
f 65/17/1 66/18/1 67/6/1 68/5/1
f 69/20/1 70/21/1 71/18/1 72/17/1
f 73/20/1 74/21/1 75/18/1 76/17/1
f 77/20/1 78/21/1 79/18/1 80/17/1
f 81/21/1 82/22/1 83/23/1 84/18/1
f 85/17/1 86/18/1 87/6/1 88/5/1
f 89/19/1 90/15/1 91/1/1 92/13/1
f 93/13/1 94/1/1 95/4/1 96/14/1
f 97/15/1 98/16/1 99/2/1 100/1/1
f 101/17/1 102/18/1 103/6/1 104/5/1
f 105/17/1 106/18/1 107/6/1 108/5/1
f 109/17/1 110/18/1 111/6/1 112/5/1
f 113/17/1 114/18/1 115/6/1 116/5/1
f 117/19/1 118/15/1 119/1/1 120/13/1
f 121/17/1 122/18/1 123/6/1 124/5/1
f 125/18/1 126/23/1 127/9/1 128/6/1
f 129/23/1 130/24/1 131/11/1 132/9/1
f 133/17/1 134/18/1 135/6/1 136/5/1
f 137/17/1 138/18/1 139/6/1 140/5/1
f 141/17/1 142/18/1 143/6/1 144/5/1
f 145/17/1 146/18/1 147/6/1 148/5/1
f 149/18/1 150/23/1 151/9/1 152/6/1
f 153/23/1 154/24/1 155/11/1 156/9/1
f 157/17/1 158/18/1 159/6/1 160/5/1
f 161/17/1 162/18/1 163/6/1 164/5/1
f 165/17/1 166/18/1 167/6/1 168/5/1
f 169/25/1 170/26/1 171/27/1 172/28/1
f 173/17/1 174/18/1 175/6/1 176/5/1
f 177/18/1 178/23/1 179/9/1 180/6/1
f 181/5/1 182/6/1 183/7/1 184/8/1
f 185/5/1 186/6/1 187/7/1 188/8/1
f 189/6/1 190/9/1 191/10/1 192/7/1
f 193/9/1 194/11/1 195/12/1 196/10/1
f 197/23/1 198/24/1 199/11/1 200/9/1
f 201/27/1 202/29/1 203/16/1 204/15/1
f 205/26/1 206/30/1 207/29/1 208/27/1
f 209/25/1 210/26/1 211/27/1 212/28/1
f 213/17/1 214/18/1 215/6/1 216/5/1
f 217/18/1 218/23/1 219/9/1 220/6/1
f 221/23/1 222/24/1 223/11/1 224/9/1
f 225/23/1 226/24/1 227/11/1 228/9/1
f 229/18/1 230/23/1 231/9/1 232/6/1
f 233/23/1 234/24/1 235/11/1 236/9/1
f 237/26/1 238/30/1 239/29/1 240/27/1
f 241/25/1 242/26/1 243/27/1 244/28/1
f 245/20/1 246/21/1 247/18/1 248/17/1
f 249/20/1 250/21/1 251/18/1 252/17/1
f 253/21/1 254/22/1 255/23/1 256/18/1
f 257/22/1 258/31/1 259/24/1 260/23/1
f 261/26/1 262/30/1 263/29/1 264/27/1

