# Tiled2Unity generated file. Do not modify by hand.
# Wavefront file for '1_1_Module25_mesh_0002.obj'

# Vertices (Count = 440)
v -72 -16 0
v -80 -16 0
v -80 -8 0
v -72 -8 0
v -144 -16 0
v -152 -16 0
v -152 -8 0
v -144 -8 0
v -208 -16 0
v -216 -16 0
v -216 -8 0
v -208 -8 0
v -280 -16 0
v -288 -16 0
v -288 -8 0
v -280 -8 0
v -344 -16 0
v -352 -16 0
v -352 -8 0
v -344 -8 0
v -352 -16 0
v -360 -16 0
v -360 -8 0
v -352 -8 0
v -416 -16 0
v -424 -16 0
v -424 -8 0
v -416 -8 0
v -456 -16 0
v -464 -16 0
v -464 -8 0
v -456 -8 0
v -72 -24 0
v -80 -24 0
v -80 -16 0
v -72 -16 0
v -144 -24 0
v -152 -24 0
v -152 -16 0
v -144 -16 0
v -208 -24 0
v -216 -24 0
v -216 -16 0
v -208 -16 0
v -280 -24 0
v -288 -24 0
v -288 -16 0
v -280 -16 0
v -344 -24 0
v -352 -24 0
v -352 -16 0
v -344 -16 0
v -352 -24 0
v -360 -24 0
v -360 -16 0
v -352 -16 0
v -416 -24 0
v -424 -24 0
v -424 -16 0
v -416 -16 0
v -456 -24 0
v -464 -24 0
v -464 -16 0
v -456 -16 0
v -72 -32 0
v -80 -32 0
v -80 -24 0
v -72 -24 0
v -144 -32 0
v -152 -32 0
v -152 -24 0
v -144 -24 0
v -208 -32 0
v -216 -32 0
v -216 -24 0
v -208 -24 0
v -280 -32 0
v -288 -32 0
v -288 -24 0
v -280 -24 0
v -344 -32 0
v -352 -32 0
v -352 -24 0
v -344 -24 0
v -352 -32 0
v -360 -32 0
v -360 -24 0
v -352 -24 0
v -416 -32 0
v -424 -32 0
v -424 -24 0
v -416 -24 0
v -456 -32 0
v -464 -32 0
v -464 -24 0
v -456 -24 0
v -72 -40 0
v -80 -40 0
v -80 -32 0
v -72 -32 0
v -144 -40 0
v -152 -40 0
v -152 -32 0
v -144 -32 0
v -208 -40 0
v -216 -40 0
v -216 -32 0
v -208 -32 0
v -280 -40 0
v -288 -40 0
v -288 -32 0
v -280 -32 0
v -344 -40 0
v -352 -40 0
v -352 -32 0
v -344 -32 0
v -352 -40 0
v -360 -40 0
v -360 -32 0
v -352 -32 0
v -416 -40 0
v -424 -40 0
v -424 -32 0
v -416 -32 0
v -456 -40 0
v -464 -40 0
v -464 -32 0
v -456 -32 0
v -72 -48 0
v -80 -48 0
v -80 -40 0
v -72 -40 0
v -144 -48 0
v -152 -48 0
v -152 -40 0
v -144 -40 0
v -208 -48 0
v -216 -48 0
v -216 -40 0
v -208 -40 0
v -280 -48 0
v -288 -48 0
v -288 -40 0
v -280 -40 0
v -344 -48 0
v -352 -48 0
v -352 -40 0
v -344 -40 0
v -352 -48 0
v -360 -48 0
v -360 -40 0
v -352 -40 0
v -416 -48 0
v -424 -48 0
v -424 -40 0
v -416 -40 0
v -456 -48 0
v -464 -48 0
v -464 -40 0
v -456 -40 0
v -72 -56 0
v -80 -56 0
v -80 -48 0
v -72 -48 0
v -144 -56 0
v -152 -56 0
v -152 -48 0
v -144 -48 0
v -344 -56 0
v -352 -56 0
v -352 -48 0
v -344 -48 0
v -352 -56 0
v -360 -56 0
v -360 -48 0
v -352 -48 0
v -416 -56 0
v -424 -56 0
v -424 -48 0
v -416 -48 0
v -456 -56 0
v -464 -56 0
v -464 -48 0
v -456 -48 0
v -72 -64 0
v -80 -64 0
v -80 -56 0
v -72 -56 0
v -144 -64 0
v -152 -64 0
v -152 -56 0
v -144 -56 0
v -344 -64 0
v -352 -64 0
v -352 -56 0
v -344 -56 0
v -352 -64 0
v -360 -64 0
v -360 -56 0
v -352 -56 0
v -416 -64 0
v -424 -64 0
v -424 -56 0
v -416 -56 0
v -424 -64 0
v -432 -64 0
v -432 -56 0
v -424 -56 0
v -432 -64 0
v -440 -64 0
v -440 -56 0
v -432 -56 0
v -440 -64 0
v -448 -64 0
v -448 -56 0
v -440 -56 0
v -448 -64 0
v -456 -64 0
v -456 -56 0
v -448 -56 0
v -456 -64 0
v -464 -64 0
v -464 -56 0
v -456 -56 0
v -72 -72 0
v -80 -72 0
v -80 -64 0
v -72 -64 0
v -144 -72 0
v -152 -72 0
v -152 -64 0
v -144 -64 0
v -448 -72 0
v -456 -72 0
v -456 -64 0
v -448 -64 0
v -456 -72 0
v -464 -72 0
v -464 -64 0
v -456 -64 0
v -448 -80 0
v -456 -80 0
v -456 -72 0
v -448 -72 0
v -456 -80 0
v -464 -80 0
v -464 -72 0
v -456 -72 0
v -448 -88 0
v -456 -88 0
v -456 -80 0
v -448 -80 0
v -456 -88 0
v -464 -88 0
v -464 -80 0
v -456 -80 0
v -448 -96 0
v -456 -96 0
v -456 -88 0
v -448 -88 0
v -456 -96 0
v -464 -96 0
v -464 -88 0
v -456 -88 0
v -448 -104 0
v -456 -104 0
v -456 -96 0
v -448 -96 0
v -456 -104 0
v -464 -104 0
v -464 -96 0
v -456 -96 0
v -336 -152 0
v -344 -152 0
v -344 -144 0
v -336 -144 0
v -392 -152 0
v -400 -152 0
v -400 -144 0
v -392 -144 0
v -336 -160 0
v -344 -160 0
v -344 -152 0
v -336 -152 0
v -392 -160 0
v -400 -160 0
v -400 -152 0
v -392 -152 0
v -336 -168 0
v -344 -168 0
v -344 -160 0
v -336 -160 0
v -392 -168 0
v -400 -168 0
v -400 -160 0
v -392 -160 0
v -280 -176 0
v -288 -176 0
v -288 -168 0
v -280 -168 0
v -336 -176 0
v -344 -176 0
v -344 -168 0
v -336 -168 0
v -392 -176 0
v -400 -176 0
v -400 -168 0
v -392 -168 0
v -280 -184 0
v -288 -184 0
v -288 -176 0
v -280 -176 0
v -336 -184 0
v -344 -184 0
v -344 -176 0
v -336 -176 0
v -392 -184 0
v -400 -184 0
v -400 -176 0
v -392 -176 0
v -280 -192 0
v -288 -192 0
v -288 -184 0
v -280 -184 0
v -336 -192 0
v -344 -192 0
v -344 -184 0
v -336 -184 0
v -392 -192 0
v -400 -192 0
v -400 -184 0
v -392 -184 0
v -224 -200 0
v -232 -200 0
v -232 -192 0
v -224 -192 0
v -280 -200 0
v -288 -200 0
v -288 -192 0
v -280 -192 0
v -336 -200 0
v -344 -200 0
v -344 -192 0
v -336 -192 0
v -392 -200 0
v -400 -200 0
v -400 -192 0
v -392 -192 0
v -224 -208 0
v -232 -208 0
v -232 -200 0
v -224 -200 0
v -280 -208 0
v -288 -208 0
v -288 -200 0
v -280 -200 0
v -336 -208 0
v -344 -208 0
v -344 -200 0
v -336 -200 0
v -392 -208 0
v -400 -208 0
v -400 -200 0
v -392 -200 0
v -224 -216 0
v -232 -216 0
v -232 -208 0
v -224 -208 0
v -280 -216 0
v -288 -216 0
v -288 -208 0
v -280 -208 0
v -336 -216 0
v -344 -216 0
v -344 -208 0
v -336 -208 0
v -392 -216 0
v -400 -216 0
v -400 -208 0
v -392 -208 0
v -168 -224 0
v -176 -224 0
v -176 -216 0
v -168 -216 0
v -224 -224 0
v -232 -224 0
v -232 -216 0
v -224 -216 0
v -280 -224 0
v -288 -224 0
v -288 -216 0
v -280 -216 0
v -336 -224 0
v -344 -224 0
v -344 -216 0
v -336 -216 0
v -392 -224 0
v -400 -224 0
v -400 -216 0
v -392 -216 0
v -168 -232 0
v -176 -232 0
v -176 -224 0
v -168 -224 0
v -224 -232 0
v -232 -232 0
v -232 -224 0
v -224 -224 0
v -280 -232 0
v -288 -232 0
v -288 -224 0
v -280 -224 0
v -336 -232 0
v -344 -232 0
v -344 -224 0
v -336 -224 0
v -392 -232 0
v -400 -232 0
v -400 -224 0
v -392 -224 0
v -168 -240 0
v -176 -240 0
v -176 -232 0
v -168 -232 0
v -224 -240 0
v -232 -240 0
v -232 -232 0
v -224 -232 0
v -280 -240 0
v -288 -240 0
v -288 -232 0
v -280 -232 0
v -336 -240 0
v -344 -240 0
v -344 -232 0
v -336 -232 0
v -392 -240 0
v -400 -240 0
v -400 -232 0
v -392 -232 0

# Texture cooridinates (Count = 14)
vt 0.3333333 0.6666666
vt 0.6666667 0.6666666
vt 0.6666667 1
vt 0.3333333 1
vt 0 0
vt 0.3333333 0
vt 0.3333333 0.3333333
vt 0 0.3333333
vt 0.6666667 0
vt 1 0
vt 1 0.3333333
vt 0.6666667 0.3333333
vt 1 0.6666666
vt 1 1

# Normal
vn 0 0 -1

# Mesh description
g 1_1_Module25_mesh_0002

# Faces
f 1/1/1 2/2/1 3/3/1 4/4/1
f 5/1/1 6/2/1 7/3/1 8/4/1
f 9/1/1 10/2/1 11/3/1 12/4/1
f 13/1/1 14/2/1 15/3/1 16/4/1
f 17/1/1 18/2/1 19/3/1 20/4/1
f 21/1/1 22/2/1 23/3/1 24/4/1
f 25/1/1 26/2/1 27/3/1 28/4/1
f 29/1/1 30/2/1 31/3/1 32/4/1
f 33/1/1 34/2/1 35/3/1 36/4/1
f 37/1/1 38/2/1 39/3/1 40/4/1
f 41/1/1 42/2/1 43/3/1 44/4/1
f 45/1/1 46/2/1 47/3/1 48/4/1
f 49/1/1 50/2/1 51/3/1 52/4/1
f 53/1/1 54/2/1 55/3/1 56/4/1
f 57/1/1 58/2/1 59/3/1 60/4/1
f 61/1/1 62/2/1 63/3/1 64/4/1
f 65/1/1 66/2/1 67/3/1 68/4/1
f 69/1/1 70/2/1 71/3/1 72/4/1
f 73/1/1 74/2/1 75/3/1 76/4/1
f 77/1/1 78/2/1 79/3/1 80/4/1
f 81/1/1 82/2/1 83/3/1 84/4/1
f 85/1/1 86/2/1 87/3/1 88/4/1
f 89/1/1 90/2/1 91/3/1 92/4/1
f 93/1/1 94/2/1 95/3/1 96/4/1
f 97/1/1 98/2/1 99/3/1 100/4/1
f 101/1/1 102/2/1 103/3/1 104/4/1
f 105/1/1 106/2/1 107/3/1 108/4/1
f 109/1/1 110/2/1 111/3/1 112/4/1
f 113/1/1 114/2/1 115/3/1 116/4/1
f 117/1/1 118/2/1 119/3/1 120/4/1
f 121/1/1 122/2/1 123/3/1 124/4/1
f 125/1/1 126/2/1 127/3/1 128/4/1
f 129/1/1 130/2/1 131/3/1 132/4/1
f 133/1/1 134/2/1 135/3/1 136/4/1
f 137/5/1 138/6/1 139/7/1 140/8/1
f 141/5/1 142/6/1 143/7/1 144/8/1
f 145/1/1 146/2/1 147/3/1 148/4/1
f 149/1/1 150/2/1 151/3/1 152/4/1
f 153/1/1 154/2/1 155/3/1 156/4/1
f 157/1/1 158/2/1 159/3/1 160/4/1
f 161/1/1 162/2/1 163/3/1 164/4/1
f 165/1/1 166/2/1 167/3/1 168/4/1
f 169/1/1 170/2/1 171/3/1 172/4/1
f 173/1/1 174/2/1 175/3/1 176/4/1
f 177/1/1 178/2/1 179/3/1 180/4/1
f 181/1/1 182/2/1 183/3/1 184/4/1
f 185/1/1 186/2/1 187/3/1 188/4/1
f 189/1/1 190/2/1 191/3/1 192/4/1
f 193/5/1 194/6/1 195/7/1 196/8/1
f 197/9/1 198/10/1 199/11/1 200/12/1
f 201/1/1 202/2/1 203/3/1 204/4/1
f 205/1/1 206/2/1 207/3/1 208/4/1
f 209/1/1 210/2/1 211/3/1 212/4/1
f 213/1/1 214/2/1 215/3/1 216/4/1
f 217/1/1 218/2/1 219/3/1 220/4/1
f 221/1/1 222/2/1 223/3/1 224/4/1
f 225/5/1 226/6/1 227/7/1 228/8/1
f 229/5/1 230/6/1 231/7/1 232/8/1
f 233/1/1 234/2/1 235/3/1 236/4/1
f 237/1/1 238/2/1 239/3/1 240/4/1
f 241/1/1 242/2/1 243/3/1 244/4/1
f 245/1/1 246/2/1 247/3/1 248/4/1
f 249/1/1 250/2/1 251/3/1 252/4/1
f 253/1/1 254/2/1 255/3/1 256/4/1
f 257/1/1 258/2/1 259/3/1 260/4/1
f 261/1/1 262/2/1 263/3/1 264/4/1
f 265/1/1 266/2/1 267/3/1 268/4/1
f 269/1/1 270/2/1 271/3/1 272/4/1
f 273/2/1 274/13/1 275/14/1 276/3/1
f 277/2/1 278/13/1 279/14/1 280/3/1
f 281/1/1 282/2/1 283/3/1 284/4/1
f 285/1/1 286/2/1 287/3/1 288/4/1
f 289/1/1 290/2/1 291/3/1 292/4/1
f 293/1/1 294/2/1 295/3/1 296/4/1
f 297/2/1 298/13/1 299/14/1 300/3/1
f 301/1/1 302/2/1 303/3/1 304/4/1
f 305/1/1 306/2/1 307/3/1 308/4/1
f 309/1/1 310/2/1 311/3/1 312/4/1
f 313/1/1 314/2/1 315/3/1 316/4/1
f 317/1/1 318/2/1 319/3/1 320/4/1
f 321/1/1 322/2/1 323/3/1 324/4/1
f 325/1/1 326/2/1 327/3/1 328/4/1
f 329/1/1 330/2/1 331/3/1 332/4/1
f 333/2/1 334/13/1 335/14/1 336/3/1
f 337/1/1 338/2/1 339/3/1 340/4/1
f 341/1/1 342/2/1 343/3/1 344/4/1
f 345/1/1 346/2/1 347/3/1 348/4/1
f 349/1/1 350/2/1 351/3/1 352/4/1
f 353/1/1 354/2/1 355/3/1 356/4/1
f 357/1/1 358/2/1 359/3/1 360/4/1
f 361/1/1 362/2/1 363/3/1 364/4/1
f 365/1/1 366/2/1 367/3/1 368/4/1
f 369/1/1 370/2/1 371/3/1 372/4/1
f 373/1/1 374/2/1 375/3/1 376/4/1
f 377/1/1 378/2/1 379/3/1 380/4/1
f 381/2/1 382/13/1 383/14/1 384/3/1
f 385/1/1 386/2/1 387/3/1 388/4/1
f 389/1/1 390/2/1 391/3/1 392/4/1
f 393/1/1 394/2/1 395/3/1 396/4/1
f 397/1/1 398/2/1 399/3/1 400/4/1
f 401/1/1 402/2/1 403/3/1 404/4/1
f 405/1/1 406/2/1 407/3/1 408/4/1
f 409/1/1 410/2/1 411/3/1 412/4/1
f 413/1/1 414/2/1 415/3/1 416/4/1
f 417/1/1 418/2/1 419/3/1 420/4/1
f 421/1/1 422/2/1 423/3/1 424/4/1
f 425/1/1 426/2/1 427/3/1 428/4/1
f 429/1/1 430/2/1 431/3/1 432/4/1
f 433/1/1 434/2/1 435/3/1 436/4/1
f 437/1/1 438/2/1 439/3/1 440/4/1

