# Tiled2Unity generated file. Do not modify by hand.
# Wavefront file for '1_1_12_mesh_0001.obj'

# Vertices (Count = 304)
v -432 -192 0
v -440 -192 0
v -440 -184 0
v -432 -184 0
v -440 -192 0
v -448 -192 0
v -448 -184 0
v -440 -184 0
v -432 -200 0
v -440 -200 0
v -440 -192 0
v -432 -192 0
v -440 -200 0
v -448 -200 0
v -448 -192 0
v -440 -192 0
v -432 -208 0
v -440 -208 0
v -440 -200 0
v -432 -200 0
v -440 -208 0
v -448 -208 0
v -448 -200 0
v -440 -200 0
v -432 -216 0
v -440 -216 0
v -440 -208 0
v -432 -208 0
v -440 -216 0
v -448 -216 0
v -448 -208 0
v -440 -208 0
v -432 -224 0
v -440 -224 0
v -440 -216 0
v -432 -216 0
v -440 -224 0
v -448 -224 0
v -448 -216 0
v -440 -216 0
v -432 -232 0
v -440 -232 0
v -440 -224 0
v -432 -224 0
v -440 -232 0
v -448 -232 0
v -448 -224 0
v -440 -224 0
v -432 -240 0
v -440 -240 0
v -440 -232 0
v -432 -232 0
v -440 -240 0
v -448 -240 0
v -448 -232 0
v -440 -232 0
v -432 -248 0
v -440 -248 0
v -440 -240 0
v -432 -240 0
v -440 -248 0
v -448 -248 0
v -448 -240 0
v -440 -240 0
v -432 -256 0
v -440 -256 0
v -440 -248 0
v -432 -248 0
v -440 -256 0
v -448 -256 0
v -448 -248 0
v -440 -248 0
v -432 -264 0
v -440 -264 0
v -440 -256 0
v -432 -256 0
v -440 -264 0
v -448 -264 0
v -448 -256 0
v -440 -256 0
v -432 -272 0
v -440 -272 0
v -440 -264 0
v -432 -264 0
v -440 -272 0
v -448 -272 0
v -448 -264 0
v -440 -264 0
v -432 -280 0
v -440 -280 0
v -440 -272 0
v -432 -272 0
v -440 -280 0
v -448 -280 0
v -448 -272 0
v -440 -272 0
v -432 -288 0
v -440 -288 0
v -440 -280 0
v -432 -280 0
v -440 -288 0
v -448 -288 0
v -448 -280 0
v -440 -280 0
v -432 -296 0
v -440 -296 0
v -440 -288 0
v -432 -288 0
v -440 -296 0
v -448 -296 0
v -448 -288 0
v -440 -288 0
v -432 -304 0
v -440 -304 0
v -440 -296 0
v -432 -296 0
v -440 -304 0
v -448 -304 0
v -448 -296 0
v -440 -296 0
v -432 -312 0
v -440 -312 0
v -440 -304 0
v -432 -304 0
v -440 -312 0
v -448 -312 0
v -448 -304 0
v -440 -304 0
v -432 -320 0
v -440 -320 0
v -440 -312 0
v -432 -312 0
v -440 -320 0
v -448 -320 0
v -448 -312 0
v -440 -312 0
v -432 -328 0
v -440 -328 0
v -440 -320 0
v -432 -320 0
v -440 -328 0
v -448 -328 0
v -448 -320 0
v -440 -320 0
v -432 -336 0
v -440 -336 0
v -440 -328 0
v -432 -328 0
v -440 -336 0
v -448 -336 0
v -448 -328 0
v -440 -328 0
v -432 -344 0
v -440 -344 0
v -440 -336 0
v -432 -336 0
v -440 -344 0
v -448 -344 0
v -448 -336 0
v -440 -336 0
v -432 -352 0
v -440 -352 0
v -440 -344 0
v -432 -344 0
v -440 -352 0
v -448 -352 0
v -448 -344 0
v -440 -344 0
v -432 -360 0
v -440 -360 0
v -440 -352 0
v -432 -352 0
v -440 -360 0
v -448 -360 0
v -448 -352 0
v -440 -352 0
v -432 -368 0
v -440 -368 0
v -440 -360 0
v -432 -360 0
v -440 -368 0
v -448 -368 0
v -448 -360 0
v -440 -360 0
v -432 -376 0
v -440 -376 0
v -440 -368 0
v -432 -368 0
v -440 -376 0
v -448 -376 0
v -448 -368 0
v -440 -368 0
v -432 -384 0
v -440 -384 0
v -440 -376 0
v -432 -376 0
v -440 -384 0
v -448 -384 0
v -448 -376 0
v -440 -376 0
v -432 -392 0
v -440 -392 0
v -440 -384 0
v -432 -384 0
v -440 -392 0
v -448 -392 0
v -448 -384 0
v -440 -384 0
v -432 -400 0
v -440 -400 0
v -440 -392 0
v -432 -392 0
v -440 -400 0
v -448 -400 0
v -448 -392 0
v -440 -392 0
v -432 -408 0
v -440 -408 0
v -440 -400 0
v -432 -400 0
v -440 -408 0
v -448 -408 0
v -448 -400 0
v -440 -400 0
v -432 -416 0
v -440 -416 0
v -440 -408 0
v -432 -408 0
v -440 -416 0
v -448 -416 0
v -448 -408 0
v -440 -408 0
v -432 -424 0
v -440 -424 0
v -440 -416 0
v -432 -416 0
v -440 -424 0
v -448 -424 0
v -448 -416 0
v -440 -416 0
v -432 -432 0
v -440 -432 0
v -440 -424 0
v -432 -424 0
v -440 -432 0
v -448 -432 0
v -448 -424 0
v -440 -424 0
v -432 -440 0
v -440 -440 0
v -440 -432 0
v -432 -432 0
v -440 -440 0
v -448 -440 0
v -448 -432 0
v -440 -432 0
v -432 -448 0
v -440 -448 0
v -440 -440 0
v -432 -440 0
v -440 -448 0
v -448 -448 0
v -448 -440 0
v -440 -440 0
v -432 -456 0
v -440 -456 0
v -440 -448 0
v -432 -448 0
v -440 -456 0
v -448 -456 0
v -448 -448 0
v -440 -448 0
v -432 -464 0
v -440 -464 0
v -440 -456 0
v -432 -456 0
v -440 -464 0
v -448 -464 0
v -448 -456 0
v -440 -456 0
v -432 -472 0
v -440 -472 0
v -440 -464 0
v -432 -464 0
v -440 -472 0
v -448 -472 0
v -448 -464 0
v -440 -464 0
v -432 -480 0
v -440 -480 0
v -440 -472 0
v -432 -472 0
v -440 -480 0
v -448 -480 0
v -448 -472 0
v -440 -472 0
v -432 -488 0
v -440 -488 0
v -440 -480 0
v -432 -480 0
v -440 -488 0
v -448 -488 0
v -448 -480 0
v -440 -480 0

# Texture cooridinates (Count = 15)
vt 0.625 0.875
vt 0.75 0.875
vt 0.75 1
vt 0.625 1
vt 0.875 0.875
vt 0.875 1
vt 0.625 0.75
vt 0.75 0.75
vt 0.875 0.75
vt 0 0.75
vt 0.125 0.75
vt 0.125 0.875
vt 0 0.875
vt 0.25 0.75
vt 0.25 0.875

# Normal
vn 0 0 -1

# Mesh description
g 1_1_12_mesh_0001

# Faces
f 1/1/1 2/2/1 3/3/1 4/4/1
f 5/2/1 6/5/1 7/6/1 8/3/1
f 9/7/1 10/8/1 11/2/1 12/1/1
f 13/8/1 14/9/1 15/5/1 16/2/1
f 17/10/1 18/11/1 19/12/1 20/13/1
f 21/11/1 22/14/1 23/15/1 24/12/1
f 25/10/1 26/11/1 27/12/1 28/13/1
f 29/11/1 30/14/1 31/15/1 32/12/1
f 33/10/1 34/11/1 35/12/1 36/13/1
f 37/11/1 38/14/1 39/15/1 40/12/1
f 41/10/1 42/11/1 43/12/1 44/13/1
f 45/11/1 46/14/1 47/15/1 48/12/1
f 49/10/1 50/11/1 51/12/1 52/13/1
f 53/11/1 54/14/1 55/15/1 56/12/1
f 57/10/1 58/11/1 59/12/1 60/13/1
f 61/11/1 62/14/1 63/15/1 64/12/1
f 65/10/1 66/11/1 67/12/1 68/13/1
f 69/11/1 70/14/1 71/15/1 72/12/1
f 73/10/1 74/11/1 75/12/1 76/13/1
f 77/11/1 78/14/1 79/15/1 80/12/1
f 81/10/1 82/11/1 83/12/1 84/13/1
f 85/11/1 86/14/1 87/15/1 88/12/1
f 89/10/1 90/11/1 91/12/1 92/13/1
f 93/11/1 94/14/1 95/15/1 96/12/1
f 97/10/1 98/11/1 99/12/1 100/13/1
f 101/11/1 102/14/1 103/15/1 104/12/1
f 105/10/1 106/11/1 107/12/1 108/13/1
f 109/11/1 110/14/1 111/15/1 112/12/1
f 113/10/1 114/11/1 115/12/1 116/13/1
f 117/11/1 118/14/1 119/15/1 120/12/1
f 121/10/1 122/11/1 123/12/1 124/13/1
f 125/11/1 126/14/1 127/15/1 128/12/1
f 129/10/1 130/11/1 131/12/1 132/13/1
f 133/11/1 134/14/1 135/15/1 136/12/1
f 137/10/1 138/11/1 139/12/1 140/13/1
f 141/11/1 142/14/1 143/15/1 144/12/1
f 145/10/1 146/11/1 147/12/1 148/13/1
f 149/11/1 150/14/1 151/15/1 152/12/1
f 153/10/1 154/11/1 155/12/1 156/13/1
f 157/11/1 158/14/1 159/15/1 160/12/1
f 161/10/1 162/11/1 163/12/1 164/13/1
f 165/11/1 166/14/1 167/15/1 168/12/1
f 169/10/1 170/11/1 171/12/1 172/13/1
f 173/11/1 174/14/1 175/15/1 176/12/1
f 177/10/1 178/11/1 179/12/1 180/13/1
f 181/11/1 182/14/1 183/15/1 184/12/1
f 185/10/1 186/11/1 187/12/1 188/13/1
f 189/11/1 190/14/1 191/15/1 192/12/1
f 193/10/1 194/11/1 195/12/1 196/13/1
f 197/11/1 198/14/1 199/15/1 200/12/1
f 201/10/1 202/11/1 203/12/1 204/13/1
f 205/11/1 206/14/1 207/15/1 208/12/1
f 209/10/1 210/11/1 211/12/1 212/13/1
f 213/11/1 214/14/1 215/15/1 216/12/1
f 217/10/1 218/11/1 219/12/1 220/13/1
f 221/11/1 222/14/1 223/15/1 224/12/1
f 225/10/1 226/11/1 227/12/1 228/13/1
f 229/11/1 230/14/1 231/15/1 232/12/1
f 233/10/1 234/11/1 235/12/1 236/13/1
f 237/11/1 238/14/1 239/15/1 240/12/1
f 241/10/1 242/11/1 243/12/1 244/13/1
f 245/11/1 246/14/1 247/15/1 248/12/1
f 249/10/1 250/11/1 251/12/1 252/13/1
f 253/11/1 254/14/1 255/15/1 256/12/1
f 257/10/1 258/11/1 259/12/1 260/13/1
f 261/11/1 262/14/1 263/15/1 264/12/1
f 265/10/1 266/11/1 267/12/1 268/13/1
f 269/11/1 270/14/1 271/15/1 272/12/1
f 273/10/1 274/11/1 275/12/1 276/13/1
f 277/11/1 278/14/1 279/15/1 280/12/1
f 281/10/1 282/11/1 283/12/1 284/13/1
f 285/11/1 286/14/1 287/15/1 288/12/1
f 289/10/1 290/11/1 291/12/1 292/13/1
f 293/11/1 294/14/1 295/15/1 296/12/1
f 297/10/1 298/11/1 299/12/1 300/13/1
f 301/11/1 302/14/1 303/15/1 304/12/1

