# Tiled2Unity generated file. Do not modify by hand.
# Wavefront file for '1_1_12_mesh_0002.obj'

# Vertices (Count = 460)
v 0 -8 0
v -8 -8 0
v -8 0 0
v 0 0 0
v -8 -8 0
v -16 -8 0
v -16 0 0
v -8 0 0
v -16 -8 0
v -24 -8 0
v -24 0 0
v -16 0 0
v -24 -8 0
v -32 -8 0
v -32 0 0
v -24 0 0
v -32 -8 0
v -40 -8 0
v -40 0 0
v -32 0 0
v -40 -8 0
v -48 -8 0
v -48 0 0
v -40 0 0
v -48 -8 0
v -56 -8 0
v -56 0 0
v -48 0 0
v -56 -8 0
v -64 -8 0
v -64 0 0
v -56 0 0
v -64 -8 0
v -72 -8 0
v -72 0 0
v -64 0 0
v -72 -8 0
v -80 -8 0
v -80 0 0
v -72 0 0
v -80 -8 0
v -88 -8 0
v -88 0 0
v -80 0 0
v -88 -8 0
v -96 -8 0
v -96 0 0
v -88 0 0
v -96 -8 0
v -104 -8 0
v -104 0 0
v -96 0 0
v -104 -8 0
v -112 -8 0
v -112 0 0
v -104 0 0
v -112 -8 0
v -120 -8 0
v -120 0 0
v -112 0 0
v -120 -8 0
v -128 -8 0
v -128 0 0
v -120 0 0
v -128 -8 0
v -136 -8 0
v -136 0 0
v -128 0 0
v -136 -8 0
v -144 -8 0
v -144 0 0
v -136 0 0
v -144 -8 0
v -152 -8 0
v -152 0 0
v -144 0 0
v -152 -8 0
v -160 -8 0
v -160 0 0
v -152 0 0
v -160 -8 0
v -168 -8 0
v -168 0 0
v -160 0 0
v -168 -8 0
v -176 -8 0
v -176 0 0
v -168 0 0
v -176 -8 0
v -184 -8 0
v -184 0 0
v -176 0 0
v -184 -8 0
v -192 -8 0
v -192 0 0
v -184 0 0
v -192 -8 0
v -200 -8 0
v -200 0 0
v -192 0 0
v -200 -8 0
v -208 -8 0
v -208 0 0
v -200 0 0
v -208 -8 0
v -216 -8 0
v -216 0 0
v -208 0 0
v -216 -8 0
v -224 -8 0
v -224 0 0
v -216 0 0
v -224 -8 0
v -232 -8 0
v -232 0 0
v -224 0 0
v -232 -8 0
v -240 -8 0
v -240 0 0
v -232 0 0
v -240 -8 0
v -248 -8 0
v -248 0 0
v -240 0 0
v -248 -8 0
v -256 -8 0
v -256 0 0
v -248 0 0
v -256 -8 0
v -264 -8 0
v -264 0 0
v -256 0 0
v -264 -8 0
v -272 -8 0
v -272 0 0
v -264 0 0
v -272 -8 0
v -280 -8 0
v -280 0 0
v -272 0 0
v -280 -8 0
v -288 -8 0
v -288 0 0
v -280 0 0
v -288 -8 0
v -296 -8 0
v -296 0 0
v -288 0 0
v -296 -8 0
v -304 -8 0
v -304 0 0
v -296 0 0
v -304 -8 0
v -312 -8 0
v -312 0 0
v -304 0 0
v -312 -8 0
v -320 -8 0
v -320 0 0
v -312 0 0
v -320 -8 0
v -328 -8 0
v -328 0 0
v -320 0 0
v -328 -8 0
v -336 -8 0
v -336 0 0
v -328 0 0
v -336 -8 0
v -344 -8 0
v -344 0 0
v -336 0 0
v -344 -8 0
v -352 -8 0
v -352 0 0
v -344 0 0
v -352 -8 0
v -360 -8 0
v -360 0 0
v -352 0 0
v -360 -8 0
v -368 -8 0
v -368 0 0
v -360 0 0
v -368 -8 0
v -376 -8 0
v -376 0 0
v -368 0 0
v -376 -8 0
v -384 -8 0
v -384 0 0
v -376 0 0
v -384 -8 0
v -392 -8 0
v -392 0 0
v -384 0 0
v -392 -8 0
v -400 -8 0
v -400 0 0
v -392 0 0
v -400 -8 0
v -408 -8 0
v -408 0 0
v -400 0 0
v -408 -8 0
v -416 -8 0
v -416 0 0
v -408 0 0
v -416 -8 0
v -424 -8 0
v -424 0 0
v -416 0 0
v -424 -8 0
v -432 -8 0
v -432 0 0
v -424 0 0
v -432 -8 0
v -440 -8 0
v -440 0 0
v -432 0 0
v -440 -8 0
v -448 -8 0
v -448 0 0
v -440 0 0
v -448 -8 0
v -456 -8 0
v -456 0 0
v -448 0 0
v -456 -8 0
v -464 -8 0
v -464 0 0
v -456 0 0
v -464 -8 0
v -472 -8 0
v -472 0 0
v -464 0 0
v -472 -8 0
v -480 -8 0
v -480 0 0
v -472 0 0
v -480 -8 0
v -488 -8 0
v -488 0 0
v -480 0 0
v -72 -16 0
v -80 -16 0
v -80 -8 0
v -72 -8 0
v -232 -16 0
v -240 -16 0
v -240 -8 0
v -232 -8 0
v -240 -16 0
v -248 -16 0
v -248 -8 0
v -240 -8 0
v -368 -16 0
v -376 -16 0
v -376 -8 0
v -368 -8 0
v -432 -16 0
v -440 -16 0
v -440 -8 0
v -432 -8 0
v -440 -16 0
v -448 -16 0
v -448 -8 0
v -440 -8 0
v -72 -24 0
v -80 -24 0
v -80 -16 0
v -72 -16 0
v -232 -24 0
v -240 -24 0
v -240 -16 0
v -232 -16 0
v -240 -24 0
v -248 -24 0
v -248 -16 0
v -240 -16 0
v -368 -24 0
v -376 -24 0
v -376 -16 0
v -368 -16 0
v -432 -24 0
v -440 -24 0
v -440 -16 0
v -432 -16 0
v -440 -24 0
v -448 -24 0
v -448 -16 0
v -440 -16 0
v -72 -32 0
v -80 -32 0
v -80 -24 0
v -72 -24 0
v -232 -32 0
v -240 -32 0
v -240 -24 0
v -232 -24 0
v -240 -32 0
v -248 -32 0
v -248 -24 0
v -240 -24 0
v -368 -32 0
v -376 -32 0
v -376 -24 0
v -368 -24 0
v -432 -32 0
v -440 -32 0
v -440 -24 0
v -432 -24 0
v -440 -32 0
v -448 -32 0
v -448 -24 0
v -440 -24 0
v -72 -40 0
v -80 -40 0
v -80 -32 0
v -72 -32 0
v -232 -40 0
v -240 -40 0
v -240 -32 0
v -232 -32 0
v -240 -40 0
v -248 -40 0
v -248 -32 0
v -240 -32 0
v -368 -40 0
v -376 -40 0
v -376 -32 0
v -368 -32 0
v -432 -40 0
v -440 -40 0
v -440 -32 0
v -432 -32 0
v -440 -40 0
v -448 -40 0
v -448 -32 0
v -440 -32 0
v -72 -48 0
v -80 -48 0
v -80 -40 0
v -72 -40 0
v -232 -48 0
v -240 -48 0
v -240 -40 0
v -232 -40 0
v -240 -48 0
v -248 -48 0
v -248 -40 0
v -240 -40 0
v -368 -48 0
v -376 -48 0
v -376 -40 0
v -368 -40 0
v -432 -48 0
v -440 -48 0
v -440 -40 0
v -432 -40 0
v -440 -48 0
v -448 -48 0
v -448 -40 0
v -440 -40 0
v -72 -56 0
v -80 -56 0
v -80 -48 0
v -72 -48 0
v -232 -56 0
v -240 -56 0
v -240 -48 0
v -232 -48 0
v -240 -56 0
v -248 -56 0
v -248 -48 0
v -240 -48 0
v -432 -56 0
v -440 -56 0
v -440 -48 0
v -432 -48 0
v -440 -56 0
v -448 -56 0
v -448 -48 0
v -440 -48 0
v -72 -64 0
v -80 -64 0
v -80 -56 0
v -72 -56 0
v -232 -64 0
v -240 -64 0
v -240 -56 0
v -232 -56 0
v -240 -64 0
v -248 -64 0
v -248 -56 0
v -240 -56 0
v -432 -64 0
v -440 -64 0
v -440 -56 0
v -432 -56 0
v -440 -64 0
v -448 -64 0
v -448 -56 0
v -440 -56 0
v -72 -72 0
v -80 -72 0
v -80 -64 0
v -72 -64 0
v -432 -72 0
v -440 -72 0
v -440 -64 0
v -432 -64 0
v -440 -72 0
v -448 -72 0
v -448 -64 0
v -440 -64 0
v -72 -80 0
v -80 -80 0
v -80 -72 0
v -72 -72 0
v -432 -80 0
v -440 -80 0
v -440 -72 0
v -432 -72 0
v -440 -80 0
v -448 -80 0
v -448 -72 0
v -440 -72 0
v -432 -88 0
v -440 -88 0
v -440 -80 0
v -432 -80 0
v -440 -88 0
v -448 -88 0
v -448 -80 0
v -440 -80 0
v -432 -96 0
v -440 -96 0
v -440 -88 0
v -432 -88 0
v -440 -96 0
v -448 -96 0
v -448 -88 0
v -440 -88 0
v -432 -104 0
v -440 -104 0
v -440 -96 0
v -432 -96 0
v -440 -104 0
v -448 -104 0
v -448 -96 0
v -440 -96 0
v -432 -112 0
v -440 -112 0
v -440 -104 0
v -432 -104 0
v -440 -112 0
v -448 -112 0
v -448 -104 0
v -440 -104 0

# Texture cooridinates (Count = 19)
vt 0.125 0.625
vt 0.25 0.625
vt 0.25 0.75
vt 0.125 0.75
vt 0.375 0.75
vt 0.375 0.875
vt 0.25 0.875
vt 0 0.75
vt 0.125 0.875
vt 0 0.875
vt 0.625 0.625
vt 0.75 0.625
vt 0.75 0.75
vt 0.625 0.75
vt 0.625 0.5
vt 0.75 0.5
vt 0.5 0.625
vt 0.5 0.75
vt 0.5 0.5

# Normal
vn 0 0 -1

# Mesh description
g 1_1_12_mesh_0002

# Faces
f 1/1/1 2/2/1 3/3/1 4/4/1
f 5/1/1 6/2/1 7/3/1 8/4/1
f 9/1/1 10/2/1 11/3/1 12/4/1
f 13/1/1 14/2/1 15/3/1 16/4/1
f 17/1/1 18/2/1 19/3/1 20/4/1
f 21/1/1 22/2/1 23/3/1 24/4/1
f 25/1/1 26/2/1 27/3/1 28/4/1
f 29/1/1 30/2/1 31/3/1 32/4/1
f 33/1/1 34/2/1 35/3/1 36/4/1
f 37/3/1 38/5/1 39/6/1 40/7/1
f 41/1/1 42/2/1 43/3/1 44/4/1
f 45/1/1 46/2/1 47/3/1 48/4/1
f 49/1/1 50/2/1 51/3/1 52/4/1
f 53/1/1 54/2/1 55/3/1 56/4/1
f 57/1/1 58/2/1 59/3/1 60/4/1
f 61/1/1 62/2/1 63/3/1 64/4/1
f 65/1/1 66/2/1 67/3/1 68/4/1
f 69/1/1 70/2/1 71/3/1 72/4/1
f 73/1/1 74/2/1 75/3/1 76/4/1
f 77/1/1 78/2/1 79/3/1 80/4/1
f 81/1/1 82/2/1 83/3/1 84/4/1
f 85/1/1 86/2/1 87/3/1 88/4/1
f 89/1/1 90/2/1 91/3/1 92/4/1
f 93/1/1 94/2/1 95/3/1 96/4/1
f 97/1/1 98/2/1 99/3/1 100/4/1
f 101/1/1 102/2/1 103/3/1 104/4/1
f 105/1/1 106/2/1 107/3/1 108/4/1
f 109/1/1 110/2/1 111/3/1 112/4/1
f 113/1/1 114/2/1 115/3/1 116/4/1
f 117/3/1 118/5/1 119/6/1 120/7/1
f 121/3/1 122/5/1 123/6/1 124/7/1
f 125/1/1 126/2/1 127/3/1 128/4/1
f 129/1/1 130/2/1 131/3/1 132/4/1
f 133/1/1 134/2/1 135/3/1 136/4/1
f 137/1/1 138/2/1 139/3/1 140/4/1
f 141/1/1 142/2/1 143/3/1 144/4/1
f 145/1/1 146/2/1 147/3/1 148/4/1
f 149/1/1 150/2/1 151/3/1 152/4/1
f 153/1/1 154/2/1 155/3/1 156/4/1
f 157/1/1 158/2/1 159/3/1 160/4/1
f 161/1/1 162/2/1 163/3/1 164/4/1
f 165/1/1 166/2/1 167/3/1 168/4/1
f 169/1/1 170/2/1 171/3/1 172/4/1
f 173/1/1 174/2/1 175/3/1 176/4/1
f 177/1/1 178/2/1 179/3/1 180/4/1
f 181/1/1 182/2/1 183/3/1 184/4/1
f 185/3/1 186/5/1 187/6/1 188/7/1
f 189/1/1 190/2/1 191/3/1 192/4/1
f 193/1/1 194/2/1 195/3/1 196/4/1
f 197/1/1 198/2/1 199/3/1 200/4/1
f 201/1/1 202/2/1 203/3/1 204/4/1
f 205/1/1 206/2/1 207/3/1 208/4/1
f 209/1/1 210/2/1 211/3/1 212/4/1
f 213/1/1 214/2/1 215/3/1 216/4/1
f 217/3/1 218/5/1 219/6/1 220/7/1
f 221/3/1 222/5/1 223/6/1 224/7/1
f 225/1/1 226/2/1 227/3/1 228/4/1
f 229/1/1 230/2/1 231/3/1 232/4/1
f 233/1/1 234/2/1 235/3/1 236/4/1
f 237/1/1 238/2/1 239/3/1 240/4/1
f 241/1/1 242/2/1 243/3/1 244/4/1
f 245/3/1 246/5/1 247/6/1 248/7/1
f 249/8/1 250/4/1 251/9/1 252/10/1
f 253/4/1 254/3/1 255/7/1 256/9/1
f 257/3/1 258/5/1 259/6/1 260/7/1
f 261/8/1 262/4/1 263/9/1 264/10/1
f 265/4/1 266/3/1 267/7/1 268/9/1
f 269/3/1 270/5/1 271/6/1 272/7/1
f 273/8/1 274/4/1 275/9/1 276/10/1
f 277/4/1 278/3/1 279/7/1 280/9/1
f 281/3/1 282/5/1 283/6/1 284/7/1
f 285/8/1 286/4/1 287/9/1 288/10/1
f 289/4/1 290/3/1 291/7/1 292/9/1
f 293/3/1 294/5/1 295/6/1 296/7/1
f 297/8/1 298/4/1 299/9/1 300/10/1
f 301/4/1 302/3/1 303/7/1 304/9/1
f 305/3/1 306/5/1 307/6/1 308/7/1
f 309/8/1 310/4/1 311/9/1 312/10/1
f 313/4/1 314/3/1 315/7/1 316/9/1
f 317/3/1 318/5/1 319/6/1 320/7/1
f 321/8/1 322/4/1 323/9/1 324/10/1
f 325/4/1 326/3/1 327/7/1 328/9/1
f 329/11/1 330/12/1 331/13/1 332/14/1
f 333/8/1 334/4/1 335/9/1 336/10/1
f 337/4/1 338/3/1 339/7/1 340/9/1
f 341/3/1 342/5/1 343/6/1 344/7/1
f 345/8/1 346/4/1 347/9/1 348/10/1
f 349/4/1 350/3/1 351/7/1 352/9/1
f 353/15/1 354/16/1 355/12/1 356/11/1
f 357/8/1 358/4/1 359/9/1 360/10/1
f 361/4/1 362/3/1 363/7/1 364/9/1
f 365/3/1 366/5/1 367/6/1 368/7/1
f 369/17/1 370/11/1 371/14/1 372/18/1
f 373/11/1 374/12/1 375/13/1 376/14/1
f 377/8/1 378/4/1 379/9/1 380/10/1
f 381/4/1 382/3/1 383/7/1 384/9/1
f 385/3/1 386/5/1 387/6/1 388/7/1
f 389/19/1 390/15/1 391/11/1 392/17/1
f 393/15/1 394/16/1 395/12/1 396/11/1
f 397/8/1 398/4/1 399/9/1 400/10/1
f 401/4/1 402/3/1 403/7/1 404/9/1
f 405/17/1 406/11/1 407/14/1 408/18/1
f 409/8/1 410/4/1 411/9/1 412/10/1
f 413/4/1 414/3/1 415/7/1 416/9/1
f 417/19/1 418/15/1 419/11/1 420/17/1
f 421/8/1 422/4/1 423/9/1 424/10/1
f 425/4/1 426/3/1 427/7/1 428/9/1
f 429/8/1 430/4/1 431/9/1 432/10/1
f 433/4/1 434/3/1 435/7/1 436/9/1
f 437/8/1 438/4/1 439/9/1 440/10/1
f 441/4/1 442/3/1 443/7/1 444/9/1
f 445/17/1 446/11/1 447/14/1 448/18/1
f 449/11/1 450/12/1 451/13/1 452/14/1
f 453/19/1 454/15/1 455/11/1 456/17/1
f 457/15/1 458/16/1 459/12/1 460/11/1

