# Tiled2Unity generated file. Do not modify by hand.
# Wavefront file for '1_3_1b_mesh_0003.obj'

# Vertices (Count = 676)
v 0 -8 0
v -8 -8 0
v -8 0 0
v 0 0 0
v -8 -8 0
v -16 -8 0
v -16 0 0
v -8 0 0
v -16 -8 0
v -24 -8 0
v -24 0 0
v -16 0 0
v -24 -8 0
v -32 -8 0
v -32 0 0
v -24 0 0
v -32 -8 0
v -40 -8 0
v -40 0 0
v -32 0 0
v -40 -8 0
v -48 -8 0
v -48 0 0
v -40 0 0
v -48 -8 0
v -56 -8 0
v -56 0 0
v -48 0 0
v -56 -8 0
v -64 -8 0
v -64 0 0
v -56 0 0
v -64 -8 0
v -72 -8 0
v -72 0 0
v -64 0 0
v -72 -8 0
v -80 -8 0
v -80 0 0
v -72 0 0
v -80 -8 0
v -88 -8 0
v -88 0 0
v -80 0 0
v -88 -8 0
v -96 -8 0
v -96 0 0
v -88 0 0
v -96 -8 0
v -104 -8 0
v -104 0 0
v -96 0 0
v -104 -8 0
v -112 -8 0
v -112 0 0
v -104 0 0
v -112 -8 0
v -120 -8 0
v -120 0 0
v -112 0 0
v -120 -8 0
v -128 -8 0
v -128 0 0
v -120 0 0
v -128 -8 0
v -136 -8 0
v -136 0 0
v -128 0 0
v -136 -8 0
v -144 -8 0
v -144 0 0
v -136 0 0
v -144 -8 0
v -152 -8 0
v -152 0 0
v -144 0 0
v -152 -8 0
v -160 -8 0
v -160 0 0
v -152 0 0
v -160 -8 0
v -168 -8 0
v -168 0 0
v -160 0 0
v -168 -8 0
v -176 -8 0
v -176 0 0
v -168 0 0
v -176 -8 0
v -184 -8 0
v -184 0 0
v -176 0 0
v -184 -8 0
v -192 -8 0
v -192 0 0
v -184 0 0
v -192 -8 0
v -200 -8 0
v -200 0 0
v -192 0 0
v -200 -8 0
v -208 -8 0
v -208 0 0
v -200 0 0
v -208 -8 0
v -216 -8 0
v -216 0 0
v -208 0 0
v -216 -8 0
v -224 -8 0
v -224 0 0
v -216 0 0
v -224 -8 0
v -232 -8 0
v -232 0 0
v -224 0 0
v -232 -8 0
v -240 -8 0
v -240 0 0
v -232 0 0
v -240 -8 0
v -248 -8 0
v -248 0 0
v -240 0 0
v -248 -8 0
v -256 -8 0
v -256 0 0
v -248 0 0
v -256 -8 0
v -264 -8 0
v -264 0 0
v -256 0 0
v -264 -8 0
v -272 -8 0
v -272 0 0
v -264 0 0
v -272 -8 0
v -280 -8 0
v -280 0 0
v -272 0 0
v -280 -8 0
v -288 -8 0
v -288 0 0
v -280 0 0
v -288 -8 0
v -296 -8 0
v -296 0 0
v -288 0 0
v -296 -8 0
v -304 -8 0
v -304 0 0
v -296 0 0
v -304 -8 0
v -312 -8 0
v -312 0 0
v -304 0 0
v -312 -8 0
v -320 -8 0
v -320 0 0
v -312 0 0
v -320 -8 0
v -328 -8 0
v -328 0 0
v -320 0 0
v -328 -8 0
v -336 -8 0
v -336 0 0
v -328 0 0
v -336 -8 0
v -344 -8 0
v -344 0 0
v -336 0 0
v -344 -8 0
v -352 -8 0
v -352 0 0
v -344 0 0
v -352 -8 0
v -360 -8 0
v -360 0 0
v -352 0 0
v -360 -8 0
v -368 -8 0
v -368 0 0
v -360 0 0
v -368 -8 0
v -376 -8 0
v -376 0 0
v -368 0 0
v -376 -8 0
v -384 -8 0
v -384 0 0
v -376 0 0
v -384 -8 0
v -392 -8 0
v -392 0 0
v -384 0 0
v -392 -8 0
v -400 -8 0
v -400 0 0
v -392 0 0
v -400 -8 0
v -408 -8 0
v -408 0 0
v -400 0 0
v -408 -8 0
v -416 -8 0
v -416 0 0
v -408 0 0
v -416 -8 0
v -424 -8 0
v -424 0 0
v -416 0 0
v -424 -8 0
v -432 -8 0
v -432 0 0
v -424 0 0
v -432 -8 0
v -440 -8 0
v -440 0 0
v -432 0 0
v -440 -8 0
v -448 -8 0
v -448 0 0
v -440 0 0
v -448 -8 0
v -456 -8 0
v -456 0 0
v -448 0 0
v -456 -8 0
v -464 -8 0
v -464 0 0
v -456 0 0
v -464 -8 0
v -472 -8 0
v -472 0 0
v -464 0 0
v -472 -8 0
v -480 -8 0
v -480 0 0
v -472 0 0
v -480 -8 0
v -488 -8 0
v -488 0 0
v -480 0 0
v -48 -16 0
v -56 -16 0
v -56 -8 0
v -48 -8 0
v -56 -16 0
v -64 -16 0
v -64 -8 0
v -56 -8 0
v -64 -16 0
v -72 -16 0
v -72 -8 0
v -64 -8 0
v -264 -16 0
v -272 -16 0
v -272 -8 0
v -264 -8 0
v -272 -16 0
v -280 -16 0
v -280 -8 0
v -272 -8 0
v -280 -16 0
v -288 -16 0
v -288 -8 0
v -280 -8 0
v -48 -24 0
v -56 -24 0
v -56 -16 0
v -48 -16 0
v -56 -24 0
v -64 -24 0
v -64 -16 0
v -56 -16 0
v -64 -24 0
v -72 -24 0
v -72 -16 0
v -64 -16 0
v -264 -24 0
v -272 -24 0
v -272 -16 0
v -264 -16 0
v -272 -24 0
v -280 -24 0
v -280 -16 0
v -272 -16 0
v -280 -24 0
v -288 -24 0
v -288 -16 0
v -280 -16 0
v -48 -32 0
v -56 -32 0
v -56 -24 0
v -48 -24 0
v -56 -32 0
v -64 -32 0
v -64 -24 0
v -56 -24 0
v -64 -32 0
v -72 -32 0
v -72 -24 0
v -64 -24 0
v -264 -32 0
v -272 -32 0
v -272 -24 0
v -264 -24 0
v -272 -32 0
v -280 -32 0
v -280 -24 0
v -272 -24 0
v -280 -32 0
v -288 -32 0
v -288 -24 0
v -280 -24 0
v -48 -40 0
v -56 -40 0
v -56 -32 0
v -48 -32 0
v -56 -40 0
v -64 -40 0
v -64 -32 0
v -56 -32 0
v -64 -40 0
v -72 -40 0
v -72 -32 0
v -64 -32 0
v -264 -40 0
v -272 -40 0
v -272 -32 0
v -264 -32 0
v -272 -40 0
v -280 -40 0
v -280 -32 0
v -272 -32 0
v -280 -40 0
v -288 -40 0
v -288 -32 0
v -280 -32 0
v -48 -48 0
v -56 -48 0
v -56 -40 0
v -48 -40 0
v -56 -48 0
v -64 -48 0
v -64 -40 0
v -56 -40 0
v -64 -48 0
v -72 -48 0
v -72 -40 0
v -64 -40 0
v -264 -48 0
v -272 -48 0
v -272 -40 0
v -264 -40 0
v -272 -48 0
v -280 -48 0
v -280 -40 0
v -272 -40 0
v -280 -48 0
v -288 -48 0
v -288 -40 0
v -280 -40 0
v -48 -56 0
v -56 -56 0
v -56 -48 0
v -48 -48 0
v -56 -56 0
v -64 -56 0
v -64 -48 0
v -56 -48 0
v -64 -56 0
v -72 -56 0
v -72 -48 0
v -64 -48 0
v -48 -64 0
v -56 -64 0
v -56 -56 0
v -48 -56 0
v -56 -64 0
v -64 -64 0
v -64 -56 0
v -56 -56 0
v -64 -64 0
v -72 -64 0
v -72 -56 0
v -64 -56 0
v -48 -72 0
v -56 -72 0
v -56 -64 0
v -48 -64 0
v -56 -72 0
v -64 -72 0
v -64 -64 0
v -56 -64 0
v -64 -72 0
v -72 -72 0
v -72 -64 0
v -64 -64 0
v -384 -72 0
v -392 -72 0
v -392 -64 0
v -384 -64 0
v -392 -72 0
v -400 -72 0
v -400 -64 0
v -392 -64 0
v -400 -72 0
v -408 -72 0
v -408 -64 0
v -400 -64 0
v -408 -72 0
v -416 -72 0
v -416 -64 0
v -408 -64 0
v -416 -72 0
v -424 -72 0
v -424 -64 0
v -416 -64 0
v -424 -72 0
v -432 -72 0
v -432 -64 0
v -424 -64 0
v -432 -72 0
v -440 -72 0
v -440 -64 0
v -432 -64 0
v -440 -72 0
v -448 -72 0
v -448 -64 0
v -440 -64 0
v -448 -72 0
v -456 -72 0
v -456 -64 0
v -448 -64 0
v -456 -72 0
v -464 -72 0
v -464 -64 0
v -456 -64 0
v -464 -72 0
v -472 -72 0
v -472 -64 0
v -464 -64 0
v -472 -72 0
v -480 -72 0
v -480 -64 0
v -472 -64 0
v -48 -80 0
v -56 -80 0
v -56 -72 0
v -48 -72 0
v -56 -80 0
v -64 -80 0
v -64 -72 0
v -56 -72 0
v -64 -80 0
v -72 -80 0
v -72 -72 0
v -64 -72 0
v -384 -80 0
v -392 -80 0
v -392 -72 0
v -384 -72 0
v -392 -80 0
v -400 -80 0
v -400 -72 0
v -392 -72 0
v -400 -80 0
v -408 -80 0
v -408 -72 0
v -400 -72 0
v -408 -80 0
v -416 -80 0
v -416 -72 0
v -408 -72 0
v -416 -80 0
v -424 -80 0
v -424 -72 0
v -416 -72 0
v -424 -80 0
v -432 -80 0
v -432 -72 0
v -424 -72 0
v -432 -80 0
v -440 -80 0
v -440 -72 0
v -432 -72 0
v -440 -80 0
v -448 -80 0
v -448 -72 0
v -440 -72 0
v -448 -80 0
v -456 -80 0
v -456 -72 0
v -448 -72 0
v -456 -80 0
v -464 -80 0
v -464 -72 0
v -456 -72 0
v -464 -80 0
v -472 -80 0
v -472 -72 0
v -464 -72 0
v -472 -80 0
v -480 -80 0
v -480 -72 0
v -472 -72 0
v -384 -88 0
v -392 -88 0
v -392 -80 0
v -384 -80 0
v -392 -88 0
v -400 -88 0
v -400 -80 0
v -392 -80 0
v -400 -88 0
v -408 -88 0
v -408 -80 0
v -400 -80 0
v -408 -88 0
v -416 -88 0
v -416 -80 0
v -408 -80 0
v -416 -88 0
v -424 -88 0
v -424 -80 0
v -416 -80 0
v -424 -88 0
v -432 -88 0
v -432 -80 0
v -424 -80 0
v -432 -88 0
v -440 -88 0
v -440 -80 0
v -432 -80 0
v -440 -88 0
v -448 -88 0
v -448 -80 0
v -440 -80 0
v -448 -88 0
v -456 -88 0
v -456 -80 0
v -448 -80 0
v -456 -88 0
v -464 -88 0
v -464 -80 0
v -456 -80 0
v -464 -88 0
v -472 -88 0
v -472 -80 0
v -464 -80 0
v -472 -88 0
v -480 -88 0
v -480 -80 0
v -472 -80 0
v -384 -96 0
v -392 -96 0
v -392 -88 0
v -384 -88 0
v -392 -96 0
v -400 -96 0
v -400 -88 0
v -392 -88 0
v -400 -96 0
v -408 -96 0
v -408 -88 0
v -400 -88 0
v -408 -96 0
v -416 -96 0
v -416 -88 0
v -408 -88 0
v -416 -96 0
v -424 -96 0
v -424 -88 0
v -416 -88 0
v -424 -96 0
v -432 -96 0
v -432 -88 0
v -424 -88 0
v -432 -96 0
v -440 -96 0
v -440 -88 0
v -432 -88 0
v -440 -96 0
v -448 -96 0
v -448 -88 0
v -440 -88 0
v -448 -96 0
v -456 -96 0
v -456 -88 0
v -448 -88 0
v -456 -96 0
v -464 -96 0
v -464 -88 0
v -456 -88 0
v -464 -96 0
v -472 -96 0
v -472 -88 0
v -464 -88 0
v -472 -96 0
v -480 -96 0
v -480 -88 0
v -472 -88 0
v -400 -104 0
v -408 -104 0
v -408 -96 0
v -400 -96 0
v -408 -104 0
v -416 -104 0
v -416 -96 0
v -408 -96 0
v -416 -104 0
v -424 -104 0
v -424 -96 0
v -416 -96 0
v -424 -104 0
v -432 -104 0
v -432 -96 0
v -424 -96 0
v -432 -104 0
v -440 -104 0
v -440 -96 0
v -432 -96 0
v -440 -104 0
v -448 -104 0
v -448 -96 0
v -440 -96 0
v -448 -104 0
v -456 -104 0
v -456 -96 0
v -448 -96 0
v -456 -104 0
v -464 -104 0
v -464 -96 0
v -456 -96 0
v -464 -104 0
v -472 -104 0
v -472 -96 0
v -464 -96 0
v -472 -104 0
v -480 -104 0
v -480 -96 0
v -472 -96 0
v -416 -112 0
v -424 -112 0
v -424 -104 0
v -416 -104 0
v -424 -112 0
v -432 -112 0
v -432 -104 0
v -424 -104 0
v -432 -112 0
v -440 -112 0
v -440 -104 0
v -432 -104 0
v -440 -112 0
v -448 -112 0
v -448 -104 0
v -440 -104 0
v -448 -112 0
v -456 -112 0
v -456 -104 0
v -448 -104 0
v -456 -112 0
v -464 -112 0
v -464 -104 0
v -456 -104 0
v -464 -112 0
v -472 -112 0
v -472 -104 0
v -464 -104 0
v -472 -112 0
v -480 -112 0
v -480 -104 0
v -472 -104 0

# Texture cooridinates (Count = 45)
vt 0 0.625
vt 0.125 0.625
vt 0.125 0.75
vt 0 0.75
vt 0.25 0.625
vt 0.25 0.75
vt 0.375 0.625
vt 0.375 0.75
vt 0.5 0.625
vt 0.5 0.75
vt 0.125 0.875
vt 0 0.875
vt 0.25 0.875
vt 0.375 0.875
vt 0.625 0.625
vt 0.625 0.75
vt 0.75 0.625
vt 0.75 0.75
vt 0.5 0.5
vt 0.625 0.5
vt 0.75 0.5
vt 0.125 1
vt 0 1
vt 0.25 1
vt 0.375 1
vt 0.5 0.875
vt 0.5 1
vt 0.5 0.375
vt 0.625 0.375
vt 0.75 0.375
vt 0.5 0.25
vt 0.625 0.25
vt 0.75 0.25
vt 0.5 0.125
vt 0.625 0.125
vt 0.75 0.125
vt 0.5 0
vt 0.625 0
vt 0.75 0
vt 0.875 0.125
vt 0.875 0.25
vt 1 0.125
vt 1 0.25
vt 0.875 0
vt 1 0

# Normal
vn 0 0 -1

# Mesh description
g 1_3_1b_mesh_0003

# Faces
f 1/1/1 2/2/1 3/3/1 4/4/1
f 5/1/1 6/2/1 7/3/1 8/4/1
f 9/2/1 10/5/1 11/6/1 12/3/1
f 13/5/1 14/7/1 15/8/1 16/6/1
f 17/7/1 18/9/1 19/10/1 20/8/1
f 21/1/1 22/2/1 23/3/1 24/4/1
f 25/4/1 26/3/1 27/11/1 28/12/1
f 29/3/1 30/6/1 31/13/1 32/11/1
f 33/6/1 34/8/1 35/14/1 36/13/1
f 37/1/1 38/2/1 39/3/1 40/4/1
f 41/2/1 42/5/1 43/6/1 44/3/1
f 45/5/1 46/7/1 47/8/1 48/6/1
f 49/2/1 50/5/1 51/6/1 52/3/1
f 53/2/1 54/5/1 55/6/1 56/3/1
f 57/2/1 58/5/1 59/6/1 60/3/1
f 61/2/1 62/5/1 63/6/1 64/3/1
f 65/2/1 66/5/1 67/6/1 68/3/1
f 69/2/1 70/5/1 71/6/1 72/3/1
f 73/2/1 74/5/1 75/6/1 76/3/1
f 77/2/1 78/5/1 79/6/1 80/3/1
f 81/2/1 82/5/1 83/6/1 84/3/1
f 85/1/1 86/2/1 87/3/1 88/4/1
f 89/2/1 90/5/1 91/6/1 92/3/1
f 93/2/1 94/5/1 95/6/1 96/3/1
f 97/2/1 98/5/1 99/6/1 100/3/1
f 101/2/1 102/5/1 103/6/1 104/3/1
f 105/2/1 106/5/1 107/6/1 108/3/1
f 109/5/1 110/7/1 111/8/1 112/6/1
f 113/7/1 114/9/1 115/10/1 116/8/1
f 117/1/1 118/2/1 119/3/1 120/4/1
f 121/2/1 122/5/1 123/6/1 124/3/1
f 125/5/1 126/7/1 127/8/1 128/6/1
f 129/7/1 130/9/1 131/10/1 132/8/1
f 133/3/1 134/6/1 135/13/1 136/11/1
f 137/3/1 138/6/1 139/13/1 140/11/1
f 141/3/1 142/6/1 143/13/1 144/11/1
f 145/7/1 146/9/1 147/10/1 148/8/1
f 149/1/1 150/2/1 151/3/1 152/4/1
f 153/2/1 154/5/1 155/6/1 156/3/1
f 157/5/1 158/7/1 159/8/1 160/6/1
f 161/7/1 162/9/1 163/10/1 164/8/1
f 165/1/1 166/2/1 167/3/1 168/4/1
f 169/2/1 170/5/1 171/6/1 172/3/1
f 173/5/1 174/7/1 175/8/1 176/6/1
f 177/7/1 178/9/1 179/10/1 180/8/1
f 181/1/1 182/2/1 183/3/1 184/4/1
f 185/2/1 186/5/1 187/6/1 188/3/1
f 189/5/1 190/7/1 191/8/1 192/6/1
f 193/7/1 194/9/1 195/10/1 196/8/1
f 197/1/1 198/2/1 199/3/1 200/4/1
f 201/2/1 202/5/1 203/6/1 204/3/1
f 205/5/1 206/7/1 207/8/1 208/6/1
f 209/7/1 210/9/1 211/10/1 212/8/1
f 213/1/1 214/2/1 215/3/1 216/4/1
f 217/2/1 218/5/1 219/6/1 220/3/1
f 221/5/1 222/7/1 223/8/1 224/6/1
f 225/7/1 226/9/1 227/10/1 228/8/1
f 229/1/1 230/2/1 231/3/1 232/4/1
f 233/2/1 234/5/1 235/6/1 236/3/1
f 237/5/1 238/7/1 239/8/1 240/6/1
f 241/7/1 242/9/1 243/10/1 244/8/1
f 245/4/1 246/3/1 247/11/1 248/12/1
f 249/3/1 250/6/1 251/13/1 252/11/1
f 253/6/1 254/8/1 255/14/1 256/13/1
f 257/4/1 258/3/1 259/11/1 260/12/1
f 261/3/1 262/6/1 263/13/1 264/11/1
f 265/6/1 266/8/1 267/14/1 268/13/1
f 269/4/1 270/3/1 271/11/1 272/12/1
f 273/3/1 274/6/1 275/13/1 276/11/1
f 277/6/1 278/8/1 279/14/1 280/13/1
f 281/4/1 282/3/1 283/11/1 284/12/1
f 285/3/1 286/6/1 287/13/1 288/11/1
f 289/6/1 290/8/1 291/14/1 292/13/1
f 293/4/1 294/3/1 295/11/1 296/12/1
f 297/3/1 298/6/1 299/13/1 300/11/1
f 301/6/1 302/8/1 303/14/1 304/13/1
f 305/4/1 306/3/1 307/11/1 308/12/1
f 309/3/1 310/6/1 311/13/1 312/11/1
f 313/6/1 314/8/1 315/14/1 316/13/1
f 317/4/1 318/3/1 319/11/1 320/12/1
f 321/3/1 322/6/1 323/13/1 324/11/1
f 325/6/1 326/8/1 327/14/1 328/13/1
f 329/9/1 330/15/1 331/16/1 332/10/1
f 333/3/1 334/6/1 335/13/1 336/11/1
f 337/15/1 338/17/1 339/18/1 340/16/1
f 341/4/1 342/3/1 343/11/1 344/12/1
f 345/3/1 346/6/1 347/13/1 348/11/1
f 349/6/1 350/8/1 351/14/1 352/13/1
f 353/19/1 354/20/1 355/15/1 356/9/1
f 357/2/1 358/5/1 359/6/1 360/3/1
f 361/20/1 362/21/1 363/17/1 364/15/1
f 365/4/1 366/3/1 367/11/1 368/12/1
f 369/3/1 370/6/1 371/13/1 372/11/1
f 373/6/1 374/8/1 375/14/1 376/13/1
f 377/4/1 378/3/1 379/11/1 380/12/1
f 381/3/1 382/6/1 383/13/1 384/11/1
f 385/6/1 386/8/1 387/14/1 388/13/1
f 389/9/1 390/15/1 391/16/1 392/10/1
f 393/3/1 394/6/1 395/13/1 396/11/1
f 397/15/1 398/17/1 399/18/1 400/16/1
f 401/12/1 402/11/1 403/22/1 404/23/1
f 405/11/1 406/13/1 407/24/1 408/22/1
f 409/13/1 410/14/1 411/25/1 412/24/1
f 413/14/1 414/26/1 415/27/1 416/25/1
f 417/12/1 418/11/1 419/22/1 420/23/1
f 421/11/1 422/13/1 423/24/1 424/22/1
f 425/13/1 426/14/1 427/25/1 428/24/1
f 429/14/1 430/26/1 431/27/1 432/25/1
f 433/12/1 434/11/1 435/22/1 436/23/1
f 437/11/1 438/13/1 439/24/1 440/22/1
f 441/28/1 442/29/1 443/20/1 444/19/1
f 445/29/1 446/30/1 447/21/1 448/20/1
f 449/19/1 450/20/1 451/15/1 452/9/1
f 453/2/1 454/5/1 455/6/1 456/3/1
f 457/20/1 458/21/1 459/17/1 460/15/1
f 461/4/1 462/3/1 463/11/1 464/12/1
f 465/3/1 466/6/1 467/13/1 468/11/1
f 469/6/1 470/8/1 471/14/1 472/13/1
f 473/8/1 474/10/1 475/26/1 476/14/1
f 477/4/1 478/3/1 479/11/1 480/12/1
f 481/3/1 482/6/1 483/13/1 484/11/1
f 485/6/1 486/8/1 487/14/1 488/13/1
f 489/8/1 490/10/1 491/26/1 492/14/1
f 493/4/1 494/3/1 495/11/1 496/12/1
f 497/3/1 498/6/1 499/13/1 500/11/1
f 501/31/1 502/32/1 503/29/1 504/28/1
f 505/32/1 506/33/1 507/30/1 508/29/1
f 509/34/1 510/35/1 511/32/1 512/31/1
f 513/35/1 514/36/1 515/33/1 516/32/1
f 517/6/1 518/8/1 519/14/1 520/13/1
f 521/8/1 522/10/1 523/26/1 524/14/1
f 525/4/1 526/3/1 527/11/1 528/12/1
f 529/3/1 530/6/1 531/13/1 532/11/1
f 533/6/1 534/8/1 535/14/1 536/13/1
f 537/4/1 538/3/1 539/11/1 540/12/1
f 541/4/1 542/3/1 543/11/1 544/12/1
f 545/3/1 546/6/1 547/13/1 548/11/1
f 549/6/1 550/8/1 551/14/1 552/13/1
f 553/8/1 554/10/1 555/26/1 556/14/1
f 557/37/1 558/38/1 559/35/1 560/34/1
f 561/38/1 562/39/1 563/36/1 564/35/1
f 565/34/1 566/35/1 567/32/1 568/31/1
f 569/35/1 570/36/1 571/33/1 572/32/1
f 573/3/1 574/6/1 575/13/1 576/11/1
f 577/35/1 578/36/1 579/33/1 580/32/1
f 581/3/1 582/6/1 583/13/1 584/11/1
f 585/3/1 586/6/1 587/13/1 588/11/1
f 589/3/1 590/6/1 591/13/1 592/11/1
f 593/3/1 594/6/1 595/13/1 596/11/1
f 597/3/1 598/6/1 599/13/1 600/11/1
f 601/3/1 602/6/1 603/13/1 604/11/1
f 605/37/1 606/38/1 607/35/1 608/34/1
f 609/38/1 610/39/1 611/36/1 612/35/1
f 613/34/1 614/35/1 615/32/1 616/31/1
f 617/35/1 618/36/1 619/33/1 620/32/1
f 621/3/1 622/6/1 623/13/1 624/11/1
f 625/3/1 626/6/1 627/13/1 628/11/1
f 629/3/1 630/6/1 631/13/1 632/11/1
f 633/3/1 634/6/1 635/13/1 636/11/1
f 637/36/1 638/40/1 639/41/1 640/33/1
f 641/40/1 642/42/1 643/43/1 644/41/1
f 645/37/1 646/38/1 647/35/1 648/34/1
f 649/38/1 650/39/1 651/36/1 652/35/1
f 653/2/1 654/5/1 655/6/1 656/3/1
f 657/5/1 658/7/1 659/8/1 660/6/1
f 661/7/1 662/9/1 663/10/1 664/8/1
f 665/2/1 666/5/1 667/6/1 668/3/1
f 669/39/1 670/44/1 671/40/1 672/36/1
f 673/44/1 674/45/1 675/42/1 676/40/1

