# Tiled2Unity generated file. Do not modify by hand.
# Wavefront file for '1_1_Module3_mesh_0001.obj'

# Vertices (Count = 320)
v -80 -16 0
v -88 -16 0
v -88 -8 0
v -80 -8 0
v -240 -16 0
v -248 -16 0
v -248 -8 0
v -240 -8 0
v -248 -16 0
v -256 -16 0
v -256 -8 0
v -248 -8 0
v -400 -16 0
v -408 -16 0
v -408 -8 0
v -400 -8 0
v -440 -16 0
v -448 -16 0
v -448 -8 0
v -440 -8 0
v -80 -24 0
v -88 -24 0
v -88 -16 0
v -80 -16 0
v -240 -24 0
v -248 -24 0
v -248 -16 0
v -240 -16 0
v -248 -24 0
v -256 -24 0
v -256 -16 0
v -248 -16 0
v -400 -24 0
v -408 -24 0
v -408 -16 0
v -400 -16 0
v -440 -24 0
v -448 -24 0
v -448 -16 0
v -440 -16 0
v -80 -32 0
v -88 -32 0
v -88 -24 0
v -80 -24 0
v -240 -32 0
v -248 -32 0
v -248 -24 0
v -240 -24 0
v -248 -32 0
v -256 -32 0
v -256 -24 0
v -248 -24 0
v -400 -32 0
v -408 -32 0
v -408 -24 0
v -400 -24 0
v -440 -32 0
v -448 -32 0
v -448 -24 0
v -440 -24 0
v -80 -40 0
v -88 -40 0
v -88 -32 0
v -80 -32 0
v -240 -40 0
v -248 -40 0
v -248 -32 0
v -240 -32 0
v -248 -40 0
v -256 -40 0
v -256 -32 0
v -248 -32 0
v -400 -40 0
v -408 -40 0
v -408 -32 0
v -400 -32 0
v -440 -40 0
v -448 -40 0
v -448 -32 0
v -440 -32 0
v -80 -48 0
v -88 -48 0
v -88 -40 0
v -80 -40 0
v -240 -48 0
v -248 -48 0
v -248 -40 0
v -240 -40 0
v -248 -48 0
v -256 -48 0
v -256 -40 0
v -248 -40 0
v -400 -48 0
v -408 -48 0
v -408 -40 0
v -400 -40 0
v -440 -48 0
v -448 -48 0
v -448 -40 0
v -440 -40 0
v -80 -56 0
v -88 -56 0
v -88 -48 0
v -80 -48 0
v -240 -56 0
v -248 -56 0
v -248 -48 0
v -240 -48 0
v -248 -56 0
v -256 -56 0
v -256 -48 0
v -248 -48 0
v -440 -56 0
v -448 -56 0
v -448 -48 0
v -440 -48 0
v -80 -64 0
v -88 -64 0
v -88 -56 0
v -80 -56 0
v -240 -64 0
v -248 -64 0
v -248 -56 0
v -240 -56 0
v -248 -64 0
v -256 -64 0
v -256 -56 0
v -248 -56 0
v -440 -64 0
v -448 -64 0
v -448 -56 0
v -440 -56 0
v -80 -72 0
v -88 -72 0
v -88 -64 0
v -80 -64 0
v -440 -72 0
v -448 -72 0
v -448 -64 0
v -440 -64 0
v -80 -80 0
v -88 -80 0
v -88 -72 0
v -80 -72 0
v -440 -80 0
v -448 -80 0
v -448 -72 0
v -440 -72 0
v -440 -88 0
v -448 -88 0
v -448 -80 0
v -440 -80 0
v -440 -96 0
v -448 -96 0
v -448 -88 0
v -440 -88 0
v -440 -104 0
v -448 -104 0
v -448 -96 0
v -440 -96 0
v -440 -176 0
v -448 -176 0
v -448 -168 0
v -440 -168 0
v -440 -184 0
v -448 -184 0
v -448 -176 0
v -440 -176 0
v -440 -192 0
v -448 -192 0
v -448 -184 0
v -440 -184 0
v -440 -200 0
v -448 -200 0
v -448 -192 0
v -440 -192 0
v -440 -208 0
v -448 -208 0
v -448 -200 0
v -440 -200 0
v -440 -216 0
v -448 -216 0
v -448 -208 0
v -440 -208 0
v -440 -224 0
v -448 -224 0
v -448 -216 0
v -440 -216 0
v -440 -232 0
v -448 -232 0
v -448 -224 0
v -440 -224 0
v -440 -240 0
v -448 -240 0
v -448 -232 0
v -440 -232 0
v -440 -248 0
v -448 -248 0
v -448 -240 0
v -440 -240 0
v -440 -256 0
v -448 -256 0
v -448 -248 0
v -440 -248 0
v -440 -264 0
v -448 -264 0
v -448 -256 0
v -440 -256 0
v -440 -272 0
v -448 -272 0
v -448 -264 0
v -440 -264 0
v -440 -280 0
v -448 -280 0
v -448 -272 0
v -440 -272 0
v -440 -288 0
v -448 -288 0
v -448 -280 0
v -440 -280 0
v -440 -296 0
v -448 -296 0
v -448 -288 0
v -440 -288 0
v -440 -304 0
v -448 -304 0
v -448 -296 0
v -440 -296 0
v -440 -312 0
v -448 -312 0
v -448 -304 0
v -440 -304 0
v -440 -320 0
v -448 -320 0
v -448 -312 0
v -440 -312 0
v -440 -328 0
v -448 -328 0
v -448 -320 0
v -440 -320 0
v -440 -336 0
v -448 -336 0
v -448 -328 0
v -440 -328 0
v -440 -344 0
v -448 -344 0
v -448 -336 0
v -440 -336 0
v -440 -352 0
v -448 -352 0
v -448 -344 0
v -440 -344 0
v -440 -360 0
v -448 -360 0
v -448 -352 0
v -440 -352 0
v -440 -368 0
v -448 -368 0
v -448 -360 0
v -440 -360 0
v -440 -376 0
v -448 -376 0
v -448 -368 0
v -440 -368 0
v -440 -384 0
v -448 -384 0
v -448 -376 0
v -440 -376 0
v -440 -392 0
v -448 -392 0
v -448 -384 0
v -440 -384 0
v -440 -400 0
v -448 -400 0
v -448 -392 0
v -440 -392 0
v -440 -408 0
v -448 -408 0
v -448 -400 0
v -440 -400 0
v -440 -416 0
v -448 -416 0
v -448 -408 0
v -440 -408 0
v -440 -424 0
v -448 -424 0
v -448 -416 0
v -440 -416 0
v -440 -432 0
v -448 -432 0
v -448 -424 0
v -440 -424 0
v -440 -440 0
v -448 -440 0
v -448 -432 0
v -440 -432 0
v -440 -448 0
v -448 -448 0
v -448 -440 0
v -440 -440 0
v -440 -456 0
v -448 -456 0
v -448 -448 0
v -440 -448 0
v -440 -464 0
v -448 -464 0
v -448 -456 0
v -440 -456 0
v -440 -472 0
v -448 -472 0
v -448 -464 0
v -440 -464 0
v -440 -480 0
v -448 -480 0
v -448 -472 0
v -440 -472 0
v -440 -488 0
v -448 -488 0
v -448 -480 0
v -440 -480 0

# Texture cooridinates (Count = 12)
vt 0.3333333 0.6666666
vt 0.6666667 0.6666666
vt 0.6666667 1
vt 0.3333333 1
vt 0 0
vt 0.3333333 0
vt 0.3333333 0.3333333
vt 0 0.3333333
vt 0.6666667 0
vt 1 0
vt 1 0.3333333
vt 0.6666667 0.3333333

# Normal
vn 0 0 -1

# Mesh description
g 1_1_Module3_mesh_0001

# Faces
f 1/1/1 2/2/1 3/3/1 4/4/1
f 5/1/1 6/2/1 7/3/1 8/4/1
f 9/1/1 10/2/1 11/3/1 12/4/1
f 13/1/1 14/2/1 15/3/1 16/4/1
f 17/1/1 18/2/1 19/3/1 20/4/1
f 21/1/1 22/2/1 23/3/1 24/4/1
f 25/1/1 26/2/1 27/3/1 28/4/1
f 29/1/1 30/2/1 31/3/1 32/4/1
f 33/1/1 34/2/1 35/3/1 36/4/1
f 37/1/1 38/2/1 39/3/1 40/4/1
f 41/1/1 42/2/1 43/3/1 44/4/1
f 45/1/1 46/2/1 47/3/1 48/4/1
f 49/1/1 50/2/1 51/3/1 52/4/1
f 53/1/1 54/2/1 55/3/1 56/4/1
f 57/1/1 58/2/1 59/3/1 60/4/1
f 61/1/1 62/2/1 63/3/1 64/4/1
f 65/1/1 66/2/1 67/3/1 68/4/1
f 69/1/1 70/2/1 71/3/1 72/4/1
f 73/1/1 74/2/1 75/3/1 76/4/1
f 77/1/1 78/2/1 79/3/1 80/4/1
f 81/1/1 82/2/1 83/3/1 84/4/1
f 85/1/1 86/2/1 87/3/1 88/4/1
f 89/1/1 90/2/1 91/3/1 92/4/1
f 93/5/1 94/6/1 95/7/1 96/8/1
f 97/1/1 98/2/1 99/3/1 100/4/1
f 101/1/1 102/2/1 103/3/1 104/4/1
f 105/1/1 106/2/1 107/3/1 108/4/1
f 109/1/1 110/2/1 111/3/1 112/4/1
f 113/1/1 114/2/1 115/3/1 116/4/1
f 117/1/1 118/2/1 119/3/1 120/4/1
f 121/5/1 122/6/1 123/7/1 124/8/1
f 125/9/1 126/10/1 127/11/1 128/12/1
f 129/1/1 130/2/1 131/3/1 132/4/1
f 133/1/1 134/2/1 135/3/1 136/4/1
f 137/1/1 138/2/1 139/3/1 140/4/1
f 141/5/1 142/6/1 143/7/1 144/8/1
f 145/1/1 146/2/1 147/3/1 148/4/1
f 149/1/1 150/2/1 151/3/1 152/4/1
f 153/1/1 154/2/1 155/3/1 156/4/1
f 157/1/1 158/2/1 159/3/1 160/4/1
f 161/1/1 162/2/1 163/3/1 164/4/1
f 165/1/1 166/2/1 167/3/1 168/4/1
f 169/1/1 170/2/1 171/3/1 172/4/1
f 173/1/1 174/2/1 175/3/1 176/4/1
f 177/1/1 178/2/1 179/3/1 180/4/1
f 181/1/1 182/2/1 183/3/1 184/4/1
f 185/1/1 186/2/1 187/3/1 188/4/1
f 189/1/1 190/2/1 191/3/1 192/4/1
f 193/1/1 194/2/1 195/3/1 196/4/1
f 197/7/1 198/12/1 199/2/1 200/1/1
f 201/7/1 202/12/1 203/2/1 204/1/1
f 205/7/1 206/12/1 207/2/1 208/1/1
f 209/7/1 210/12/1 211/2/1 212/1/1
f 213/7/1 214/12/1 215/2/1 216/1/1
f 217/7/1 218/12/1 219/2/1 220/1/1
f 221/7/1 222/12/1 223/2/1 224/1/1
f 225/7/1 226/12/1 227/2/1 228/1/1
f 229/7/1 230/12/1 231/2/1 232/1/1
f 233/7/1 234/12/1 235/2/1 236/1/1
f 237/7/1 238/12/1 239/2/1 240/1/1
f 241/7/1 242/12/1 243/2/1 244/1/1
f 245/7/1 246/12/1 247/2/1 248/1/1
f 249/7/1 250/12/1 251/2/1 252/1/1
f 253/7/1 254/12/1 255/2/1 256/1/1
f 257/7/1 258/12/1 259/2/1 260/1/1
f 261/7/1 262/12/1 263/2/1 264/1/1
f 265/7/1 266/12/1 267/2/1 268/1/1
f 269/7/1 270/12/1 271/2/1 272/1/1
f 273/7/1 274/12/1 275/2/1 276/1/1
f 277/7/1 278/12/1 279/2/1 280/1/1
f 281/7/1 282/12/1 283/2/1 284/1/1
f 285/7/1 286/12/1 287/2/1 288/1/1
f 289/7/1 290/12/1 291/2/1 292/1/1
f 293/7/1 294/12/1 295/2/1 296/1/1
f 297/7/1 298/12/1 299/2/1 300/1/1
f 301/7/1 302/12/1 303/2/1 304/1/1
f 305/7/1 306/12/1 307/2/1 308/1/1
f 309/7/1 310/12/1 311/2/1 312/1/1
f 313/7/1 314/12/1 315/2/1 316/1/1
f 317/7/1 318/12/1 319/2/1 320/1/1

