# Tiled2Unity generated file. Do not modify by hand.
# Wavefront file for '1_1_9_mesh_0001.obj'

# Vertices (Count = 784)
v 0 -8 0
v -8 -8 0
v -8 0 0
v 0 0 0
v -8 -8 0
v -16 -8 0
v -16 0 0
v -8 0 0
v -16 -8 0
v -24 -8 0
v -24 0 0
v -16 0 0
v -24 -8 0
v -32 -8 0
v -32 0 0
v -24 0 0
v -32 -8 0
v -40 -8 0
v -40 0 0
v -32 0 0
v -40 -8 0
v -48 -8 0
v -48 0 0
v -40 0 0
v -48 -8 0
v -56 -8 0
v -56 0 0
v -48 0 0
v -56 -8 0
v -64 -8 0
v -64 0 0
v -56 0 0
v -64 -8 0
v -72 -8 0
v -72 0 0
v -64 0 0
v -72 -8 0
v -80 -8 0
v -80 0 0
v -72 0 0
v -80 -8 0
v -88 -8 0
v -88 0 0
v -80 0 0
v -88 -8 0
v -96 -8 0
v -96 0 0
v -88 0 0
v -96 -8 0
v -104 -8 0
v -104 0 0
v -96 0 0
v -104 -8 0
v -112 -8 0
v -112 0 0
v -104 0 0
v -112 -8 0
v -120 -8 0
v -120 0 0
v -112 0 0
v -120 -8 0
v -128 -8 0
v -128 0 0
v -120 0 0
v -128 -8 0
v -136 -8 0
v -136 0 0
v -128 0 0
v -136 -8 0
v -144 -8 0
v -144 0 0
v -136 0 0
v -144 -8 0
v -152 -8 0
v -152 0 0
v -144 0 0
v -152 -8 0
v -160 -8 0
v -160 0 0
v -152 0 0
v -160 -8 0
v -168 -8 0
v -168 0 0
v -160 0 0
v -168 -8 0
v -176 -8 0
v -176 0 0
v -168 0 0
v -176 -8 0
v -184 -8 0
v -184 0 0
v -176 0 0
v -184 -8 0
v -192 -8 0
v -192 0 0
v -184 0 0
v -192 -8 0
v -200 -8 0
v -200 0 0
v -192 0 0
v -200 -8 0
v -208 -8 0
v -208 0 0
v -200 0 0
v -208 -8 0
v -216 -8 0
v -216 0 0
v -208 0 0
v -216 -8 0
v -224 -8 0
v -224 0 0
v -216 0 0
v -224 -8 0
v -232 -8 0
v -232 0 0
v -224 0 0
v -232 -8 0
v -240 -8 0
v -240 0 0
v -232 0 0
v -240 -8 0
v -248 -8 0
v -248 0 0
v -240 0 0
v -248 -8 0
v -256 -8 0
v -256 0 0
v -248 0 0
v -256 -8 0
v -264 -8 0
v -264 0 0
v -256 0 0
v -264 -8 0
v -272 -8 0
v -272 0 0
v -264 0 0
v -272 -8 0
v -280 -8 0
v -280 0 0
v -272 0 0
v -280 -8 0
v -288 -8 0
v -288 0 0
v -280 0 0
v -288 -8 0
v -296 -8 0
v -296 0 0
v -288 0 0
v -296 -8 0
v -304 -8 0
v -304 0 0
v -296 0 0
v -304 -8 0
v -312 -8 0
v -312 0 0
v -304 0 0
v -312 -8 0
v -320 -8 0
v -320 0 0
v -312 0 0
v -320 -8 0
v -328 -8 0
v -328 0 0
v -320 0 0
v -328 -8 0
v -336 -8 0
v -336 0 0
v -328 0 0
v -336 -8 0
v -344 -8 0
v -344 0 0
v -336 0 0
v -344 -8 0
v -352 -8 0
v -352 0 0
v -344 0 0
v -352 -8 0
v -360 -8 0
v -360 0 0
v -352 0 0
v -360 -8 0
v -368 -8 0
v -368 0 0
v -360 0 0
v -368 -8 0
v -376 -8 0
v -376 0 0
v -368 0 0
v -376 -8 0
v -384 -8 0
v -384 0 0
v -376 0 0
v -384 -8 0
v -392 -8 0
v -392 0 0
v -384 0 0
v -392 -8 0
v -400 -8 0
v -400 0 0
v -392 0 0
v -400 -8 0
v -408 -8 0
v -408 0 0
v -400 0 0
v -408 -8 0
v -416 -8 0
v -416 0 0
v -408 0 0
v -416 -8 0
v -424 -8 0
v -424 0 0
v -416 0 0
v -424 -8 0
v -432 -8 0
v -432 0 0
v -424 0 0
v -432 -8 0
v -440 -8 0
v -440 0 0
v -432 0 0
v -440 -8 0
v -448 -8 0
v -448 0 0
v -440 0 0
v -448 -8 0
v -456 -8 0
v -456 0 0
v -448 0 0
v -456 -8 0
v -464 -8 0
v -464 0 0
v -456 0 0
v -464 -8 0
v -472 -8 0
v -472 0 0
v -464 0 0
v -472 -8 0
v -480 -8 0
v -480 0 0
v -472 0 0
v -480 -8 0
v -488 -8 0
v -488 0 0
v -480 0 0
v -80 -16 0
v -88 -16 0
v -88 -8 0
v -80 -8 0
v -96 -16 0
v -104 -16 0
v -104 -8 0
v -96 -8 0
v -112 -16 0
v -120 -16 0
v -120 -8 0
v -112 -8 0
v -128 -16 0
v -136 -16 0
v -136 -8 0
v -128 -8 0
v -144 -16 0
v -152 -16 0
v -152 -8 0
v -144 -8 0
v -160 -16 0
v -168 -16 0
v -168 -8 0
v -160 -8 0
v -176 -16 0
v -184 -16 0
v -184 -8 0
v -176 -8 0
v -192 -16 0
v -200 -16 0
v -200 -8 0
v -192 -8 0
v -208 -16 0
v -216 -16 0
v -216 -8 0
v -208 -8 0
v -224 -16 0
v -232 -16 0
v -232 -8 0
v -224 -8 0
v -240 -16 0
v -248 -16 0
v -248 -8 0
v -240 -8 0
v -256 -16 0
v -264 -16 0
v -264 -8 0
v -256 -8 0
v -272 -16 0
v -280 -16 0
v -280 -8 0
v -272 -8 0
v -288 -16 0
v -296 -16 0
v -296 -8 0
v -288 -8 0
v -304 -16 0
v -312 -16 0
v -312 -8 0
v -304 -8 0
v -320 -16 0
v -328 -16 0
v -328 -8 0
v -320 -8 0
v -336 -16 0
v -344 -16 0
v -344 -8 0
v -336 -8 0
v -352 -16 0
v -360 -16 0
v -360 -8 0
v -352 -8 0
v -368 -16 0
v -376 -16 0
v -376 -8 0
v -368 -8 0
v -384 -16 0
v -392 -16 0
v -392 -8 0
v -384 -8 0
v -400 -16 0
v -408 -16 0
v -408 -8 0
v -400 -8 0
v -80 -24 0
v -88 -24 0
v -88 -16 0
v -80 -16 0
v -96 -24 0
v -104 -24 0
v -104 -16 0
v -96 -16 0
v -112 -24 0
v -120 -24 0
v -120 -16 0
v -112 -16 0
v -128 -24 0
v -136 -24 0
v -136 -16 0
v -128 -16 0
v -144 -24 0
v -152 -24 0
v -152 -16 0
v -144 -16 0
v -160 -24 0
v -168 -24 0
v -168 -16 0
v -160 -16 0
v -176 -24 0
v -184 -24 0
v -184 -16 0
v -176 -16 0
v -192 -24 0
v -200 -24 0
v -200 -16 0
v -192 -16 0
v -208 -24 0
v -216 -24 0
v -216 -16 0
v -208 -16 0
v -224 -24 0
v -232 -24 0
v -232 -16 0
v -224 -16 0
v -240 -24 0
v -248 -24 0
v -248 -16 0
v -240 -16 0
v -256 -24 0
v -264 -24 0
v -264 -16 0
v -256 -16 0
v -272 -24 0
v -280 -24 0
v -280 -16 0
v -272 -16 0
v -288 -24 0
v -296 -24 0
v -296 -16 0
v -288 -16 0
v -304 -24 0
v -312 -24 0
v -312 -16 0
v -304 -16 0
v -320 -24 0
v -328 -24 0
v -328 -16 0
v -320 -16 0
v -336 -24 0
v -344 -24 0
v -344 -16 0
v -336 -16 0
v -352 -24 0
v -360 -24 0
v -360 -16 0
v -352 -16 0
v -368 -24 0
v -376 -24 0
v -376 -16 0
v -368 -16 0
v -384 -24 0
v -392 -24 0
v -392 -16 0
v -384 -16 0
v -400 -24 0
v -408 -24 0
v -408 -16 0
v -400 -16 0
v -80 -32 0
v -88 -32 0
v -88 -24 0
v -80 -24 0
v -96 -32 0
v -104 -32 0
v -104 -24 0
v -96 -24 0
v -112 -32 0
v -120 -32 0
v -120 -24 0
v -112 -24 0
v -128 -32 0
v -136 -32 0
v -136 -24 0
v -128 -24 0
v -144 -32 0
v -152 -32 0
v -152 -24 0
v -144 -24 0
v -160 -32 0
v -168 -32 0
v -168 -24 0
v -160 -24 0
v -176 -32 0
v -184 -32 0
v -184 -24 0
v -176 -24 0
v -192 -32 0
v -200 -32 0
v -200 -24 0
v -192 -24 0
v -208 -32 0
v -216 -32 0
v -216 -24 0
v -208 -24 0
v -224 -32 0
v -232 -32 0
v -232 -24 0
v -224 -24 0
v -240 -32 0
v -248 -32 0
v -248 -24 0
v -240 -24 0
v -256 -32 0
v -264 -32 0
v -264 -24 0
v -256 -24 0
v -272 -32 0
v -280 -32 0
v -280 -24 0
v -272 -24 0
v -288 -32 0
v -296 -32 0
v -296 -24 0
v -288 -24 0
v -304 -32 0
v -312 -32 0
v -312 -24 0
v -304 -24 0
v -320 -32 0
v -328 -32 0
v -328 -24 0
v -320 -24 0
v -336 -32 0
v -344 -32 0
v -344 -24 0
v -336 -24 0
v -352 -32 0
v -360 -32 0
v -360 -24 0
v -352 -24 0
v -368 -32 0
v -376 -32 0
v -376 -24 0
v -368 -24 0
v -384 -32 0
v -392 -32 0
v -392 -24 0
v -384 -24 0
v -400 -32 0
v -408 -32 0
v -408 -24 0
v -400 -24 0
v -80 -40 0
v -88 -40 0
v -88 -32 0
v -80 -32 0
v -96 -40 0
v -104 -40 0
v -104 -32 0
v -96 -32 0
v -112 -40 0
v -120 -40 0
v -120 -32 0
v -112 -32 0
v -128 -40 0
v -136 -40 0
v -136 -32 0
v -128 -32 0
v -144 -40 0
v -152 -40 0
v -152 -32 0
v -144 -32 0
v -160 -40 0
v -168 -40 0
v -168 -32 0
v -160 -32 0
v -176 -40 0
v -184 -40 0
v -184 -32 0
v -176 -32 0
v -192 -40 0
v -200 -40 0
v -200 -32 0
v -192 -32 0
v -208 -40 0
v -216 -40 0
v -216 -32 0
v -208 -32 0
v -224 -40 0
v -232 -40 0
v -232 -32 0
v -224 -32 0
v -240 -40 0
v -248 -40 0
v -248 -32 0
v -240 -32 0
v -256 -40 0
v -264 -40 0
v -264 -32 0
v -256 -32 0
v -272 -40 0
v -280 -40 0
v -280 -32 0
v -272 -32 0
v -288 -40 0
v -296 -40 0
v -296 -32 0
v -288 -32 0
v -304 -40 0
v -312 -40 0
v -312 -32 0
v -304 -32 0
v -320 -40 0
v -328 -40 0
v -328 -32 0
v -320 -32 0
v -336 -40 0
v -344 -40 0
v -344 -32 0
v -336 -32 0
v -352 -40 0
v -360 -40 0
v -360 -32 0
v -352 -32 0
v -368 -40 0
v -376 -40 0
v -376 -32 0
v -368 -32 0
v -384 -40 0
v -392 -40 0
v -392 -32 0
v -384 -32 0
v -400 -40 0
v -408 -40 0
v -408 -32 0
v -400 -32 0
v -96 -48 0
v -104 -48 0
v -104 -40 0
v -96 -40 0
v -112 -48 0
v -120 -48 0
v -120 -40 0
v -112 -40 0
v -128 -48 0
v -136 -48 0
v -136 -40 0
v -128 -40 0
v -144 -48 0
v -152 -48 0
v -152 -40 0
v -144 -40 0
v -160 -48 0
v -168 -48 0
v -168 -40 0
v -160 -40 0
v -176 -48 0
v -184 -48 0
v -184 -40 0
v -176 -40 0
v -192 -48 0
v -200 -48 0
v -200 -40 0
v -192 -40 0
v -208 -48 0
v -216 -48 0
v -216 -40 0
v -208 -40 0
v -224 -48 0
v -232 -48 0
v -232 -40 0
v -224 -40 0
v -240 -48 0
v -248 -48 0
v -248 -40 0
v -240 -40 0
v -256 -48 0
v -264 -48 0
v -264 -40 0
v -256 -40 0
v -272 -48 0
v -280 -48 0
v -280 -40 0
v -272 -40 0
v -288 -48 0
v -296 -48 0
v -296 -40 0
v -288 -40 0
v -304 -48 0
v -312 -48 0
v -312 -40 0
v -304 -40 0
v -320 -48 0
v -328 -48 0
v -328 -40 0
v -320 -40 0
v -336 -48 0
v -344 -48 0
v -344 -40 0
v -336 -40 0
v -352 -48 0
v -360 -48 0
v -360 -40 0
v -352 -40 0
v -368 -48 0
v -376 -48 0
v -376 -40 0
v -368 -40 0
v -384 -48 0
v -392 -48 0
v -392 -40 0
v -384 -40 0
v -112 -56 0
v -120 -56 0
v -120 -48 0
v -112 -48 0
v -128 -56 0
v -136 -56 0
v -136 -48 0
v -128 -48 0
v -144 -56 0
v -152 -56 0
v -152 -48 0
v -144 -48 0
v -160 -56 0
v -168 -56 0
v -168 -48 0
v -160 -48 0
v -176 -56 0
v -184 -56 0
v -184 -48 0
v -176 -48 0
v -192 -56 0
v -200 -56 0
v -200 -48 0
v -192 -48 0
v -208 -56 0
v -216 -56 0
v -216 -48 0
v -208 -48 0
v -224 -56 0
v -232 -56 0
v -232 -48 0
v -224 -48 0
v -240 -56 0
v -248 -56 0
v -248 -48 0
v -240 -48 0
v -256 -56 0
v -264 -56 0
v -264 -48 0
v -256 -48 0
v -272 -56 0
v -280 -56 0
v -280 -48 0
v -272 -48 0
v -288 -56 0
v -296 -56 0
v -296 -48 0
v -288 -48 0
v -304 -56 0
v -312 -56 0
v -312 -48 0
v -304 -48 0
v -320 -56 0
v -328 -56 0
v -328 -48 0
v -320 -48 0
v -336 -56 0
v -344 -56 0
v -344 -48 0
v -336 -48 0
v -352 -56 0
v -360 -56 0
v -360 -48 0
v -352 -48 0
v -368 -56 0
v -376 -56 0
v -376 -48 0
v -368 -48 0
v -128 -64 0
v -136 -64 0
v -136 -56 0
v -128 -56 0
v -160 -64 0
v -168 -64 0
v -168 -56 0
v -160 -56 0
v -176 -64 0
v -184 -64 0
v -184 -56 0
v -176 -56 0
v -192 -64 0
v -200 -64 0
v -200 -56 0
v -192 -56 0
v -224 -64 0
v -232 -64 0
v -232 -56 0
v -224 -56 0
v -240 -64 0
v -248 -64 0
v -248 -56 0
v -240 -56 0
v -256 -64 0
v -264 -64 0
v -264 -56 0
v -256 -56 0
v -288 -64 0
v -296 -64 0
v -296 -56 0
v -288 -56 0
v -304 -64 0
v -312 -64 0
v -312 -56 0
v -304 -56 0
v -320 -64 0
v -328 -64 0
v -328 -56 0
v -320 -56 0
v -352 -64 0
v -360 -64 0
v -360 -56 0
v -352 -56 0
v -176 -72 0
v -184 -72 0
v -184 -64 0
v -176 -64 0
v -240 -72 0
v -248 -72 0
v -248 -64 0
v -240 -64 0
v -304 -72 0
v -312 -72 0
v -312 -64 0
v -304 -64 0
v -240 -80 0
v -248 -80 0
v -248 -72 0
v -240 -72 0

# Texture cooridinates (Count = 12)
vt 0.125 0.625
vt 0.25 0.625
vt 0.25 0.75
vt 0.125 0.75
vt 0.25 0.875
vt 0.125 0.875
vt 0.5 0.625
vt 0.625 0.625
vt 0.625 0.75
vt 0.5 0.75
vt 0.5 0.5
vt 0.625 0.5

# Normal
vn 0 0 -1

# Mesh description
g 1_1_9_mesh_0001

# Faces
f 1/1/1 2/2/1 3/3/1 4/4/1
f 5/1/1 6/2/1 7/3/1 8/4/1
f 9/1/1 10/2/1 11/3/1 12/4/1
f 13/1/1 14/2/1 15/3/1 16/4/1
f 17/1/1 18/2/1 19/3/1 20/4/1
f 21/1/1 22/2/1 23/3/1 24/4/1
f 25/1/1 26/2/1 27/3/1 28/4/1
f 29/1/1 30/2/1 31/3/1 32/4/1
f 33/1/1 34/2/1 35/3/1 36/4/1
f 37/1/1 38/2/1 39/3/1 40/4/1
f 41/4/1 42/3/1 43/5/1 44/6/1
f 45/1/1 46/2/1 47/3/1 48/4/1
f 49/4/1 50/3/1 51/5/1 52/6/1
f 53/1/1 54/2/1 55/3/1 56/4/1
f 57/4/1 58/3/1 59/5/1 60/6/1
f 61/1/1 62/2/1 63/3/1 64/4/1
f 65/4/1 66/3/1 67/5/1 68/6/1
f 69/1/1 70/2/1 71/3/1 72/4/1
f 73/4/1 74/3/1 75/5/1 76/6/1
f 77/1/1 78/2/1 79/3/1 80/4/1
f 81/4/1 82/3/1 83/5/1 84/6/1
f 85/1/1 86/2/1 87/3/1 88/4/1
f 89/4/1 90/3/1 91/5/1 92/6/1
f 93/1/1 94/2/1 95/3/1 96/4/1
f 97/4/1 98/3/1 99/5/1 100/6/1
f 101/1/1 102/2/1 103/3/1 104/4/1
f 105/4/1 106/3/1 107/5/1 108/6/1
f 109/1/1 110/2/1 111/3/1 112/4/1
f 113/4/1 114/3/1 115/5/1 116/6/1
f 117/1/1 118/2/1 119/3/1 120/4/1
f 121/4/1 122/3/1 123/5/1 124/6/1
f 125/1/1 126/2/1 127/3/1 128/4/1
f 129/4/1 130/3/1 131/5/1 132/6/1
f 133/1/1 134/2/1 135/3/1 136/4/1
f 137/4/1 138/3/1 139/5/1 140/6/1
f 141/1/1 142/2/1 143/3/1 144/4/1
f 145/4/1 146/3/1 147/5/1 148/6/1
f 149/1/1 150/2/1 151/3/1 152/4/1
f 153/4/1 154/3/1 155/5/1 156/6/1
f 157/1/1 158/2/1 159/3/1 160/4/1
f 161/4/1 162/3/1 163/5/1 164/6/1
f 165/1/1 166/2/1 167/3/1 168/4/1
f 169/4/1 170/3/1 171/5/1 172/6/1
f 173/1/1 174/2/1 175/3/1 176/4/1
f 177/4/1 178/3/1 179/5/1 180/6/1
f 181/1/1 182/2/1 183/3/1 184/4/1
f 185/4/1 186/3/1 187/5/1 188/6/1
f 189/1/1 190/2/1 191/3/1 192/4/1
f 193/4/1 194/3/1 195/5/1 196/6/1
f 197/1/1 198/2/1 199/3/1 200/4/1
f 201/4/1 202/3/1 203/5/1 204/6/1
f 205/1/1 206/2/1 207/3/1 208/4/1
f 209/1/1 210/2/1 211/3/1 212/4/1
f 213/1/1 214/2/1 215/3/1 216/4/1
f 217/1/1 218/2/1 219/3/1 220/4/1
f 221/1/1 222/2/1 223/3/1 224/4/1
f 225/1/1 226/2/1 227/3/1 228/4/1
f 229/1/1 230/2/1 231/3/1 232/4/1
f 233/1/1 234/2/1 235/3/1 236/4/1
f 237/1/1 238/2/1 239/3/1 240/4/1
f 241/1/1 242/2/1 243/3/1 244/4/1
f 245/4/1 246/3/1 247/5/1 248/6/1
f 249/4/1 250/3/1 251/5/1 252/6/1
f 253/4/1 254/3/1 255/5/1 256/6/1
f 257/4/1 258/3/1 259/5/1 260/6/1
f 261/4/1 262/3/1 263/5/1 264/6/1
f 265/4/1 266/3/1 267/5/1 268/6/1
f 269/4/1 270/3/1 271/5/1 272/6/1
f 273/4/1 274/3/1 275/5/1 276/6/1
f 277/4/1 278/3/1 279/5/1 280/6/1
f 281/4/1 282/3/1 283/5/1 284/6/1
f 285/4/1 286/3/1 287/5/1 288/6/1
f 289/4/1 290/3/1 291/5/1 292/6/1
f 293/4/1 294/3/1 295/5/1 296/6/1
f 297/4/1 298/3/1 299/5/1 300/6/1
f 301/4/1 302/3/1 303/5/1 304/6/1
f 305/4/1 306/3/1 307/5/1 308/6/1
f 309/4/1 310/3/1 311/5/1 312/6/1
f 313/4/1 314/3/1 315/5/1 316/6/1
f 317/4/1 318/3/1 319/5/1 320/6/1
f 321/4/1 322/3/1 323/5/1 324/6/1
f 325/4/1 326/3/1 327/5/1 328/6/1
f 329/4/1 330/3/1 331/5/1 332/6/1
f 333/4/1 334/3/1 335/5/1 336/6/1
f 337/4/1 338/3/1 339/5/1 340/6/1
f 341/4/1 342/3/1 343/5/1 344/6/1
f 345/4/1 346/3/1 347/5/1 348/6/1
f 349/4/1 350/3/1 351/5/1 352/6/1
f 353/4/1 354/3/1 355/5/1 356/6/1
f 357/4/1 358/3/1 359/5/1 360/6/1
f 361/4/1 362/3/1 363/5/1 364/6/1
f 365/4/1 366/3/1 367/5/1 368/6/1
f 369/4/1 370/3/1 371/5/1 372/6/1
f 373/4/1 374/3/1 375/5/1 376/6/1
f 377/4/1 378/3/1 379/5/1 380/6/1
f 381/4/1 382/3/1 383/5/1 384/6/1
f 385/4/1 386/3/1 387/5/1 388/6/1
f 389/4/1 390/3/1 391/5/1 392/6/1
f 393/4/1 394/3/1 395/5/1 396/6/1
f 397/4/1 398/3/1 399/5/1 400/6/1
f 401/4/1 402/3/1 403/5/1 404/6/1
f 405/4/1 406/3/1 407/5/1 408/6/1
f 409/4/1 410/3/1 411/5/1 412/6/1
f 413/7/1 414/8/1 415/9/1 416/10/1
f 417/4/1 418/3/1 419/5/1 420/6/1
f 421/4/1 422/3/1 423/5/1 424/6/1
f 425/4/1 426/3/1 427/5/1 428/6/1
f 429/4/1 430/3/1 431/5/1 432/6/1
f 433/4/1 434/3/1 435/5/1 436/6/1
f 437/4/1 438/3/1 439/5/1 440/6/1
f 441/4/1 442/3/1 443/5/1 444/6/1
f 445/4/1 446/3/1 447/5/1 448/6/1
f 449/4/1 450/3/1 451/5/1 452/6/1
f 453/4/1 454/3/1 455/5/1 456/6/1
f 457/4/1 458/3/1 459/5/1 460/6/1
f 461/4/1 462/3/1 463/5/1 464/6/1
f 465/4/1 466/3/1 467/5/1 468/6/1
f 469/4/1 470/3/1 471/5/1 472/6/1
f 473/4/1 474/3/1 475/5/1 476/6/1
f 477/4/1 478/3/1 479/5/1 480/6/1
f 481/4/1 482/3/1 483/5/1 484/6/1
f 485/4/1 486/3/1 487/5/1 488/6/1
f 489/4/1 490/3/1 491/5/1 492/6/1
f 493/7/1 494/8/1 495/9/1 496/10/1
f 497/11/1 498/12/1 499/8/1 500/7/1
f 501/7/1 502/8/1 503/9/1 504/10/1
f 505/4/1 506/3/1 507/5/1 508/6/1
f 509/4/1 510/3/1 511/5/1 512/6/1
f 513/4/1 514/3/1 515/5/1 516/6/1
f 517/4/1 518/3/1 519/5/1 520/6/1
f 521/4/1 522/3/1 523/5/1 524/6/1
f 525/4/1 526/3/1 527/5/1 528/6/1
f 529/4/1 530/3/1 531/5/1 532/6/1
f 533/4/1 534/3/1 535/5/1 536/6/1
f 537/4/1 538/3/1 539/5/1 540/6/1
f 541/4/1 542/3/1 543/5/1 544/6/1
f 545/4/1 546/3/1 547/5/1 548/6/1
f 549/4/1 550/3/1 551/5/1 552/6/1
f 553/4/1 554/3/1 555/5/1 556/6/1
f 557/4/1 558/3/1 559/5/1 560/6/1
f 561/4/1 562/3/1 563/5/1 564/6/1
f 565/4/1 566/3/1 567/5/1 568/6/1
f 569/4/1 570/3/1 571/5/1 572/6/1
f 573/7/1 574/8/1 575/9/1 576/10/1
f 577/11/1 578/12/1 579/8/1 580/7/1
f 581/11/1 582/12/1 583/8/1 584/7/1
f 585/7/1 586/8/1 587/9/1 588/10/1
f 589/4/1 590/3/1 591/5/1 592/6/1
f 593/7/1 594/8/1 595/9/1 596/10/1
f 597/4/1 598/3/1 599/5/1 600/6/1
f 601/4/1 602/3/1 603/5/1 604/6/1
f 605/4/1 606/3/1 607/5/1 608/6/1
f 609/7/1 610/8/1 611/9/1 612/10/1
f 613/4/1 614/3/1 615/5/1 616/6/1
f 617/4/1 618/3/1 619/5/1 620/6/1
f 621/4/1 622/3/1 623/5/1 624/6/1
f 625/7/1 626/8/1 627/9/1 628/10/1
f 629/4/1 630/3/1 631/5/1 632/6/1
f 633/4/1 634/3/1 635/5/1 636/6/1
f 637/4/1 638/3/1 639/5/1 640/6/1
f 641/7/1 642/8/1 643/9/1 644/10/1
f 645/4/1 646/3/1 647/5/1 648/6/1
f 649/7/1 650/8/1 651/9/1 652/10/1
f 653/11/1 654/12/1 655/8/1 656/7/1
f 657/11/1 658/12/1 659/8/1 660/7/1
f 661/7/1 662/8/1 663/9/1 664/10/1
f 665/11/1 666/12/1 667/8/1 668/7/1
f 669/7/1 670/8/1 671/9/1 672/10/1
f 673/4/1 674/3/1 675/5/1 676/6/1
f 677/7/1 678/8/1 679/9/1 680/10/1
f 681/11/1 682/12/1 683/8/1 684/7/1
f 685/7/1 686/8/1 687/9/1 688/10/1
f 689/4/1 690/3/1 691/5/1 692/6/1
f 693/7/1 694/8/1 695/9/1 696/10/1
f 697/11/1 698/12/1 699/8/1 700/7/1
f 701/7/1 702/8/1 703/9/1 704/10/1
f 705/4/1 706/3/1 707/5/1 708/6/1
f 709/7/1 710/8/1 711/9/1 712/10/1
f 713/11/1 714/12/1 715/8/1 716/7/1
f 717/7/1 718/8/1 719/9/1 720/10/1
f 721/11/1 722/12/1 723/8/1 724/7/1
f 725/11/1 726/12/1 727/8/1 728/7/1
f 729/11/1 730/12/1 731/8/1 732/7/1
f 733/7/1 734/8/1 735/9/1 736/10/1
f 737/11/1 738/12/1 739/8/1 740/7/1
f 741/11/1 742/12/1 743/8/1 744/7/1
f 745/4/1 746/3/1 747/5/1 748/6/1
f 749/11/1 750/12/1 751/8/1 752/7/1
f 753/11/1 754/12/1 755/8/1 756/7/1
f 757/7/1 758/8/1 759/9/1 760/10/1
f 761/11/1 762/12/1 763/8/1 764/7/1
f 765/11/1 766/12/1 767/8/1 768/7/1
f 769/11/1 770/12/1 771/8/1 772/7/1
f 773/7/1 774/8/1 775/9/1 776/10/1
f 777/11/1 778/12/1 779/8/1 780/7/1
f 781/11/1 782/12/1 783/8/1 784/7/1

