# Tiled2Unity generated file. Do not modify by hand.
# Wavefront file for '1_1_Module35_mesh_0002.obj'

# Vertices (Count = 144)
v -368 -48 0
v -376 -48 0
v -376 -40 0
v -368 -40 0
v -376 -48 0
v -384 -48 0
v -384 -40 0
v -376 -40 0
v -384 -48 0
v -392 -48 0
v -392 -40 0
v -384 -40 0
v -80 -136 0
v -88 -136 0
v -88 -128 0
v -80 -128 0
v -88 -136 0
v -96 -136 0
v -96 -128 0
v -88 -128 0
v -96 -136 0
v -104 -136 0
v -104 -128 0
v -96 -128 0
v -104 -136 0
v -112 -136 0
v -112 -128 0
v -104 -128 0
v -112 -144 0
v -120 -144 0
v -120 -136 0
v -112 -136 0
v -112 -152 0
v -120 -152 0
v -120 -144 0
v -112 -144 0
v -376 -152 0
v -384 -152 0
v -384 -144 0
v -376 -144 0
v -384 -152 0
v -392 -152 0
v -392 -144 0
v -384 -144 0
v -392 -152 0
v -400 -152 0
v -400 -144 0
v -392 -144 0
v -400 -152 0
v -408 -152 0
v -408 -144 0
v -400 -144 0
v -112 -160 0
v -120 -160 0
v -120 -152 0
v -112 -152 0
v -368 -160 0
v -376 -160 0
v -376 -152 0
v -368 -152 0
v -112 -168 0
v -120 -168 0
v -120 -160 0
v -112 -160 0
v -368 -168 0
v -376 -168 0
v -376 -160 0
v -368 -160 0
v -112 -176 0
v -120 -176 0
v -120 -168 0
v -112 -168 0
v -368 -176 0
v -376 -176 0
v -376 -168 0
v -368 -168 0
v -112 -184 0
v -120 -184 0
v -120 -176 0
v -112 -176 0
v -368 -184 0
v -376 -184 0
v -376 -176 0
v -368 -176 0
v -112 -192 0
v -120 -192 0
v -120 -184 0
v -112 -184 0
v -368 -192 0
v -376 -192 0
v -376 -184 0
v -368 -184 0
v -112 -200 0
v -120 -200 0
v -120 -192 0
v -112 -192 0
v -368 -200 0
v -376 -200 0
v -376 -192 0
v -368 -192 0
v -168 -208 0
v -176 -208 0
v -176 -200 0
v -168 -200 0
v -176 -208 0
v -184 -208 0
v -184 -200 0
v -176 -200 0
v -184 -208 0
v -192 -208 0
v -192 -200 0
v -184 -200 0
v -192 -208 0
v -200 -208 0
v -200 -200 0
v -192 -200 0
v -200 -208 0
v -208 -208 0
v -208 -200 0
v -200 -200 0
v -272 -208 0
v -280 -208 0
v -280 -200 0
v -272 -200 0
v -280 -208 0
v -288 -208 0
v -288 -200 0
v -280 -200 0
v -288 -208 0
v -296 -208 0
v -296 -200 0
v -288 -200 0
v -296 -208 0
v -304 -208 0
v -304 -200 0
v -296 -200 0
v -304 -208 0
v -312 -208 0
v -312 -200 0
v -304 -200 0
v -312 -208 0
v -320 -208 0
v -320 -200 0
v -312 -200 0

# Texture cooridinates (Count = 4)
vt 1 1
vt 0 1
vt 0 0
vt 1 0

# Normal
vn 0 0 -1

# Mesh description
g 1_1_Module35_mesh_0002

# Faces
f 1/1/1 2/2/1 3/3/1 4/4/1
f 5/1/1 6/2/1 7/3/1 8/4/1
f 9/1/1 10/2/1 11/3/1 12/4/1
f 13/3/1 14/4/1 15/1/1 16/2/1
f 17/3/1 18/4/1 19/1/1 20/2/1
f 21/3/1 22/4/1 23/1/1 24/2/1
f 25/3/1 26/4/1 27/1/1 28/2/1
f 29/4/1 30/1/1 31/2/1 32/3/1
f 33/4/1 34/1/1 35/2/1 36/3/1
f 37/3/1 38/4/1 39/1/1 40/2/1
f 41/3/1 42/4/1 43/1/1 44/2/1
f 45/3/1 46/4/1 47/1/1 48/2/1
f 49/3/1 50/4/1 51/1/1 52/2/1
f 53/4/1 54/1/1 55/2/1 56/3/1
f 57/2/1 58/3/1 59/4/1 60/1/1
f 61/4/1 62/1/1 63/2/1 64/3/1
f 65/2/1 66/3/1 67/4/1 68/1/1
f 69/4/1 70/1/1 71/2/1 72/3/1
f 73/2/1 74/3/1 75/4/1 76/1/1
f 77/4/1 78/1/1 79/2/1 80/3/1
f 81/2/1 82/3/1 83/4/1 84/1/1
f 85/4/1 86/1/1 87/2/1 88/3/1
f 89/2/1 90/3/1 91/4/1 92/1/1
f 93/4/1 94/1/1 95/2/1 96/3/1
f 97/2/1 98/3/1 99/4/1 100/1/1
f 101/3/1 102/4/1 103/1/1 104/2/1
f 105/3/1 106/4/1 107/1/1 108/2/1
f 109/3/1 110/4/1 111/1/1 112/2/1
f 113/3/1 114/4/1 115/1/1 116/2/1
f 117/3/1 118/4/1 119/1/1 120/2/1
f 121/3/1 122/4/1 123/1/1 124/2/1
f 125/3/1 126/4/1 127/1/1 128/2/1
f 129/3/1 130/4/1 131/1/1 132/2/1
f 133/3/1 134/4/1 135/1/1 136/2/1
f 137/3/1 138/4/1 139/1/1 140/2/1
f 141/3/1 142/4/1 143/1/1 144/2/1

