# Tiled2Unity generated file. Do not modify by hand.
# Wavefront file for '1_1_TestTest_mesh_0003.obj'

# Vertices (Count = 36)
v -192 -24 0
v -200 -24 0
v -200 -16 0
v -192 -16 0
v -144 -32 0
v -152 -32 0
v -152 -24 0
v -144 -24 0
v -152 -32 0
v -160 -32 0
v -160 -24 0
v -152 -24 0
v -192 -32 0
v -200 -32 0
v -200 -24 0
v -192 -24 0
v -136 -40 0
v -144 -40 0
v -144 -32 0
v -136 -32 0
v -144 -40 0
v -152 -40 0
v -152 -32 0
v -144 -32 0
v -152 -40 0
v -160 -40 0
v -160 -32 0
v -152 -32 0
v -144 -56 0
v -152 -56 0
v -152 -48 0
v -144 -48 0
v -152 -56 0
v -160 -56 0
v -160 -48 0
v -152 -48 0

# Texture cooridinates (Count = 4)
vt 0.3333333 0.3333333
vt 0.6666667 0.3333333
vt 0.6666667 0.6666666
vt 0.3333333 0.6666666

# Normal
vn 0 0 -1

# Mesh description
g 1_1_TestTest_mesh_0003

# Faces
f 1/1/1 2/2/1 3/3/1 4/4/1
f 5/1/1 6/2/1 7/3/1 8/4/1
f 9/1/1 10/2/1 11/3/1 12/4/1
f 13/1/1 14/2/1 15/3/1 16/4/1
f 17/1/1 18/2/1 19/3/1 20/4/1
f 21/1/1 22/2/1 23/3/1 24/4/1
f 25/1/1 26/2/1 27/3/1 28/4/1
f 29/1/1 30/2/1 31/3/1 32/4/1
f 33/1/1 34/2/1 35/3/1 36/4/1

