# Tiled2Unity generated file. Do not modify by hand.
# Wavefront file for '1_3_27b_mesh_0003.obj'

# Vertices (Count = 148)
v -208 -248 0
v -216 -248 0
v -216 -240 0
v -208 -240 0
v -216 -248 0
v -224 -248 0
v -224 -240 0
v -216 -240 0
v -224 -248 0
v -232 -248 0
v -232 -240 0
v -224 -240 0
v -232 -248 0
v -240 -248 0
v -240 -240 0
v -232 -240 0
v -240 -248 0
v -248 -248 0
v -248 -240 0
v -240 -240 0
v -248 -248 0
v -256 -248 0
v -256 -240 0
v -248 -240 0
v -256 -248 0
v -264 -248 0
v -264 -240 0
v -256 -240 0
v -128 -272 0
v -136 -272 0
v -136 -264 0
v -128 -264 0
v -136 -272 0
v -144 -272 0
v -144 -264 0
v -136 -264 0
v -336 -272 0
v -344 -272 0
v -344 -264 0
v -336 -264 0
v -120 -280 0
v -128 -280 0
v -128 -272 0
v -120 -272 0
v -128 -280 0
v -136 -280 0
v -136 -272 0
v -128 -272 0
v -336 -280 0
v -344 -280 0
v -344 -272 0
v -336 -272 0
v -344 -280 0
v -352 -280 0
v -352 -272 0
v -344 -272 0
v -112 -288 0
v -120 -288 0
v -120 -280 0
v -112 -280 0
v -120 -288 0
v -128 -288 0
v -128 -280 0
v -120 -280 0
v -344 -288 0
v -352 -288 0
v -352 -280 0
v -344 -280 0
v -352 -288 0
v -360 -288 0
v -360 -280 0
v -352 -280 0
v -352 -296 0
v -360 -296 0
v -360 -288 0
v -352 -288 0
v -208 -472 0
v -216 -472 0
v -216 -464 0
v -208 -464 0
v -216 -472 0
v -224 -472 0
v -224 -464 0
v -216 -464 0
v -224 -472 0
v -232 -472 0
v -232 -464 0
v -224 -464 0
v -232 -472 0
v -240 -472 0
v -240 -464 0
v -232 -464 0
v -240 -472 0
v -248 -472 0
v -248 -464 0
v -240 -464 0
v -248 -472 0
v -256 -472 0
v -256 -464 0
v -248 -464 0
v -256 -472 0
v -264 -472 0
v -264 -464 0
v -256 -464 0
v -264 -472 0
v -272 -472 0
v -272 -464 0
v -264 -464 0
v -216 -480 0
v -224 -480 0
v -224 -472 0
v -216 -472 0
v -224 -480 0
v -232 -480 0
v -232 -472 0
v -224 -472 0
v -232 -480 0
v -240 -480 0
v -240 -472 0
v -232 -472 0
v -240 -480 0
v -248 -480 0
v -248 -472 0
v -240 -472 0
v -248 -480 0
v -256 -480 0
v -256 -472 0
v -248 -472 0
v -256 -480 0
v -264 -480 0
v -264 -472 0
v -256 -472 0
v -224 -488 0
v -232 -488 0
v -232 -480 0
v -224 -480 0
v -232 -488 0
v -240 -488 0
v -240 -480 0
v -232 -480 0
v -240 -488 0
v -248 -488 0
v -248 -480 0
v -240 -480 0
v -248 -488 0
v -256 -488 0
v -256 -480 0
v -248 -480 0

# Texture cooridinates (Count = 38)
vt 0.625 0.875
vt 0.75 0.875
vt 0.75 1
vt 0.625 1
vt 0 0.625
vt 0.125 0.625
vt 0.125 0.75
vt 0 0.75
vt 0.25 0.625
vt 0.25 0.75
vt 0.375 0.625
vt 0.375 0.75
vt 0.5 0.625
vt 0.5 0.75
vt 0.5 0.875
vt 0.5 1
vt 0.625 0.5
vt 0.75 0.5
vt 0.75 0.625
vt 0.625 0.625
vt 0.875 0.875
vt 0.875 1
vt 0.5 0.5
vt 0.625 0.75
vt 0 0.875
vt 0.125 0.875
vt 0.125 1
vt 0 1
vt 0.25 0.875
vt 0.25 1
vt 0.375 0.875
vt 0.375 1
vt 0.875 0.625
vt 1 0.625
vt 1 0.75
vt 0.875 0.75
vt 0.875 0.5
vt 1 0.5

# Normal
vn 0 0 -1

# Mesh description
g 1_3_27b_mesh_0003

# Faces
f 1/1/1 2/2/1 3/3/1 4/4/1
f 5/5/1 6/6/1 7/7/1 8/8/1
f 9/6/1 10/9/1 11/10/1 12/7/1
f 13/9/1 14/11/1 15/12/1 16/10/1
f 17/11/1 18/13/1 19/14/1 20/12/1
f 21/11/1 22/13/1 23/14/1 24/12/1
f 25/15/1 26/1/1 27/4/1 28/16/1
f 29/1/1 30/2/1 31/3/1 32/4/1
f 33/17/1 34/18/1 35/19/1 36/20/1
f 37/2/1 38/21/1 39/22/1 40/3/1
f 41/1/1 42/2/1 43/3/1 44/4/1
f 45/17/1 46/18/1 47/19/1 48/20/1
f 49/23/1 50/17/1 51/20/1 52/13/1
f 53/2/1 54/21/1 55/22/1 56/3/1
f 57/1/1 58/2/1 59/3/1 60/4/1
f 61/17/1 62/18/1 63/19/1 64/20/1
f 65/23/1 66/17/1 67/20/1 68/13/1
f 69/2/1 70/21/1 71/22/1 72/3/1
f 73/23/1 74/17/1 75/20/1 76/13/1
f 77/23/1 78/17/1 79/20/1 80/13/1
f 81/13/1 82/20/1 83/24/1 84/14/1
f 85/25/1 86/26/1 87/27/1 88/28/1
f 89/26/1 90/29/1 91/30/1 92/27/1
f 93/29/1 94/31/1 95/32/1 96/30/1
f 97/31/1 98/15/1 99/16/1 100/32/1
f 101/33/1 102/34/1 103/35/1 104/36/1
f 105/37/1 106/38/1 107/34/1 108/33/1
f 109/23/1 110/17/1 111/20/1 112/13/1
f 113/13/1 114/20/1 115/24/1 116/14/1
f 117/8/1 118/7/1 119/26/1 120/25/1
f 121/8/1 122/7/1 123/26/1 124/25/1
f 125/33/1 126/34/1 127/35/1 128/36/1
f 129/37/1 130/38/1 131/34/1 132/33/1
f 133/23/1 134/17/1 135/20/1 136/13/1
f 137/13/1 138/20/1 139/24/1 140/14/1
f 141/33/1 142/34/1 143/35/1 144/36/1
f 145/37/1 146/38/1 147/34/1 148/33/1

