# Tiled2Unity generated file. Do not modify by hand.
# Wavefront file for '1_1_Module1_mesh_0001.obj'

# Vertices (Count = 84)
v -80 -16 0
v -88 -16 0
v -88 -8 0
v -80 -8 0
v -240 -16 0
v -248 -16 0
v -248 -8 0
v -240 -8 0
v -400 -16 0
v -408 -16 0
v -408 -8 0
v -400 -8 0
v -80 -24 0
v -88 -24 0
v -88 -16 0
v -80 -16 0
v -240 -24 0
v -248 -24 0
v -248 -16 0
v -240 -16 0
v -400 -24 0
v -408 -24 0
v -408 -16 0
v -400 -16 0
v -80 -32 0
v -88 -32 0
v -88 -24 0
v -80 -24 0
v -240 -32 0
v -248 -32 0
v -248 -24 0
v -240 -24 0
v -400 -32 0
v -408 -32 0
v -408 -24 0
v -400 -24 0
v -80 -40 0
v -88 -40 0
v -88 -32 0
v -80 -32 0
v -240 -40 0
v -248 -40 0
v -248 -32 0
v -240 -32 0
v -400 -40 0
v -408 -40 0
v -408 -32 0
v -400 -32 0
v -80 -48 0
v -88 -48 0
v -88 -40 0
v -80 -40 0
v -240 -48 0
v -248 -48 0
v -248 -40 0
v -240 -40 0
v -400 -48 0
v -408 -48 0
v -408 -40 0
v -400 -40 0
v -80 -56 0
v -88 -56 0
v -88 -48 0
v -80 -48 0
v -240 -56 0
v -248 -56 0
v -248 -48 0
v -240 -48 0
v -80 -64 0
v -88 -64 0
v -88 -56 0
v -80 -56 0
v -240 -64 0
v -248 -64 0
v -248 -56 0
v -240 -56 0
v -80 -72 0
v -88 -72 0
v -88 -64 0
v -80 -64 0
v -80 -80 0
v -88 -80 0
v -88 -72 0
v -80 -72 0

# Texture cooridinates (Count = 8)
vt 0.3333333 0.6666666
vt 0.6666667 0.6666666
vt 0.6666667 1
vt 0.3333333 1
vt 0 0
vt 0.3333333 0
vt 0.3333333 0.3333333
vt 0 0.3333333

# Normal
vn 0 0 -1

# Mesh description
g 1_1_Module1_mesh_0001

# Faces
f 1/1/1 2/2/1 3/3/1 4/4/1
f 5/1/1 6/2/1 7/3/1 8/4/1
f 9/1/1 10/2/1 11/3/1 12/4/1
f 13/1/1 14/2/1 15/3/1 16/4/1
f 17/1/1 18/2/1 19/3/1 20/4/1
f 21/1/1 22/2/1 23/3/1 24/4/1
f 25/1/1 26/2/1 27/3/1 28/4/1
f 29/1/1 30/2/1 31/3/1 32/4/1
f 33/1/1 34/2/1 35/3/1 36/4/1
f 37/1/1 38/2/1 39/3/1 40/4/1
f 41/1/1 42/2/1 43/3/1 44/4/1
f 45/1/1 46/2/1 47/3/1 48/4/1
f 49/1/1 50/2/1 51/3/1 52/4/1
f 53/1/1 54/2/1 55/3/1 56/4/1
f 57/5/1 58/6/1 59/7/1 60/8/1
f 61/1/1 62/2/1 63/3/1 64/4/1
f 65/1/1 66/2/1 67/3/1 68/4/1
f 69/1/1 70/2/1 71/3/1 72/4/1
f 73/5/1 74/6/1 75/7/1 76/8/1
f 77/1/1 78/2/1 79/3/1 80/4/1
f 81/5/1 82/6/1 83/7/1 84/8/1

