# Tiled2Unity generated file. Do not modify by hand.
# Wavefront file for '1_1_Module53_mesh_0001.obj'

# Vertices (Count = 132)
v -64 -16 0
v -72 -16 0
v -72 -8 0
v -64 -8 0
v -200 -16 0
v -208 -16 0
v -208 -8 0
v -200 -8 0
v -336 -16 0
v -344 -16 0
v -344 -8 0
v -336 -8 0
v -424 -16 0
v -432 -16 0
v -432 -8 0
v -424 -8 0
v -64 -24 0
v -72 -24 0
v -72 -16 0
v -64 -16 0
v -200 -24 0
v -208 -24 0
v -208 -16 0
v -200 -16 0
v -336 -24 0
v -344 -24 0
v -344 -16 0
v -336 -16 0
v -424 -24 0
v -432 -24 0
v -432 -16 0
v -424 -16 0
v -64 -32 0
v -72 -32 0
v -72 -24 0
v -64 -24 0
v -336 -32 0
v -344 -32 0
v -344 -24 0
v -336 -24 0
v -416 -32 0
v -424 -32 0
v -424 -24 0
v -416 -24 0
v -424 -32 0
v -432 -32 0
v -432 -24 0
v -424 -24 0
v -368 -176 0
v -376 -176 0
v -376 -168 0
v -368 -168 0
v -376 -176 0
v -384 -176 0
v -384 -168 0
v -376 -168 0
v -384 -176 0
v -392 -176 0
v -392 -168 0
v -384 -168 0
v -288 -192 0
v -296 -192 0
v -296 -184 0
v -288 -184 0
v -296 -192 0
v -304 -192 0
v -304 -184 0
v -296 -184 0
v -304 -192 0
v -312 -192 0
v -312 -184 0
v -304 -184 0
v -312 -192 0
v -320 -192 0
v -320 -184 0
v -312 -184 0
v -320 -192 0
v -328 -192 0
v -328 -184 0
v -320 -184 0
v -328 -192 0
v -336 -192 0
v -336 -184 0
v -328 -184 0
v -232 -208 0
v -240 -208 0
v -240 -200 0
v -232 -200 0
v -240 -208 0
v -248 -208 0
v -248 -200 0
v -240 -200 0
v -248 -208 0
v -256 -208 0
v -256 -200 0
v -248 -200 0
v -256 -208 0
v -264 -208 0
v -264 -200 0
v -256 -200 0
v -264 -208 0
v -272 -208 0
v -272 -200 0
v -264 -200 0
v -272 -208 0
v -280 -208 0
v -280 -200 0
v -272 -200 0
v -176 -224 0
v -184 -224 0
v -184 -216 0
v -176 -216 0
v -184 -224 0
v -192 -224 0
v -192 -216 0
v -184 -216 0
v -192 -224 0
v -200 -224 0
v -200 -216 0
v -192 -216 0
v -200 -224 0
v -208 -224 0
v -208 -216 0
v -200 -216 0
v -208 -224 0
v -216 -224 0
v -216 -216 0
v -208 -216 0
v -216 -224 0
v -224 -224 0
v -224 -216 0
v -216 -216 0

# Texture cooridinates (Count = 4)
vt 1 1
vt 1 0
vt 0 0
vt 0 1

# Normal
vn 0 0 -1

# Mesh description
g 1_1_Module53_mesh_0001

# Faces
f 1/1/1 2/2/1 3/3/1 4/4/1
f 5/1/1 6/2/1 7/3/1 8/4/1
f 9/1/1 10/2/1 11/3/1 12/4/1
f 13/2/1 14/1/1 15/4/1 16/3/1
f 17/1/1 18/2/1 19/3/1 20/4/1
f 21/1/1 22/2/1 23/3/1 24/4/1
f 25/1/1 26/2/1 27/3/1 28/4/1
f 29/2/1 30/1/1 31/4/1 32/3/1
f 33/1/1 34/2/1 35/3/1 36/4/1
f 37/1/1 38/2/1 39/3/1 40/4/1
f 41/2/1 42/1/1 43/4/1 44/3/1
f 45/2/1 46/1/1 47/4/1 48/3/1
f 49/3/1 50/2/1 51/1/1 52/4/1
f 53/3/1 54/2/1 55/1/1 56/4/1
f 57/3/1 58/2/1 59/1/1 60/4/1
f 61/3/1 62/2/1 63/1/1 64/4/1
f 65/3/1 66/2/1 67/1/1 68/4/1
f 69/3/1 70/2/1 71/1/1 72/4/1
f 73/3/1 74/2/1 75/1/1 76/4/1
f 77/3/1 78/2/1 79/1/1 80/4/1
f 81/3/1 82/2/1 83/1/1 84/4/1
f 85/3/1 86/2/1 87/1/1 88/4/1
f 89/3/1 90/2/1 91/1/1 92/4/1
f 93/3/1 94/2/1 95/1/1 96/4/1
f 97/3/1 98/2/1 99/1/1 100/4/1
f 101/3/1 102/2/1 103/1/1 104/4/1
f 105/3/1 106/2/1 107/1/1 108/4/1
f 109/3/1 110/2/1 111/1/1 112/4/1
f 113/3/1 114/2/1 115/1/1 116/4/1
f 117/3/1 118/2/1 119/1/1 120/4/1
f 121/3/1 122/2/1 123/1/1 124/4/1
f 125/3/1 126/2/1 127/1/1 128/4/1
f 129/3/1 130/2/1 131/1/1 132/4/1

